# Blender v2.79 (sub 0) OBJ File: ''
# www.blender.org
o leg09
v 0.290294 -0.292117 0.638251
v 0.290294 -0.288516 0.714515
v 0.290294 -0.260815 0.638251
v 0.290294 -0.257214 0.714515
v 0.290294 -0.264416 0.561987
v 0.290294 -0.319817 0.714515
v 0.336052 -0.319817 0.714515
v 0.313173 -0.264416 0.561987
v 0.290294 -0.267936 0.465704
v 0.301734 -0.285498 -0.014757
v 0.301734 -0.302657 -0.014757
v 0.300303 -0.287592 0.045301
v 0.301734 -0.319817 -0.014757
v 0.300303 -0.304751 0.045301
v 0.296013 -0.293876 0.225474
v 0.298874 -0.289687 0.105359
v 0.296013 -0.276717 0.225474
v 0.336052 -0.285498 -0.014757
v 0.318892 -0.319817 0.349880
v 0.336052 -0.319817 0.532197
v 0.318892 -0.319817 0.167562
v 0.336052 -0.319817 -0.014757
v 0.336052 -0.319817 0.349880
v 0.336052 -0.292117 0.638251
v 0.296013 -0.319817 0.225474
v 0.296013 -0.274957 0.273616
v 0.318892 -0.274957 0.273616
v 0.336052 -0.264416 0.561987
v 0.336052 -0.292117 0.273616
v 0.336052 -0.257214 0.714515
v 0.293154 -0.280907 0.345589
v 0.290294 -0.293876 0.465704
v 0.290294 -0.319817 0.465704
vn -1.0000 0.0000 0.0000
vn 0.0000 0.0000 1.0000
vn 0.0000 0.9989 -0.0472
vn -0.9997 -0.0000 -0.0238
vn -0.9997 0.0001 -0.0238
vn -0.9997 -0.0001 -0.0238
vn -0.9997 -0.0002 -0.0238
vn 0.0000 0.0000 -1.0000
vn -0.0000 -1.0000 -0.0000
vn 1.0000 0.0000 0.0000
vn 0.0000 0.9993 -0.0365
vn -0.0003 0.9993 -0.0365
vn -0.9997 0.0002 -0.0238
s off
f 1//1 2//1 3//1
f 4//1 3//1 2//1
f 5//1 1//1 3//1
f 6//1 2//1 1//1
f 7//2 4//2 2//2
f 7//2 2//2 6//2
f 8//3 3//3 4//3
f 9//1 1//1 5//1
f 10//4 11//4 12//4
f 13//4 14//4 11//4
f 15//5 16//5 14//5
f 15//6 14//6 13//6
f 17//7 12//7 16//7
f 18//8 11//8 10//8
f 7//9 19//9 20//9
f 13//9 21//9 19//9
f 22//9 23//9 21//9
f 22//9 21//9 13//9
f 24//10 20//10 23//10
f 25//9 19//9 7//9
f 10//11 26//11 27//11
f 5//11 8//11 26//11
f 4//3 28//3 8//3
f 9//1 6//1 1//1
f 18//11 27//11 28//11
f 17//12 26//12 10//12
f 28//11 27//11 8//11
f 22//10 29//10 23//10
f 28//10 24//10 29//10
f 30//10 7//10 24//10
f 30//10 24//10 28//10
f 18//10 29//10 22//10
f 19//9 21//9 20//9
f 9//6 17//6 31//6
f 18//8 13//8 11//8
f 17//13 10//13 12//13
f 32//4 31//4 15//4
f 5//12 17//12 9//12
f 13//4 25//4 15//4
f 7//9 33//9 25//9
f 6//1 32//1 33//1
f 29//10 24//10 23//10
f 25//9 13//9 19//9
f 15//4 25//4 32//4
f 23//9 20//9 21//9
f 33//4 32//4 25//4
f 26//11 8//11 27//11
f 8//3 5//3 3//3
f 7//2 30//2 4//2
f 24//10 7//10 20//10
f 4//3 30//3 28//3
f 18//11 10//11 27//11
f 32//4 9//4 31//4
f 7//9 6//9 33//9
f 6//1 9//1 32//1
f 18//10 28//10 29//10
f 18//8 22//8 13//8
f 17//12 5//12 26//12
f 15//5 31//5 16//5
f 17//6 16//6 31//6
f 16//4 12//4 14//4
f 11//4 14//4 12//4
