# Blender v2.79 (sub 0) OBJ File: ''
# www.blender.org
o BarRight
v -0.249411 0.174199 0.491025
v -0.249411 0.210472 0.491025
v -0.213138 0.174199 0.491025
v -0.213138 0.210472 0.491025
v -0.213138 0.229361 1.044190
v -0.247985 0.238042 1.131220
v -0.249411 0.237329 1.124080
v -0.213138 0.239188 1.142730
v -0.243922 0.238644 1.137270
v -0.230671 0.239188 1.142730
v -0.237841 0.239046 1.141310
v -0.249411 0.229361 1.044190
v -0.249411 0.273297 1.120310
v -0.249411 0.265698 1.044190
v -0.243922 0.274615 1.133490
v -0.237841 0.275017 1.137530
v -0.230671 0.275159 1.138950
v -0.247985 0.274011 1.127440
v -0.213138 0.265698 1.044190
v -0.213138 0.275159 1.138950
vn 0.0000 0.0000 -1.0000
vn 0.0002 -0.9951 0.0993
vn -0.0001 -0.9951 0.0992
vn 0.0000 -0.9951 0.0990
vn 0.0000 -0.9951 0.0991
vn 0.0001 -0.9951 0.0988
vn 0.0000 -0.9951 0.0992
vn -1.0000 0.0000 0.0000
vn -0.0001 0.9951 -0.0988
vn 0.0001 0.9951 -0.0994
vn 0.0000 0.9951 -0.0994
vn -0.0015 0.9951 -0.0993
vn 0.0000 0.9951 -0.0993
vn 0.0000 0.1045 0.9945
vn -0.9808 0.0203 0.1939
vn -0.9808 0.0204 0.1941
vn -0.8314 0.0581 0.5526
vn -0.5552 0.0869 0.8271
vn -0.5553 0.0869 0.8271
vn -0.1952 0.1025 0.9754
vn 1.0000 0.0000 0.0000
s off
f 1//1 2//1 3//1
f 4//1 3//1 2//1
f 5//2 6//2 7//2
f 8//3 6//3 5//3
f 9//4 6//4 8//4
f 10//5 9//5 8//5
f 11//6 9//6 10//6
f 12//7 5//7 7//7
f 7//8 13//8 12//8
f 14//8 12//8 13//8
f 15//9 16//9 17//9
f 14//10 15//10 17//10
f 18//11 15//11 14//11
f 13//12 18//12 14//12
f 19//13 14//13 17//13
f 20//13 19//13 17//13
f 17//14 10//14 20//14
f 8//14 20//14 10//14
f 7//15 6//15 13//15
f 18//16 13//16 6//16
f 6//17 9//17 18//17
f 15//17 18//17 9//17
f 9//18 11//18 15//18
f 16//19 15//19 11//19
f 11//20 10//20 16//20
f 17//20 16//20 10//20
f 3//21 4//21 5//21
f 19//21 5//21 4//21
f 8//21 5//21 20//21
f 19//21 20//21 5//21
f 12//7 1//7 5//7
f 3//7 5//7 1//7
f 1//8 12//8 2//8
f 14//8 2//8 12//8
f 14//13 19//13 2//13
f 4//13 2//13 19//13
o BarLeft
v 0.219115 0.174199 0.491025
v 0.219115 0.210472 0.491025
v 0.255388 0.174199 0.491025
v 0.255388 0.210472 0.491025
v 0.255388 0.237329 1.124080
v 0.255388 0.229361 1.044190
v 0.255388 0.273297 1.120310
v 0.255388 0.265698 1.044190
v 0.236647 0.239188 1.142730
v 0.219115 0.239188 1.142730
v 0.249899 0.238644 1.137270
v 0.243820 0.239046 1.141310
v 0.253962 0.238042 1.131220
v 0.219115 0.229361 1.044190
v 0.253962 0.274011 1.127440
v 0.243820 0.275017 1.137530
v 0.249899 0.274615 1.133490
v 0.219115 0.275159 1.138950
v 0.236647 0.275159 1.138950
v 0.219115 0.265698 1.044190
vn 0.0000 0.0000 -1.0000
vn 1.0000 0.0000 0.0000
vn 0.0000 -0.9951 0.0992
vn -0.0001 -0.9951 0.0988
vn 0.0001 -0.9951 0.0992
vn 0.0007 -0.9950 0.0995
vn 0.0015 0.9951 -0.0993
vn -0.0002 0.9951 -0.0994
vn -0.0004 0.9950 -0.0996
vn 0.0000 0.9951 -0.0993
vn 0.0000 0.9950 -0.0995
vn 0.0000 0.1045 0.9945
vn 0.1951 0.1025 0.9754
vn 0.5554 0.0869 0.8270
vn 0.5554 0.0869 0.8271
vn 0.8314 0.0581 0.5526
vn 0.9808 0.0204 0.1939
vn 0.9808 0.0203 0.1941
vn -1.0000 0.0000 0.0000
s off
f 21//22 22//22 23//22
f 24//22 23//22 22//22
f 25//23 26//23 27//23
f 28//23 27//23 26//23
f 26//24 29//24 30//24
f 31//24 29//24 26//24
f 32//25 29//25 31//25
f 25//26 31//26 26//26
f 33//27 31//27 25//27
f 34//24 26//24 30//24
f 35//28 27//28 28//28
f 36//29 35//29 28//29
f 37//30 35//30 36//30
f 38//31 36//31 28//31
f 39//32 36//32 38//32
f 40//31 38//31 28//31
f 38//33 30//33 39//33
f 29//33 39//33 30//33
f 39//34 29//34 36//34
f 32//34 36//34 29//34
f 32//35 31//35 36//35
f 37//36 36//36 31//36
f 31//37 33//37 37//37
f 35//37 37//37 33//37
f 33//38 25//38 35//38
f 27//39 35//39 25//39
f 23//23 24//23 26//23
f 28//23 26//23 24//23
f 34//24 21//24 26//24
f 23//24 26//24 21//24
f 21//40 34//40 22//40
f 40//40 22//40 34//40
f 30//40 38//40 34//40
f 40//40 34//40 38//40
f 40//31 28//31 22//31
f 24//31 22//31 28//31
o Back
v 0.208215 0.124051 0.876621
v 0.206997 0.124580 0.819919
v 0.289226 0.130178 0.877004
v 0.284359 0.127377 0.823574
v 0.301398 0.145435 0.874526
v 0.289226 0.140535 0.818356
v 0.208215 0.138978 0.808684
v 0.208215 0.195685 0.803125
v 0.206997 0.211987 0.811350
v 0.289226 0.196036 0.812913
v 0.284359 0.209955 0.815480
v 0.289226 0.217585 0.868432
v 0.301398 0.202141 0.868964
v 0.208215 0.223521 0.866869
v 0.289226 0.244808 1.146060
v 0.208215 0.250935 1.146450
v 0.284359 0.247610 1.199500
v 0.206997 0.250402 1.203140
v 0.301398 0.229552 1.148540
v 0.289226 0.234451 1.204710
v 0.208215 0.236008 1.214380
v 0.289226 0.178951 1.210160
v 0.284359 0.165029 1.207590
v 0.301398 0.172845 1.154100
v 0.289226 0.157402 1.154640
v 0.206997 0.162997 1.211720
v 0.208215 0.151465 1.156200
v 0.208215 0.179301 1.219940
v -0.206446 0.124051 0.876621
v -0.287457 0.130178 0.877004
v -0.205228 0.124580 0.819919
v -0.282590 0.127377 0.823574
v -0.287457 0.140535 0.818356
v -0.206446 0.138978 0.808684
v -0.299629 0.145435 0.874526
v -0.206446 0.195685 0.803125
v -0.287457 0.196036 0.812913
v -0.205228 0.211987 0.811350
v -0.282590 0.209955 0.815480
v -0.287457 0.217585 0.868432
v -0.206446 0.223521 0.866869
v -0.299629 0.202141 0.868964
v -0.205228 0.250402 1.203140
v -0.206446 0.250935 1.146450
v -0.282590 0.247610 1.199500
v -0.287457 0.244808 1.146060
v -0.206446 0.236008 1.214380
v -0.287457 0.234451 1.204710
v -0.299629 0.229552 1.148540
v -0.206446 0.179301 1.219940
v -0.287457 0.178951 1.210160
v -0.205228 0.162997 1.211720
v -0.282590 0.165029 1.207590
v -0.287457 0.157402 1.154640
v -0.206446 0.151465 1.156200
v -0.299629 0.172845 1.154100
v 0.305454 0.201231 1.151650
v 0.305454 0.216046 1.008730
v 0.310325 0.187494 1.011530
v 0.305454 0.173755 0.871422
v 0.305454 0.158937 1.014330
v -0.206851 0.135747 1.016610
v 0.000884 0.133334 1.016840
v 0.000884 0.122008 0.876494
v 0.000884 0.149485 1.156720
v 0.208620 0.135747 1.016610
v 0.290849 0.142986 1.015900
v 0.000884 0.166630 0.798769
v -0.206851 0.167014 0.802662
v 0.000884 0.195567 0.799861
v 0.000884 0.138458 0.805462
v 0.208620 0.167014 0.802662
v 0.000884 0.123649 0.818701
v 0.290849 0.168157 0.814337
v 0.000884 0.241652 1.006220
v -0.206851 0.239239 1.006460
v 0.000884 0.252978 1.146570
v 0.000884 0.225502 0.866346
v 0.208620 0.239239 1.006460
v 0.000884 0.212664 0.809975
v 0.290849 0.232001 1.007170
v 0.000884 0.179419 1.223200
v -0.206851 0.207972 1.220400
v 0.000884 0.208353 1.224290
v 0.000884 0.236528 1.217600
v 0.208620 0.207972 1.220400
v 0.000884 0.162320 1.213100
v 0.000884 0.251337 1.204370
v 0.290849 0.206827 1.208730
v -0.303686 0.158937 1.014330
v -0.303686 0.173755 0.871422
v -0.308556 0.187494 1.011530
v -0.303686 0.216046 1.008730
v -0.303686 0.201231 1.151650
v -0.289080 0.142986 1.015900
v -0.289080 0.168157 0.814337
v -0.289080 0.232001 1.007170
v -0.289080 0.206827 1.208730
vn 0.0755 -0.9971 -0.0109
vn 0.0338 -0.9982 0.0493
vn 0.7679 -0.6308 -0.1114
vn 0.9272 -0.3688 -0.0651
vn 0.0594 -0.6172 -0.7845
vn 0.1161 -0.4030 -0.9078
vn 0.1049 0.4542 -0.8847
vn 0.0575 0.2005 -0.9780
vn 0.9272 0.3492 -0.1355
vn 0.7679 0.5972 -0.2318
vn 0.0337 0.9888 -0.1456
vn 0.0755 0.9760 -0.2044
vn 0.0751 0.9961 -0.0454
vn 0.0365 0.9993 0.0102
vn 0.7679 0.6308 0.1114
vn 0.9273 0.3687 0.0651
vn 0.0592 0.6175 0.7843
vn 0.1161 0.4025 0.9080
vn 0.9032 -0.3592 0.2352
vn 0.7781 -0.6077 0.1591
vn 0.0337 -0.9888 0.1455
vn 0.0755 -0.9760 0.2044
vn 0.0594 -0.4529 0.8896
vn 0.1160 -0.2194 0.9687
vn -0.0755 -0.9971 -0.0109
vn -0.0338 -0.9982 0.0493
vn -0.1161 -0.4030 -0.9078
vn -0.0594 -0.6172 -0.7845
vn -0.7781 -0.6270 -0.0380
vn -0.9032 -0.3979 -0.1610
vn -0.1049 0.4542 -0.8847
vn -0.0575 0.2005 -0.9780
vn -0.0337 0.9888 -0.1456
vn -0.0755 0.9760 -0.2044
vn -0.9272 0.3492 -0.1355
vn -0.7679 0.5972 -0.2318
vn -0.0365 0.9993 0.0102
vn -0.0751 0.9961 -0.0454
vn -0.1049 0.6176 0.7795
vn -0.0572 0.3858 0.9208
vn -0.7679 0.6308 0.1114
vn -0.9273 0.3687 0.0651
vn -0.1049 -0.4539 0.8848
vn -0.0575 -0.2006 0.9780
vn -0.0751 -0.9860 0.1489
vn -0.0366 -0.9783 0.2040
vn -0.7781 -0.6077 0.1591
vn -0.9032 -0.3592 0.2352
vn 0.9896 0.1434 0.0149
vn 0.9853 0.1698 0.0176
vn 0.9894 0.1372 -0.0479
vn 0.9855 0.1637 -0.0449
vn 0.9855 -0.1693 -0.0122
vn 0.9894 -0.1439 -0.0203
vn 0.9896 -0.1377 0.0424
vn 0.9853 -0.1631 0.0502
vn -0.0117 -0.9965 0.0832
vn -0.0098 -0.9967 0.0804
vn -0.0117 -0.9936 0.1119
vn -0.0098 -0.9934 0.1147
vn 0.0098 -0.9934 0.1147
vn 0.0117 -0.9936 0.1119
vn 0.0117 -0.9967 0.0804
vn 0.0098 -0.9965 0.0832
vn 0.7390 -0.6680 0.0879
vn 0.7845 -0.6158 0.0732
vn 0.7846 -0.6182 0.0478
vn 0.7390 -0.6723 0.0435
vn 0.0748 -0.9938 0.0828
vn 0.0881 -0.9920 0.0904
vn 0.0881 -0.9907 0.1040
vn 0.0748 -0.9909 0.1118
vn -0.0187 0.0377 -0.9991
vn -0.0157 0.0164 -0.9997
vn -0.0187 -0.2102 -0.9775
vn -0.0157 -0.2311 -0.9728
vn 0.0187 -0.2102 -0.9775
vn 0.0157 -0.2311 -0.9728
vn 0.0157 0.0377 -0.9992
vn 0.0187 0.0164 -0.9997
vn -0.0047 -0.9996 -0.0284
vn -0.0099 -0.9999 -0.0095
vn 0.0046 -0.9999 -0.0094
vn 0.0099 -0.9995 -0.0284
vn 0.0074 -0.6665 -0.7455
vn 0.0138 -0.6159 -0.7877
vn -0.0074 -0.6665 -0.7455
vn -0.0138 -0.6159 -0.7877
vn 0.9596 -0.1626 -0.2296
vn 0.9752 -0.0869 -0.2037
vn 0.9675 0.1189 -0.2231
vn 0.9668 0.0434 -0.2516
vn 0.1199 0.0177 -0.9926
vn 0.1410 -0.0423 -0.9891
vn 0.1199 -0.2101 -0.9703
vn 0.1410 -0.1507 -0.9785
vn -0.0117 0.9967 -0.0804
vn -0.0098 0.9965 -0.0832
vn -0.0117 0.9933 -0.1147
vn -0.0098 0.9937 -0.1119
vn 0.0117 0.9936 -0.1119
vn 0.0098 0.9934 -0.1147
vn 0.0098 0.9965 -0.0832
vn 0.0117 0.9967 -0.0804
vn -0.0074 0.5091 -0.8607
vn -0.0138 0.4512 -0.8923
vn 0.0138 0.4512 -0.8923
vn 0.0074 0.5091 -0.8607
vn 0.0099 0.9790 -0.2036
vn 0.0047 0.9750 -0.2221
vn -0.0046 0.9791 -0.2035
vn -0.0099 0.9750 -0.2220
vn 0.7390 0.6679 -0.0879
vn 0.7845 0.6158 -0.0732
vn 0.7846 0.6182 -0.0478
vn 0.7390 0.6723 -0.0435
vn 0.0881 0.9927 -0.0827
vn 0.0747 0.9931 -0.0907
vn 0.0747 0.9918 -0.1039
vn 0.0881 0.9898 -0.1117
vn -0.0157 -0.0163 0.9997
vn -0.0186 -0.0376 0.9991
vn -0.0157 0.2310 0.9728
vn -0.0187 0.2102 0.9775
vn 0.0187 0.2102 0.9775
vn 0.0157 0.2310 0.9728
vn 0.0186 -0.0376 0.9991
vn 0.0157 -0.0163 0.9997
vn 0.0099 -0.9750 0.2220
vn 0.0046 -0.9791 0.2035
vn -0.0099 -0.9790 0.2036
vn -0.0047 -0.9750 0.2220
vn -0.0138 -0.4510 0.8924
vn -0.0074 -0.5086 0.8610
vn 0.0075 -0.4506 0.8927
vn 0.0132 -0.5085 0.8609
vn -0.0099 0.9999 0.0096
vn -0.0047 0.9996 0.0284
vn 0.0099 0.9995 0.0284
vn 0.0046 0.9999 0.0095
vn 0.0075 0.6662 0.7457
vn 0.0138 0.6161 0.7875
vn -0.0133 0.6662 0.7457
vn -0.0075 0.6158 0.7878
vn 0.9675 0.1601 0.1957
vn 0.9668 0.0915 0.2384
vn 0.9675 -0.1190 0.2230
vn 0.9668 -0.0434 0.2516
vn 0.1199 0.0439 0.9918
vn 0.1402 -0.0179 0.9900
vn 0.1200 0.1499 0.9814
vn 0.1403 0.2098 0.9676
vn -0.9896 -0.1434 -0.0149
vn -0.9853 -0.1698 -0.0176
vn -0.9853 0.1631 -0.0502
vn -0.9896 0.1378 -0.0424
vn -0.9855 0.1693 0.0122
vn -0.9894 0.1440 0.0203
vn -0.9896 -0.1378 0.0424
vn -0.9853 -0.1631 0.0502
vn -0.0747 -0.9918 0.1039
vn -0.0881 -0.9898 0.1117
vn -0.0748 -0.9938 0.0828
vn -0.0881 -0.9920 0.0904
vn -0.7841 -0.6195 0.0371
vn -0.7391 -0.6715 0.0533
vn -0.7845 -0.6158 0.0732
vn -0.7390 -0.6680 0.0879
vn -0.1199 -0.2101 -0.9703
vn -0.1410 -0.1507 -0.9785
vn -0.1200 -0.0437 -0.9918
vn -0.1403 0.0180 -0.9899
vn -0.9675 0.1190 -0.2231
vn -0.9668 0.0434 -0.2516
vn -0.9675 -0.1601 -0.1957
vn -0.9668 -0.0915 -0.2384
vn -0.0748 0.9909 -0.1118
vn -0.0881 0.9907 -0.1040
vn -0.0748 0.9938 -0.0828
vn -0.0881 0.9920 -0.0904
vn -0.7841 0.6195 -0.0371
vn -0.7391 0.6714 -0.0533
vn -0.7845 0.6158 -0.0732
vn -0.7390 0.6679 -0.0879
vn -0.1403 0.2098 0.9676
vn -0.1200 0.1499 0.9814
vn -0.1410 0.0425 0.9891
vn -0.1198 -0.0176 0.9926
vn -0.9675 -0.1190 0.2230
vn -0.9668 -0.0434 0.2517
vn -0.9675 0.1601 0.1957
vn -0.9668 0.0915 0.2384
s off
f 41//41 42//41 43//41
f 44//42 43//42 42//42
f 45//43 43//43 46//43
f 44//44 46//44 43//44
f 42//45 47//45 44//45
f 46//46 44//46 47//46
f 48//47 49//47 50//47
f 51//48 50//48 49//48
f 51//49 52//49 50//49
f 53//50 50//50 52//50
f 51//51 49//51 52//51
f 54//52 52//52 49//52
f 55//53 56//53 57//53
f 58//54 57//54 56//54
f 59//55 55//55 60//55
f 57//56 60//56 55//56
f 58//57 61//57 57//57
f 60//58 57//58 61//58
f 62//59 63//59 64//59
f 65//60 64//60 63//60
f 63//61 66//61 65//61
f 67//62 65//62 66//62
f 66//63 63//63 68//63
f 62//64 68//64 63//64
f 69//65 70//65 71//65
f 72//66 71//66 70//66
f 73//67 74//67 72//67
f 71//68 72//68 74//68
f 70//69 75//69 72//69
f 73//70 72//70 75//70
f 76//71 77//71 78//71
f 79//72 78//72 77//72
f 79//73 80//73 78//73
f 81//74 78//74 80//74
f 79//75 77//75 80//75
f 82//76 80//76 77//76
f 83//77 84//77 85//77
f 86//78 85//78 84//78
f 87//79 83//79 88//79
f 85//80 88//80 83//80
f 89//81 88//81 86//81
f 85//82 86//82 88//82
f 90//83 91//83 92//83
f 93//84 92//84 91//84
f 94//85 95//85 93//85
f 92//86 93//86 95//86
f 94//87 93//87 96//87
f 91//88 96//88 93//88
f 59//89 97//89 98//89
f 99//90 98//90 97//90
f 100//91 53//91 99//91
f 98//92 99//92 53//92
f 101//93 45//93 99//93
f 100//94 99//94 45//94
f 64//95 101//95 97//95
f 99//96 97//96 101//96
f 102//97 69//97 103//97
f 104//98 103//98 69//98
f 102//99 103//99 95//99
f 105//100 95//100 103//100
f 105//101 103//101 67//101
f 106//102 67//102 103//102
f 103//103 104//103 106//103
f 41//104 106//104 104//104
f 101//105 64//105 107//105
f 65//106 107//106 64//106
f 43//107 45//107 107//107
f 101//108 107//108 45//108
f 41//109 43//109 106//109
f 107//110 106//110 43//110
f 107//111 65//111 106//111
f 67//112 106//112 65//112
f 108//113 109//113 110//113
f 76//114 110//114 109//114
f 109//115 108//115 74//115
f 111//116 74//116 108//116
f 112//117 47//117 108//117
f 111//118 108//118 47//118
f 110//119 48//119 108//119
f 112//120 108//120 48//120
f 113//121 104//121 71//121
f 69//122 71//122 104//122
f 42//123 41//123 113//123
f 104//124 113//124 41//124
f 113//125 111//125 42//125
f 47//126 42//126 111//126
f 113//127 71//127 111//127
f 74//128 111//128 71//128
f 100//129 45//129 114//129
f 46//130 114//130 45//130
f 53//131 100//131 50//131
f 114//132 50//132 100//132
f 48//133 50//133 112//133
f 114//134 112//134 50//134
f 47//135 112//135 46//135
f 114//136 46//136 112//136
f 115//137 116//137 117//137
f 84//138 117//138 116//138
f 115//139 118//139 116//139
f 81//140 116//140 118//140
f 119//141 54//141 115//141
f 118//142 115//142 54//142
f 56//143 119//143 117//143
f 115//144 117//144 119//144
f 120//145 110//145 78//145
f 76//146 78//146 110//146
f 48//147 110//147 49//147
f 120//148 49//148 110//148
f 54//149 49//149 118//149
f 120//150 118//150 49//150
f 78//151 81//151 120//151
f 118//152 120//152 81//152
f 98//153 53//153 121//153
f 52//154 121//154 53//154
f 55//155 59//155 121//155
f 98//156 121//156 59//156
f 119//157 56//157 121//157
f 55//158 121//158 56//158
f 52//159 54//159 121//159
f 119//160 121//160 54//160
f 90//161 122//161 123//161
f 124//162 123//162 122//162
f 125//163 87//163 124//163
f 123//164 124//164 87//164
f 126//165 61//165 124//165
f 125//166 124//166 61//166
f 124//167 122//167 126//167
f 68//168 126//168 122//168
f 105//169 67//169 127//169
f 66//170 127//170 67//170
f 95//171 105//171 92//171
f 127//172 92//172 105//172
f 90//173 92//173 122//173
f 127//174 122//174 92//174
f 66//175 68//175 127//175
f 122//176 127//176 68//176
f 84//177 83//177 117//177
f 128//178 117//178 83//178
f 117//179 128//179 56//179
f 58//180 56//180 128//180
f 128//181 125//181 58//181
f 61//182 58//182 125//182
f 125//183 128//183 87//183
f 83//184 87//184 128//184
f 59//185 60//185 97//185
f 129//186 97//186 60//186
f 64//187 97//187 62//187
f 129//188 62//188 97//188
f 62//189 129//189 68//189
f 126//190 68//190 129//190
f 60//191 61//191 129//191
f 126//192 129//192 61//192
f 75//193 130//193 131//193
f 132//194 131//194 130//194
f 132//195 133//195 131//195
f 82//196 131//196 133//196
f 133//197 132//197 89//197
f 134//198 89//198 132//198
f 96//199 134//199 130//199
f 132//200 130//200 134//200
f 94//201 135//201 95//201
f 102//202 95//202 135//202
f 69//203 102//203 70//203
f 135//204 70//204 102//204
f 75//205 70//205 130//205
f 135//206 130//206 70//206
f 94//207 96//207 135//207
f 130//208 135//208 96//208
f 74//209 73//209 109//209
f 136//210 109//210 73//210
f 77//211 76//211 136//211
f 109//212 136//212 76//212
f 82//213 77//213 131//213
f 136//214 131//214 77//214
f 75//215 131//215 73//215
f 136//216 73//216 131//216
f 81//217 80//217 116//217
f 137//218 116//218 80//218
f 84//219 116//219 86//219
f 137//220 86//220 116//220
f 89//221 86//221 133//221
f 137//222 133//222 86//222
f 80//223 82//223 137//223
f 133//224 137//224 82//224
f 123//225 87//225 138//225
f 88//226 138//226 87//226
f 138//227 91//227 123//227
f 90//228 123//228 91//228
f 96//229 91//229 134//229
f 138//230 134//230 91//230
f 89//231 134//231 88//231
f 138//232 88//232 134//232
