# Blender v2.79 (sub 0) OBJ File: ''
# www.blender.org
o LegFrontLeft
v 0.219115 -0.330601 0.491025
v 0.219115 -0.294328 0.491025
v 0.219115 -0.330601 -0.016797
v 0.219115 -0.294328 -0.016797
v 0.255388 -0.294328 -0.016797
v 0.255388 -0.330601 -0.016797
v 0.255388 -0.330601 0.491025
v 0.255388 -0.294328 0.491025
vn -1.0000 0.0000 0.0000
vn 0.0000 0.0000 -1.0000
vn 0.0000 -1.0000 -0.0000
vn 0.0000 0.0000 1.0000
vn 0.0000 1.0000 0.0000
vn 1.0000 0.0000 0.0000
s off
f 1//1 2//1 3//1
f 4//1 3//1 2//1
f 5//2 6//2 4//2
f 3//2 4//2 6//2
f 6//3 7//3 3//3
f 1//3 3//3 7//3
f 7//4 8//4 1//4
f 2//4 1//4 8//4
f 8//5 5//5 2//5
f 4//5 2//5 5//5
f 7//6 6//6 8//6
f 5//6 8//6 6//6
