# Blender v2.79 (sub 0) OBJ File: ''
# www.blender.org
o LegBackRight.002
v -0.300595 0.426345 -0.008849
v -0.292196 0.421240 -0.011461
v -0.292336 0.413193 -0.015702
v -0.293747 0.427839 -0.007997
v -0.294168 0.403704 -0.020715
v -0.282247 0.409531 -0.017538
v -0.282036 0.421600 -0.011175
v -0.280315 0.415533 -0.014356
v -0.284693 0.425309 0.001034
v -0.293750 0.427626 0.002170
v -0.278139 0.419303 -0.002069
v -0.287318 0.405197 -0.019864
v -0.318147 0.072288 0.638345
v -0.315813 0.066331 0.630057
v -0.315606 0.078157 0.646630
v -0.309642 0.419852 -0.002069
v -0.305668 0.422012 -0.011175
v -0.302882 0.425629 0.001034
v -0.275842 0.411214 -0.006309
v -0.278420 0.403210 -0.010546
v -0.285180 0.397437 -0.013653
v -0.294312 0.395441 -0.014786
v -0.307598 0.416010 -0.014356
v -0.305878 0.409943 -0.017538
v -0.300960 0.405439 -0.019864
v -0.303369 0.397753 -0.013653
v -0.309923 0.403760 -0.010546
v -0.312219 0.411847 -0.006309
v -0.284104 0.077607 0.646630
v -0.290624 0.085527 0.646101
v -0.299669 0.088545 0.645909
v -0.308813 0.085844 0.646101
v -0.281770 0.071654 0.638345
v -0.284310 0.065781 0.630057
v -0.309171 0.065360 0.617396
v -0.300082 0.064885 0.612760
v -0.290982 0.065042 0.617396
vn 0.0081 0.4661 -0.8847
vn 0.0083 0.4664 -0.8846
vn 0.0081 0.4659 -0.8848
vn 0.0078 0.4659 -0.8848
vn 0.0084 0.4664 -0.8845
vn 0.0083 0.4661 -0.8847
vn 0.0084 0.4663 -0.8846
vn 0.4249 0.8877 -0.1772
vn 0.0083 0.4663 -0.8846
vn 0.2502 0.9680 0.0203
vn 0.6501 0.7548 -0.0878
vn 0.0086 0.4651 -0.8852
vn -0.0144 -0.8138 0.5809
vn -0.6234 0.7770 -0.0878
vn -0.6235 0.7769 -0.0880
vn -0.2155 0.9763 0.0204
vn -0.2161 0.9762 0.0207
vn 0.8769 0.3936 -0.2760
vn 0.8768 0.3935 -0.2761
vn 0.8697 -0.0185 -0.4933
vn 0.8697 -0.0190 -0.4932
vn 0.6306 -0.3717 -0.6812
vn 0.6304 -0.3718 -0.6815
vn 0.2228 -0.5709 -0.7902
vn 0.2226 -0.5711 -0.7901
vn 0.0077 0.4659 -0.8848
vn 0.0084 0.4662 -0.8846
vn 0.0082 0.4659 -0.8848
vn -0.2425 -0.5628 -0.7903
vn -0.2427 -0.5626 -0.7903
vn -0.6426 -0.3495 -0.6818
vn -0.6433 -0.3495 -0.6812
vn -0.8700 0.0118 -0.4929
vn -0.8697 0.0116 -0.4934
vn -0.8627 0.4239 -0.2760
vn -0.8627 0.4238 -0.2761
vn 0.0014 0.0678 0.9977
vn 0.0011 0.0673 0.9977
vn 0.0012 0.0676 0.9977
vn -0.0142 -0.8139 0.5809
vn -0.0142 -0.8138 0.5809
vn -0.0142 -0.8138 0.5810
vn -0.0179 -0.9976 0.0671
vn -0.0172 -0.9976 0.0678
vn -0.0174 -0.9976 0.0674
vn -0.2741 -0.8498 -0.4502
vn -0.2733 -0.8500 -0.4503
vn 0.2442 -0.8589 -0.4502
vn 0.2436 -0.8590 -0.4502
vn 0.6962 -0.6378 -0.3295
vn 0.6961 -0.6379 -0.3296
vn 0.9618 -0.2458 -0.1206
vn 0.9618 -0.2459 -0.1207
vn 0.9697 0.2122 0.1207
vn 0.9698 0.2121 0.1207
vn 0.7179 0.6131 0.3296
vn 0.7180 0.6131 0.3296
vn 0.2739 0.8499 0.4502
vn 0.2740 0.8499 0.4502
vn -0.2442 0.8589 0.4502
vn -0.2439 0.8590 0.4502
vn -0.6962 0.6377 0.3295
vn -0.6961 0.6378 0.3296
vn -0.9618 0.2458 0.1206
vn -0.9617 0.2460 0.1207
vn -0.9698 -0.2121 -0.1206
vn -0.7179 -0.6132 -0.3296
vn -0.7181 -0.6130 -0.3295
s off
f 1//1 2//1 3//1
f 1//2 4//2 2//2
f 5//3 3//3 6//3
f 1//4 3//4 5//4
f 2//5 4//5 7//5
f 3//6 2//6 8//6
f 7//7 8//7 2//7
f 4//8 9//8 7//8
f 8//9 6//9 3//9
f 9//10 4//10 10//10
f 7//11 9//11 11//11
f 5//12 6//12 12//12
f 13//13 14//13 15//13
f 16//14 1//14 17//14
f 1//15 16//15 18//15
f 1//16 10//16 4//16
f 10//17 1//17 18//17
f 19//18 7//18 11//18
f 7//19 19//19 8//19
f 19//20 6//20 8//20
f 6//21 19//21 20//21
f 21//22 6//22 20//22
f 6//23 21//23 12//23
f 5//24 21//24 22//24
f 21//25 5//25 12//25
f 1//26 5//26 17//26
f 17//27 5//27 23//27
f 23//7 5//7 24//7
f 24//28 5//28 25//28
f 26//29 5//29 22//29
f 5//30 26//30 25//30
f 26//31 24//31 25//31
f 24//32 26//32 27//32
f 27//33 23//33 24//33
f 23//34 27//34 28//34
f 17//35 28//35 16//35
f 28//36 17//36 23//36
f 29//37 30//37 31//37
f 29//38 31//38 32//38
f 29//39 32//39 15//39
f 33//40 29//40 14//40
f 14//41 29//41 15//41
f 33//42 14//42 34//42
f 14//43 35//43 36//43
f 14//44 36//44 37//44
f 14//45 37//45 34//45
f 35//46 22//46 36//46
f 22//47 35//47 26//47
f 22//48 37//48 36//48
f 37//49 22//49 21//49
f 20//50 37//50 21//50
f 37//51 20//51 34//51
f 20//52 33//52 34//52
f 33//53 20//53 19//53
f 19//54 29//54 33//54
f 29//55 19//55 11//55
f 30//56 11//56 9//56
f 11//57 30//57 29//57
f 31//58 9//58 10//58
f 9//59 31//59 30//59
f 10//60 32//60 31//60
f 32//61 10//61 18//61
f 16//62 32//62 18//62
f 32//63 16//63 15//63
f 13//64 16//64 28//64
f 16//65 13//65 15//65
f 14//66 28//66 27//66
f 28//66 14//66 13//66
f 27//67 35//67 14//67
f 35//68 27//68 26//68
