# Blender v2.79 (sub 0) OBJ File: ''
# www.blender.org
o Seat.002
v -0.199573 -0.352411 0.510834
v -0.197603 -0.349654 0.519563
v -0.222108 -0.349044 0.510834
v -0.219913 -0.346317 0.519563
v -0.243000 -0.339958 0.510834
v -0.240596 -0.337325 0.519563
v -0.258246 -0.323283 0.519563
v -0.260830 -0.325775 0.510834
v -0.210365 0.200674 0.519563
v -0.187953 0.203226 0.519563
v -0.212463 0.203477 0.510834
v -0.189825 0.206054 0.510834
v -0.233660 0.195124 0.510834
v -0.231349 0.192410 0.519563
v -0.251973 0.181572 0.510834
v -0.249480 0.178993 0.519563
v -0.273247 -0.261616 0.519563
v -0.270952 -0.281928 0.519563
v -0.241446 -0.259333 0.528291
v -0.243489 -0.241256 0.528291
v -0.176993 -0.209976 0.537015
v -0.178484 -0.196782 0.537015
v -0.172198 -0.222152 0.537015
v -0.234879 -0.276011 0.528291
v -0.224217 -0.290418 0.528291
v -0.164412 -0.232669 0.537015
v -0.210187 -0.301576 0.528291
v -0.154174 -0.240813 0.537015
v -0.193752 -0.308726 0.528291
v -0.142177 -0.246031 0.537015
v -0.175754 -0.311394 0.528291
v -0.129038 -0.247980 0.537015
v -0.185532 0.162189 0.528291
v -0.202207 0.155622 0.528291
v -0.148348 0.092941 0.537015
v -0.136176 0.097736 0.537015
v -0.158865 0.085159 0.537015
v -0.216618 0.144960 0.528291
v -0.172229 0.062919 0.537015
v -0.234921 0.114495 0.528291
v -0.237593 0.096500 0.528291
v -0.174180 0.049780 0.537015
v -0.167013 0.074916 0.537015
v -0.227775 0.130934 0.528291
v -0.255590 0.156575 0.519563
v -0.243052 0.172335 0.519563
v -0.226862 0.184314 0.519563
v -0.208124 0.191694 0.519563
v -0.187812 0.193989 0.519563
v -0.167452 0.164232 0.528291
v -0.122977 0.099226 0.537015
v -0.266622 0.117886 0.519563
v -0.263620 0.138106 0.519563
v -0.197140 -0.340422 0.519563
v -0.217360 -0.337421 0.519563
v -0.235829 -0.329391 0.519563
v -0.251592 -0.316853 0.519563
v -0.263572 -0.300666 0.519563
v -0.222108 -0.349044 0.454107
v -0.199573 -0.352411 0.454107
v -0.243000 -0.339958 0.454107
v -0.260830 -0.325775 0.454107
v -0.274381 -0.307460 0.454107
v -0.274381 -0.307460 0.510834
v -0.271663 -0.305154 0.519563
v -0.278609 0.120315 0.510834
v -0.285311 -0.263629 0.510834
v -0.282484 -0.261756 0.519563
v -0.275849 0.118349 0.519563
v -0.266157 0.163743 0.510834
v -0.263520 0.161339 0.519563
v -0.251973 0.181572 0.454107
v -0.266157 0.163743 0.454107
v -0.233660 0.195124 0.454107
v -0.212463 0.203477 0.454107
v -0.189825 0.206054 0.454107
v -0.195638 -0.346894 0.449744
v -0.217719 -0.343593 0.449744
v -0.238195 -0.334688 0.449744
v -0.255667 -0.320792 0.449744
v -0.268948 -0.302843 0.449744
v -0.285311 -0.263629 0.454107
v -0.279657 -0.259885 0.449744
v -0.282730 -0.286263 0.454107
v -0.277129 -0.282068 0.449744
v -0.282730 -0.286263 0.510834
v -0.279932 -0.284165 0.519563
v -0.278609 0.120315 0.454107
v -0.273089 0.116381 0.449744
v -0.269789 0.138462 0.449744
v -0.275240 0.142851 0.454107
v -0.275240 0.142851 0.510834
v -0.272516 0.140656 0.519563
v -0.260887 0.158938 0.449744
v -0.246988 0.176409 0.449744
v -0.229042 0.189690 0.449744
v -0.208267 0.197876 0.449744
v -0.186084 0.200403 0.449744
v 0.000000 0.199889 0.451879
v 0.000000 0.197155 0.449744
v 0.000000 0.202740 0.454107
v 0.000000 -0.350308 0.449744
v 0.000000 -0.355894 0.454107
v 0.000000 0.202740 0.510834
v 0.000000 -0.355894 0.510834
v 0.000000 -0.328892 0.524007
v 0.000000 -0.343864 0.519563
v 0.000000 -0.314462 0.528291
v 0.000000 0.161309 0.528291
v 0.000000 0.097079 0.537015
v 0.000000 0.190711 0.519563
v 0.000000 -0.278710 0.533147
v 0.000000 -0.250233 0.537015
v 0.000000 0.201320 0.515269
v 0.000000 0.199946 0.519563
v 0.000000 -0.353103 0.519563
v 0.199573 -0.352411 0.510834
v 0.222108 -0.349044 0.510834
v 0.197603 -0.349654 0.519563
v 0.219913 -0.346317 0.519563
v 0.243000 -0.339958 0.510834
v 0.240596 -0.337325 0.519563
v 0.258246 -0.323283 0.519563
v 0.260830 -0.325775 0.510834
v 0.210365 0.200674 0.519563
v 0.212463 0.203477 0.510834
v 0.187953 0.203226 0.519563
v 0.189825 0.206054 0.510834
v 0.233660 0.195124 0.510834
v 0.231349 0.192410 0.519563
v 0.251973 0.181572 0.510834
v 0.249480 0.178993 0.519563
v 0.273247 -0.261616 0.519563
v 0.243489 -0.241256 0.528291
v 0.241446 -0.259333 0.528291
v 0.270952 -0.281928 0.519563
v 0.178484 -0.196782 0.537015
v 0.176993 -0.209976 0.537015
v 0.172198 -0.222152 0.537015
v 0.234879 -0.276011 0.528291
v 0.224217 -0.290418 0.528291
v 0.164412 -0.232669 0.537015
v 0.154174 -0.240813 0.537015
v 0.210187 -0.301576 0.528291
v 0.193752 -0.308726 0.528291
v 0.142177 -0.246031 0.537015
v 0.129038 -0.247980 0.537015
v 0.175754 -0.311394 0.528291
v 0.185532 0.162189 0.528291
v 0.136176 0.097736 0.537015
v 0.148348 0.092941 0.537015
v 0.202207 0.155622 0.528291
v 0.158865 0.085159 0.537015
v 0.216618 0.144960 0.528291
v 0.172229 0.062919 0.537015
v 0.174180 0.049780 0.537015
v 0.237593 0.096500 0.528291
v 0.234921 0.114495 0.528291
v 0.167013 0.074916 0.537015
v 0.227775 0.130934 0.528291
v 0.255590 0.156575 0.519563
v 0.243052 0.172335 0.519563
v 0.226862 0.184314 0.519563
v 0.208124 0.191694 0.519563
v 0.187812 0.193989 0.519563
v 0.167452 0.164232 0.528291
v 0.122977 0.099226 0.537015
v 0.266622 0.117886 0.519563
v 0.263620 0.138106 0.519563
v 0.197140 -0.340422 0.519563
v 0.217360 -0.337421 0.519563
v 0.235829 -0.329391 0.519563
v 0.251592 -0.316853 0.519563
v 0.263572 -0.300666 0.519563
v 0.222108 -0.349044 0.454107
v 0.199573 -0.352411 0.454107
v 0.243000 -0.339958 0.454107
v 0.260830 -0.325775 0.454107
v 0.274381 -0.307460 0.454107
v 0.274381 -0.307460 0.510834
v 0.271663 -0.305154 0.519563
v 0.278609 0.120315 0.510834
v 0.275849 0.118349 0.519563
v 0.282484 -0.261756 0.519563
v 0.285311 -0.263629 0.510834
v 0.266157 0.163743 0.510834
v 0.263520 0.161339 0.519563
v 0.266157 0.163743 0.454107
v 0.251973 0.181572 0.454107
v 0.233660 0.195124 0.454107
v 0.212463 0.203477 0.454107
v 0.189825 0.206054 0.454107
v 0.195638 -0.346894 0.449744
v 0.217719 -0.343593 0.449744
v 0.238195 -0.334688 0.449744
v 0.255667 -0.320792 0.449744
v 0.268948 -0.302843 0.449744
v 0.285311 -0.263629 0.454107
v 0.282730 -0.286263 0.454107
v 0.279657 -0.259885 0.449744
v 0.277129 -0.282068 0.449744
v 0.282730 -0.286263 0.510834
v 0.279932 -0.284165 0.519563
v 0.278609 0.120315 0.454107
v 0.273089 0.116381 0.449744
v 0.269789 0.138462 0.449744
v 0.275240 0.142851 0.454107
v 0.275240 0.142851 0.510834
v 0.272516 0.140656 0.519563
v 0.260887 0.158938 0.449744
v 0.246988 0.176409 0.449744
v 0.229042 0.189690 0.449744
v 0.208267 0.197876 0.449744
v 0.186084 0.200403 0.449744
vn -0.1397 -0.9347 0.3268
vn -0.1398 -0.9346 0.3271
vn -0.3720 -0.8553 0.3607
vn -0.3719 -0.8554 0.3605
vn -0.5765 -0.7246 0.3775
vn -0.5765 -0.7247 0.3774
vn -0.1069 0.9389 0.3272
vn -0.1069 0.9389 0.3271
vn -0.3419 0.8677 0.3608
vn -0.3418 0.8679 0.3603
vn -0.5509 0.7444 0.3773
vn -0.2626 -0.0297 0.9645
vn -0.1236 -0.0140 0.9922
vn -0.1033 -0.0407 0.9938
vn -0.1034 -0.0407 0.9938
vn -0.0846 -0.0626 0.9944
vn -0.0655 -0.0824 0.9944
vn -0.0443 -0.1018 0.9938
vn -0.0182 -0.1231 0.9922
vn -0.0407 0.1033 0.9938
vn -0.0626 0.0846 0.9944
vn -0.1230 0.0183 0.9922
vn -0.1019 0.0443 0.9938
vn -0.0824 0.0655 0.9944
vn -0.1764 0.1403 0.9743
vn -0.1340 0.1812 0.9743
vn -0.1341 0.1812 0.9743
vn -0.0869 0.2208 0.9714
vn -0.0870 0.2208 0.9714
vn -0.0297 0.2626 0.9645
vn -0.0140 0.1236 0.9922
vn -0.1346 0.0023 0.9909
vn -0.2846 0.0050 0.9586
vn -0.2614 0.0388 0.9645
vn -0.2176 0.0946 0.9714
vn -0.0388 -0.2614 0.9644
vn -0.0946 -0.2176 0.9714
vn -0.0947 -0.2176 0.9714
vn -0.1403 -0.1764 0.9743
vn -0.1812 -0.1341 0.9743
vn -0.2208 -0.0869 0.9714
vn -0.2208 -0.0870 0.9714
vn -0.1478 -0.9890 0.0000
vn -0.3988 -0.9170 0.0000
vn -0.6225 -0.7826 -0.0000
vn -0.8039 -0.5948 -0.0000
vn -0.7443 -0.5509 0.3776
vn -0.7445 -0.5508 0.3773
vn -0.9523 0.0166 0.3048
vn -0.7246 0.5765 0.3777
vn -0.7248 0.5764 0.3773
vn -0.7826 0.6226 0.0000
vn -0.5949 0.8038 0.0000
vn -0.3666 0.9304 0.0000
vn -0.1131 0.9936 0.0000
vn -0.0865 -0.5793 -0.8105
vn -0.0866 -0.5791 -0.8106
vn -0.2165 -0.4979 -0.8398
vn -0.2165 -0.4978 -0.8398
vn -0.3254 -0.4091 -0.8525
vn -0.3255 -0.4092 -0.8524
vn -0.4203 -0.3110 -0.8525
vn -0.4203 -0.3110 -0.8524
vn -0.5817 -0.0663 -0.8107
vn -0.5818 -0.0663 -0.8106
vn -0.5052 -0.1990 -0.8398
vn -0.5053 -0.1990 -0.8397
vn -0.9304 -0.3665 -0.0000
vn -0.8678 -0.3419 0.3605
vn -0.8679 -0.3418 0.3604
vn -0.9391 -0.1069 0.3267
vn -0.9389 -0.1071 0.3271
vn -0.9936 -0.1133 -0.0000
vn -0.9998 0.0175 0.0000
vn -0.6153 0.0107 -0.7882
vn -0.5791 0.0865 -0.8107
vn -0.5791 0.0866 -0.8106
vn -0.9890 0.1479 0.0000
vn -0.9347 0.1397 0.3270
vn -0.9347 0.1397 0.3268
vn -0.8554 0.3719 0.3605
vn -0.8552 0.3720 0.3608
vn -0.9171 0.3987 0.0000
vn -0.4979 0.2165 -0.8398
vn -0.4091 0.3254 -0.8525
vn -0.3110 0.4202 -0.8525
vn -0.1990 0.5051 -0.8398
vn -0.0662 0.5819 -0.8105
vn -0.0663 0.5818 -0.8106
vn 0.0107 0.6154 -0.7881
vn 0.0107 0.6157 -0.7879
vn 0.0107 0.6155 -0.7880
vn -0.0107 -0.6155 -0.7881
vn -0.0107 -0.6155 -0.7880
vn 0.0175 0.9998 0.0000
vn -0.0174 -0.9998 -0.0000
vn -0.0050 -0.2846 0.9586
vn -0.0050 -0.2845 0.9586
vn 0.0023 0.1346 0.9909
vn 0.0050 0.2846 0.9586
vn -0.0023 -0.1346 0.9909
vn 0.0166 0.9522 0.3049
vn 0.0166 0.9523 0.3047
vn -0.0166 -0.9524 0.3045
vn 0.0000 0.0000 1.0000
vn 0.0000 0.0000 -1.0000
vn 0.1397 -0.9347 0.3268
vn 0.1398 -0.9346 0.3271
vn 0.3720 -0.8553 0.3607
vn 0.3719 -0.8554 0.3605
vn 0.5765 -0.7246 0.3775
vn 0.5765 -0.7247 0.3774
vn 0.1069 0.9389 0.3272
vn 0.1069 0.9389 0.3271
vn 0.3419 0.8677 0.3608
vn 0.3418 0.8679 0.3603
vn 0.5509 0.7444 0.3773
vn 0.2626 -0.0297 0.9645
vn 0.1236 -0.0140 0.9922
vn 0.1034 -0.0407 0.9938
vn 0.1033 -0.0407 0.9938
vn 0.0846 -0.0626 0.9944
vn 0.0655 -0.0824 0.9944
vn 0.0443 -0.1018 0.9938
vn 0.0182 -0.1231 0.9922
vn 0.0407 0.1033 0.9938
vn 0.0626 0.0846 0.9944
vn 0.1230 0.0183 0.9922
vn 0.1019 0.0443 0.9938
vn 0.0824 0.0655 0.9944
vn 0.1764 0.1403 0.9743
vn 0.1341 0.1812 0.9743
vn 0.1340 0.1812 0.9743
vn 0.0870 0.2208 0.9714
vn 0.0869 0.2208 0.9714
vn 0.0297 0.2626 0.9645
vn 0.0140 0.1236 0.9922
vn 0.1346 0.0023 0.9909
vn 0.2846 0.0050 0.9586
vn 0.2614 0.0388 0.9645
vn 0.2176 0.0946 0.9714
vn 0.0388 -0.2614 0.9644
vn 0.0946 -0.2176 0.9714
vn 0.0947 -0.2176 0.9714
vn 0.1403 -0.1764 0.9743
vn 0.1812 -0.1341 0.9743
vn 0.2208 -0.0869 0.9714
vn 0.2208 -0.0870 0.9714
vn 0.1478 -0.9890 -0.0000
vn 0.3988 -0.9170 0.0000
vn 0.6225 -0.7826 -0.0000
vn 0.8039 -0.5948 -0.0000
vn 0.7443 -0.5509 0.3776
vn 0.7445 -0.5508 0.3773
vn 0.9523 0.0166 0.3048
vn 0.7246 0.5765 0.3777
vn 0.7248 0.5764 0.3773
vn 0.7826 0.6226 0.0000
vn 0.5949 0.8038 0.0000
vn 0.3666 0.9304 0.0000
vn 0.1131 0.9936 0.0000
vn 0.0865 -0.5793 -0.8105
vn 0.0866 -0.5791 -0.8106
vn 0.2165 -0.4978 -0.8398
vn 0.2165 -0.4979 -0.8398
vn 0.3254 -0.4091 -0.8525
vn 0.3255 -0.4092 -0.8524
vn 0.4203 -0.3110 -0.8525
vn 0.4203 -0.3110 -0.8524
vn 0.5817 -0.0663 -0.8107
vn 0.5818 -0.0663 -0.8106
vn 0.5052 -0.1990 -0.8398
vn 0.5053 -0.1990 -0.8397
vn 0.9304 -0.3665 0.0000
vn 0.8678 -0.3419 0.3605
vn 0.8679 -0.3418 0.3604
vn 0.9391 -0.1069 0.3267
vn 0.9389 -0.1071 0.3271
vn 0.9936 -0.1133 -0.0000
vn 0.9998 0.0175 0.0000
vn 0.6153 0.0107 -0.7882
vn 0.5791 0.0865 -0.8107
vn 0.5791 0.0866 -0.8106
vn 0.9890 0.1479 0.0000
vn 0.9347 0.1397 0.3270
vn 0.9347 0.1397 0.3268
vn 0.8554 0.3719 0.3605
vn 0.8552 0.3720 0.3608
vn 0.9171 0.3987 0.0000
vn 0.4979 0.2165 -0.8398
vn 0.4091 0.3254 -0.8525
vn 0.3110 0.4202 -0.8525
vn 0.1990 0.5051 -0.8398
vn 0.0662 0.5819 -0.8105
vn 0.0663 0.5818 -0.8106
vn -0.0107 0.6154 -0.7881
vn -0.0107 0.6155 -0.7880
vn -0.0107 0.6157 -0.7879
vn 0.0107 -0.6155 -0.7880
vn 0.0107 -0.6155 -0.7881
vn -0.0175 0.9998 0.0000
vn 0.0174 -0.9998 0.0000
vn 0.0050 -0.2845 0.9586
vn 0.0050 -0.2846 0.9586
vn -0.0023 0.1346 0.9909
vn -0.0050 0.2846 0.9586
vn 0.0023 -0.1346 0.9909
vn -0.0166 0.9522 0.3049
vn -0.0166 0.9523 0.3047
vn 0.0166 -0.9524 0.3045
s off
f 1//1 2//1 3//1
f 4//2 3//2 2//2
f 3//3 4//3 5//3
f 6//4 5//4 4//4
f 7//5 8//5 6//5
f 5//6 6//6 8//6
f 9//7 10//7 11//7
f 12//8 11//8 10//8
f 11//9 13//9 9//9
f 14//10 9//10 13//10
f 15//11 16//11 13//11
f 14//11 13//11 16//11
f 17//12 18//12 19//12
f 19//12 20//12 17//12
f 20//13 19//13 21//13
f 21//13 22//13 20//13
f 23//14 21//14 19//14
f 19//15 24//15 23//15
f 25//16 26//16 24//16
f 23//16 24//16 26//16
f 26//17 25//17 27//17
f 27//17 28//17 26//17
f 29//18 30//18 28//18
f 28//18 27//18 29//18
f 30//19 29//19 31//19
f 31//19 32//19 30//19
f 33//20 34//20 35//20
f 35//20 36//20 33//20
f 37//21 35//21 34//21
f 34//21 38//21 37//21
f 39//22 40//22 41//22
f 41//22 42//22 39//22
f 43//23 44//23 40//23
f 40//23 39//23 43//23
f 44//24 43//24 37//24
f 37//24 38//24 44//24
f 45//25 44//25 46//25
f 38//25 46//25 44//25
f 38//26 34//26 47//26
f 47//27 46//27 38//27
f 34//28 33//28 48//28
f 48//29 47//29 34//29
f 49//30 48//30 33//30
f 33//30 50//30 49//30
f 36//31 51//31 50//31
f 50//31 33//31 36//31
f 20//32 22//32 42//32
f 42//32 41//32 20//32
f 41//33 52//33 17//33
f 17//33 20//33 41//33
f 52//34 41//34 40//34
f 40//34 53//34 52//34
f 53//35 40//35 45//35
f 44//35 45//35 40//35
f 31//36 29//36 54//36
f 55//36 54//36 29//36
f 56//37 55//37 27//37
f 29//38 27//38 55//38
f 27//39 25//39 56//39
f 57//39 56//39 25//39
f 25//40 24//40 58//40
f 58//40 57//40 25//40
f 24//41 19//41 58//41
f 18//42 58//42 19//42
f 59//43 60//43 1//43
f 1//43 3//43 59//43
f 59//44 3//44 5//44
f 5//44 61//44 59//44
f 61//45 5//45 8//45
f 8//45 62//45 61//45
f 63//46 62//46 8//46
f 8//46 64//46 63//46
f 7//47 65//47 8//47
f 64//48 8//48 65//48
f 66//49 67//49 68//49
f 68//49 69//49 66//49
f 70//50 71//50 15//50
f 16//51 15//51 71//51
f 15//52 72//52 73//52
f 73//52 70//52 15//52
f 72//53 15//53 13//53
f 13//53 74//53 72//53
f 75//54 74//54 13//54
f 13//54 11//54 75//54
f 12//55 76//55 75//55
f 75//55 11//55 12//55
f 60//56 59//56 77//56
f 78//57 77//57 59//57
f 59//58 61//58 79//58
f 79//59 78//59 59//59
f 79//60 61//60 80//60
f 62//61 80//61 61//61
f 80//62 62//62 81//62
f 63//63 81//63 62//63
f 82//64 83//64 84//64
f 85//65 84//65 83//65
f 84//66 85//66 63//66
f 81//67 63//67 85//67
f 84//68 63//68 64//68
f 64//68 86//68 84//68
f 65//69 87//69 64//69
f 86//70 64//70 87//70
f 87//71 68//71 86//71
f 67//72 86//72 68//72
f 82//73 84//73 86//73
f 86//73 67//73 82//73
f 67//74 66//74 88//74
f 88//74 82//74 67//74
f 88//75 89//75 83//75
f 83//75 82//75 88//75
f 89//76 88//76 90//76
f 91//77 90//77 88//77
f 91//78 88//78 66//78
f 66//78 92//78 91//78
f 69//79 93//79 66//79
f 92//80 66//80 93//80
f 92//81 93//81 70//81
f 71//82 70//82 93//82
f 73//83 91//83 92//83
f 92//83 70//83 73//83
f 94//84 90//84 91//84
f 91//84 73//84 94//84
f 73//85 72//85 95//85
f 95//85 94//85 73//85
f 95//86 72//86 96//86
f 74//86 96//86 72//86
f 75//87 97//87 74//87
f 96//87 74//87 97//87
f 76//88 98//88 75//88
f 97//89 75//89 98//89
f 99//90 100//90 98//90
f 101//91 99//91 98//91
f 98//92 76//92 101//92
f 77//93 102//93 103//93
f 103//94 60//94 77//94
f 101//95 76//95 12//95
f 12//95 104//95 101//95
f 105//96 1//96 60//96
f 60//96 103//96 105//96
f 106//97 31//97 54//97
f 54//98 107//98 106//98
f 106//97 108//97 31//97
f 109//99 50//99 51//99
f 51//99 110//99 109//99
f 111//100 49//100 50//100
f 50//100 109//100 111//100
f 112//101 32//101 31//101
f 31//101 108//101 112//101
f 112//101 113//101 32//101
f 114//102 104//102 12//102
f 12//102 10//102 114//102
f 115//103 114//103 10//103
f 105//104 116//104 2//104
f 2//104 1//104 105//104
f 116//105 107//105 54//105
f 2//105 116//105 54//105
f 2//105 54//105 55//105
f 4//105 2//105 55//105
f 4//105 55//105 56//105
f 6//105 4//105 56//105
f 6//105 56//105 57//105
f 7//105 6//105 57//105
f 7//105 57//105 58//105
f 65//105 7//105 58//105
f 65//105 58//105 18//105
f 87//105 65//105 18//105
f 87//105 18//105 17//105
f 68//105 87//105 17//105
f 68//105 17//105 52//105
f 69//105 68//105 52//105
f 69//105 52//105 53//105
f 93//105 69//105 53//105
f 93//105 53//105 45//105
f 71//105 93//105 45//105
f 71//105 45//105 46//105
f 16//105 71//105 46//105
f 16//105 46//105 47//105
f 14//105 16//105 47//105
f 14//105 47//105 48//105
f 9//105 14//105 48//105
f 9//105 48//105 49//105
f 10//105 9//105 49//105
f 115//105 10//105 49//105
f 115//105 49//105 111//105
f 26//105 28//105 30//105
f 23//105 26//105 30//105
f 21//105 23//105 30//105
f 22//105 21//105 30//105
f 22//105 30//105 32//105
f 42//105 22//105 32//105
f 39//105 42//105 32//105
f 43//105 39//105 32//105
f 37//105 43//105 32//105
f 35//105 37//105 32//105
f 36//105 35//105 32//105
f 51//105 36//105 32//105
f 110//105 51//105 32//105
f 110//105 32//105 113//105
f 96//106 97//106 98//106
f 95//106 96//106 98//106
f 94//106 95//106 98//106
f 90//106 94//106 98//106
f 89//106 90//106 98//106
f 83//106 89//106 98//106
f 85//106 83//106 98//106
f 81//106 85//106 98//106
f 80//106 81//106 98//106
f 79//106 80//106 98//106
f 78//106 79//106 98//106
f 77//106 78//106 98//106
f 77//106 98//106 100//106
f 77//106 100//106 102//106
f 117//107 118//107 119//107
f 120//108 119//108 118//108
f 118//109 121//109 120//109
f 122//110 120//110 121//110
f 123//111 122//111 124//111
f 121//112 124//112 122//112
f 125//113 126//113 127//113
f 128//114 127//114 126//114
f 126//115 125//115 129//115
f 130//116 129//116 125//116
f 131//117 129//117 132//117
f 130//117 132//117 129//117
f 133//118 134//118 135//118
f 135//118 136//118 133//118
f 134//119 137//119 138//119
f 138//119 135//119 134//119
f 139//120 140//120 135//120
f 135//121 138//121 139//121
f 141//122 140//122 142//122
f 139//122 142//122 140//122
f 142//123 143//123 144//123
f 144//123 141//123 142//123
f 145//124 144//124 143//124
f 143//124 146//124 145//124
f 146//125 147//125 148//125
f 148//125 145//125 146//125
f 149//126 150//126 151//126
f 151//126 152//126 149//126
f 153//127 154//127 152//127
f 152//127 151//127 153//127
f 155//128 156//128 157//128
f 157//128 158//128 155//128
f 159//129 155//129 158//129
f 158//129 160//129 159//129
f 160//130 154//130 153//130
f 153//130 159//130 160//130
f 161//131 162//131 160//131
f 154//131 160//131 162//131
f 154//132 162//132 163//132
f 163//133 152//133 154//133
f 152//134 163//134 164//134
f 164//135 149//135 152//135
f 165//136 166//136 149//136
f 149//136 164//136 165//136
f 150//137 149//137 166//137
f 166//137 167//137 150//137
f 134//138 157//138 156//138
f 156//138 137//138 134//138
f 157//139 134//139 133//139
f 133//139 168//139 157//139
f 168//140 169//140 158//140
f 158//140 157//140 168//140
f 169//141 161//141 158//141
f 160//141 158//141 161//141
f 148//142 170//142 145//142
f 171//142 145//142 170//142
f 172//143 144//143 171//143
f 145//144 171//144 144//144
f 144//145 172//145 141//145
f 173//145 141//145 172//145
f 141//146 173//146 174//146
f 174//146 140//146 141//146
f 140//147 174//147 135//147
f 136//148 135//148 174//148
f 175//149 118//149 117//149
f 117//149 176//149 175//149
f 175//150 177//150 121//150
f 121//150 118//150 175//150
f 177//151 178//151 124//151
f 124//151 121//151 177//151
f 179//152 180//152 124//152
f 124//152 178//152 179//152
f 123//153 124//153 181//153
f 180//154 181//154 124//154
f 182//155 183//155 184//155
f 184//155 185//155 182//155
f 186//156 131//156 187//156
f 132//157 187//157 131//157
f 131//158 186//158 188//158
f 188//158 189//158 131//158
f 189//159 190//159 129//159
f 129//159 131//159 189//159
f 191//160 126//160 129//160
f 129//160 190//160 191//160
f 128//161 126//161 191//161
f 191//161 192//161 128//161
f 176//162 193//162 175//162
f 194//163 175//163 193//163
f 175//164 194//164 195//164
f 195//165 177//165 175//165
f 195//166 196//166 177//166
f 178//167 177//167 196//167
f 196//168 197//168 178//168
f 179//169 178//169 197//169
f 198//170 199//170 200//170
f 201//171 200//171 199//171
f 199//172 179//172 201//172
f 197//173 201//173 179//173
f 199//174 202//174 180//174
f 180//174 179//174 199//174
f 181//175 180//175 203//175
f 202//176 203//176 180//176
f 203//177 202//177 184//177
f 185//178 184//178 202//178
f 198//179 185//179 202//179
f 202//179 199//179 198//179
f 185//180 198//180 204//180
f 204//180 182//180 185//180
f 204//181 198//181 200//181
f 200//181 205//181 204//181
f 205//182 206//182 204//182
f 207//183 204//183 206//183
f 207//184 208//184 182//184
f 182//184 204//184 207//184
f 183//185 182//185 209//185
f 208//186 209//186 182//186
f 208//187 186//187 209//187
f 187//188 209//188 186//188
f 188//189 186//189 208//189
f 208//189 207//189 188//189
f 210//190 188//190 207//190
f 207//190 206//190 210//190
f 188//191 210//191 211//191
f 211//191 189//191 188//191
f 211//192 212//192 189//192
f 190//192 189//192 212//192
f 191//193 190//193 213//193
f 212//193 213//193 190//193
f 192//194 191//194 214//194
f 213//195 214//195 191//195
f 99//196 214//196 100//196
f 101//197 192//197 214//197
f 214//198 99//198 101//198
f 193//199 176//199 103//199
f 103//200 102//200 193//200
f 101//201 104//201 128//201
f 128//201 192//201 101//201
f 105//202 103//202 176//202
f 176//202 117//202 105//202
f 106//203 107//203 170//203
f 170//204 148//204 106//204
f 106//204 148//204 108//204
f 109//205 110//205 167//205
f 167//205 166//205 109//205
f 111//206 109//206 166//206
f 166//206 165//206 111//206
f 112//207 108//207 148//207
f 148//207 147//207 112//207
f 112//207 147//207 113//207
f 114//208 127//208 128//208
f 128//208 104//208 114//208
f 115//209 127//209 114//209
f 105//210 117//210 119//210
f 119//210 116//210 105//210
f 115//105 111//105 165//105
f 170//105 107//105 116//105
f 170//105 116//105 119//105
f 171//105 170//105 119//105
f 171//105 119//105 120//105
f 172//105 171//105 120//105
f 172//105 120//105 122//105
f 173//105 172//105 122//105
f 173//105 122//105 123//105
f 174//105 173//105 123//105
f 174//105 123//105 181//105
f 136//105 174//105 181//105
f 136//105 181//105 203//105
f 133//105 136//105 203//105
f 133//105 203//105 184//105
f 168//105 133//105 184//105
f 168//105 184//105 183//105
f 169//105 168//105 183//105
f 169//105 183//105 209//105
f 161//105 169//105 209//105
f 161//105 209//105 187//105
f 162//105 161//105 187//105
f 162//105 187//105 132//105
f 163//105 162//105 132//105
f 163//105 132//105 130//105
f 164//105 163//105 130//105
f 164//105 130//105 125//105
f 165//105 164//105 125//105
f 165//105 125//105 127//105
f 115//105 165//105 127//105
f 110//105 113//105 147//105
f 146//105 143//105 142//105
f 146//105 142//105 139//105
f 146//105 139//105 138//105
f 146//105 138//105 137//105
f 147//105 146//105 137//105
f 147//105 137//105 156//105
f 147//105 156//105 155//105
f 147//105 155//105 159//105
f 147//105 159//105 153//105
f 147//105 153//105 151//105
f 147//105 151//105 150//105
f 147//105 150//105 167//105
f 110//105 147//105 167//105
f 193//106 102//106 100//106
f 193//106 100//106 214//106
f 214//106 213//106 212//106
f 214//106 212//106 211//106
f 214//106 211//106 210//106
f 214//106 210//106 206//106
f 214//106 206//106 205//106
f 214//106 205//106 200//106
f 214//106 200//106 201//106
f 214//106 201//106 197//106
f 214//106 197//106 196//106
f 214//106 196//106 195//106
f 214//106 195//106 194//106
f 193//106 214//106 194//106
