# Blender v2.79 (sub 0) OBJ File: ''
# www.blender.org
o LegFrontLeft.003
v -0.303860 -0.240587 -0.030266
v -0.318674 -0.240587 -0.028772
v -0.315980 -0.240587 -0.031113
v 0.288846 -0.204106 0.651564
v -0.303860 -0.204106 -0.030266
v -0.315980 -0.204106 -0.031113
v -0.333944 -0.204106 -0.009603
v -0.333944 -0.240587 -0.009603
v -0.333385 -0.204106 -0.008625
v -0.333385 -0.240587 -0.008625
v -0.334165 -0.204106 -0.014290
v -0.334165 -0.240587 -0.014290
v -0.334462 -0.204106 -0.013203
v -0.334462 -0.240587 -0.013203
v -0.334540 -0.204106 -0.012077
v -0.334540 -0.240587 -0.012077
v -0.334398 -0.204106 -0.010959
v -0.334398 -0.240587 -0.010959
v -0.332837 -0.204106 -0.016460
v -0.332837 -0.240587 -0.016460
v -0.333527 -0.204106 -0.015569
v -0.333527 -0.240587 -0.015569
v 0.288846 -0.240587 0.651564
v 0.279668 -0.240587 0.659542
v 0.270490 -0.240587 0.667520
v -0.327851 -0.240587 -0.020794
v 0.261313 -0.240587 0.675498
v 0.261313 -0.204106 0.675498
v 0.270490 -0.204106 0.667520
v -0.327851 -0.204106 -0.020794
v 0.279668 -0.204106 0.659542
v -0.318674 -0.204106 -0.028772
vn 0.0000 -1.0000 0.0000
vn -0.0000 1.0000 0.0000
vn 0.0697 0.0000 -0.9976
vn -0.8683 0.0000 0.4960
vn -0.9647 0.0000 -0.2635
vn -0.9920 0.0000 0.1260
vn -0.7906 0.0000 -0.6123
vn -0.9482 0.0000 0.3176
vn -0.8948 0.0000 -0.4465
vn -0.9976 0.0000 -0.0691
vn 0.7547 0.0000 -0.6561
vn -0.0000 -1.0000 0.0001
vn -0.7547 0.0000 0.6561
vn 0.0000 1.0000 -0.0001
vn 0.0000 1.0000 -0.0002
vn 0.6561 0.0000 0.7547
vn 0.6560 0.0000 0.7547
vn -0.6560 0.0000 -0.7547
vn -0.6561 0.0000 -0.7547
vn -0.6559 0.0000 -0.7548
s off
f 1//1 2//1 3//1
f 4//2 5//2 6//2
f 3//3 5//3 1//3
f 5//3 3//3 6//3
f 7//4 8//4 9//4
f 10//4 9//4 8//4
f 11//5 12//5 13//5
f 14//5 13//5 12//5
f 15//6 16//6 17//6
f 18//6 17//6 16//6
f 19//7 20//7 21//7
f 22//7 21//7 20//7
f 17//8 18//8 7//8
f 8//8 7//8 18//8
f 21//9 22//9 11//9
f 12//9 11//9 22//9
f 13//10 14//10 15//10
f 16//10 15//10 14//10
f 23//11 1//11 4//11
f 5//11 4//11 1//11
f 23//1 24//1 2//1
f 1//1 23//1 2//1
f 25//1 26//1 24//1
f 2//1 24//1 26//1
f 8//12 27//12 10//12
f 16//1 27//1 8//1
f 20//1 27//1 16//1
f 25//1 27//1 20//1
f 26//1 25//1 20//1
f 12//1 20//1 16//1
f 22//1 20//1 12//1
f 14//1 12//1 16//1
f 18//1 16//1 8//1
f 28//13 9//13 27//13
f 10//13 27//13 9//13
f 28//2 29//2 30//2
f 9//2 28//2 30//2
f 13//2 9//2 30//2
f 17//2 9//2 13//2
f 7//2 9//2 17//2
f 15//2 17//2 13//2
f 21//2 13//2 30//2
f 11//14 13//14 21//14
f 19//15 21//15 30//15
f 31//2 32//2 29//2
f 30//2 29//2 32//2
f 31//2 4//2 6//2
f 32//2 31//2 6//2
f 25//16 29//16 27//16
f 28//16 27//16 29//16
f 24//17 31//17 25//17
f 29//17 25//17 31//17
f 23//16 4//16 24//16
f 31//17 24//17 4//17
f 19//18 30//18 20//18
f 26//18 20//18 30//18
f 30//19 32//19 26//19
f 2//19 26//19 32//19
f 32//20 6//20 2//20
f 3//20 2//20 6//20
