# Blender v2.79 (sub 0) OBJ File: ''
# www.blender.org
o LegBackLeft.003
v -0.303860 0.244575 -0.030266
v -0.303860 0.208094 -0.030266
v -0.315980 0.244575 -0.031113
v -0.315980 0.208094 -0.031113
v -0.318674 0.208094 -0.028772
v 0.288846 0.244576 0.651564
v -0.333385 0.244575 -0.008625
v -0.333944 0.244575 -0.009603
v -0.333944 0.208094 -0.009603
v -0.333385 0.208094 -0.008625
v -0.334165 0.244575 -0.014290
v -0.334165 0.208094 -0.014290
v -0.334462 0.244575 -0.013203
v -0.334462 0.208094 -0.013203
v -0.334540 0.244575 -0.012077
v -0.334540 0.208094 -0.012077
v -0.334398 0.244575 -0.010959
v -0.334398 0.208094 -0.010959
v -0.332837 0.244575 -0.016460
v -0.332837 0.208094 -0.016460
v -0.333527 0.244575 -0.015569
v -0.333527 0.208094 -0.015569
v 0.288846 0.208095 0.651564
v 0.279668 0.208095 0.659542
v 0.270490 0.208095 0.667520
v -0.327851 0.208094 -0.020794
v 0.261313 0.208095 0.675498
v 0.261313 0.244576 0.675498
v 0.270490 0.244576 0.667520
v -0.327851 0.244575 -0.020794
v 0.279668 0.244576 0.659542
v -0.318674 0.244575 -0.028772
vn 0.0697 0.0000 -0.9976
vn 0.0000 -1.0000 0.0000
vn 0.0000 1.0000 -0.0000
vn -0.8683 -0.0000 0.4960
vn -0.9647 0.0000 -0.2635
vn -0.9920 0.0000 0.1260
vn -0.7906 0.0000 -0.6123
vn -0.9482 0.0000 0.3176
vn -0.8948 0.0000 -0.4465
vn -0.9976 0.0000 -0.0691
vn 0.7547 0.0000 -0.6561
vn 0.0000 -1.0000 -0.0001
vn -0.7547 0.0000 0.6561
vn 0.0000 1.0000 -0.0001
vn 0.6561 0.0000 0.7547
vn 0.6560 0.0000 0.7547
vn -0.6560 0.0000 -0.7547
vn -0.6561 0.0000 -0.7547
vn -0.6559 0.0000 -0.7548
s off
f 1//1 2//1 3//1
f 2//1 4//1 3//1
f 2//2 5//2 4//2
f 3//3 6//3 1//3
f 7//4 8//4 9//4
f 10//4 7//4 9//4
f 11//5 12//5 13//5
f 14//5 13//5 12//5
f 15//6 16//6 17//6
f 18//6 17//6 16//6
f 19//7 20//7 21//7
f 22//7 21//7 20//7
f 17//8 18//8 8//8
f 9//8 8//8 18//8
f 21//9 22//9 11//9
f 12//9 11//9 22//9
f 13//10 14//10 15//10
f 16//10 15//10 14//10
f 23//11 2//11 6//11
f 1//11 6//11 2//11
f 23//2 24//2 5//2
f 2//2 23//2 5//2
f 25//2 26//2 24//2
f 5//2 24//2 26//2
f 9//12 27//12 10//12
f 16//2 27//2 9//2
f 20//2 27//2 16//2
f 25//2 27//2 20//2
f 26//2 25//2 20//2
f 12//2 20//2 16//2
f 22//2 20//2 12//2
f 14//2 12//2 16//2
f 18//2 16//2 9//2
f 28//13 7//13 27//13
f 10//13 27//13 7//13
f 28//3 29//3 30//3
f 7//3 28//3 30//3
f 13//3 7//3 30//3
f 17//3 7//3 13//3
f 8//3 7//3 17//3
f 15//3 17//3 13//3
f 21//3 13//3 30//3
f 11//14 13//14 21//14
f 19//3 21//3 30//3
f 31//3 32//3 29//3
f 30//3 29//3 32//3
f 31//3 6//3 3//3
f 32//3 31//3 3//3
f 27//15 25//15 29//15
f 28//15 27//15 29//15
f 24//16 31//16 25//16
f 29//16 25//16 31//16
f 24//15 23//15 6//15
f 31//16 24//16 6//16
f 19//17 30//17 20//17
f 26//17 20//17 30//17
f 30//18 32//18 26//18
f 5//18 26//18 32//18
f 32//19 3//19 5//19
f 4//19 5//19 3//19
