# Blender v2.79 (sub 0) OBJ File: ''
# www.blender.org
o obj08.002
v 0.260502 0.256104 0.412517
v 0.239025 0.232665 0.446938
v 0.188434 0.177454 0.446938
v 0.262900 0.304054 0.340402
v 0.259246 0.300071 0.341224
v 0.259849 0.300732 0.341240
v 0.282428 0.280044 0.341240
v 0.285480 0.283367 0.340402
v 0.281826 0.279383 0.341224
v 0.248426 0.288255 0.373153
v 0.270995 0.267567 0.373153
v 0.251529 0.291646 0.392076
v 0.274109 0.270959 0.392076
v 0.272609 0.269320 0.406505
v 0.250029 0.290008 0.406505
v 0.237922 0.276793 0.412517
v 0.165855 0.198142 0.446938
v 0.216445 0.253353 0.446938
v 0.196224 0.231284 0.319651
v 0.186495 0.220673 0.323590
v 0.253428 0.293714 0.335801
v 0.165855 0.198142 0.317794
v 0.261380 0.302402 0.326582
v 0.283960 0.281713 0.326582
v 0.209075 0.199984 0.323590
v 0.218803 0.210596 0.319651
v 0.188434 0.177454 0.317794
v 0.203696 0.239447 0.308832
v 0.226276 0.218759 0.308832
v 0.252897 0.293137 0.297869
v 0.264636 0.305953 0.316539
v 0.287216 0.285266 0.316539
v 0.272344 0.269038 0.281545
v 0.282815 0.280469 0.295101
v 0.232644 0.225709 0.295402
v 0.210066 0.246397 0.295402
v 0.249773 0.289727 0.281545
v 0.260247 0.301157 0.295101
v 0.277937 0.275136 0.265989
v 0.278111 0.275328 0.257546
v 0.255531 0.296016 0.257546
v 0.255357 0.295824 0.265989
v 0.259992 0.300884 0.278330
v 0.282571 0.280196 0.278330
v 0.259307 0.300131 0.282037
v 0.281877 0.279443 0.282037
v 0.246640 0.286315 0.265221
v 0.259940 0.300830 0.252089
v 0.282520 0.280143 0.252089
v 0.279692 0.277055 0.240660
v 0.257113 0.297741 0.240660
v 0.237932 0.231475 0.277610
v 0.215353 0.252163 0.277610
v 0.217364 0.254357 0.246631
v 0.243210 0.282565 0.227966
v 0.214812 0.251577 0.213378
v 0.209361 0.245623 0.177800
v 0.228675 0.266697 0.155046
v 0.200736 0.236211 0.166592
v 0.197929 0.233150 0.150323
v 0.202613 0.238260 0.148844
v 0.200919 0.236413 0.140656
v 0.196295 0.231371 0.131336
v 0.198653 0.233935 0.130600
v 0.196908 0.232036 0.127769
v 0.194621 0.229536 0.118567
v 0.195815 0.230844 0.115030
v 0.189956 0.224444 0.110968
v 0.202277 0.237898 0.114602
v 0.201164 0.236675 0.107269
v 0.200684 0.236155 0.091770
v 0.220733 0.258031 0.082431
v 0.200195 0.235622 0.077112
v 0.220905 0.258221 0.065091
v 0.196152 0.231213 0.062087
v 0.224581 0.262239 0.049809
v 0.196254 0.231321 0.046409
v 0.231788 0.270102 0.035717
v 0.202890 0.238567 0.031251
v 0.240127 0.279203 0.025405
v 0.244833 0.284338 0.023994
v 0.246456 0.286108 0.023135
v 0.247957 0.287748 0.021881
v 0.249294 0.289207 0.020272
v 0.250427 0.290445 0.018350
v 0.209535 0.245817 0.016993
v 0.251326 0.291425 0.016174
v 0.251968 0.292124 0.013804
v 0.252326 0.292515 0.011309
v 0.252397 0.292590 0.008760
v 0.218517 0.255620 0.007598
v 0.252173 0.292348 0.006230
v 0.251662 0.291795 0.003791
v 0.250886 0.290946 0.001515
v 0.249855 0.289826 -0.000535
v 0.226918 0.264784 -0.002783
v 0.244587 0.284076 -0.009348
v 0.232216 0.270575 -0.009348
v 0.272435 0.269137 -0.000535
v 0.267167 0.263388 -0.009348
v 0.273466 0.270257 0.001515
v 0.274242 0.271106 0.003791
v 0.274751 0.271659 0.006230
v 0.274977 0.271902 0.008760
v 0.274904 0.271828 0.011309
v 0.274548 0.271435 0.013804
v 0.273906 0.270739 0.016174
v 0.273006 0.269756 0.018350
v 0.271874 0.268519 0.020272
v 0.270536 0.267059 0.021881
v 0.269036 0.265422 0.023135
v 0.267412 0.263650 0.023994
v 0.262706 0.258514 0.025405
v 0.254367 0.249414 0.035717
v 0.247161 0.241551 0.049809
v 0.243485 0.237533 0.065091
v 0.243301 0.237343 0.082431
v 0.251243 0.246011 0.155046
v 0.265790 0.261877 0.227966
v 0.246967 0.286661 0.224094
v 0.269535 0.265973 0.224094
v 0.251764 0.291908 0.230960
v 0.274343 0.271220 0.230960
v 0.239944 0.233670 0.246631
v 0.237392 0.230889 0.213378
v 0.231941 0.224936 0.177800
v 0.223315 0.215522 0.166592
v 0.220508 0.212463 0.150323
v 0.225193 0.217572 0.148844
v 0.223498 0.215725 0.140656
v 0.218875 0.210682 0.131336
v 0.221233 0.213247 0.130600
v 0.219487 0.211347 0.127769
v 0.217201 0.208848 0.118567
v 0.212535 0.203755 0.110968
v 0.218395 0.210156 0.115030
v 0.224856 0.217210 0.114602
v 0.223733 0.215986 0.107269
v 0.223264 0.215466 0.091770
v 0.222774 0.214934 0.077112
v 0.218732 0.210526 0.062087
v 0.218834 0.210635 0.046409
v 0.225468 0.217879 0.031251
v 0.232114 0.225130 0.016993
v 0.241097 0.234933 0.007598
v 0.249498 0.244096 -0.002783
v 0.254795 0.249886 -0.009348
vn 0.7373 -0.6756 -0.0000
vn -0.7384 0.6741 -0.0162
vn 0.1234 0.1347 0.9832
vn 0.1233 0.1346 0.9832
vn 0.7391 -0.6733 0.0207
vn -0.0121 -0.0132 0.9998
vn 0.6038 0.6590 0.4485
vn 0.6039 0.6588 0.4487
vn 0.6566 0.7163 -0.2360
vn 0.6564 0.7164 -0.2364
vn 0.6677 0.7287 0.1522
vn 0.6677 0.7287 0.1521
vn -0.7373 0.6755 0.0000
vn -0.7374 0.6754 -0.0001
vn -0.7373 0.6756 0.0000
vn -0.7372 0.6757 -0.0007
vn -0.7374 0.6755 0.0000
vn -0.7376 0.6752 -0.0001
vn -0.7370 0.6758 -0.0015
vn -0.7375 0.6754 0.0004
vn 0.6668 0.7278 -0.1603
vn 0.6668 0.7278 -0.1604
vn 0.7370 -0.6759 -0.0002
vn 0.7373 -0.6756 0.0008
vn 0.7373 -0.6755 -0.0000
vn 0.7374 -0.6755 0.0002
vn 0.7372 -0.6756 -0.0002
vn 0.7373 -0.6756 -0.0001
vn 0.7352 -0.6778 -0.0098
vn 0.2148 0.2345 0.9481
vn 0.2149 0.2345 0.9481
vn 0.4963 0.5416 0.6785
vn 0.0000 0.0000 1.0000
vn -0.6756 -0.7373 0.0000
vn 0.1259 0.1374 -0.9825
vn -0.1783 -0.1946 -0.9645
vn -0.4722 -0.5154 -0.7151
vn -0.4723 -0.5154 -0.7151
vn -0.7373 0.6755 0.0004
vn -0.7374 0.6754 0.0000
vn -0.7380 0.6748 -0.0007
vn 0.6091 0.6648 0.4325
vn 0.6090 0.6648 0.4326
vn 0.7373 -0.6755 0.0001
vn 0.7373 -0.6756 -0.0004
vn 0.7373 -0.6755 -0.0002
vn -0.5529 -0.6035 -0.5745
vn -0.7373 0.6756 -0.0001
vn -0.7372 0.6756 -0.0001
vn -0.7373 0.6756 -0.0002
vn 0.6465 0.7056 -0.2902
vn 0.6466 0.7053 -0.2906
vn 0.4448 0.4852 -0.7528
vn 0.6752 0.7370 0.0307
vn 0.5904 0.6444 -0.4860
vn 0.5904 0.6444 -0.4859
vn 0.6516 0.7109 0.2648
vn 0.6512 0.7107 0.2663
vn -0.0235 -0.0257 0.9994
vn -0.7373 0.6756 0.0010
vn -0.7371 0.6757 0.0002
vn 0.6343 0.6923 -0.3440
vn -0.7374 0.6755 -0.0002
vn -0.7367 0.6763 0.0014
vn 0.4333 0.4729 0.7672
vn 0.4332 0.4729 0.7673
vn 0.7372 -0.6757 -0.0006
vn 0.7373 -0.6756 -0.0002
vn 0.7373 -0.6755 0.0009
vn 0.7373 -0.6755 0.0002
vn -0.6184 -0.6749 -0.4025
vn -0.7373 0.6756 0.0003
vn -0.7373 0.6755 -0.0001
vn -0.7373 0.6756 0.0001
vn -0.7372 0.6757 -0.0001
vn -0.7372 0.6756 -0.0000
vn -0.7372 0.6757 0.0001
vn -0.7372 0.6757 -0.0002
vn -0.7372 0.6756 0.0001
vn -0.7364 0.6766 -0.0023
vn -0.7382 0.6746 0.0025
vn -0.7370 0.6758 -0.0004
vn -0.7378 0.6750 0.0006
vn -0.7376 0.6752 0.0007
vn -0.7374 0.6755 0.0003
vn -0.7364 0.6765 -0.0011
vn -0.7374 0.6754 0.0002
vn -0.7372 0.6757 -0.0000
vn -0.7372 0.6756 0.0003
vn -0.7373 0.6756 0.0002
vn -0.7373 0.6756 -0.0006
vn -0.7374 0.6755 -0.0013
vn -0.7371 0.6757 0.0014
vn -0.7372 0.6757 0.0006
vn -0.7373 0.6756 -0.0004
vn -0.7373 0.6756 -0.0005
vn -0.7373 0.6755 -0.0007
vn -0.7373 0.6756 0.0007
vn -0.7372 0.6756 0.0013
vn -0.7373 0.6755 -0.0006
vn -0.7372 0.6757 0.0016
vn -0.7374 0.6755 -0.0005
vn -0.7373 0.6756 0.0009
vn -0.7374 0.6754 0.0001
vn 0.5059 0.5522 -0.6626
vn 0.5059 0.5522 -0.6627
vn 0.5423 0.5919 -0.5962
vn 0.5424 0.5919 -0.5962
vn 0.6030 0.6581 -0.4510
vn 0.6455 0.7045 -0.2950
vn 0.6456 0.7046 -0.2945
vn 0.6699 0.7311 -0.1292
vn 0.6698 0.7311 -0.1300
vn 0.6750 0.7367 0.0405
vn 0.6750 0.7367 0.0407
vn 0.6608 0.7212 0.2079
vn 0.6272 0.6845 0.3717
vn 0.6273 0.6847 0.3710
vn 0.5764 0.6292 0.5214
vn 0.5761 0.6287 0.5223
vn 0.5090 0.5555 0.6576
vn 0.5088 0.5553 0.6579
vn 0.4263 0.4653 0.7757
vn 0.4261 0.4651 0.7760
vn 0.3318 0.3621 0.8711
vn 0.3321 0.3625 0.8708
vn 0.2276 0.2485 0.9415
vn 0.2275 0.2483 0.9416
vn 0.1341 0.1463 0.9801
vn 0.4331 0.4727 0.7674
vn 0.5387 0.5879 0.6035
vn 0.6363 0.6945 0.3357
vn 0.6755 0.7372 0.0148
vn 0.6757 0.7371 0.0152
vn 0.6671 0.7277 -0.1598
vn 0.6670 0.7277 -0.1598
vn 0.6481 0.7070 -0.2831
vn 0.6479 0.7072 -0.2830
vn -0.3861 -0.4215 -0.8205
vn -0.3866 -0.4218 -0.8201
vn 0.4690 0.5119 -0.7197
vn 0.4694 0.5121 -0.7193
vn -0.7374 0.6754 -0.0010
vn -0.7376 0.6753 -0.0001
vn -0.7371 0.6758 0.0001
vn 0.5234 0.5713 -0.6322
vn 0.5234 0.5712 -0.6322
vn -0.6725 -0.7339 -0.0957
vn -0.6724 -0.7340 -0.0956
vn -0.6712 -0.7326 0.1128
vn -0.6588 -0.7190 0.2213
vn -0.6588 -0.7191 0.2213
vn -0.4457 -0.4865 0.7515
vn -0.4457 -0.4864 0.7515
vn -0.6546 -0.7144 0.2473
vn -0.6545 -0.7144 0.2473
vn -0.1410 -0.1539 -0.9780
vn -0.6459 -0.7050 0.2927
vn -0.6460 -0.7050 0.2927
vn -0.5446 -0.5944 0.5917
vn -0.1397 -0.1524 -0.9784
vn -0.1396 -0.1524 -0.9784
vn -0.4994 -0.5451 0.6734
vn -0.4993 -0.5449 0.6736
vn -0.6340 -0.6919 0.3454
vn -0.6339 -0.6919 0.3455
vn 0.7378 -0.6751 -0.0006
vn -0.4999 -0.5456 0.6726
vn -0.5000 -0.5456 0.6725
vn 0.2864 0.3126 -0.9057
vn -0.0302 -0.0330 -0.9990
vn -0.6589 -0.7191 0.2209
vn -0.6592 -0.7191 0.2200
vn -0.6750 -0.7364 0.0451
vn -0.6749 -0.7365 0.0456
vn -0.6747 -0.7364 0.0493
vn -0.6277 -0.6850 0.3698
vn -0.6276 -0.6850 0.3699
vn -0.6755 -0.7373 -0.0095
vn -0.5669 -0.6188 -0.5438
vn -0.5669 -0.6187 -0.5439
vn -0.5561 -0.6069 -0.5678
vn -0.3898 -0.4255 -0.8167
vn -0.4330 -0.4726 -0.7676
vn -0.4334 -0.4731 -0.7670
vn -0.4335 -0.4731 -0.7670
vn 0.0000 0.0000 -1.0000
vn 0.7374 -0.6754 -0.0007
vn 0.7374 -0.6755 0.0005
vn 0.7371 -0.6757 -0.0015
vn 0.7373 -0.6755 0.0006
vn 0.7373 -0.6756 -0.0007
vn 0.7373 -0.6756 -0.0010
vn 0.7372 -0.6756 -0.0001
vn 0.7374 -0.6755 0.0015
vn 0.7372 -0.6757 -0.0012
vn 0.7373 -0.6756 0.0013
vn 0.7373 -0.6756 -0.0003
vn 0.7373 -0.6756 0.0001
vn 0.7372 -0.6757 -0.0007
vn 0.7373 -0.6756 0.0002
vn 0.7372 -0.6756 -0.0000
vn 0.7372 -0.6757 -0.0003
vn 0.7372 -0.6757 -0.0001
vn 0.7373 -0.6755 0.0004
vn 0.7374 -0.6754 -0.0001
vn 0.7374 -0.6754 -0.0000
vn 0.7370 -0.6759 0.0004
vn 0.7375 -0.6754 -0.0002
vn 0.7377 -0.6751 -0.0006
vn 0.7372 -0.6756 0.0003
vn 0.7385 -0.6742 -0.0030
vn 0.7365 -0.6764 0.0024
vn 0.7374 -0.6754 -0.0003
vn 0.7372 -0.6756 0.0015
vn 0.7374 -0.6755 -0.0002
vn 0.7374 -0.6755 -0.0001
vn 0.7372 -0.6757 0.0001
vn 0.7375 -0.6753 0.0006
vn 0.7377 -0.6751 -0.0007
s off
f 1//1 2//1 3//1
f 4//2 5//2 6//2
f 4//3 6//3 7//3
f 7//4 8//4 4//4
f 9//5 8//5 7//5
f 9//6 7//6 6//6
f 6//6 5//6 9//6
f 9//7 5//7 10//7
f 10//8 11//8 9//8
f 11//9 10//9 12//9
f 12//10 13//10 11//10
f 14//11 13//11 12//11
f 12//12 15//12 14//12
f 16//13 15//13 12//13
f 12//14 10//14 16//14
f 17//15 18//15 16//15
f 17//15 16//15 10//15
f 19//16 20//16 21//16
f 20//17 22//17 17//17
f 17//15 21//15 20//15
f 17//15 10//15 21//15
f 21//18 10//18 5//18
f 21//19 5//19 4//19
f 21//20 4//20 23//20
f 24//21 23//21 4//21
f 4//22 8//22 24//22
f 24//23 8//23 9//23
f 24//24 25//24 26//24
f 3//25 27//25 25//25
f 25//1 24//1 3//1
f 24//1 9//1 3//1
f 9//26 11//26 3//26
f 11//27 13//27 3//27
f 13//28 14//28 3//28
f 14//29 1//29 3//29
f 1//30 14//30 15//30
f 15//31 16//31 1//31
f 1//32 16//32 18//32
f 18//32 2//32 1//32
f 2//33 18//33 17//33
f 17//33 3//33 2//33
f 3//34 17//34 22//34
f 22//34 27//34 3//34
f 27//35 22//35 20//35
f 20//35 25//35 27//35
f 25//36 20//36 19//36
f 19//36 26//36 25//36
f 28//37 29//37 26//37
f 26//38 19//38 28//38
f 28//39 19//39 21//39
f 28//15 21//15 30//15
f 30//40 21//40 31//40
f 21//41 23//41 31//41
f 31//42 23//42 24//42
f 24//43 32//43 31//43
f 32//44 24//44 26//44
f 32//45 26//45 29//45
f 33//44 34//44 35//44
f 34//46 32//46 35//46
f 32//1 29//1 35//1
f 35//47 29//47 28//47
f 28//47 36//47 35//47
f 36//48 28//48 30//48
f 36//15 30//15 37//15
f 38//49 37//49 30//49
f 30//50 31//50 38//50
f 38//51 31//51 32//51
f 32//52 34//52 38//52
f 38//53 34//53 33//53
f 33//53 37//53 38//53
f 39//54 40//54 41//54
f 41//54 42//54 39//54
f 39//55 42//55 43//55
f 43//56 44//56 39//56
f 43//57 45//57 46//57
f 46//58 44//58 43//58
f 33//24 44//24 46//24
f 33//59 46//59 45//59
f 45//59 37//59 33//59
f 37//60 45//60 43//60
f 37//40 43//40 42//40
f 47//61 37//61 42//61
f 47//61 42//61 41//61
f 48//62 49//62 50//62
f 50//62 51//62 48//62
f 47//63 48//63 51//63
f 47//64 41//64 48//64
f 48//65 41//65 40//65
f 40//66 49//66 48//66
f 49//67 40//67 52//67
f 40//68 39//68 52//68
f 39//44 44//44 52//44
f 44//69 33//69 52//69
f 33//70 35//70 52//70
f 53//71 52//71 35//71
f 35//71 36//71 53//71
f 53//48 36//48 37//48
f 53//72 37//72 47//72
f 54//17 53//17 47//17
f 54//73 47//73 55//73
f 56//74 54//74 55//74
f 57//75 56//75 55//75
f 57//48 55//48 58//48
f 59//76 57//76 58//76
f 60//77 59//77 58//77
f 61//78 60//78 58//78
f 62//79 61//79 58//79
f 63//72 62//72 58//72
f 64//80 63//80 58//80
f 65//81 64//81 58//81
f 66//82 65//82 58//82
f 67//83 68//83 66//83
f 67//84 66//84 58//84
f 69//85 67//85 58//85
f 70//86 69//86 58//86
f 71//87 70//87 58//87
f 71//88 58//88 72//88
f 73//88 71//88 72//88
f 73//79 72//79 74//79
f 75//77 73//77 74//77
f 75//89 74//89 76//89
f 77//73 75//73 76//73
f 77//73 76//73 78//73
f 79//90 77//90 78//90
f 79//74 78//74 80//74
f 79//91 80//91 81//91
f 79//92 81//92 82//92
f 79//93 82//93 83//93
f 79//15 83//15 84//15
f 79//94 84//94 85//94
f 86//48 79//48 85//48
f 86//95 85//95 87//95
f 86//96 87//96 88//96
f 86//74 88//74 89//74
f 86//97 89//97 90//97
f 91//79 86//79 90//79
f 91//98 90//98 92//98
f 91//99 92//99 93//99
f 91//100 93//100 94//100
f 91//101 94//101 95//101
f 96//102 91//102 95//102
f 97//103 98//103 96//103
f 96//104 95//104 97//104
f 99//105 100//105 97//105
f 97//106 95//106 99//106
f 101//107 99//107 95//107
f 95//108 94//108 101//108
f 101//109 94//109 93//109
f 93//109 102//109 101//109
f 102//110 93//110 92//110
f 92//111 103//111 102//111
f 103//112 92//112 90//112
f 90//113 104//113 103//113
f 104//114 90//114 89//114
f 89//115 105//115 104//115
f 106//116 105//116 89//116
f 89//116 88//116 106//116
f 106//117 88//117 87//117
f 87//118 107//118 106//118
f 107//119 87//119 85//119
f 85//120 108//120 107//120
f 109//121 108//121 85//121
f 85//122 84//122 109//122
f 109//123 84//123 83//123
f 83//124 110//124 109//124
f 110//125 83//125 82//125
f 82//126 111//126 110//126
f 111//127 82//127 81//127
f 81//128 112//128 111//128
f 112//129 81//129 80//129
f 80//129 113//129 112//129
f 113//130 80//130 78//130
f 78//130 114//130 113//130
f 114//131 78//131 76//131
f 76//131 115//131 114//131
f 116//132 115//132 76//132
f 76//132 74//132 116//132
f 116//133 74//133 72//133
f 72//134 117//134 116//134
f 118//135 117//135 72//135
f 72//136 58//136 118//136
f 119//137 118//137 58//137
f 58//138 55//138 119//138
f 119//139 55//139 120//139
f 120//140 121//140 119//140
f 122//141 123//141 121//141
f 121//142 120//142 122//142
f 122//143 120//143 55//143
f 55//144 47//144 122//144
f 47//145 51//145 122//145
f 122//146 51//146 50//146
f 50//147 123//147 122//147
f 123//46 50//46 124//46
f 50//44 49//44 124//44
f 49//25 52//25 124//25
f 124//148 52//148 53//148
f 53//149 54//149 124//149
f 125//150 124//150 54//150
f 54//150 56//150 125//150
f 126//151 125//151 56//151
f 56//152 57//152 126//152
f 126//153 57//153 59//153
f 59//154 127//154 126//154
f 128//155 127//155 59//155
f 59//156 60//156 128//156
f 128//157 60//157 61//157
f 61//157 129//157 128//157
f 130//158 129//158 61//158
f 61//159 62//159 130//159
f 130//160 62//160 63//160
f 63//160 131//160 130//160
f 131//161 63//161 64//161
f 64//162 132//162 131//162
f 132//163 64//163 65//163
f 65//164 133//164 132//164
f 134//165 133//165 65//165
f 65//166 66//166 134//166
f 135//167 136//167 134//167
f 135//168 134//168 66//168
f 66//169 68//169 135//169
f 135//170 68//170 67//170
f 67//170 136//170 135//170
f 136//171 67//171 69//171
f 69//171 137//171 136//171
f 138//172 137//172 69//172
f 69//173 70//173 138//173
f 139//174 138//174 70//174
f 70//175 71//175 139//175
f 140//176 139//176 71//176
f 71//176 73//176 140//176
f 141//177 140//177 73//177
f 73//178 75//178 141//178
f 142//179 141//179 75//179
f 75//179 77//179 142//179
f 143//180 142//180 77//180
f 77//181 79//181 143//181
f 144//182 143//182 79//182
f 79//182 86//182 144//182
f 144//183 86//183 91//183
f 91//183 145//183 144//183
f 145//184 91//184 96//184
f 96//184 146//184 145//184
f 146//185 96//185 98//185
f 98//186 147//186 146//186
f 147//187 98//187 97//187
f 97//187 100//187 147//187
f 147//1 100//1 99//1
f 99//188 146//188 147//188
f 99//189 145//189 146//189
f 99//190 101//190 145//190
f 101//191 102//191 145//191
f 102//192 103//192 145//192
f 103//193 104//193 145//193
f 104//194 144//194 145//194
f 104//195 105//195 144//195
f 105//196 106//196 144//196
f 106//197 107//197 144//197
f 107//198 108//198 144//198
f 108//199 143//199 144//199
f 108//200 109//200 143//200
f 109//1 110//1 143//1
f 110//194 111//194 143//194
f 111//201 112//201 143//201
f 112//200 113//200 143//200
f 113//202 114//202 143//202
f 114//68 142//68 143//68
f 114//199 115//199 142//199
f 115//199 141//199 142//199
f 115//203 116//203 141//203
f 116//204 140//204 141//204
f 116//205 117//205 140//205
f 117//206 139//206 140//206
f 117//207 118//207 139//207
f 118//208 138//208 139//208
f 118//209 137//209 138//209
f 118//206 136//206 137//206
f 118//210 134//210 136//210
f 118//211 133//211 134//211
f 118//212 132//212 133//212
f 118//213 131//213 132//213
f 118//214 130//214 131//214
f 118//214 129//214 130//214
f 118//215 128//215 129//215
f 118//216 127//216 128//216
f 118//217 126//217 127//217
f 118//217 119//217 126//217
f 119//218 125//218 126//218
f 119//28 124//28 125//28
f 119//219 123//219 124//219
f 119//220 121//220 123//220
