# Blender v2.79 (sub 0) OBJ File: ''
# www.blender.org
o obj06.002
v -0.323816 -0.149830 0.390815
v -0.296284 -0.133934 0.425238
v -0.231434 -0.096493 0.425238
v -0.340526 -0.194836 0.318701
v -0.335848 -0.192136 0.319525
v -0.336623 -0.192585 0.319539
v -0.351934 -0.166064 0.319539
v -0.355837 -0.168317 0.318701
v -0.351160 -0.165616 0.319525
v -0.321968 -0.184122 0.351450
v -0.337279 -0.157601 0.351450
v -0.325951 -0.186423 0.370377
v -0.341263 -0.159901 0.370377
v -0.339338 -0.158792 0.384805
v -0.324026 -0.185312 0.384805
v -0.308505 -0.176350 0.390815
v -0.216123 -0.123013 0.425238
v -0.280972 -0.160454 0.425238
v -0.255050 -0.145488 0.297950
v -0.242587 -0.138292 0.301891
v -0.328381 -0.187825 0.314099
v -0.216123 -0.123013 0.296095
v -0.338585 -0.193717 0.304880
v -0.353896 -0.167196 0.304880
v -0.257899 -0.111771 0.301891
v -0.270362 -0.118968 0.297950
v -0.231434 -0.096493 0.296095
v -0.264638 -0.151023 0.287131
v -0.279950 -0.124502 0.287131
v -0.327702 -0.187433 0.276169
v -0.342757 -0.196126 0.294838
v -0.358069 -0.169605 0.294838
v -0.339008 -0.158600 0.259844
v -0.352434 -0.166352 0.273402
v -0.288114 -0.129216 0.273700
v -0.272802 -0.155737 0.273700
v -0.323696 -0.185120 0.259844
v -0.337123 -0.192872 0.273402
v -0.346170 -0.162736 0.244288
v -0.346395 -0.162865 0.235846
v -0.331084 -0.189386 0.235846
v -0.330859 -0.189256 0.244288
v -0.336802 -0.192687 0.256629
v -0.352114 -0.166167 0.256629
v -0.335918 -0.192177 0.260335
v -0.351230 -0.165656 0.260335
v -0.319690 -0.182807 0.243520
v -0.336739 -0.192651 0.230388
v -0.352051 -0.166131 0.230388
v -0.348423 -0.164035 0.218958
v -0.333112 -0.190556 0.218958
v -0.294886 -0.133128 0.255911
v -0.279575 -0.159646 0.255911
v -0.282152 -0.161135 0.224931
v -0.315284 -0.180265 0.206264
v -0.278885 -0.159249 0.191677
v -0.271894 -0.155212 0.156099
v -0.296648 -0.169504 0.133345
v -0.260836 -0.148828 0.144891
v -0.257243 -0.146753 0.128622
v -0.263245 -0.150219 0.127144
v -0.261075 -0.148966 0.118955
v -0.255152 -0.145546 0.109633
v -0.258164 -0.147286 0.108898
v -0.255934 -0.145998 0.106069
v -0.252997 -0.144302 0.096864
v -0.254533 -0.145189 0.093330
v -0.247016 -0.140850 0.089267
v -0.262819 -0.149974 0.092902
v -0.261383 -0.149144 0.085569
v -0.260770 -0.148790 0.070070
v -0.286468 -0.163627 0.060730
v -0.260147 -0.148431 0.055412
v -0.286691 -0.163755 0.043390
v -0.254967 -0.145440 0.040386
v -0.291409 -0.166479 0.028108
v -0.255096 -0.145514 0.024708
v -0.300644 -0.171812 0.014016
v -0.263605 -0.150426 0.009550
v -0.311335 -0.177983 0.003704
v -0.317368 -0.181466 0.002294
v -0.319448 -0.182667 0.001434
v -0.321372 -0.183778 0.000181
v -0.323085 -0.184767 -0.001429
v -0.324541 -0.185607 -0.003350
v -0.272121 -0.155344 -0.004708
v -0.325692 -0.186273 -0.005527
v -0.326512 -0.186747 -0.007897
v -0.326971 -0.187012 -0.010392
v -0.327060 -0.187063 -0.012940
v -0.283636 -0.161992 -0.014103
v -0.326776 -0.186898 -0.015471
v -0.326125 -0.186523 -0.017910
v -0.325127 -0.185947 -0.020186
v -0.323811 -0.185187 -0.022236
v -0.294398 -0.168205 -0.024483
v -0.317060 -0.181289 -0.031049
v -0.301200 -0.172134 -0.031049
v -0.339122 -0.158666 -0.022236
v -0.332372 -0.154769 -0.031049
v -0.340439 -0.159426 -0.020186
v -0.341436 -0.160003 -0.017910
v -0.342087 -0.160378 -0.015471
v -0.342372 -0.160542 -0.012940
v -0.342283 -0.160490 -0.010392
v -0.341823 -0.160226 -0.007897
v -0.341004 -0.159753 -0.005527
v -0.339852 -0.159087 -0.003350
v -0.338397 -0.158248 -0.001429
v -0.336684 -0.157258 0.000181
v -0.334760 -0.156147 0.001434
v -0.332679 -0.154946 0.002294
v -0.326647 -0.151463 0.003704
v -0.315956 -0.145291 0.014016
v -0.306721 -0.139960 0.028108
v -0.302003 -0.137235 0.043390
v -0.301780 -0.137106 0.060730
v -0.311959 -0.142984 0.133345
v -0.330596 -0.153744 0.206264
v -0.320097 -0.183042 0.202395
v -0.335408 -0.156522 0.202395
v -0.326259 -0.186601 0.209261
v -0.341571 -0.160081 0.209261
v -0.297464 -0.134614 0.224931
v -0.294197 -0.132728 0.191677
v -0.287205 -0.128691 0.156099
v -0.276148 -0.122308 0.144891
v -0.272555 -0.120233 0.128622
v -0.278556 -0.123698 0.127144
v -0.276387 -0.122445 0.118955
v -0.270464 -0.119025 0.109633
v -0.273475 -0.120766 0.108898
v -0.271246 -0.119477 0.106069
v -0.268309 -0.117784 0.096864
v -0.262327 -0.114329 0.089267
v -0.269844 -0.118669 0.093330
v -0.278131 -0.123453 0.092902
v -0.276695 -0.122622 0.085569
v -0.276081 -0.122271 0.070070
v -0.275458 -0.121910 0.055412
v -0.270279 -0.118919 0.040386
v -0.270406 -0.118994 0.024708
v -0.278917 -0.123906 0.009550
v -0.287433 -0.128823 -0.004708
v -0.298947 -0.135472 -0.014103
v -0.309711 -0.141686 -0.024483
v -0.316512 -0.145611 -0.031049
vn -0.5000 0.8660 -0.0000
vn 0.5013 -0.8652 -0.0096
vn -0.1583 -0.0914 0.9831
vn -0.5010 0.8654 0.0056
vn 0.0136 0.0078 0.9999
vn 0.0135 0.0078 0.9999
vn -0.7740 -0.4469 0.4487
vn -0.7740 -0.4468 0.4487
vn -0.8415 -0.4858 -0.2362
vn -0.8559 -0.4942 0.1522
vn -0.8559 -0.4942 0.1523
vn 0.5001 -0.8660 -0.0000
vn 0.5000 -0.8660 -0.0000
vn 0.5000 -0.8660 0.0001
vn 0.4999 -0.8661 -0.0002
vn -0.8549 -0.4935 -0.1600
vn -0.8549 -0.4936 -0.1601
vn -0.5001 0.8660 0.0000
vn -0.5000 0.8660 -0.0003
vn -0.5000 0.8660 0.0002
vn -0.4996 0.8663 -0.0012
vn -0.2753 -0.1590 0.9481
vn -0.6362 -0.3673 0.6785
vn 0.0000 0.0000 1.0000
vn 0.8660 0.5000 0.0000
vn -0.1614 -0.0932 -0.9825
vn 0.2287 0.1321 -0.9645
vn 0.6053 0.3495 -0.7152
vn -0.7808 -0.4508 0.4325
vn -0.7808 -0.4508 0.4326
vn -0.5000 0.8660 0.0001
vn 0.7088 0.4093 -0.5745
vn 0.5000 -0.8660 -0.0001
vn -0.8287 -0.4784 -0.2904
vn -0.5701 -0.3291 -0.7528
vn -0.5701 -0.3292 -0.7528
vn -0.8656 -0.4997 0.0307
vn -0.8656 -0.4998 0.0308
vn -0.7569 -0.4370 -0.4860
vn -0.7568 -0.4370 -0.4860
vn -0.8349 -0.4821 0.2655
vn -0.8349 -0.4821 0.2656
vn -0.5000 0.8660 -0.0002
vn 0.0301 0.0174 0.9994
vn -0.8131 -0.4695 -0.3442
vn -0.8132 -0.4694 -0.3441
vn 0.5001 -0.8660 -0.0001
vn -0.5554 -0.3206 0.7673
vn -0.5553 -0.3206 0.7673
vn -0.4999 0.8661 -0.0002
vn -0.5000 0.8660 -0.0001
vn 0.7928 0.4577 -0.4025
vn 0.7928 0.4577 -0.4024
vn 0.5000 -0.8660 0.0003
vn 0.5002 -0.8659 0.0004
vn 0.4998 -0.8661 -0.0004
vn 0.5000 -0.8661 0.0001
vn 0.5001 -0.8660 0.0001
vn 0.4998 -0.8661 -0.0001
vn 0.5000 -0.8660 -0.0002
vn 0.5000 -0.8660 0.0002
vn 0.5000 -0.8660 -0.0003
vn 0.5000 -0.8660 0.0006
vn 0.4999 -0.8661 0.0003
vn -0.6487 -0.3746 -0.6625
vn -0.6487 -0.3745 -0.6625
vn -0.6955 -0.4015 -0.5958
vn -0.6957 -0.4017 -0.5956
vn -0.7727 -0.4461 -0.4516
vn -0.7727 -0.4461 -0.4515
vn -0.8276 -0.4778 -0.2944
vn -0.8588 -0.4958 -0.1287
vn -0.8588 -0.4958 -0.1289
vn -0.8653 -0.4996 0.0402
vn -0.8653 -0.4996 0.0404
vn -0.8471 -0.4891 0.2079
vn -0.8471 -0.4891 0.2078
vn -0.8042 -0.4643 0.3711
vn -0.8043 -0.4644 0.3706
vn -0.7390 -0.4267 0.5214
vn -0.7389 -0.4266 0.5216
vn -0.6520 -0.3764 0.6582
vn -0.6517 -0.3763 0.6585
vn -0.5466 -0.3156 0.7756
vn -0.5466 -0.3156 0.7757
vn -0.4255 -0.2457 0.8709
vn -0.4256 -0.2457 0.8709
vn -0.2918 -0.1685 0.9415
vn -0.2917 -0.1684 0.9416
vn -0.1719 -0.0992 0.9801
vn -0.1719 -0.0993 0.9801
vn -0.5552 -0.3206 0.7675
vn -0.5552 -0.3205 0.7675
vn -0.6906 -0.3987 0.6034
vn -0.8157 -0.4710 0.3358
vn -0.8659 -0.5000 0.0148
vn -0.8659 -0.4999 0.0149
vn -0.8549 -0.4936 -0.1598
vn -0.8306 -0.4795 -0.2831
vn -0.8306 -0.4796 -0.2831
vn 0.4949 0.2857 -0.8207
vn 0.4949 0.2857 -0.8206
vn -0.6013 -0.3472 -0.7197
vn -0.6013 -0.3472 -0.7196
vn 0.4999 -0.8661 -0.0003
vn 0.4999 -0.8661 0.0001
vn -0.6710 -0.3874 -0.6322
vn -0.6710 -0.3874 -0.6321
vn 0.8620 0.4977 -0.0956
vn 0.8621 0.4977 -0.0956
vn 0.8605 0.4968 0.1127
vn 0.8446 0.4876 0.2213
vn 0.5713 0.3298 0.7515
vn 0.5713 0.3299 0.7515
vn 0.8392 0.4845 0.2471
vn 0.1806 0.1043 -0.9780
vn 0.1807 0.1043 -0.9780
vn 0.8282 0.4781 0.2925
vn 0.8281 0.4781 0.2926
vn 0.6982 0.4031 0.5916
vn 0.1790 0.1034 -0.9784
vn 0.1791 0.1034 -0.9784
vn 0.6404 0.3697 0.6732
vn 0.6405 0.3698 0.6731
vn 0.8127 0.4692 0.3456
vn 0.8126 0.4692 0.3457
vn -0.4999 0.8661 0.0002
vn 0.6407 0.3700 0.6727
vn 0.6409 0.3700 0.6726
vn -0.3672 -0.2120 -0.9056
vn -0.3672 -0.2120 -0.9057
vn 0.0388 0.0224 -0.9990
vn 0.8447 0.4877 0.2207
vn 0.8447 0.4877 0.2206
vn 0.8651 0.4995 0.0456
vn 0.8650 0.4994 0.0491
vn 0.8650 0.4994 0.0490
vn 0.8046 0.4645 0.3698
vn 0.8046 0.4645 0.3699
vn 0.8660 0.5000 -0.0094
vn 0.8660 0.4999 -0.0095
vn 0.7267 0.4195 -0.5440
vn 0.7267 0.4196 -0.5439
vn 0.7129 0.4116 -0.5677
vn 0.7129 0.4116 -0.5678
vn 0.4998 0.2885 -0.8167
vn 0.5552 0.3205 -0.7675
vn 0.5551 0.3205 -0.7675
vn 0.5554 0.3207 -0.7673
vn 0.5555 0.3207 -0.7672
vn 0.0000 0.0000 -1.0000
vn -0.5001 0.8660 -0.0001
vn -0.5000 0.8660 0.0005
vn -0.5000 0.8660 0.0006
vn -0.5000 0.8660 -0.0004
vn -0.5001 0.8660 0.0006
vn -0.4999 0.8661 -0.0006
vn -0.5001 0.8660 0.0007
vn -0.5000 0.8661 -0.0005
vn -0.4999 0.8661 0.0000
vn -0.5003 0.8659 -0.0002
vn -0.4997 0.8662 0.0003
vn -0.5002 0.8659 -0.0003
vn -0.4994 0.8664 0.0013
vn -0.5004 0.8658 -0.0009
s off
f 1//1 2//1 3//1
f 4//2 5//2 6//2
f 4//3 6//3 7//3
f 7//3 8//3 4//3
f 9//4 8//4 7//4
f 9//5 7//5 6//5
f 6//6 5//6 9//6
f 9//7 5//7 10//7
f 10//8 11//8 9//8
f 11//9 10//9 12//9
f 12//9 13//9 11//9
f 14//10 13//10 12//10
f 12//11 15//11 14//11
f 16//12 15//12 12//12
f 12//12 10//12 16//12
f 17//13 18//13 16//13
f 17//13 16//13 10//13
f 19//14 20//14 21//14
f 20//13 22//13 17//13
f 17//13 21//13 20//13
f 17//13 10//13 21//13
f 21//13 10//13 5//13
f 21//15 5//15 4//15
f 21//14 4//14 23//14
f 24//16 23//16 4//16
f 4//17 8//17 24//17
f 24//18 8//18 9//18
f 24//19 25//19 26//19
f 3//1 27//1 25//1
f 25//1 24//1 3//1
f 24//1 9//1 3//1
f 9//1 11//1 3//1
f 11//1 13//1 3//1
f 13//20 14//20 3//20
f 14//21 1//21 3//21
f 1//22 14//22 15//22
f 15//22 16//22 1//22
f 1//23 16//23 18//23
f 18//23 2//23 1//23
f 2//24 18//24 17//24
f 17//24 3//24 2//24
f 3//25 17//25 22//25
f 22//25 27//25 3//25
f 27//26 22//26 20//26
f 20//26 25//26 27//26
f 25//27 20//27 19//27
f 19//27 26//27 25//27
f 28//28 29//28 26//28
f 26//28 19//28 28//28
f 28//13 19//13 21//13
f 28//13 21//13 30//13
f 30//13 21//13 31//13
f 21//12 23//12 31//12
f 31//29 23//29 24//29
f 24//30 32//30 31//30
f 32//1 24//1 26//1
f 32//31 26//31 29//31
f 33//1 34//1 35//1
f 34//1 32//1 35//1
f 32//1 29//1 35//1
f 35//32 29//32 28//32
f 28//32 36//32 35//32
f 36//13 28//13 30//13
f 36//13 30//13 37//13
f 38//13 37//13 30//13
f 30//33 31//33 38//33
f 38//34 31//34 32//34
f 32//34 34//34 38//34
f 38//35 34//35 33//35
f 33//36 37//36 38//36
f 39//37 40//37 41//37
f 41//38 42//38 39//38
f 39//39 42//39 43//39
f 43//40 44//40 39//40
f 43//41 45//41 46//41
f 46//42 44//42 43//42
f 33//43 44//43 46//43
f 33//44 46//44 45//44
f 45//44 37//44 33//44
f 37//33 45//33 43//33
f 37//13 43//13 42//13
f 47//13 37//13 42//13
f 47//13 42//13 41//13
f 48//45 49//45 50//45
f 50//46 51//46 48//46
f 47//12 48//12 51//12
f 47//47 41//47 48//47
f 48//48 41//48 40//48
f 40//49 49//49 48//49
f 49//50 40//50 52//50
f 40//31 39//31 52//31
f 39//1 44//1 52//1
f 44//43 33//43 52//43
f 33//51 35//51 52//51
f 53//52 52//52 35//52
f 35//53 36//53 53//53
f 53//33 36//33 37//33
f 53//13 37//13 47//13
f 54//13 53//13 47//13
f 54//13 47//13 55//13
f 56//13 54//13 55//13
f 57//13 56//13 55//13
f 57//13 55//13 58//13
f 59//13 57//13 58//13
f 60//13 59//13 58//13
f 61//54 60//54 58//54
f 62//13 61//13 58//13
f 63//13 62//13 58//13
f 64//55 63//55 58//55
f 65//56 64//56 58//56
f 66//13 65//13 58//13
f 67//57 68//57 66//57
f 67//13 66//13 58//13
f 69//58 67//58 58//58
f 70//59 69//59 58//59
f 71//13 70//13 58//13
f 71//13 58//13 72//13
f 73//13 71//13 72//13
f 73//13 72//13 74//13
f 75//13 73//13 74//13
f 75//13 74//13 76//13
f 77//13 75//13 76//13
f 77//14 76//14 78//14
f 79//33 77//33 78//33
f 79//33 78//33 80//33
f 79//60 80//60 81//60
f 79//61 81//61 82//61
f 79//61 82//61 83//61
f 79//13 83//13 84//13
f 79//62 84//62 85//62
f 86//14 79//14 85//14
f 86//63 85//63 87//63
f 86//61 87//61 88//61
f 86//13 88//13 89//13
f 86//33 89//33 90//33
f 91//13 86//13 90//13
f 91//62 90//62 92//62
f 91//54 92//54 93//54
f 91//14 93//14 94//14
f 91//33 94//33 95//33
f 96//13 91//13 95//13
f 97//64 98//64 96//64
f 96//13 95//13 97//13
f 99//65 100//65 97//65
f 97//66 95//66 99//66
f 101//67 99//67 95//67
f 95//68 94//68 101//68
f 101//69 94//69 93//69
f 93//70 102//70 101//70
f 102//71 93//71 92//71
f 92//71 103//71 102//71
f 103//72 92//72 90//72
f 90//73 104//73 103//73
f 104//74 90//74 89//74
f 89//75 105//75 104//75
f 106//76 105//76 89//76
f 89//77 88//77 106//77
f 106//78 88//78 87//78
f 87//79 107//79 106//79
f 107//80 87//80 85//80
f 85//81 108//81 107//81
f 109//82 108//82 85//82
f 85//83 84//83 109//83
f 109//84 84//84 83//84
f 83//85 110//85 109//85
f 110//86 83//86 82//86
f 82//87 111//87 110//87
f 111//88 82//88 81//88
f 81//89 112//89 111//89
f 112//90 81//90 80//90
f 80//91 113//91 112//91
f 113//92 80//92 78//92
f 78//93 114//93 113//93
f 114//94 78//94 76//94
f 76//94 115//94 114//94
f 116//95 115//95 76//95
f 76//95 74//95 116//95
f 116//96 74//96 72//96
f 72//97 117//97 116//97
f 118//98 117//98 72//98
f 72//98 58//98 118//98
f 119//99 118//99 58//99
f 58//100 55//100 119//100
f 119//101 55//101 120//101
f 120//102 121//102 119//102
f 122//103 123//103 121//103
f 121//104 120//104 122//104
f 122//105 120//105 55//105
f 55//13 47//13 122//13
f 47//106 51//106 122//106
f 122//107 51//107 50//107
f 50//108 123//108 122//108
f 123//43 50//43 124//43
f 50//31 49//31 124//31
f 49//31 52//31 124//31
f 124//109 52//109 53//109
f 53//110 54//110 124//110
f 125//111 124//111 54//111
f 54//111 56//111 125//111
f 126//112 125//112 56//112
f 56//112 57//112 126//112
f 126//113 57//113 59//113
f 59//114 127//114 126//114
f 128//115 127//115 59//115
f 59//115 60//115 128//115
f 128//116 60//116 61//116
f 61//117 129//117 128//117
f 130//118 129//118 61//118
f 61//119 62//119 130//119
f 130//120 62//120 63//120
f 63//120 131//120 130//120
f 131//121 63//121 64//121
f 64//122 132//122 131//122
f 132//123 64//123 65//123
f 65//124 133//124 132//124
f 134//125 133//125 65//125
f 65//126 66//126 134//126
f 135//127 136//127 134//127
f 135//128 134//128 66//128
f 66//129 68//129 135//129
f 135//130 68//130 67//130
f 67//131 136//131 135//131
f 136//132 67//132 69//132
f 69//132 137//132 136//132
f 138//133 137//133 69//133
f 69//134 70//134 138//134
f 139//135 138//135 70//135
f 70//135 71//135 139//135
f 140//136 139//136 71//136
f 71//137 73//137 140//137
f 141//138 140//138 73//138
f 73//139 75//139 141//139
f 142//140 141//140 75//140
f 75//141 77//141 142//141
f 143//142 142//142 77//142
f 77//143 79//143 143//143
f 144//144 143//144 79//144
f 79//145 86//145 144//145
f 144//146 86//146 91//146
f 91//146 145//146 144//146
f 145//147 91//147 96//147
f 96//148 146//148 145//148
f 146//149 96//149 98//149
f 98//150 147//150 146//150
f 147//151 98//151 97//151
f 97//151 100//151 147//151
f 147//152 100//152 99//152
f 99//20 146//20 147//20
f 99//1 145//1 146//1
f 99//51 101//51 145//51
f 101//153 102//153 145//153
f 102//19 103//19 145//19
f 103//43 104//43 145//43
f 104//43 144//43 145//43
f 104//43 105//43 144//43
f 105//154 106//154 144//154
f 106//51 107//51 144//51
f 107//155 108//155 144//155
f 108//1 143//1 144//1
f 108//156 109//156 143//156
f 109//157 110//157 143//157
f 110//51 111//51 143//51
f 111//158 112//158 143//158
f 112//159 113//159 143//159
f 113//1 114//1 143//1
f 114//31 142//31 143//31
f 114//1 115//1 142//1
f 115//51 141//51 142//51
f 115//51 116//51 141//51
f 116//31 140//31 141//31
f 116//1 117//1 140//1
f 117//31 139//31 140//31
f 117//160 118//160 139//160
f 118//161 138//161 139//161
f 118//162 137//162 138//162
f 118//31 136//31 137//31
f 118//127 134//127 136//127
f 118//163 133//163 134//163
f 118//164 132//164 133//164
f 118//165 131//165 132//165
f 118//1 130//1 131//1
f 118//31 129//31 130//31
f 118//51 128//51 129//51
f 118//1 127//1 128//1
f 118//51 126//51 127//51
f 118//1 119//1 126//1
f 119//1 125//1 126//1
f 119//1 124//1 125//1
f 119//1 123//1 124//1
f 119//31 121//31 123//31
