# Blender v2.79 (sub 0) OBJ File: ''
# www.blender.org
o LeftFrontLeg
v -0.303718 -0.314320 -0.013641
v -0.286082 -0.307016 -0.013641
v -0.284628 -0.314320 -0.013641
v -0.290220 -0.300823 -0.013641
v -0.296412 -0.296684 -0.013641
v -0.303718 -0.295232 -0.013641
v -0.311023 -0.296684 -0.013641
v -0.317216 -0.300823 -0.013641
v -0.321354 -0.307016 -0.013641
v -0.322807 -0.314320 -0.013641
v -0.321354 -0.321625 -0.013641
v -0.317216 -0.327819 -0.013641
v -0.311023 -0.331956 -0.013641
v -0.303718 -0.333409 -0.013641
v -0.296412 -0.331956 -0.013641
v -0.290220 -0.327819 -0.013641
v -0.286082 -0.321625 -0.013641
v -0.286082 -0.307016 0.045412
v -0.284628 -0.314320 0.045412
v -0.290220 -0.300823 0.045412
v -0.296412 -0.296684 0.045412
v -0.303718 -0.295232 0.045412
v -0.311023 -0.296684 0.045412
v -0.317216 -0.300823 0.045412
v -0.321354 -0.307016 0.045412
v -0.322807 -0.314320 0.045412
v -0.321354 -0.321625 0.045412
v -0.317216 -0.327819 0.045412
v -0.311023 -0.331956 0.045412
v -0.303718 -0.333409 0.045412
v -0.296412 -0.331956 0.045412
v -0.290220 -0.327819 0.045412
v -0.286082 -0.321625 0.045412
v -0.286082 -0.307016 0.104465
v -0.284628 -0.314320 0.104465
v -0.290220 -0.300823 0.104465
v -0.296412 -0.296684 0.104465
v -0.303718 -0.295232 0.104465
v -0.311023 -0.296684 0.104465
v -0.317216 -0.300823 0.104465
v -0.321354 -0.307016 0.104465
v -0.322807 -0.314320 0.104465
v -0.321354 -0.321625 0.104465
v -0.317216 -0.327819 0.104465
v -0.311023 -0.331956 0.104465
v -0.303718 -0.333409 0.104465
v -0.296412 -0.331956 0.104465
v -0.290220 -0.327819 0.104465
v -0.286082 -0.321625 0.104465
v -0.286082 -0.307016 0.163517
v -0.284628 -0.314320 0.163517
v -0.290220 -0.300823 0.163517
v -0.296412 -0.296684 0.163517
v -0.303718 -0.295232 0.163517
v -0.311023 -0.296684 0.163517
v -0.317216 -0.300823 0.163517
v -0.321354 -0.307016 0.163517
v -0.322807 -0.314320 0.163517
v -0.321354 -0.321625 0.163517
v -0.317216 -0.327819 0.163517
v -0.311023 -0.331956 0.163517
v -0.303718 -0.333409 0.163517
v -0.296412 -0.331956 0.163517
v -0.290220 -0.327819 0.163517
v -0.286082 -0.321625 0.163517
v -0.286082 -0.307016 0.222570
v -0.284628 -0.314320 0.222570
v -0.290220 -0.300823 0.222570
v -0.296412 -0.296684 0.222570
v -0.303718 -0.295232 0.222570
v -0.311023 -0.296684 0.222570
v -0.317216 -0.300823 0.222570
v -0.321354 -0.307016 0.222570
v -0.322807 -0.314320 0.222570
v -0.321354 -0.321625 0.222570
v -0.317216 -0.327819 0.222570
v -0.311023 -0.331956 0.222570
v -0.303718 -0.333409 0.222570
v -0.296412 -0.331956 0.222570
v -0.290220 -0.327819 0.222570
v -0.286082 -0.321625 0.222570
v -0.286082 -0.307016 0.281623
v -0.284628 -0.314320 0.281623
v -0.290220 -0.300823 0.281623
v -0.296412 -0.296684 0.281623
v -0.303718 -0.295232 0.281623
v -0.311023 -0.296684 0.281623
v -0.317216 -0.300823 0.281623
v -0.321354 -0.307016 0.281623
v -0.322807 -0.314320 0.281623
v -0.321354 -0.321625 0.281623
v -0.317216 -0.327819 0.281623
v -0.311023 -0.331956 0.281623
v -0.303718 -0.333409 0.281623
v -0.296412 -0.331956 0.281623
v -0.290220 -0.327819 0.281623
v -0.286082 -0.321625 0.281623
v -0.286082 -0.307016 0.340675
v -0.284628 -0.314320 0.340675
v -0.290220 -0.300823 0.340675
v -0.296412 -0.296684 0.340675
v -0.303718 -0.295232 0.340675
v -0.311023 -0.296684 0.340675
v -0.317216 -0.300823 0.340675
v -0.321354 -0.307016 0.340675
v -0.322807 -0.314320 0.340675
v -0.321354 -0.321625 0.340675
v -0.317216 -0.327819 0.340675
v -0.311023 -0.331956 0.340675
v -0.303718 -0.333409 0.340675
v -0.296412 -0.331956 0.340675
v -0.290220 -0.327819 0.340675
v -0.286082 -0.321625 0.340675
v -0.286082 -0.307016 0.399728
v -0.284628 -0.314320 0.399728
v -0.290220 -0.300823 0.399728
v -0.296412 -0.296684 0.399728
v -0.303718 -0.295232 0.399728
v -0.311023 -0.296684 0.399728
v -0.317216 -0.300823 0.399728
v -0.321354 -0.307016 0.399728
v -0.322807 -0.314320 0.399728
v -0.321354 -0.321625 0.399728
v -0.317216 -0.327819 0.399728
v -0.311023 -0.331956 0.399728
v -0.303718 -0.333409 0.399728
v -0.296412 -0.331956 0.399728
v -0.290220 -0.327819 0.399728
v -0.286082 -0.321625 0.399728
v -0.286082 -0.307016 0.458781
v -0.284628 -0.314320 0.458781
v -0.290220 -0.300823 0.458781
v -0.296412 -0.296684 0.458781
v -0.303718 -0.295232 0.458781
v -0.311023 -0.296684 0.458781
v -0.317216 -0.300823 0.458781
v -0.321354 -0.307016 0.458781
v -0.322807 -0.314320 0.458781
v -0.321354 -0.321625 0.458781
v -0.317216 -0.327819 0.458781
v -0.311023 -0.331956 0.458781
v -0.303718 -0.333409 0.458781
v -0.296412 -0.331956 0.458781
v -0.290220 -0.327819 0.458781
v -0.286082 -0.321625 0.458781
v -0.286082 -0.307016 0.517833
v -0.284628 -0.314320 0.517833
v -0.290220 -0.300823 0.517833
v -0.296412 -0.296684 0.517833
v -0.303718 -0.295232 0.517833
v -0.311023 -0.296684 0.517833
v -0.317216 -0.300823 0.517833
v -0.321354 -0.307016 0.517833
v -0.322807 -0.314320 0.517833
v -0.321354 -0.321625 0.517833
v -0.317216 -0.327819 0.517833
v -0.311023 -0.331956 0.517833
v -0.303718 -0.333409 0.517833
v -0.296412 -0.331956 0.517833
v -0.290220 -0.327819 0.517833
v -0.286082 -0.321625 0.517833
v -0.286082 -0.307016 0.576886
v -0.284628 -0.314320 0.576886
v -0.290220 -0.300823 0.576886
v -0.296412 -0.296684 0.576886
v -0.303718 -0.295232 0.576886
v -0.311023 -0.296684 0.576886
v -0.317216 -0.300823 0.576886
v -0.321354 -0.307016 0.576886
v -0.322807 -0.314320 0.576886
v -0.321354 -0.321625 0.576886
v -0.317216 -0.327819 0.576886
v -0.311023 -0.331956 0.576886
v -0.303718 -0.333409 0.576886
v -0.296412 -0.331956 0.576886
v -0.290220 -0.327819 0.576886
v -0.286082 -0.321625 0.576886
v -0.303718 -0.314320 0.576886
vn 0.0000 0.0000 -1.0000
vn 0.9808 0.1952 0.0000
vn 0.8315 0.5556 0.0000
vn 0.5557 0.8314 0.0000
vn 0.1949 0.9808 0.0000
vn -0.1950 0.9808 0.0000
vn -0.5557 0.8314 0.0000
vn -0.8315 0.5556 0.0000
vn -0.9808 0.1951 0.0000
vn -0.9808 -0.1951 0.0000
vn -0.8315 -0.5555 0.0000
vn -0.5555 -0.8315 0.0000
vn -0.1951 -0.9808 0.0000
vn 0.1951 -0.9808 0.0000
vn 0.5555 -0.8315 0.0000
vn 0.8315 -0.5555 0.0000
vn 0.9808 -0.1952 0.0000
vn 0.0000 0.0000 1.0000
s off
f 1//1 2//1 3//1
f 1//1 4//1 2//1
f 1//1 5//1 4//1
f 1//1 6//1 5//1
f 1//1 7//1 6//1
f 1//1 8//1 7//1
f 1//1 9//1 8//1
f 1//1 10//1 9//1
f 1//1 11//1 10//1
f 1//1 12//1 11//1
f 1//1 13//1 12//1
f 1//1 14//1 13//1
f 1//1 15//1 14//1
f 1//1 16//1 15//1
f 1//1 17//1 16//1
f 1//1 3//1 17//1
f 3//2 18//2 19//2
f 3//2 2//2 18//2
f 2//3 20//3 18//3
f 2//3 4//3 20//3
f 4//4 21//4 20//4
f 4//4 5//4 21//4
f 5//5 22//5 21//5
f 5//5 6//5 22//5
f 6//6 23//6 22//6
f 6//6 7//6 23//6
f 7//7 24//7 23//7
f 7//7 8//7 24//7
f 8//8 25//8 24//8
f 8//8 9//8 25//8
f 9//9 26//9 25//9
f 9//9 10//9 26//9
f 10//10 27//10 26//10
f 10//10 11//10 27//10
f 11//11 28//11 27//11
f 11//11 12//11 28//11
f 12//12 29//12 28//12
f 12//12 13//12 29//12
f 13//13 30//13 29//13
f 13//13 14//13 30//13
f 14//14 31//14 30//14
f 14//14 15//14 31//14
f 15//15 32//15 31//15
f 15//15 16//15 32//15
f 16//16 33//16 32//16
f 16//16 17//16 33//16
f 17//17 19//17 33//17
f 17//17 3//17 19//17
f 19//2 34//2 35//2
f 19//2 18//2 34//2
f 18//3 36//3 34//3
f 18//3 20//3 36//3
f 20//4 37//4 36//4
f 20//4 21//4 37//4
f 21//5 38//5 37//5
f 21//5 22//5 38//5
f 22//6 39//6 38//6
f 22//6 23//6 39//6
f 23//7 40//7 39//7
f 23//7 24//7 40//7
f 24//8 41//8 40//8
f 24//8 25//8 41//8
f 25//9 42//9 41//9
f 25//9 26//9 42//9
f 26//10 43//10 42//10
f 26//10 27//10 43//10
f 27//11 44//11 43//11
f 27//11 28//11 44//11
f 28//12 45//12 44//12
f 28//12 29//12 45//12
f 29//13 46//13 45//13
f 29//13 30//13 46//13
f 30//14 47//14 46//14
f 30//14 31//14 47//14
f 31//15 48//15 47//15
f 31//15 32//15 48//15
f 32//16 49//16 48//16
f 32//16 33//16 49//16
f 33//17 35//17 49//17
f 33//17 19//17 35//17
f 35//2 50//2 51//2
f 35//2 34//2 50//2
f 34//3 52//3 50//3
f 34//3 36//3 52//3
f 36//4 53//4 52//4
f 36//4 37//4 53//4
f 37//5 54//5 53//5
f 37//5 38//5 54//5
f 38//6 55//6 54//6
f 38//6 39//6 55//6
f 39//7 56//7 55//7
f 39//7 40//7 56//7
f 40//8 57//8 56//8
f 40//8 41//8 57//8
f 41//9 58//9 57//9
f 41//9 42//9 58//9
f 42//10 59//10 58//10
f 42//10 43//10 59//10
f 43//11 60//11 59//11
f 43//11 44//11 60//11
f 44//12 61//12 60//12
f 44//12 45//12 61//12
f 45//13 62//13 61//13
f 45//13 46//13 62//13
f 46//14 63//14 62//14
f 46//14 47//14 63//14
f 47//15 64//15 63//15
f 47//15 48//15 64//15
f 48//16 65//16 64//16
f 48//16 49//16 65//16
f 49//17 51//17 65//17
f 49//17 35//17 51//17
f 51//2 66//2 67//2
f 51//2 50//2 66//2
f 50//3 68//3 66//3
f 50//3 52//3 68//3
f 52//4 69//4 68//4
f 52//4 53//4 69//4
f 53//5 70//5 69//5
f 53//5 54//5 70//5
f 54//6 71//6 70//6
f 54//6 55//6 71//6
f 55//7 72//7 71//7
f 55//7 56//7 72//7
f 56//8 73//8 72//8
f 56//8 57//8 73//8
f 57//9 74//9 73//9
f 57//9 58//9 74//9
f 58//10 75//10 74//10
f 58//10 59//10 75//10
f 59//11 76//11 75//11
f 59//11 60//11 76//11
f 60//12 77//12 76//12
f 60//12 61//12 77//12
f 61//13 78//13 77//13
f 61//13 62//13 78//13
f 62//14 79//14 78//14
f 62//14 63//14 79//14
f 63//15 80//15 79//15
f 63//15 64//15 80//15
f 64//16 81//16 80//16
f 64//16 65//16 81//16
f 65//17 67//17 81//17
f 65//17 51//17 67//17
f 67//2 82//2 83//2
f 67//2 66//2 82//2
f 66//3 84//3 82//3
f 66//3 68//3 84//3
f 68//4 85//4 84//4
f 68//4 69//4 85//4
f 69//5 86//5 85//5
f 69//5 70//5 86//5
f 70//6 87//6 86//6
f 70//6 71//6 87//6
f 71//7 88//7 87//7
f 71//7 72//7 88//7
f 72//8 89//8 88//8
f 72//8 73//8 89//8
f 73//9 90//9 89//9
f 73//9 74//9 90//9
f 74//10 91//10 90//10
f 74//10 75//10 91//10
f 75//11 92//11 91//11
f 75//11 76//11 92//11
f 76//12 93//12 92//12
f 76//12 77//12 93//12
f 77//13 94//13 93//13
f 77//13 78//13 94//13
f 78//14 95//14 94//14
f 78//14 79//14 95//14
f 79//15 96//15 95//15
f 79//15 80//15 96//15
f 80//16 97//16 96//16
f 80//16 81//16 97//16
f 81//17 83//17 97//17
f 81//17 67//17 83//17
f 83//2 98//2 99//2
f 83//2 82//2 98//2
f 82//3 100//3 98//3
f 82//3 84//3 100//3
f 84//4 101//4 100//4
f 84//4 85//4 101//4
f 85//5 102//5 101//5
f 85//5 86//5 102//5
f 86//6 103//6 102//6
f 86//6 87//6 103//6
f 87//7 104//7 103//7
f 87//7 88//7 104//7
f 88//8 105//8 104//8
f 88//8 89//8 105//8
f 89//9 106//9 105//9
f 89//9 90//9 106//9
f 90//10 107//10 106//10
f 90//10 91//10 107//10
f 91//11 108//11 107//11
f 91//11 92//11 108//11
f 92//12 109//12 108//12
f 92//12 93//12 109//12
f 93//13 110//13 109//13
f 93//13 94//13 110//13
f 94//14 111//14 110//14
f 94//14 95//14 111//14
f 95//15 112//15 111//15
f 95//15 96//15 112//15
f 96//16 113//16 112//16
f 96//16 97//16 113//16
f 97//17 99//17 113//17
f 97//17 83//17 99//17
f 99//2 114//2 115//2
f 99//2 98//2 114//2
f 98//3 116//3 114//3
f 98//3 100//3 116//3
f 100//4 117//4 116//4
f 100//4 101//4 117//4
f 101//5 118//5 117//5
f 101//5 102//5 118//5
f 102//6 119//6 118//6
f 102//6 103//6 119//6
f 103//7 120//7 119//7
f 103//7 104//7 120//7
f 104//8 121//8 120//8
f 104//8 105//8 121//8
f 105//9 122//9 121//9
f 105//9 106//9 122//9
f 106//10 123//10 122//10
f 106//10 107//10 123//10
f 107//11 124//11 123//11
f 107//11 108//11 124//11
f 108//12 125//12 124//12
f 108//12 109//12 125//12
f 109//13 126//13 125//13
f 109//13 110//13 126//13
f 110//14 127//14 126//14
f 110//14 111//14 127//14
f 111//15 128//15 127//15
f 111//15 112//15 128//15
f 112//16 129//16 128//16
f 112//16 113//16 129//16
f 113//17 115//17 129//17
f 113//17 99//17 115//17
f 115//2 130//2 131//2
f 115//2 114//2 130//2
f 114//3 132//3 130//3
f 114//3 116//3 132//3
f 116//4 133//4 132//4
f 116//4 117//4 133//4
f 117//5 134//5 133//5
f 117//5 118//5 134//5
f 118//6 135//6 134//6
f 118//6 119//6 135//6
f 119//7 136//7 135//7
f 119//7 120//7 136//7
f 120//8 137//8 136//8
f 120//8 121//8 137//8
f 121//9 138//9 137//9
f 121//9 122//9 138//9
f 122//10 139//10 138//10
f 122//10 123//10 139//10
f 123//11 140//11 139//11
f 123//11 124//11 140//11
f 124//12 141//12 140//12
f 124//12 125//12 141//12
f 125//13 142//13 141//13
f 125//13 126//13 142//13
f 126//14 143//14 142//14
f 126//14 127//14 143//14
f 127//15 144//15 143//15
f 127//15 128//15 144//15
f 128//16 145//16 144//16
f 128//16 129//16 145//16
f 129//17 131//17 145//17
f 129//17 115//17 131//17
f 131//2 146//2 147//2
f 131//2 130//2 146//2
f 130//3 148//3 146//3
f 130//3 132//3 148//3
f 132//4 149//4 148//4
f 132//4 133//4 149//4
f 133//5 150//5 149//5
f 133//5 134//5 150//5
f 134//6 151//6 150//6
f 134//6 135//6 151//6
f 135//7 152//7 151//7
f 135//7 136//7 152//7
f 136//8 153//8 152//8
f 136//8 137//8 153//8
f 137//9 154//9 153//9
f 137//9 138//9 154//9
f 138//10 155//10 154//10
f 138//10 139//10 155//10
f 139//11 156//11 155//11
f 139//11 140//11 156//11
f 140//12 157//12 156//12
f 140//12 141//12 157//12
f 141//13 158//13 157//13
f 141//13 142//13 158//13
f 142//14 159//14 158//14
f 142//14 143//14 159//14
f 143//15 160//15 159//15
f 143//15 144//15 160//15
f 144//16 161//16 160//16
f 144//16 145//16 161//16
f 145//17 147//17 161//17
f 145//17 131//17 147//17
f 147//2 162//2 163//2
f 147//2 146//2 162//2
f 146//3 164//3 162//3
f 146//3 148//3 164//3
f 148//4 165//4 164//4
f 148//4 149//4 165//4
f 149//5 166//5 165//5
f 149//5 150//5 166//5
f 150//6 167//6 166//6
f 150//6 151//6 167//6
f 151//7 168//7 167//7
f 151//7 152//7 168//7
f 152//8 169//8 168//8
f 152//8 153//8 169//8
f 153//9 170//9 169//9
f 153//9 154//9 170//9
f 154//10 171//10 170//10
f 154//10 155//10 171//10
f 155//11 172//11 171//11
f 155//11 156//11 172//11
f 156//12 173//12 172//12
f 156//12 157//12 173//12
f 157//13 174//13 173//13
f 157//13 158//13 174//13
f 158//14 175//14 174//14
f 158//14 159//14 175//14
f 159//15 176//15 175//15
f 159//15 160//15 176//15
f 160//16 177//16 176//16
f 160//16 161//16 177//16
f 161//17 163//17 177//17
f 161//17 147//17 163//17
f 178//18 163//18 162//18
f 178//18 162//18 164//18
f 178//18 164//18 165//18
f 178//18 165//18 166//18
f 178//18 166//18 167//18
f 178//18 167//18 168//18
f 178//18 168//18 169//18
f 178//18 169//18 170//18
f 178//18 170//18 171//18
f 178//18 171//18 172//18
f 178//18 172//18 173//18
f 178//18 173//18 174//18
f 178//18 174//18 175//18
f 178//18 175//18 176//18
f 178//18 176//18 177//18
f 178//18 177//18 163//18
