# Blender v2.79 (sub 0) OBJ File: ''
# www.blender.org
o SeatSheet
v -0.342246 -0.353704 0.576720
v 0.343492 -0.353704 0.576720
v 0.343492 -0.353704 0.652912
v -0.342246 -0.353704 0.652912
v 0.343492 -0.010834 0.576720
v 0.339562 0.040964 0.576720
v 0.339562 0.040964 0.652912
v 0.328058 0.090881 0.576720
v 0.328058 0.090881 0.652912
v 0.309414 0.138170 0.576720
v 0.309414 0.138170 0.652912
v 0.284061 0.182086 0.576720
v 0.284061 0.182086 0.652912
v 0.252430 0.221874 0.576720
v 0.252430 0.221874 0.652912
v 0.214950 0.256796 0.576720
v 0.214950 0.256796 0.652912
v 0.172056 0.286100 0.576720
v 0.172056 0.286100 0.652912
v 0.125233 0.308595 0.576720
v 0.125233 0.308595 0.652912
v 0.076253 0.323590 0.576720
v 0.076253 0.323590 0.652912
v 0.025976 0.331090 0.576720
v 0.025976 0.331090 0.652912
v -0.024732 0.331090 0.576720
v -0.024732 0.331090 0.652912
v -0.075007 0.323590 0.576720
v -0.075007 0.323590 0.652912
v -0.123990 0.308595 0.576720
v -0.123990 0.308595 0.652912
v -0.176901 0.286100 0.576720
v -0.176901 0.286100 0.652912
v -0.223731 0.251973 0.576720
v -0.223731 0.251973 0.652912
v -0.272348 0.194101 0.576720
v -0.272348 0.194101 0.652912
v -0.299793 0.145643 0.576720
v -0.299793 0.145643 0.652912
v -0.321140 0.090573 0.576720
v -0.321140 0.090573 0.652912
v -0.336543 0.037321 0.576720
v -0.336202 0.041126 0.652912
v -0.338317 0.002398 0.652912
vn 0.0000 -1.0000 0.0000
vn 1.0000 0.0000 0.0000
vn 0.9971 0.0757 0.0000
vn 0.9989 0.0099 0.0448
vn 0.9745 0.2246 0.0000
vn 0.9303 0.3668 0.0000
vn 0.8660 0.5000 0.0000
vn 0.7828 0.6223 0.0000
vn 0.6817 0.7316 0.0000
vn 0.5641 0.8257 0.0000
vn 0.4330 0.9014 0.0000
vn 0.2927 0.9562 0.0000
vn 0.1475 0.9891 0.0000
vn 0.0000 1.0000 0.0000
vn -0.1475 0.9891 0.0000
vn -0.2927 0.9562 0.0000
vn -0.3913 0.9203 0.0000
vn -0.5889 0.8082 0.0000
vn -0.7657 0.6432 0.0000
vn -0.8701 0.4928 0.0000
vn -0.9324 0.3614 0.0000
vn -0.9606 0.2778 -0.0096
vn -0.9566 0.2914 0.0000
vn -0.9998 0.0146 -0.0166
vn -0.9985 0.0545 0.0017
vn -0.9999 0.0110 0.0000
vn -0.0000 0.0000 1.0000
vn 0.0000 0.0000 -1.0000
s off
f 1//1 2//1 3//1
f 1//1 3//1 4//1
f 2//2 5//2 3//2
f 5//3 6//3 7//3
f 5//4 7//4 3//4
f 6//5 8//5 9//5
f 6//5 9//5 7//5
f 8//6 10//6 11//6
f 8//6 11//6 9//6
f 10//7 12//7 13//7
f 10//7 13//7 11//7
f 12//8 14//8 15//8
f 12//8 15//8 13//8
f 14//9 16//9 17//9
f 14//9 17//9 15//9
f 16//10 18//10 19//10
f 16//10 19//10 17//10
f 18//11 20//11 21//11
f 18//11 21//11 19//11
f 20//12 22//12 23//12
f 20//12 23//12 21//12
f 22//13 24//13 25//13
f 22//13 25//13 23//13
f 24//14 26//14 27//14
f 24//14 27//14 25//14
f 26//15 28//15 29//15
f 26//15 29//15 27//15
f 28//16 30//16 31//16
f 28//16 31//16 29//16
f 30//17 32//17 33//17
f 30//17 33//17 31//17
f 32//18 34//18 35//18
f 32//18 35//18 33//18
f 34//19 36//19 37//19
f 34//19 37//19 35//19
f 36//20 38//20 39//20
f 36//20 39//20 37//20
f 38//21 40//21 41//21
f 38//21 41//21 39//21
f 40//22 42//22 43//22
f 40//23 43//23 41//23
f 42//24 1//24 44//24
f 42//25 44//25 43//25
f 1//26 4//26 44//26
f 7//27 9//27 11//27
f 11//27 13//27 15//27
f 15//27 17//27 19//27
f 11//27 15//27 19//27
f 19//27 21//27 23//27
f 23//27 25//27 27//27
f 19//27 23//27 27//27
f 11//27 19//27 27//27
f 27//27 29//27 31//27
f 31//27 33//27 35//27
f 27//27 31//27 35//27
f 35//27 37//27 39//27
f 39//27 41//27 43//27
f 35//27 39//27 43//27
f 27//27 35//27 43//27
f 11//27 27//27 43//27
f 43//27 44//27 4//27
f 11//27 43//27 4//27
f 7//27 11//27 4//27
f 3//27 7//27 4//27
f 42//28 40//28 38//28
f 38//28 36//28 34//28
f 34//28 32//28 30//28
f 38//28 34//28 30//28
f 30//28 28//28 26//28
f 26//28 24//28 22//28
f 30//28 26//28 22//28
f 38//28 30//28 22//28
f 22//28 20//28 18//28
f 18//28 16//28 14//28
f 22//28 18//28 14//28
f 14//28 12//28 10//28
f 10//28 8//28 6//28
f 14//28 10//28 6//28
f 22//28 14//28 6//28
f 38//28 22//28 6//28
f 6//28 5//28 2//28
f 38//28 6//28 2//28
f 42//28 38//28 2//28
f 1//28 42//28 2//28
