# Blender v2.79 (sub 0) OBJ File: ''
# www.blender.org
o LegFrontLeft.002
v 0.216279 -0.189809 0.527967
v 0.191827 -0.207219 0.527967
v 0.208226 -0.207210 0.527967
v 0.183774 -0.189828 0.527967
v 0.185995 -0.199992 0.527967
v 0.191827 -0.172427 0.527967
v 0.185995 -0.179660 0.527967
v 0.208226 -0.172417 0.527967
v 0.200027 -0.169669 0.527967
v 0.214058 -0.179644 0.527967
v 0.214058 -0.199976 0.527967
v 0.200027 -0.209968 0.527967
v 0.208987 -0.203685 0.463786
v 0.200838 -0.206401 0.463101
v 0.214783 -0.196498 0.464714
v 0.216989 -0.186375 0.465686
v 0.214783 -0.176238 0.466409
v 0.208987 -0.169011 0.466680
v 0.200838 -0.166239 0.466443
v 0.192690 -0.168954 0.465748
v 0.186893 -0.176140 0.464820
v 0.184687 -0.186265 0.463855
v 0.186893 -0.196404 0.463142
v 0.192690 -0.203629 0.462871
v 0.211217 -0.201411 0.421396
v 0.203156 -0.204101 0.420300
v 0.216952 -0.194277 0.422497
v 0.219135 -0.184222 0.423372
v 0.216952 -0.174145 0.423736
v 0.211217 -0.166959 0.423504
v 0.203156 -0.164195 0.422722
v 0.195094 -0.166884 0.421611
v 0.189360 -0.174018 0.420508
v 0.187176 -0.184076 0.419652
v 0.189360 -0.194152 0.419303
v 0.195094 -0.201338 0.419535
v 0.214770 -0.200108 0.382030
v 0.206804 -0.202790 0.380552
v 0.220434 -0.193014 0.383298
v 0.222592 -0.183021 0.384085
v 0.220434 -0.173011 0.384120
v 0.214770 -0.165877 0.383419
v 0.206804 -0.163141 0.382132
v 0.198840 -0.165823 0.380628
v 0.193174 -0.172919 0.379361
v 0.191017 -0.182914 0.378600
v 0.193174 -0.192923 0.378588
v 0.198840 -0.200056 0.379288
v 0.219473 -0.199588 0.344074
v 0.211607 -0.202277 0.342295
v 0.225068 -0.192523 0.345451
v 0.227199 -0.182588 0.346135
v 0.225068 -0.172652 0.345876
v 0.219473 -0.165583 0.344780
v 0.211607 -0.162891 0.343077
v 0.203742 -0.165582 0.341268
v 0.198147 -0.172651 0.339890
v 0.196017 -0.182586 0.339238
v 0.198146 -0.192520 0.339527
v 0.203742 -0.199586 0.340625
v 0.225167 -0.199790 0.305911
v 0.217390 -0.202498 0.303962
v 0.230698 -0.192749 0.307307
v 0.232803 -0.182875 0.307854
v 0.230698 -0.173019 0.307337
v 0.225167 -0.166027 0.305937
v 0.217390 -0.163392 0.303954
v 0.209614 -0.166102 0.301973
v 0.204082 -0.173148 0.300575
v 0.201977 -0.183023 0.300063
v 0.204082 -0.192876 0.300614
v 0.209614 -0.199864 0.302014
v 0.231680 -0.200782 0.265950
v 0.223977 -0.203511 0.263978
v 0.237161 -0.193767 0.267260
v 0.239246 -0.183959 0.267624
v 0.237161 -0.174192 0.266881
v 0.231680 -0.167286 0.265278
v 0.223977 -0.164715 0.263158
v 0.216272 -0.167447 0.261150
v 0.210793 -0.174466 0.259842
v 0.208705 -0.184275 0.259513
v 0.210793 -0.194038 0.260292
v 0.216272 -0.200941 0.261895
v 0.238838 -0.202759 0.222641
v 0.231191 -0.205505 0.220775
v 0.244278 -0.195777 0.223761
v 0.246349 -0.186046 0.223894
v 0.244278 -0.176381 0.222945
v 0.238838 -0.169567 0.221222
v 0.231191 -0.167061 0.219091
v 0.223543 -0.169810 0.217190
v 0.218103 -0.176797 0.216071
v 0.216032 -0.186526 0.215971
v 0.218103 -0.196189 0.216955
v 0.223543 -0.202999 0.218678
v 0.246456 -0.206065 0.174453
v 0.238858 -0.208817 0.172792
v 0.251861 -0.199130 0.175301
v 0.253919 -0.189494 0.175157
v 0.251861 -0.179940 0.174008
v 0.246456 -0.173227 0.172216
v 0.238858 -0.170786 0.170166
v 0.231258 -0.173544 0.168475
v 0.225853 -0.180481 0.167626
v 0.223796 -0.190116 0.167802
v 0.225853 -0.199665 0.168982
v 0.231258 -0.206376 0.170773
v 0.254347 -0.211216 0.119886
v 0.246800 -0.213965 0.118497
v 0.259715 -0.204351 0.120403
v 0.261760 -0.194830 0.119939
v 0.259715 -0.185408 0.118578
v 0.254347 -0.178804 0.116744
v 0.246800 -0.176424 0.114825
v 0.239253 -0.179176 0.113409
v 0.233885 -0.186046 0.112892
v 0.231840 -0.195564 0.113385
v 0.233885 -0.204981 0.114773
v 0.239253 -0.211584 0.116607
v 0.262329 -0.218957 0.057476
v 0.254845 -0.221684 0.056395
v 0.267654 -0.212183 0.057621
v 0.269680 -0.202808 0.056798
v 0.267654 -0.193541 0.055203
v 0.262329 -0.187057 0.053321
v 0.254845 -0.184739 0.051553
v 0.247359 -0.187471 0.050448
v 0.242036 -0.194246 0.050304
v 0.240008 -0.203620 0.051152
v 0.242036 -0.212881 0.052770
v 0.247359 -0.219363 0.054651
v 0.270220 -0.230302 -0.018013
v 0.262814 -0.232989 -0.018013
v 0.275488 -0.223651 -0.018013
v 0.277494 -0.214456 -0.018013
v 0.275488 -0.205376 -0.018013
v 0.270220 -0.199029 -0.018013
v 0.262814 -0.196772 -0.018013
v 0.255409 -0.199463 -0.018013
v 0.250141 -0.206116 -0.018013
v 0.248136 -0.215308 -0.018013
v 0.250141 -0.224384 -0.018013
v 0.255409 -0.230729 -0.018013
vn 0.0000 0.0000 1.0000
vn 0.3185 -0.9467 -0.0482
vn 0.3195 -0.9464 -0.0480
vn 0.7783 -0.6274 -0.0256
vn 0.7797 -0.6256 -0.0251
vn 0.9770 -0.2134 -0.0006
vn 0.9771 -0.2129 -0.0005
vn 0.9767 0.2134 0.0233
vn 0.9772 0.2110 0.0228
vn 0.7774 0.6274 0.0445
vn 0.7802 0.6240 0.0437
vn 0.3173 0.9466 0.0570
vn 0.3201 0.9457 0.0565
vn -0.3184 0.9467 0.0484
vn -0.3195 0.9464 0.0485
vn -0.7782 0.6275 0.0239
vn -0.7796 0.6258 0.0241
vn -0.9770 0.2134 -0.0021
vn -0.9770 0.2131 -0.0020
vn -0.9766 -0.2134 -0.0253
vn -0.9772 -0.2108 -0.0256
vn -0.7774 -0.6274 -0.0449
vn -0.7800 -0.6241 -0.0454
vn -0.3174 -0.9466 -0.0560
vn -0.3201 -0.9457 -0.0564
vn 0.3186 -0.9473 -0.0341
vn 0.3205 -0.9467 -0.0335
vn 0.7780 -0.6283 0.0069
vn 0.7788 -0.6272 0.0073
vn 0.9756 -0.2163 0.0385
vn 0.9758 -0.2152 0.0388
vn 0.9763 0.2082 0.0598
vn 0.9760 0.2093 0.0601
vn 0.7795 0.6225 0.0698
vn 0.7786 0.6236 0.0702
vn 0.3198 0.9455 0.0612
vn 0.3184 0.9460 0.0614
vn -0.3181 0.9477 0.0271
vn -0.3197 0.9471 0.0273
vn -0.7774 0.6288 -0.0132
vn -0.7784 0.6276 -0.0130
vn -0.9752 0.2167 -0.0442
vn -0.9755 0.2156 -0.0440
vn -0.9760 -0.2077 -0.0656
vn -0.9757 -0.2092 -0.0653
vn -0.7791 -0.6223 -0.0761
vn -0.7782 -0.6234 -0.0758
vn -0.3196 -0.9451 -0.0681
vn -0.3177 -0.9458 -0.0676
vn 0.3169 -0.9485 -0.0028
vn 0.3194 -0.9476 -0.0019
vn 0.7748 -0.6303 0.0485
vn 0.7762 -0.6285 0.0493
vn 0.9727 -0.2181 0.0789
vn 0.9731 -0.2164 0.0795
vn 0.9739 0.2077 0.0915
vn 0.9735 0.2095 0.0921
vn 0.7774 0.6232 0.0857
vn 0.7761 0.6247 0.0861
vn 0.3193 0.9462 0.0533
vn 0.3166 0.9470 0.0536
vn -0.3159 0.9488 -0.0043
vn -0.3185 0.9479 -0.0040
vn -0.7741 0.6307 -0.0549
vn -0.7755 0.6290 -0.0546
vn -0.9722 0.2183 -0.0848
vn -0.9727 0.2163 -0.0844
vn -0.9733 -0.2076 -0.0974
vn -0.9730 -0.2096 -0.0970
vn -0.7769 -0.6229 -0.0921
vn -0.7754 -0.6249 -0.0915
vn -0.3185 -0.9460 -0.0604
vn -0.3157 -0.9470 -0.0595
vn 0.3146 -0.9489 0.0260
vn 0.3178 -0.9478 0.0272
vn 0.7710 -0.6310 0.0862
vn 0.7726 -0.6288 0.0871
vn 0.9691 -0.2183 0.1151
vn 0.9695 -0.2159 0.1159
vn 0.9706 0.2088 0.1196
vn 0.9700 0.2112 0.1202
vn 0.7746 0.6247 0.0990
vn 0.7727 0.6270 0.0995
vn 0.3180 0.9470 0.0452
vn 0.3146 0.9481 0.0455
vn -0.3133 0.9491 -0.0332
vn -0.3168 0.9479 -0.0329
vn -0.7699 0.6313 -0.0927
vn -0.7719 0.6290 -0.0923
vn -0.9683 0.2182 -0.1212
vn -0.9690 0.2157 -0.1206
vn -0.9698 -0.2089 -0.1256
vn -0.9694 -0.2114 -0.1249
vn -0.7736 -0.6248 -0.1057
vn -0.7716 -0.6274 -0.1047
vn -0.3168 -0.9470 -0.0525
vn -0.3135 -0.9482 -0.0513
vn 0.3126 -0.9485 0.0517
vn 0.3165 -0.9471 0.0532
vn 0.7673 -0.6305 0.1170
vn 0.7694 -0.6278 0.1181
vn 0.9657 -0.2170 0.1430
vn 0.9662 -0.2140 0.1439
vn 0.9675 0.2111 0.1393
vn 0.9668 0.2138 0.1399
vn 0.7716 0.6272 0.1059
vn 0.7694 0.6299 0.1064
vn 0.3169 0.9478 0.0347
vn 0.3127 0.9492 0.0350
vn -0.3110 0.9486 -0.0590
vn -0.3152 0.9472 -0.0587
vn -0.7662 0.6306 -0.1236
vn -0.7685 0.6278 -0.1232
vn -0.9648 0.2166 -0.1492
vn -0.9656 0.2135 -0.1485
vn -0.9665 -0.2114 -0.1455
vn -0.9660 -0.2145 -0.1446
vn -0.7704 -0.6276 -0.1126
vn -0.7682 -0.6305 -0.1114
vn -0.3154 -0.9480 -0.0421
vn -0.3114 -0.9494 -0.0405
vn 0.3113 -0.9474 0.0743
vn 0.3156 -0.9458 0.0760
vn 0.7651 -0.6287 0.1395
vn 0.7673 -0.6257 0.1406
vn 0.9636 -0.2143 0.1601
vn 0.9642 -0.2109 0.1610
vn 0.9656 0.2140 0.1480
vn 0.9647 0.2173 0.1487
vn 0.7698 0.6298 0.1038
vn 0.7671 0.6330 0.1042
vn 0.3162 0.9485 0.0203
vn 0.3115 0.9500 0.0205
vn -0.3094 0.9474 -0.0817
vn -0.3142 0.9459 -0.0814
vn -0.7638 0.6287 -0.1462
vn -0.7665 0.6255 -0.1456
vn -0.9626 0.2138 -0.1663
vn -0.9634 0.2106 -0.1655
vn -0.9644 -0.2147 -0.1543
vn -0.9638 -0.2183 -0.1532
vn -0.7683 -0.6304 -0.1106
vn -0.7661 -0.6334 -0.1092
vn -0.3145 -0.9489 -0.0278
vn -0.3100 -0.9504 -0.0259
vn 0.3109 -0.9457 0.0945
vn 0.3155 -0.9440 0.0963
vn 0.7644 -0.6260 0.1540
vn 0.7670 -0.6225 0.1552
vn 0.9632 -0.2109 0.1665
vn 0.9638 -0.2074 0.1673
vn 0.9652 0.2171 0.1455
vn 0.9643 0.2210 0.1461
vn 0.7694 0.6321 0.0923
vn 0.7666 0.6354 0.0925
vn 0.3163 0.9487 0.0013
vn 0.3111 0.9504 0.0013
vn -0.3088 0.9457 -0.1019
vn -0.3140 0.9440 -0.1017
vn -0.7633 0.6258 -0.1608
vn -0.7663 0.6223 -0.1602
vn -0.9622 0.2106 -0.1728
vn -0.9632 0.2068 -0.1719
vn -0.9640 -0.2183 -0.1518
vn -0.9634 -0.2218 -0.1506
vn -0.7681 -0.6326 -0.0991
vn -0.7654 -0.6361 -0.0975
vn -0.3143 -0.9493 -0.0087
vn -0.3097 -0.9508 -0.0068
vn 0.3110 -0.9435 0.1139
vn 0.3159 -0.9418 0.1155
vn 0.7655 -0.6225 0.1629
vn 0.7683 -0.6188 0.1639
vn 0.9643 -0.2075 0.1645
vn 0.9650 -0.2036 0.1651
vn 0.9663 0.2202 0.1337
vn 0.9653 0.2241 0.1341
vn 0.7704 0.6334 0.0725
vn 0.7673 0.6372 0.0726
vn 0.3170 0.9482 -0.0225
vn 0.3113 0.9500 -0.0226
vn -0.3089 0.9433 -0.1212
vn -0.3147 0.9414 -0.1210
vn -0.7643 0.6222 -0.1696
vn -0.7674 0.6186 -0.1689
vn -0.9634 0.2068 -0.1707
vn -0.9644 0.2028 -0.1697
vn -0.9652 -0.2211 -0.1399
vn -0.9645 -0.2249 -0.1387
vn -0.7690 -0.6343 -0.0791
vn -0.7663 -0.6378 -0.0776
vn -0.3151 -0.9489 0.0152
vn -0.3099 -0.9506 0.0171
vn 0.3115 -0.9408 0.1339
vn 0.3170 -0.9387 0.1354
vn 0.7673 -0.6187 0.1686
vn 0.7701 -0.6150 0.1694
vn 0.9663 -0.2040 0.1569
vn 0.9671 -0.2000 0.1574
vn 0.9681 0.2224 0.1152
vn 0.9671 0.2266 0.1154
vn 0.7720 0.6339 0.0461
vn 0.7689 0.6377 0.0460
vn 0.3179 0.9468 -0.0508
vn 0.3121 0.9487 -0.0510
vn -0.3098 0.9403 -0.1411
vn -0.3157 0.9383 -0.1409
vn -0.7661 0.6184 -0.1753
vn -0.7695 0.6144 -0.1746
vn -0.9655 0.2031 -0.1631
vn -0.9665 0.1993 -0.1621
vn -0.9672 -0.2233 -0.1214
vn -0.9663 -0.2275 -0.1201
vn -0.7708 -0.6349 -0.0527
vn -0.7679 -0.6385 -0.0512
vn -0.3160 -0.9478 0.0436
vn -0.3109 -0.9494 0.0454
vn 0.3125 -0.9370 0.1562
vn 0.3179 -0.9350 0.1574
vn 0.7694 -0.6147 0.1740
vn 0.7723 -0.6108 0.1745
vn 0.9685 -0.2009 0.1469
vn 0.9694 -0.1966 0.1471
vn 0.9702 0.2240 0.0928
vn 0.9693 0.2279 0.0928
vn 0.7739 0.6332 0.0150
vn 0.7706 0.6371 0.0148
vn 0.3190 0.9441 -0.0835
vn 0.3128 0.9461 -0.0837
vn -0.3108 0.9363 -0.1634
vn -0.3169 0.9343 -0.1631
vn -0.7684 0.6140 -0.1805
vn -0.7717 0.6101 -0.1797
vn -0.9678 0.2000 -0.1529
vn -0.9688 0.1959 -0.1518
vn -0.9693 -0.2251 -0.0988
vn -0.9685 -0.2291 -0.0975
vn -0.7728 -0.6343 -0.0215
vn -0.7698 -0.6380 -0.0199
vn -0.3173 -0.9452 0.0764
vn -0.3118 -0.9469 0.0781
vn 0.3150 -0.9332 0.1732
vn 0.3357 -0.9253 0.1765
vn 0.7726 -0.6110 0.1727
vn 0.7721 -0.6116 0.1726
vn 0.9712 -0.1983 0.1323
vn 0.9684 -0.2113 0.1323
vn 0.9722 0.2242 0.0678
vn 0.9742 0.2152 0.0682
vn 0.7755 0.6310 -0.0201
vn 0.7693 0.6385 -0.0209
vn 0.3205 0.9389 -0.1257
vn 0.2891 0.9488 -0.1273
vn -0.3099 0.9297 -0.1993
vn -0.3348 0.9213 -0.1977
vn -0.7689 0.6083 -0.1969
vn -0.7686 0.6086 -0.1970
vn -0.9694 0.1964 -0.1471
vn -0.9658 0.2107 -0.1512
vn -0.9713 -0.2257 -0.0745
vn -0.9735 -0.2151 -0.0781
vn -0.7746 -0.6323 0.0131
vn -0.7693 -0.6387 0.0157
vn -0.3175 -0.9420 0.1091
vn -0.2899 -0.9499 0.1165
vn 0.0000 0.0000 -1.0000
s off
f 1//1 2//1 3//1
f 4//1 2//1 1//1
f 5//1 2//1 4//1
f 6//1 4//1 1//1
f 7//1 4//1 6//1
f 8//1 6//1 1//1
f 9//1 6//1 8//1
f 10//1 8//1 1//1
f 11//1 1//1 3//1
f 3//1 2//1 12//1
f 12//2 13//2 3//2
f 14//3 13//3 12//3
f 3//4 15//4 11//4
f 13//5 15//5 3//5
f 11//6 16//6 1//6
f 15//7 16//7 11//7
f 1//8 17//8 10//8
f 16//9 17//9 1//9
f 10//10 18//10 8//10
f 17//11 18//11 10//11
f 8//12 19//12 9//12
f 18//13 19//13 8//13
f 9//14 20//14 6//14
f 19//15 20//15 9//15
f 6//16 21//16 7//16
f 20//17 21//17 6//17
f 7//18 22//18 4//18
f 21//19 22//19 7//19
f 4//20 23//20 5//20
f 22//21 23//21 4//21
f 5//22 24//22 2//22
f 23//23 24//23 5//23
f 2//24 14//24 12//24
f 24//25 14//25 2//25
f 14//26 25//26 13//26
f 26//27 25//27 14//27
f 13//28 27//28 15//28
f 25//29 27//29 13//29
f 15//30 28//30 16//30
f 27//31 28//31 15//31
f 16//32 29//32 17//32
f 28//33 29//33 16//33
f 17//34 30//34 18//34
f 29//35 30//35 17//35
f 18//36 31//36 19//36
f 30//37 31//37 18//37
f 19//38 32//38 20//38
f 31//39 32//39 19//39
f 20//40 33//40 21//40
f 32//41 33//41 20//41
f 21//42 34//42 22//42
f 33//43 34//43 21//43
f 22//44 35//44 23//44
f 34//45 35//45 22//45
f 23//46 36//46 24//46
f 35//47 36//47 23//47
f 24//48 26//48 14//48
f 36//49 26//49 24//49
f 26//50 37//50 25//50
f 38//51 37//51 26//51
f 25//52 39//52 27//52
f 37//53 39//53 25//53
f 27//54 40//54 28//54
f 39//55 40//55 27//55
f 28//56 41//56 29//56
f 40//57 41//57 28//57
f 29//58 42//58 30//58
f 41//59 42//59 29//59
f 30//60 43//60 31//60
f 42//61 43//61 30//61
f 31//62 44//62 32//62
f 43//63 44//63 31//63
f 32//64 45//64 33//64
f 44//65 45//65 32//65
f 33//66 46//66 34//66
f 45//67 46//67 33//67
f 34//68 47//68 35//68
f 46//69 47//69 34//69
f 35//70 48//70 36//70
f 47//71 48//71 35//71
f 36//72 38//72 26//72
f 48//73 38//73 36//73
f 38//74 49//74 37//74
f 50//75 49//75 38//75
f 37//76 51//76 39//76
f 49//77 51//77 37//77
f 39//78 52//78 40//78
f 51//79 52//79 39//79
f 40//80 53//80 41//80
f 52//81 53//81 40//81
f 41//82 54//82 42//82
f 53//83 54//83 41//83
f 42//84 55//84 43//84
f 54//85 55//85 42//85
f 43//86 56//86 44//86
f 55//87 56//87 43//87
f 44//88 57//88 45//88
f 56//89 57//89 44//89
f 45//90 58//90 46//90
f 57//91 58//91 45//91
f 46//92 59//92 47//92
f 58//93 59//93 46//93
f 47//94 60//94 48//94
f 59//95 60//95 47//95
f 48//96 50//96 38//96
f 60//97 50//97 48//97
f 50//98 61//98 49//98
f 62//99 61//99 50//99
f 49//100 63//100 51//100
f 61//101 63//101 49//101
f 51//102 64//102 52//102
f 63//103 64//103 51//103
f 52//104 65//104 53//104
f 64//105 65//105 52//105
f 53//106 66//106 54//106
f 65//107 66//107 53//107
f 54//108 67//108 55//108
f 66//109 67//109 54//109
f 55//110 68//110 56//110
f 67//111 68//111 55//111
f 56//112 69//112 57//112
f 68//113 69//113 56//113
f 57//114 70//114 58//114
f 69//115 70//115 57//115
f 58//116 71//116 59//116
f 70//117 71//117 58//117
f 59//118 72//118 60//118
f 71//119 72//119 59//119
f 60//120 62//120 50//120
f 72//121 62//121 60//121
f 62//122 73//122 61//122
f 74//123 73//123 62//123
f 61//124 75//124 63//124
f 73//125 75//125 61//125
f 63//126 76//126 64//126
f 75//127 76//127 63//127
f 64//128 77//128 65//128
f 76//129 77//129 64//129
f 65//130 78//130 66//130
f 77//131 78//131 65//131
f 66//132 79//132 67//132
f 78//133 79//133 66//133
f 67//134 80//134 68//134
f 79//135 80//135 67//135
f 68//136 81//136 69//136
f 80//137 81//137 68//137
f 69//138 82//138 70//138
f 81//139 82//139 69//139
f 70//140 83//140 71//140
f 82//141 83//141 70//141
f 71//142 84//142 72//142
f 83//143 84//143 71//143
f 72//144 74//144 62//144
f 84//145 74//145 72//145
f 74//146 85//146 73//146
f 86//147 85//147 74//147
f 73//148 87//148 75//148
f 85//149 87//149 73//149
f 75//150 88//150 76//150
f 87//151 88//151 75//151
f 76//152 89//152 77//152
f 88//153 89//153 76//153
f 77//154 90//154 78//154
f 89//155 90//155 77//155
f 78//156 91//156 79//156
f 90//157 91//157 78//157
f 79//158 92//158 80//158
f 91//159 92//159 79//159
f 80//160 93//160 81//160
f 92//161 93//161 80//161
f 81//162 94//162 82//162
f 93//163 94//163 81//163
f 82//164 95//164 83//164
f 94//165 95//165 82//165
f 83//166 96//166 84//166
f 95//167 96//167 83//167
f 84//168 86//168 74//168
f 96//169 86//169 84//169
f 86//170 97//170 85//170
f 98//171 97//171 86//171
f 85//172 99//172 87//172
f 97//173 99//173 85//173
f 87//174 100//174 88//174
f 99//175 100//175 87//175
f 88//176 101//176 89//176
f 100//177 101//177 88//177
f 89//178 102//178 90//178
f 101//179 102//179 89//179
f 90//180 103//180 91//180
f 102//181 103//181 90//181
f 91//182 104//182 92//182
f 103//183 104//183 91//183
f 92//184 105//184 93//184
f 104//185 105//185 92//185
f 93//186 106//186 94//186
f 105//187 106//187 93//187
f 94//188 107//188 95//188
f 106//189 107//189 94//189
f 95//190 108//190 96//190
f 107//191 108//191 95//191
f 96//192 98//192 86//192
f 108//193 98//193 96//193
f 98//194 109//194 97//194
f 110//195 109//195 98//195
f 97//196 111//196 99//196
f 109//197 111//197 97//197
f 99//198 112//198 100//198
f 111//199 112//199 99//199
f 100//200 113//200 101//200
f 112//201 113//201 100//201
f 101//202 114//202 102//202
f 113//203 114//203 101//203
f 102//204 115//204 103//204
f 114//205 115//205 102//205
f 103//206 116//206 104//206
f 115//207 116//207 103//207
f 104//208 117//208 105//208
f 116//209 117//209 104//209
f 105//210 118//210 106//210
f 117//211 118//211 105//211
f 106//212 119//212 107//212
f 118//213 119//213 106//213
f 107//214 120//214 108//214
f 119//215 120//215 107//215
f 108//216 110//216 98//216
f 120//217 110//217 108//217
f 110//218 121//218 109//218
f 122//219 121//219 110//219
f 109//220 123//220 111//220
f 121//221 123//221 109//221
f 111//222 124//222 112//222
f 123//223 124//223 111//223
f 112//224 125//224 113//224
f 124//225 125//225 112//225
f 113//226 126//226 114//226
f 125//227 126//227 113//227
f 114//228 127//228 115//228
f 126//229 127//229 114//229
f 115//230 128//230 116//230
f 127//231 128//231 115//231
f 116//232 129//232 117//232
f 128//233 129//233 116//233
f 117//234 130//234 118//234
f 129//235 130//235 117//235
f 118//236 131//236 119//236
f 130//237 131//237 118//237
f 119//238 132//238 120//238
f 131//239 132//239 119//239
f 120//240 122//240 110//240
f 132//241 122//241 120//241
f 122//242 133//242 121//242
f 134//243 133//243 122//243
f 121//244 135//244 123//244
f 133//245 135//245 121//245
f 123//246 136//246 124//246
f 135//247 136//247 123//247
f 124//248 137//248 125//248
f 136//249 137//249 124//249
f 125//250 138//250 126//250
f 137//251 138//251 125//251
f 126//252 139//252 127//252
f 138//253 139//253 126//253
f 127//254 140//254 128//254
f 139//255 140//255 127//255
f 128//256 141//256 129//256
f 140//257 141//257 128//257
f 129//258 142//258 130//258
f 141//259 142//259 129//259
f 130//260 143//260 131//260
f 142//261 143//261 130//261
f 131//262 144//262 132//262
f 143//263 144//263 131//263
f 132//264 134//264 122//264
f 144//265 134//265 132//265
f 136//266 138//266 137//266
f 135//266 138//266 136//266
f 133//266 138//266 135//266
f 139//266 138//266 133//266
f 140//266 139//266 133//266
f 141//266 140//266 133//266
f 134//266 141//266 133//266
f 144//266 141//266 134//266
f 143//266 141//266 144//266
f 142//266 141//266 143//266
