# Blender v2.79 (sub 0) OBJ File: ''
# www.blender.org
o LegBackRight.002
v -0.215524 0.142658 0.520301
v -0.191045 0.160150 0.519419
v -0.207462 0.160147 0.519309
v -0.182983 0.142666 0.520519
v -0.185207 0.152883 0.519892
v -0.191045 0.125178 0.521513
v -0.185207 0.132447 0.521117
v -0.207462 0.125173 0.521401
v -0.199254 0.122407 0.521622
v -0.213300 0.132440 0.520926
v -0.213300 0.152877 0.519705
v -0.199254 0.162915 0.519199
v -0.276721 0.202830 -0.018012
v -0.269447 0.187793 -0.018012
v -0.274714 0.193945 -0.018012
v -0.274714 0.211885 -0.018012
v -0.269447 0.218489 -0.018012
v -0.262041 0.185685 -0.018012
v -0.254636 0.188434 -0.018012
v -0.249368 0.195039 -0.018012
v -0.262041 0.221232 -0.018012
v -0.254636 0.219118 -0.018012
v -0.249368 0.212966 -0.018012
v -0.247363 0.204089 -0.018012
v -0.261555 0.201175 0.067532
v -0.254072 0.203981 0.066676
v -0.266879 0.194414 0.067126
v -0.268905 0.185137 0.065544
v -0.266879 0.176033 0.063199
v -0.261555 0.169726 0.060792
v -0.254072 0.167559 0.058840
v -0.246588 0.170372 0.057961
v -0.241265 0.177135 0.058373
v -0.239237 0.186406 0.059985
v -0.241265 0.195504 0.062353
v -0.246588 0.201810 0.064754
v -0.253571 0.188526 0.129082
v -0.246027 0.191372 0.127909
v -0.258940 0.181643 0.129070
v -0.260983 0.172189 0.127875
v -0.258940 0.162902 0.125793
v -0.253571 0.156459 0.123450
v -0.246027 0.154238 0.121351
v -0.238481 0.157091 0.120149
v -0.233115 0.163976 0.120165
v -0.231072 0.173426 0.121394
v -0.233115 0.182705 0.123505
v -0.238481 0.189145 0.125842
v -0.245679 0.179308 0.183110
v -0.238083 0.182173 0.181654
v -0.251082 0.172333 0.183452
v -0.253139 0.162736 0.182606
v -0.251082 0.153295 0.180759
v -0.245679 0.146733 0.178478
v -0.238083 0.144450 0.176248
v -0.230488 0.147323 0.174759
v -0.225085 0.154302 0.174422
v -0.223028 0.163894 0.175307
v -0.225085 0.173328 0.177186
v -0.230488 0.179886 0.179463
v -0.238062 0.172587 0.230971
v -0.230418 0.175454 0.229298
v -0.243499 0.165548 0.231605
v -0.245568 0.155835 0.231063
v -0.243499 0.146262 0.229442
v -0.238062 0.139588 0.227244
v -0.230418 0.137238 0.224936
v -0.222774 0.140113 0.223227
v -0.217336 0.147156 0.222597
v -0.215266 0.156865 0.223180
v -0.217336 0.166431 0.224838
v -0.222774 0.173101 0.227033
v -0.230903 0.167681 0.274095
v -0.223204 0.170533 0.272307
v -0.236380 0.160598 0.274938
v -0.238465 0.150794 0.274653
v -0.236380 0.141103 0.273262
v -0.230903 0.134321 0.271198
v -0.223204 0.131898 0.268903
v -0.215504 0.134756 0.267076
v -0.210027 0.141843 0.266236
v -0.207941 0.151647 0.266562
v -0.210027 0.161331 0.267994
v -0.215504 0.168108 0.270054
v -0.224388 0.164107 0.313965
v -0.216617 0.166931 0.312192
v -0.229917 0.156996 0.314916
v -0.232021 0.147113 0.314838
v -0.229917 0.137316 0.313694
v -0.224388 0.130431 0.311847
v -0.216617 0.127928 0.309693
v -0.208845 0.130757 0.307881
v -0.203318 0.137873 0.306934
v -0.201213 0.147754 0.307053
v -0.203317 0.157546 0.308234
v -0.208845 0.164427 0.310077
v -0.218695 0.161545 0.352113
v -0.210834 0.164335 0.350498
v -0.224285 0.154415 0.353062
v -0.226415 0.144465 0.353144
v -0.224285 0.134569 0.352282
v -0.218695 0.127583 0.350752
v -0.210834 0.125001 0.348883
v -0.202974 0.127795 0.347235
v -0.197383 0.134929 0.346286
v -0.195254 0.144880 0.346240
v -0.197383 0.154772 0.347137
v -0.202974 0.161754 0.348664
v -0.213990 0.159826 0.390110
v -0.206031 0.162586 0.388787
v -0.219651 0.152675 0.390968
v -0.221806 0.142660 0.391177
v -0.219651 0.132673 0.390632
v -0.213990 0.125595 0.389516
v -0.206031 0.122940 0.388066
v -0.198073 0.125703 0.386715
v -0.192412 0.132855 0.385858
v -0.190255 0.142871 0.385679
v -0.192412 0.152855 0.386249
v -0.198073 0.159931 0.387365
v -0.210437 0.158914 0.429572
v -0.202383 0.161658 0.428626
v -0.216168 0.151737 0.430284
v -0.218350 0.141657 0.430605
v -0.216168 0.131584 0.430416
v -0.210437 0.124426 0.429786
v -0.202383 0.121711 0.428850
v -0.194327 0.124455 0.427884
v -0.188598 0.131633 0.427173
v -0.186417 0.141715 0.426872
v -0.188598 0.151786 0.427079
v -0.194327 0.158943 0.427709
v -0.208206 0.158930 0.472124
v -0.200065 0.161677 0.471578
v -0.213998 0.151713 0.472679
v -0.216202 0.141563 0.473129
v -0.213998 0.131409 0.473324
v -0.208206 0.124184 0.473220
v -0.200065 0.121431 0.472838
v -0.191923 0.124176 0.472283
v -0.186133 0.131395 0.471727
v -0.183927 0.141545 0.471288
v -0.186133 0.151698 0.471100
v -0.191923 0.158922 0.471204
vn -0.0067 0.0597 0.9982
vn -0.0063 0.0599 0.9982
vn -0.0067 0.0598 0.9982
vn -0.0069 0.0599 0.9982
vn -0.0068 0.0596 0.9982
vn -0.0068 0.0595 0.9982
vn -0.0072 0.0595 0.9982
vn -0.0065 0.0596 0.9982
vn -0.0067 0.0595 0.9982
vn 0.0000 0.0000 -1.0000
vn -0.3391 0.9155 0.2166
vn -0.3207 0.9218 0.2179
vn -0.7666 0.6114 0.1960
vn -0.7765 0.5998 0.1930
vn -0.9673 0.2144 0.1359
vn -0.9732 0.1906 0.1287
vn -0.9744 -0.2201 0.0455
vn -0.9728 -0.2275 0.0428
vn -0.7576 -0.6486 -0.0728
vn -0.7745 -0.6293 -0.0641
vn -0.2685 -0.9434 -0.1947
vn -0.3170 -0.9309 -0.1817
vn 0.3369 -0.9074 -0.2514
vn 0.3150 -0.9159 -0.2487
vn 0.7621 -0.6078 -0.2233
vn 0.7725 -0.5945 -0.2232
vn 0.9654 -0.2139 -0.1491
vn 0.9713 -0.1869 -0.1469
vn 0.9742 0.2200 -0.0504
vn 0.9721 0.2295 -0.0492
vn 0.7581 0.6492 0.0620
vn 0.7738 0.6307 0.0590
vn 0.2706 0.9480 0.1676
vn 0.3137 0.9351 0.1650
vn -0.3185 0.9195 0.2303
vn -0.3118 0.9217 0.2308
vn -0.7725 0.5950 0.2217
vn -0.7688 0.5993 0.2229
vn -0.9695 0.1842 0.1615
vn -0.9684 0.1887 0.1630
vn -0.9693 -0.2347 0.0737
vn -0.9702 -0.2303 0.0755
vn -0.7705 -0.6364 -0.0366
vn -0.7739 -0.6324 -0.0345
vn -0.3127 -0.9364 -0.1593
vn -0.3189 -0.9346 -0.1573
vn 0.3172 -0.9182 -0.2374
vn 0.3105 -0.9208 -0.2362
vn 0.7718 -0.5935 -0.2282
vn 0.7682 -0.5982 -0.2279
vn 0.9688 -0.1828 -0.1674
vn 0.9679 -0.1875 -0.1676
vn 0.9684 0.2366 -0.0795
vn 0.9695 0.2317 -0.0799
vn 0.7694 0.6380 0.0302
vn 0.7732 0.6335 0.0295
vn 0.3112 0.9381 0.1523
vn 0.3178 0.9359 0.1519
vn -0.3175 0.9260 0.2044
vn -0.3108 0.9281 0.2048
vn -0.7704 0.6006 0.2141
vn -0.7669 0.6046 0.2152
vn -0.9673 0.1874 0.1710
vn -0.9661 0.1919 0.1725
vn -0.9672 -0.2346 0.0973
vn -0.9681 -0.2303 0.0990
vn -0.7687 -0.6396 -0.0028
vn -0.7721 -0.6355 -0.0007
vn -0.3116 -0.9422 -0.1229
vn -0.3180 -0.9404 -0.1206
vn 0.3160 -0.9249 -0.2117
vn 0.3096 -0.9274 -0.2101
vn 0.7695 -0.5992 -0.2207
vn 0.7662 -0.6038 -0.2201
vn 0.9665 -0.1859 -0.1771
vn 0.9656 -0.1907 -0.1769
vn 0.9662 0.2362 -0.1033
vn 0.9673 0.2315 -0.1034
vn 0.7676 0.6409 -0.0037
vn 0.7711 0.6367 -0.0041
vn 0.3102 0.9436 0.1157
vn 0.3168 0.9415 0.1153
vn -0.3165 0.9311 0.1811
vn -0.3103 0.9332 0.1815
vn -0.7686 0.6055 0.2064
vn -0.7651 0.6096 0.2074
vn -0.9653 0.1912 0.1780
vn -0.9642 0.1954 0.1794
vn -0.9654 -0.2332 0.1167
vn -0.9662 -0.2289 0.1184
vn -0.7673 -0.6408 0.0260
vn -0.7705 -0.6369 0.0280
vn -0.3111 -0.9460 -0.0912
vn -0.3171 -0.9442 -0.0888
vn 0.3149 -0.9302 -0.1885
vn 0.3090 -0.9325 -0.1868
vn 0.7676 -0.6045 -0.2131
vn 0.7642 -0.6090 -0.2122
vn 0.9644 -0.1898 -0.1842
vn 0.9635 -0.1944 -0.1838
vn 0.9643 0.2347 -0.1228
vn 0.9654 0.2302 -0.1227
vn 0.7658 0.6422 -0.0326
vn 0.7693 0.6380 -0.0328
vn 0.3094 0.9472 0.0838
vn 0.3157 0.9452 0.0836
vn -0.3160 0.9353 0.1589
vn -0.3102 0.9372 0.1593
vn -0.7675 0.6104 0.1958
vn -0.7641 0.6143 0.1967
vn -0.9641 0.1953 0.1797
vn -0.9630 0.1995 0.1810
vn -0.9644 -0.2304 0.1296
vn -0.9652 -0.2265 0.1311
vn -0.7666 -0.6403 0.0481
vn -0.7695 -0.6367 0.0501
vn -0.3109 -0.9483 -0.0642
vn -0.3164 -0.9466 -0.0619
vn 0.3143 -0.9346 -0.1663
vn 0.3087 -0.9368 -0.1644
vn 0.7663 -0.6098 -0.2026
vn 0.7633 -0.6138 -0.2015
vn 0.9632 -0.1942 -0.1860
vn 0.9624 -0.1986 -0.1854
vn 0.9632 0.2320 -0.1357
vn 0.9643 0.2277 -0.1354
vn 0.7650 0.6417 -0.0548
vn 0.7684 0.6376 -0.0548
vn 0.3091 0.9493 0.0568
vn 0.3150 0.9474 0.0567
vn -0.3163 0.9389 0.1358
vn -0.3108 0.9407 0.1363
vn -0.7678 0.6151 0.1795
vn -0.7647 0.6187 0.1804
vn -0.9644 0.2001 0.1730
vn -0.9634 0.2037 0.1741
vn -0.9648 -0.2267 0.1330
vn -0.9655 -0.2230 0.1344
vn -0.7672 -0.6384 0.0619
vn -0.7697 -0.6352 0.0635
vn -0.3113 -0.9494 -0.0421
vn -0.3164 -0.9478 -0.0400
vn 0.3143 -0.9384 -0.1433
vn 0.3093 -0.9404 -0.1415
vn 0.7666 -0.6145 -0.1863
vn 0.7640 -0.6181 -0.1852
vn 0.9635 -0.1990 -0.1792
vn 0.9628 -0.2030 -0.1785
vn 0.9636 0.2282 -0.1392
vn 0.9647 0.2240 -0.1388
vn 0.7656 0.6396 -0.0686
vn 0.7687 0.6359 -0.0684
vn 0.3094 0.9503 0.0347
vn 0.3150 0.9484 0.0348
vn -0.3171 0.9419 0.1106
vn -0.3121 0.9435 0.1111
vn -0.7697 0.6192 0.1555
vn -0.7671 0.6222 0.1563
vn -0.9664 0.2045 0.1556
vn -0.9655 0.2080 0.1566
vn -0.9669 -0.2223 0.1253
vn -0.9674 -0.2192 0.1264
vn -0.7693 -0.6355 0.0660
vn -0.7717 -0.6323 0.0676
vn -0.3127 -0.9495 -0.0248
vn -0.3169 -0.9482 -0.0230
vn 0.3153 -0.9416 -0.1179
vn 0.3109 -0.9433 -0.1163
vn 0.7687 -0.6187 -0.1622
vn 0.7663 -0.6220 -0.1611
vn 0.9656 -0.2038 -0.1618
vn 0.9650 -0.2072 -0.1610
vn 0.9658 0.2234 -0.1314
vn 0.9667 0.2199 -0.1309
vn 0.7679 0.6364 -0.0728
vn 0.7707 0.6330 -0.0724
vn 0.3109 0.9503 0.0175
vn 0.3157 0.9487 0.0177
vn -0.3183 0.9444 0.0821
vn -0.3142 0.9457 0.0826
vn -0.7730 0.6224 0.1231
vn -0.7708 0.6250 0.1237
vn -0.9697 0.2086 0.1274
vn -0.9690 0.2112 0.1282
vn -0.9701 -0.2181 0.1064
vn -0.9706 -0.2153 0.1074
vn -0.7727 -0.6318 0.0614
vn -0.7746 -0.6294 0.0625
vn -0.3145 -0.9492 -0.0114
vn -0.3181 -0.9480 -0.0100
vn 0.3169 -0.9442 -0.0894
vn 0.3133 -0.9455 -0.0881
vn 0.7720 -0.6223 -0.1296
vn 0.7700 -0.6249 -0.1287
vn 0.9690 -0.2079 -0.1334
vn 0.9685 -0.2109 -0.1327
vn 0.9693 0.2188 -0.1125
vn 0.9700 0.2159 -0.1119
vn 0.7715 0.6326 -0.0679
vn 0.7739 0.6298 -0.0675
vn 0.3129 0.9498 0.0041
vn 0.3172 0.9483 0.0045
vn -0.3197 0.9462 0.0507
vn -0.3167 0.9472 0.0511
vn -0.7764 0.6247 0.0837
vn -0.7746 0.6269 0.0842
vn -0.9732 0.2113 0.0907
vn -0.9727 0.2135 0.0913
vn -0.9735 -0.2144 0.0794
vn -0.9739 -0.2125 0.0800
vn -0.7761 -0.6286 0.0502
vn -0.7774 -0.6269 0.0509
vn -0.3165 -0.9486 -0.0003
vn -0.3194 -0.9476 0.0007
vn 0.3187 -0.9461 -0.0577
vn 0.3158 -0.9471 -0.0568
vn 0.7756 -0.6247 -0.0901
vn 0.7741 -0.6267 -0.0894
vn 0.9727 -0.2112 -0.0966
vn 0.9723 -0.2132 -0.0961
vn 0.9729 0.2150 -0.0852
vn 0.9735 0.2126 -0.0847
vn 0.7752 0.6291 -0.0566
vn 0.7770 0.6269 -0.0562
vn 0.3154 0.9489 -0.0068
vn 0.3187 0.9478 -0.0064
vn -0.3207 0.9470 0.0165
vn -0.3187 0.9477 0.0168
vn -0.7789 0.6259 0.0402
vn -0.7777 0.6273 0.0405
vn -0.9758 0.2128 0.0498
vn -0.9755 0.2141 0.0501
vn -0.9760 -0.2123 0.0485
vn -0.9763 -0.2110 0.0488
vn -0.7785 -0.6265 0.0365
vn -0.7794 -0.6254 0.0369
vn -0.3183 -0.9479 0.0107
vn -0.3199 -0.9474 0.0112
vn 0.3198 -0.9472 -0.0233
vn 0.3180 -0.9478 -0.0228
vn 0.7785 -0.6259 -0.0464
vn 0.7775 -0.6272 -0.0460
vn 0.9755 -0.2127 -0.0555
vn 0.9752 -0.2143 -0.0551
vn 0.9757 0.2124 -0.0542
vn 0.9760 0.2111 -0.0539
vn 0.7781 0.6266 -0.0427
vn 0.7793 0.6252 -0.0424
vn 0.3175 0.9481 -0.0176
vn 0.3198 0.9473 -0.0172
vn -0.3208 0.9469 -0.0194
vn -0.3197 0.9473 -0.0192
vn -0.7800 0.6257 -0.0039
vn -0.7798 0.6260 -0.0038
vn -0.9771 0.2126 0.0091
vn -0.9770 0.2132 0.0092
vn -0.9771 -0.2117 0.0189
vn -0.9772 -0.2115 0.0190
vn -0.7798 -0.6255 0.0249
vn -0.7801 -0.6251 0.0250
vn -0.3192 -0.9474 0.0243
vn -0.3198 -0.9472 0.0244
vn 0.3203 -0.9472 0.0136
vn 0.3200 -0.9473 0.0136
vn 0.7800 -0.6257 -0.0013
vn 0.7796 -0.6262 -0.0012
vn 0.9770 -0.2129 -0.0139
vn 0.9769 -0.2134 -0.0138
vn 0.9770 0.2118 -0.0237
vn 0.9771 0.2113 -0.0235
vn 0.7797 0.6254 -0.0301
vn 0.7802 0.6248 -0.0300
vn 0.3191 0.9472 -0.0301
vn 0.3198 0.9470 -0.0299
s off
f 1//1 2//1 3//1
f 4//1 2//1 1//1
f 5//2 2//2 4//2
f 6//3 4//3 1//3
f 7//4 4//4 6//4
f 8//5 6//5 1//5
f 9//6 6//6 8//6
f 10//7 8//7 1//7
f 11//8 1//8 3//8
f 3//9 2//9 12//9
f 13//10 14//10 15//10
f 16//10 14//10 13//10
f 17//10 14//10 16//10
f 18//10 14//10 17//10
f 19//10 18//10 17//10
f 20//10 19//10 17//10
f 21//10 20//10 17//10
f 22//10 20//10 21//10
f 23//10 20//10 22//10
f 24//10 20//10 23//10
f 21//11 17//11 25//11
f 26//12 21//12 25//12
f 17//13 16//13 27//13
f 25//14 17//14 27//14
f 16//15 13//15 28//15
f 27//16 16//16 28//16
f 13//17 15//17 29//17
f 28//18 13//18 29//18
f 15//19 14//19 30//19
f 29//20 15//20 30//20
f 14//21 18//21 31//21
f 30//22 14//22 31//22
f 18//23 19//23 32//23
f 31//24 18//24 32//24
f 19//25 20//25 33//25
f 32//26 19//26 33//26
f 20//27 24//27 34//27
f 33//28 20//28 34//28
f 24//29 23//29 35//29
f 34//30 24//30 35//30
f 23//31 22//31 36//31
f 35//32 23//32 36//32
f 22//33 21//33 26//33
f 36//34 22//34 26//34
f 26//35 25//35 37//35
f 38//36 26//36 37//36
f 25//37 27//37 39//37
f 37//38 25//38 39//38
f 27//39 28//39 40//39
f 39//40 27//40 40//40
f 28//41 29//41 41//41
f 40//42 28//42 41//42
f 29//43 30//43 42//43
f 41//44 29//44 42//44
f 30//45 31//45 43//45
f 42//46 30//46 43//46
f 31//47 32//47 44//47
f 43//48 31//48 44//48
f 32//49 33//49 45//49
f 44//50 32//50 45//50
f 33//51 34//51 46//51
f 45//52 33//52 46//52
f 34//53 35//53 47//53
f 46//54 34//54 47//54
f 35//55 36//55 48//55
f 47//56 35//56 48//56
f 36//57 26//57 38//57
f 48//58 36//58 38//58
f 38//59 37//59 49//59
f 50//60 38//60 49//60
f 37//61 39//61 51//61
f 49//62 37//62 51//62
f 39//63 40//63 52//63
f 51//64 39//64 52//64
f 40//65 41//65 53//65
f 52//66 40//66 53//66
f 41//67 42//67 54//67
f 53//68 41//68 54//68
f 42//69 43//69 55//69
f 54//70 42//70 55//70
f 43//71 44//71 56//71
f 55//72 43//72 56//72
f 44//73 45//73 57//73
f 56//74 44//74 57//74
f 45//75 46//75 58//75
f 57//76 45//76 58//76
f 46//77 47//77 59//77
f 58//78 46//78 59//78
f 47//79 48//79 60//79
f 59//80 47//80 60//80
f 48//81 38//81 50//81
f 60//82 48//82 50//82
f 50//83 49//83 61//83
f 62//84 50//84 61//84
f 49//85 51//85 63//85
f 61//86 49//86 63//86
f 51//87 52//87 64//87
f 63//88 51//88 64//88
f 52//89 53//89 65//89
f 64//90 52//90 65//90
f 53//91 54//91 66//91
f 65//92 53//92 66//92
f 54//93 55//93 67//93
f 66//94 54//94 67//94
f 55//95 56//95 68//95
f 67//96 55//96 68//96
f 56//97 57//97 69//97
f 68//98 56//98 69//98
f 57//99 58//99 70//99
f 69//100 57//100 70//100
f 58//101 59//101 71//101
f 70//102 58//102 71//102
f 59//103 60//103 72//103
f 71//104 59//104 72//104
f 60//105 50//105 62//105
f 72//106 60//106 62//106
f 62//107 61//107 73//107
f 74//108 62//108 73//108
f 61//109 63//109 75//109
f 73//110 61//110 75//110
f 63//111 64//111 76//111
f 75//112 63//112 76//112
f 64//113 65//113 77//113
f 76//114 64//114 77//114
f 65//115 66//115 78//115
f 77//116 65//116 78//116
f 66//117 67//117 79//117
f 78//118 66//118 79//118
f 67//119 68//119 80//119
f 79//120 67//120 80//120
f 68//121 69//121 81//121
f 80//122 68//122 81//122
f 69//123 70//123 82//123
f 81//124 69//124 82//124
f 70//125 71//125 83//125
f 82//126 70//126 83//126
f 71//127 72//127 84//127
f 83//128 71//128 84//128
f 72//129 62//129 74//129
f 84//130 72//130 74//130
f 74//131 73//131 85//131
f 86//132 74//132 85//132
f 73//133 75//133 87//133
f 85//134 73//134 87//134
f 75//135 76//135 88//135
f 87//136 75//136 88//136
f 76//137 77//137 89//137
f 88//138 76//138 89//138
f 77//139 78//139 90//139
f 89//140 77//140 90//140
f 78//141 79//141 91//141
f 90//142 78//142 91//142
f 79//143 80//143 92//143
f 91//144 79//144 92//144
f 80//145 81//145 93//145
f 92//146 80//146 93//146
f 81//147 82//147 94//147
f 93//148 81//148 94//148
f 82//149 83//149 95//149
f 94//150 82//150 95//150
f 83//151 84//151 96//151
f 95//152 83//152 96//152
f 84//153 74//153 86//153
f 96//154 84//154 86//154
f 86//155 85//155 97//155
f 98//156 86//156 97//156
f 85//157 87//157 99//157
f 97//158 85//158 99//158
f 87//159 88//159 100//159
f 99//160 87//160 100//160
f 88//161 89//161 101//161
f 100//162 88//162 101//162
f 89//163 90//163 102//163
f 101//164 89//164 102//164
f 90//165 91//165 103//165
f 102//166 90//166 103//166
f 91//167 92//167 104//167
f 103//168 91//168 104//168
f 92//169 93//169 105//169
f 104//170 92//170 105//170
f 93//171 94//171 106//171
f 105//172 93//172 106//172
f 94//173 95//173 107//173
f 106//174 94//174 107//174
f 95//175 96//175 108//175
f 107//176 95//176 108//176
f 96//177 86//177 98//177
f 108//178 96//178 98//178
f 98//179 97//179 109//179
f 110//180 98//180 109//180
f 97//181 99//181 111//181
f 109//182 97//182 111//182
f 99//183 100//183 112//183
f 111//184 99//184 112//184
f 100//185 101//185 113//185
f 112//186 100//186 113//186
f 101//187 102//187 114//187
f 113//188 101//188 114//188
f 102//189 103//189 115//189
f 114//190 102//190 115//190
f 103//191 104//191 116//191
f 115//192 103//192 116//192
f 104//193 105//193 117//193
f 116//194 104//194 117//194
f 105//195 106//195 118//195
f 117//196 105//196 118//196
f 106//197 107//197 119//197
f 118//198 106//198 119//198
f 107//199 108//199 120//199
f 119//200 107//200 120//200
f 108//201 98//201 110//201
f 120//202 108//202 110//202
f 110//203 109//203 121//203
f 122//204 110//204 121//204
f 109//205 111//205 123//205
f 121//206 109//206 123//206
f 111//207 112//207 124//207
f 123//208 111//208 124//208
f 112//209 113//209 125//209
f 124//210 112//210 125//210
f 113//211 114//211 126//211
f 125//212 113//212 126//212
f 114//213 115//213 127//213
f 126//214 114//214 127//214
f 115//215 116//215 128//215
f 127//216 115//216 128//216
f 116//217 117//217 129//217
f 128//218 116//218 129//218
f 117//219 118//219 130//219
f 129//220 117//220 130//220
f 118//221 119//221 131//221
f 130//222 118//222 131//222
f 119//223 120//223 132//223
f 131//224 119//224 132//224
f 120//225 110//225 122//225
f 132//226 120//226 122//226
f 122//227 121//227 133//227
f 134//228 122//228 133//228
f 121//229 123//229 135//229
f 133//230 121//230 135//230
f 123//231 124//231 136//231
f 135//232 123//232 136//232
f 124//233 125//233 137//233
f 136//234 124//234 137//234
f 125//235 126//235 138//235
f 137//236 125//236 138//236
f 126//237 127//237 139//237
f 138//238 126//238 139//238
f 127//239 128//239 140//239
f 139//240 127//240 140//240
f 128//241 129//241 141//241
f 140//242 128//242 141//242
f 129//243 130//243 142//243
f 141//244 129//244 142//244
f 130//245 131//245 143//245
f 142//246 130//246 143//246
f 131//247 132//247 144//247
f 143//248 131//248 144//248
f 132//249 122//249 134//249
f 144//250 132//250 134//250
f 134//251 133//251 3//251
f 12//252 134//252 3//252
f 133//253 135//253 11//253
f 3//254 133//254 11//254
f 135//255 136//255 1//255
f 11//256 135//256 1//256
f 136//257 137//257 10//257
f 1//258 136//258 10//258
f 137//259 138//259 8//259
f 10//260 137//260 8//260
f 138//261 139//261 9//261
f 8//262 138//262 9//262
f 139//263 140//263 6//263
f 9//264 139//264 6//264
f 140//265 141//265 7//265
f 6//266 140//266 7//266
f 141//267 142//267 4//267
f 7//268 141//268 4//268
f 142//269 143//269 5//269
f 4//270 142//270 5//270
f 143//271 144//271 2//271
f 5//272 143//272 2//272
f 144//273 134//273 12//273
f 2//274 144//274 12//274
