# Blender v2.79 (sub 0) OBJ File: ''
# www.blender.org
o LegFrontRight.004
v -0.296201 -0.326032 -0.021271
v -0.268597 -0.354618 -0.021271
v -0.296201 -0.326032 0.476479
v -0.268597 -0.354618 0.476479
v -0.295712 -0.297939 -0.021271
v -0.295712 -0.297939 0.476479
v -0.239522 -0.298919 -0.021271
v -0.239522 -0.298919 0.476479
v -0.240504 -0.355109 0.476479
v -0.240504 -0.355109 -0.021271
vn -0.7194 -0.6946 -0.0000
vn -0.9998 0.0174 0.0000
vn 0.0174 0.9998 0.0000
vn -0.0000 0.0000 1.0000
vn -0.0175 -0.9998 -0.0000
vn 0.0000 0.0000 -1.0000
vn 0.9998 -0.0175 -0.0000
s off
f 1//1 2//1 3//1
f 4//1 3//1 2//1
f 1//2 3//2 5//2
f 6//2 5//2 3//2
f 7//3 5//3 8//3
f 6//3 8//3 5//3
f 8//4 4//4 9//4
f 6//4 4//4 8//4
f 3//4 4//4 6//4
f 9//5 4//5 10//5
f 2//5 10//5 4//5
f 2//6 7//6 10//6
f 1//6 7//6 2//6
f 5//6 7//6 1//6
f 10//7 7//7 9//7
f 8//7 9//7 7//7
