# Blender v2.79 (sub 0) OBJ File: ''
# www.blender.org
o LegBackLeft.004
v 0.256870 0.194125 0.476479
v 0.225883 0.258844 0.496919
v 0.224763 0.194685 0.476479
v 0.257990 0.258284 0.496919
v 0.257991 0.258341 0.437006
v 0.225884 0.258901 0.437006
v 0.258003 0.259023 0.398506
v 0.225895 0.259585 0.398506
v 0.258027 0.260376 0.360025
v 0.225919 0.260937 0.360025
v 0.258062 0.262396 0.321573
v 0.225954 0.262958 0.321573
v 0.258109 0.265086 0.283161
v 0.226002 0.265647 0.283161
v 0.258168 0.268443 0.244802
v 0.226059 0.269003 0.244802
v 0.258237 0.272466 0.206506
v 0.226130 0.273026 0.206506
v 0.258319 0.277154 0.168287
v 0.226212 0.277714 0.168287
v 0.258413 0.282506 0.130156
v 0.226305 0.283066 0.130156
v 0.258518 0.288520 0.092123
v 0.226410 0.289080 0.092123
v 0.258634 0.295194 0.054200
v 0.226527 0.295755 0.054200
v 0.258763 0.302527 0.016399
v 0.226654 0.303087 0.016399
v 0.258902 0.310516 -0.021271
v 0.226794 0.311076 -0.021271
v 0.256870 0.194125 0.388169
v 0.256879 0.194631 0.353349
v 0.256906 0.196152 0.318561
v 0.256950 0.198683 0.283829
v 0.257012 0.202225 0.249187
v 0.257092 0.206773 0.214663
v 0.257187 0.212324 0.180287
v 0.257302 0.218873 0.146086
v 0.257433 0.226415 0.112090
v 0.257582 0.234943 0.078328
v 0.257749 0.244450 0.044829
v 0.257931 0.254929 0.011621
v 0.258131 0.266368 -0.021271
v 0.226024 0.266929 -0.021271
v 0.225824 0.255489 0.011621
v 0.225641 0.245011 0.044829
v 0.225475 0.235504 0.078328
v 0.225326 0.226976 0.112090
v 0.225194 0.219435 0.146086
v 0.225080 0.212885 0.180287
v 0.224983 0.207334 0.214663
v 0.224905 0.202786 0.249187
v 0.224842 0.199244 0.283829
v 0.224798 0.196712 0.318561
v 0.224772 0.195192 0.353349
v 0.224763 0.194685 0.388169
vn -0.0053 -0.3035 0.9528
vn 0.0174 0.9998 0.0010
vn 0.0175 0.9997 0.0177
vn 0.0174 0.9997 0.0178
vn 0.0175 0.9992 0.0351
vn 0.0175 0.9985 0.0525
vn 0.0174 0.9985 0.0525
vn 0.0174 0.9974 0.0699
vn 0.0175 0.9974 0.0698
vn 0.0174 0.9960 0.0872
vn 0.0173 0.9944 0.1045
vn 0.0173 0.9924 0.1218
vn 0.0173 0.9901 0.1390
vn 0.0172 0.9876 0.1562
vn 0.0172 0.9847 0.1734
vn 0.0171 0.9815 0.1905
vn 0.0172 0.9815 0.1904
vn 0.0171 0.9781 0.2075
vn 0.9998 -0.0175 -0.0000
vn 0.9998 -0.0174 0.0000
vn 0.9998 -0.0174 -0.0001
vn 0.0000 0.0000 -1.0000
vn -0.0165 -0.9444 -0.3285
vn -0.0165 -0.9443 -0.3286
vn -0.0167 -0.9535 -0.3010
vn -0.0166 -0.9535 -0.3009
vn -0.0168 -0.9619 -0.2731
vn -0.0169 -0.9694 -0.2449
vn -0.0171 -0.9761 -0.2166
vn -0.0172 -0.9820 -0.1881
vn -0.0172 -0.9871 -0.1594
vn -0.0173 -0.9913 -0.1306
vn -0.0174 -0.9947 -0.1017
vn -0.0174 -0.9972 -0.0727
vn -0.0175 -0.9989 -0.0437
vn -0.0174 -0.9989 -0.0437
vn -0.0174 -0.9997 -0.0145
vn -0.0175 -0.9997 -0.0146
vn -0.0174 -0.9998 0.0000
vn -0.9998 0.0175 -0.0000
vn -0.9998 0.0174 0.0000
s off
f 1//1 2//1 3//1
f 1//1 4//1 2//1
f 4//2 5//2 6//2
f 2//2 4//2 6//2
f 5//3 7//3 8//3
f 6//4 5//4 8//4
f 7//5 9//5 10//5
f 8//5 7//5 10//5
f 9//6 11//6 12//6
f 10//7 9//7 12//7
f 11//8 13//8 14//8
f 12//9 11//9 14//9
f 13//10 15//10 16//10
f 14//10 13//10 16//10
f 15//11 17//11 18//11
f 16//11 15//11 18//11
f 17//12 19//12 20//12
f 18//12 17//12 20//12
f 19//13 21//13 22//13
f 20//13 19//13 22//13
f 21//14 23//14 24//14
f 22//14 21//14 24//14
f 23//15 25//15 26//15
f 24//15 23//15 26//15
f 25//16 27//16 28//16
f 26//17 25//17 28//17
f 27//18 29//18 30//18
f 28//18 27//18 30//18
f 1//19 5//19 4//19
f 5//19 1//19 7//19
f 7//19 1//19 31//19
f 31//19 9//19 7//19
f 9//19 31//19 32//19
f 32//19 11//19 9//19
f 11//20 32//20 33//20
f 33//20 34//20 11//20
f 34//19 13//19 11//19
f 13//19 34//19 35//19
f 35//19 15//19 13//19
f 15//19 35//19 36//19
f 36//20 17//20 15//20
f 17//21 36//21 37//21
f 37//19 19//19 17//19
f 19//19 37//19 38//19
f 38//19 21//19 19//19
f 21//19 38//19 39//19
f 39//19 23//19 21//19
f 23//19 39//19 40//19
f 40//19 25//19 23//19
f 25//20 40//20 41//20
f 41//20 27//20 25//20
f 27//19 41//19 42//19
f 42//19 43//19 27//19
f 43//19 29//19 27//19
f 44//22 30//22 29//22
f 43//22 44//22 29//22
f 43//23 42//23 45//23
f 44//24 43//24 45//24
f 42//25 41//25 46//25
f 45//26 42//26 46//26
f 41//27 40//27 47//27
f 46//27 41//27 47//27
f 40//28 39//28 48//28
f 47//28 40//28 48//28
f 39//29 38//29 49//29
f 48//29 39//29 49//29
f 38//30 37//30 50//30
f 49//30 38//30 50//30
f 37//31 36//31 51//31
f 50//31 37//31 51//31
f 36//32 35//32 52//32
f 51//32 36//32 52//32
f 35//33 34//33 53//33
f 52//33 35//33 53//33
f 34//34 33//34 54//34
f 53//34 34//34 54//34
f 33//35 32//35 55//35
f 54//36 33//36 55//36
f 32//37 31//37 56//37
f 55//38 32//38 56//38
f 1//39 3//39 56//39
f 31//39 1//39 56//39
f 3//40 2//40 6//40
f 6//40 8//40 3//40
f 8//41 56//41 3//41
f 56//41 8//41 10//41
f 10//41 55//41 56//41
f 55//41 10//41 12//41
f 12//41 54//41 55//41
f 54//41 12//41 53//41
f 53//40 12//40 14//40
f 14//40 52//40 53//40
f 52//41 14//41 16//41
f 16//41 51//41 52//41
f 51//40 16//40 18//40
f 18//40 50//40 51//40
f 50//40 18//40 20//40
f 20//40 49//40 50//40
f 49//40 20//40 22//40
f 22//40 48//40 49//40
f 48//40 22//40 24//40
f 24//41 47//41 48//41
f 47//40 24//40 26//40
f 26//40 46//40 47//40
f 46//40 26//40 28//40
f 28//41 45//41 46//41
f 45//41 28//41 30//41
f 30//41 44//41 45//41
