# Blender v2.79 (sub 0) OBJ File: ''
# www.blender.org
o obj05
v -0.178406 0.160556 0.259620
v -0.181667 0.168381 0.260672
v -0.181035 0.166671 0.209825
v -0.179038 0.162266 0.310467
v -0.182299 0.170090 0.311518
v -0.175777 0.154441 0.309415
v -0.179332 0.167513 0.336037
v -0.160033 0.148054 0.307636
v -0.186831 0.180582 0.211694
v -0.150145 0.173874 0.208410
v -0.154181 0.179245 0.169885
v -0.147246 0.180872 0.208941
v -0.157080 0.172247 0.169353
v -0.161117 0.177619 0.130828
v -0.153044 0.166876 0.207877
v -0.172489 0.172840 0.131125
v -0.137765 0.170415 0.308421
v -0.156407 0.188991 0.131692
v -0.163536 0.196456 0.262347
v -0.155663 0.193263 0.261459
v -0.167039 0.200459 0.212392
v -0.152160 0.189259 0.311413
v -0.144287 0.186065 0.310524
v -0.160033 0.192452 0.312303
v -0.143432 0.182601 0.335099
v -0.181035 0.194577 0.212758
v -0.153044 0.194782 0.210810
v -0.134020 0.167766 0.409125
v -0.133798 0.158692 0.461903
v -0.130758 0.159941 0.408072
v -0.137060 0.166517 0.462955
v -0.136838 0.157443 0.515733
v -0.137280 0.175591 0.410177
v -0.153025 0.181978 0.411955
v -0.136139 0.160552 0.402266
v -0.133216 0.148749 0.514565
v -0.192510 0.197433 0.051371
v -0.190337 0.202680 0.051770
v -0.196390 0.204161 -0.012646
v -0.186457 0.195952 0.115787
v -0.184283 0.201200 0.116186
v -0.188631 0.190704 0.115388
v -0.187262 0.203887 0.124178
v -0.192405 0.194597 -0.013931
v -0.192405 0.213783 -0.011915
v -0.182782 0.217827 -0.012166
v -0.173160 0.213924 -0.013253
v -0.182782 0.190694 -0.015018
v -0.173160 0.194738 -0.015270
v -0.169175 0.204360 -0.014538
v -0.163290 0.201354 0.114726
v -0.173786 0.205612 0.115912
v -0.173786 0.176013 0.112800
v -0.163290 0.180425 0.112527
v -0.158942 0.190921 0.113323
v -0.184283 0.180271 0.113986
v -0.159271 0.204091 0.122231
v -0.173267 0.209769 0.123812
v -0.193060 0.189892 0.123114
v -0.173267 0.170304 0.119664
v -0.159271 0.176186 0.119298
v -0.153475 0.190181 0.120362
v -0.187262 0.175982 0.121245
v -0.186744 0.203111 0.131559
v -0.158753 0.203316 0.129613
v -0.172748 0.208993 0.131194
v -0.192540 0.189116 0.130496
v -0.172748 0.169528 0.127046
v -0.158753 0.175410 0.126680
v -0.152955 0.189406 0.127743
v -0.186744 0.175205 0.128626
v -0.188570 0.188756 0.133929
v -0.183860 0.200126 0.134793
v -0.161117 0.200292 0.133211
v -0.172489 0.204905 0.134496
v -0.183860 0.177453 0.132409
v -0.167039 0.160994 0.208243
v -0.175777 0.185834 0.312714
v -0.144287 0.154671 0.307225
v -0.173172 0.182383 0.337167
v -0.158302 0.188633 0.336778
v -0.158302 0.146701 0.332371
v -0.143432 0.152950 0.331982
v -0.137272 0.167820 0.333112
v -0.173172 0.152733 0.334051
v -0.145979 0.177664 0.348508
v -0.168722 0.177498 0.350090
v -0.157351 0.182277 0.349792
v -0.168722 0.154825 0.347707
v -0.157351 0.150212 0.346423
v -0.145979 0.154990 0.346126
v -0.173432 0.166127 0.349226
v -0.141268 0.166361 0.346990
v -0.179098 0.165306 0.357038
v -0.141087 0.181280 0.356045
v -0.172577 0.181050 0.358235
v -0.156831 0.187667 0.357823
v -0.156831 0.143270 0.353156
v -0.134565 0.165631 0.353941
v -0.172577 0.149657 0.354935
v -0.141087 0.149886 0.352745
v -0.178666 0.164659 0.363190
v -0.172145 0.180403 0.364385
v -0.140654 0.180634 0.362195
v -0.156399 0.187021 0.363975
v -0.156399 0.142623 0.359308
v -0.140654 0.149240 0.358896
v -0.134132 0.164985 0.360092
v -0.172145 0.149010 0.361086
v -0.174695 0.164299 0.366622
v -0.169261 0.177419 0.367619
v -0.143019 0.177610 0.365794
v -0.156139 0.182933 0.367275
v -0.156139 0.145934 0.363387
v -0.143019 0.151449 0.363044
v -0.137584 0.164569 0.364041
v -0.169261 0.151257 0.364870
v -0.139962 0.179599 0.372038
v -0.177974 0.163625 0.373031
v -0.171452 0.179369 0.374228
v -0.155707 0.185986 0.373816
v -0.133440 0.163950 0.369935
v -0.155707 0.141589 0.369150
v -0.139962 0.148206 0.368738
v -0.171452 0.147976 0.370928
v -0.139443 0.178824 0.379419
v -0.177455 0.162849 0.380413
v -0.170933 0.178593 0.381609
v -0.155188 0.185211 0.381198
v -0.155188 0.140812 0.376531
v -0.132922 0.163175 0.377316
v -0.139443 0.147429 0.376120
v -0.170933 0.147199 0.378310
v -0.142509 0.174663 0.385447
v -0.167001 0.150066 0.384584
v -0.167001 0.174485 0.387151
v -0.172074 0.162238 0.386220
v -0.154756 0.145099 0.383202
v -0.142509 0.150246 0.382881
v -0.137437 0.162491 0.383811
v -0.154756 0.179631 0.386831
v -0.176676 0.161685 0.391485
v -0.138665 0.177659 0.390492
v -0.170155 0.146036 0.389382
v -0.154409 0.139649 0.387604
v -0.170155 0.177430 0.392682
v -0.154409 0.184046 0.392270
v -0.176158 0.160909 0.398867
v -0.132143 0.162010 0.388389
v -0.138665 0.146266 0.387192
v -0.169636 0.145260 0.396764
v -0.165704 0.148127 0.403038
v -0.169636 0.176654 0.400063
v -0.170777 0.160298 0.404674
v -0.175293 0.159616 0.411170
v -0.157957 0.148568 0.516286
v -0.168771 0.143967 0.409067
v -0.138145 0.176884 0.397873
v -0.153890 0.138873 0.394985
v -0.153890 0.183271 0.399652
v -0.153457 0.143160 0.401656
v -0.154333 0.139874 0.515117
v -0.165704 0.172545 0.405604
v -0.168771 0.175360 0.412367
v -0.154333 0.157315 0.516950
v -0.131623 0.161235 0.395770
v -0.138145 0.145490 0.394574
v -0.153025 0.137580 0.407289
v -0.145586 0.136326 0.514129
v -0.141212 0.172724 0.403902
v -0.141212 0.148306 0.401335
v -0.153457 0.177692 0.405285
v -0.145586 0.160991 0.516721
v -0.136838 0.140002 0.513900
v -0.137280 0.144197 0.406877
vn -0.9230 -0.3848 0.0015
vn -0.9230 -0.3849 0.0015
vn -0.9174 -0.3917 0.0698
vn -0.9174 -0.3918 0.0698
vn -0.3833 -0.9190 -0.0926
vn 0.9177 -0.3690 -0.1476
vn 0.9177 -0.3689 -0.1476
vn 0.3782 -0.9106 -0.1666
vn 0.3783 -0.9106 -0.1666
vn 0.9198 -0.3714 -0.1267
vn 0.9177 -0.3688 -0.1476
vn 0.3800 0.9238 0.0474
vn 0.3801 0.9237 0.0474
vn 0.3845 0.9158 0.1157
vn 0.3846 0.9158 0.1157
vn -0.3833 0.9181 0.1005
vn 0.9242 0.3771 0.0609
vn 0.3863 0.9093 0.1547
vn 0.3864 0.9093 0.1547
vn 0.6998 0.3734 -0.6089
vn 0.9243 0.3769 0.0609
vn -0.9222 0.3747 0.0953
vn -0.9222 0.3748 0.0953
vn -0.8213 0.3731 -0.4316
vn -0.8213 0.3730 -0.4316
vn -0.9223 -0.3862 0.0153
vn -0.0697 0.1042 -0.9921
vn -0.0697 0.1043 -0.9921
vn -0.0698 0.1042 -0.9921
vn -0.0698 0.1043 -0.9921
vn 0.9210 0.3882 -0.0329
vn -0.3823 0.9169 0.1143
vn 0.3811 0.9225 0.0612
vn -0.3823 -0.9207 -0.0788
vn 0.3811 -0.9151 -0.1319
vn 0.9210 -0.3729 -0.1129
vn -0.3824 0.9169 0.1143
vn -0.9222 -0.3864 0.0153
vn -0.3824 -0.9206 -0.0788
vn 0.3812 -0.9150 -0.1319
vn 0.7481 0.3845 -0.5408
vn -0.9222 -0.3863 0.0153
vn -0.3617 0.8346 -0.4154
vn 0.2885 0.8394 -0.4606
vn -0.8213 -0.2751 -0.4997
vn -0.3617 -0.7301 -0.5799
vn 0.2885 -0.7251 -0.6252
vn 0.7482 -0.2638 -0.6088
vn 0.7482 0.3844 -0.5407
vn -0.8213 -0.2752 -0.4997
vn -0.3617 -0.7301 -0.5798
vn 0.2885 -0.7253 -0.6251
vn 0.7481 -0.2635 -0.6090
vn -0.9216 0.3739 0.1040
vn 0.9217 0.3873 -0.0240
vn -0.3818 0.9160 0.1231
vn 0.3818 0.9216 0.0700
vn -0.9216 -0.3874 0.0242
vn -0.3818 -0.9216 -0.0700
vn 0.3818 -0.9160 -0.1231
vn 0.9216 -0.3738 -0.1042
vn -0.9216 0.3738 0.1042
vn 0.9216 0.3874 -0.0242
vn -0.9217 -0.3872 0.0239
vn -0.3817 -0.9216 -0.0702
vn 0.9216 -0.3739 -0.1040
vn -0.6297 0.2039 0.7496
vn -0.2331 0.6021 0.7636
vn 0.7243 0.2138 0.6555
vn 0.3277 0.6061 0.7247
vn -0.6297 -0.3552 0.6909
vn -0.2331 -0.7476 0.6219
vn 0.3278 -0.7436 0.5828
vn 0.7243 -0.3454 0.5967
vn 0.7243 0.2137 0.6556
vn -0.6296 0.2039 0.7497
vn -0.2331 0.6021 0.7637
vn -0.6295 -0.3552 0.6910
vn 0.3277 -0.7435 0.5829
vn 0.7243 -0.3453 0.5968
vn 0.9177 0.3916 -0.0677
vn -0.9238 0.3781 0.0604
vn -0.3845 0.9197 0.0794
vn 0.3783 0.9253 0.0263
vn -0.9238 -0.3823 -0.0195
vn -0.3845 -0.9161 -0.1136
vn 0.9176 0.3916 -0.0677
vn -0.9238 0.3780 0.0604
vn -0.3844 -0.9161 -0.1136
vn 0.3783 -0.9105 -0.1666
vn 0.9198 0.3897 -0.0467
vn -0.9230 0.3761 0.0814
vn 0.3802 0.9237 0.0474
vn -0.3832 -0.9190 -0.0926
vn 0.3801 -0.9134 -0.1457
vn 0.9198 0.3896 -0.0467
vn -0.9230 0.3762 0.0814
vn 0.3800 -0.9134 -0.1457
vn 0.9239 0.3821 0.0217
vn -0.9174 0.3687 0.1498
vn -0.3782 0.9102 0.1688
vn -0.3832 0.9182 0.1004
vn -0.3782 -0.9254 -0.0242
vn 0.3845 -0.9199 -0.0772
vn 0.9239 -0.3783 -0.0582
vn -0.3782 0.9102 0.1687
vn -0.3781 -0.9254 -0.0242
vn 0.8959 0.3339 0.2931
vn -0.8514 0.3212 0.4146
vn -0.3397 0.8351 0.4327
vn 0.3841 0.8404 0.3824
vn -0.8514 -0.4004 0.3388
vn -0.3397 -0.9068 0.2496
vn 0.3841 -0.9016 0.1992
vn 0.8959 -0.3876 0.2172
vn 0.8958 0.3340 0.2931
vn -0.3397 0.8351 0.4326
vn 0.3840 -0.9016 0.1993
vn 0.8959 -0.3877 0.2172
vn -0.7728 -0.2433 -0.5861
vn 0.6878 0.3705 -0.6242
vn -0.7728 0.3598 -0.5227
vn -0.3451 0.7895 -0.5075
vn 0.2600 0.7939 -0.5496
vn -0.3451 -0.6666 -0.6607
vn 0.2599 -0.6622 -0.7028
vn 0.6877 -0.2327 -0.6876
vn 0.6877 0.3706 -0.6243
vn -0.3451 0.7895 -0.5076
vn 0.2600 0.7939 -0.5497
vn -0.3451 -0.6667 -0.6607
vn 0.6877 -0.2326 -0.6877
vn -0.9217 -0.3873 0.0240
vn -0.9216 0.3738 0.1041
vn -0.3817 0.9161 0.1230
vn 0.3818 0.9216 0.0699
vn -0.3817 -0.9216 -0.0701
vn 0.3817 -0.9160 -0.1231
vn 0.9216 -0.3738 -0.1041
vn -0.9216 -0.3873 0.0240
vn -0.9216 0.3738 0.1040
vn -0.3818 0.9160 0.1232
vn 0.9216 0.3873 -0.0242
vn 0.9216 -0.3739 -0.1041
vn -0.6295 -0.3552 0.6911
vn -0.6295 0.2038 0.7498
vn -0.2332 0.6022 0.7636
vn 0.3278 0.6060 0.7248
vn -0.2331 -0.7477 0.6218
vn 0.3277 -0.7436 0.5828
vn 0.7242 0.2137 0.6556
vn 0.7242 -0.3453 0.5968
vn -0.6297 0.2038 0.7496
vn -0.2329 0.6018 0.7639
vn 0.3277 0.6062 0.7247
vn 0.7722 0.3893 -0.5021
vn -0.2331 -0.7478 0.6217
vn 0.3278 -0.7436 0.5827
vn -0.8399 -0.2881 -0.4600
vn -0.8399 0.3775 -0.3898
vn -0.3677 0.8517 -0.3733
vn 0.3001 0.8566 -0.4198
vn -0.3678 -0.7556 -0.5421
vn 0.3001 -0.7506 -0.5886
vn 0.7723 -0.2764 -0.5720
vn -0.8399 -0.2882 -0.4599
vn -0.8399 0.3776 -0.3900
vn -0.3677 0.8518 -0.3732
vn 0.3001 0.8566 -0.4197
vn -0.3677 -0.7555 -0.5422
vn 0.9216 0.3873 -0.0241
vn 0.3001 -0.7507 -0.5885
vn -0.9216 -0.3873 0.0241
vn -0.9216 0.3739 0.1041
vn -0.3818 0.9160 0.1230
vn -0.3818 -0.9216 -0.0702
vn 0.9216 0.3873 -0.0240
vn 0.3817 -0.9160 -0.1233
vn 0.9216 -0.3739 -0.1039
vn 0.7826 0.2495 0.5703
vn 0.9217 -0.3738 -0.1041
vn -0.6997 -0.3734 0.6091
vn -0.6997 0.2387 0.6734
vn -0.2656 0.6747 0.6886
vn 0.3485 0.6791 0.6460
vn -0.6997 -0.3735 0.6091
vn -0.2655 -0.8031 0.5333
vn 0.3484 -0.7986 0.4907
vn 0.7826 -0.3626 0.5060
vn -0.2656 -0.8031 0.5334
vn -0.6997 0.2386 0.6734
vn -0.2655 0.6747 0.6887
vn -0.7243 -0.2138 -0.6555
vn 0.3485 -0.7986 0.4907
vn 0.6298 0.3553 -0.6908
vn 0.7827 -0.3626 0.5059
vn -0.7243 -0.2137 -0.6556
vn -0.3277 -0.6062 -0.7247
vn -0.7242 0.3454 -0.5969
vn -0.3278 0.7436 -0.5827
vn 0.2331 0.7478 -0.6217
vn -0.7243 0.3453 -0.5968
vn 0.2330 -0.6020 -0.7637
vn 0.6297 0.3553 -0.6908
vn 0.6297 -0.2039 -0.7497
vn -0.3277 -0.6062 -0.7246
vn -0.3277 0.7436 -0.5828
vn 0.2331 0.7477 -0.6218
vn -0.6996 -0.3734 0.6091
vn -0.7826 -0.2496 -0.5703
vn -0.9123 -0.3948 0.1090
vn 0.9216 0.3874 -0.0243
vn 0.2331 -0.6021 -0.7637
vn 0.6297 -0.2039 -0.7496
vn -0.3817 -0.9216 -0.0700
vn -0.2655 -0.8031 0.5334
vn -0.7826 -0.2495 -0.5703
vn -0.9122 -0.3949 0.1090
vn -0.6996 0.2387 0.6735
vn -0.3817 0.9160 0.1231
vn -0.7826 0.3627 -0.5060
vn -0.9122 0.3636 0.1887
vn 0.3818 -0.9160 -0.1232
vn 0.9216 -0.3739 -0.1042
vn -0.3485 -0.6792 -0.6459
vn -0.3744 -0.9272 0.0152
vn 0.0699 -0.1043 0.9921
vn -0.2655 0.6746 0.6887
vn -0.7827 0.3626 -0.5059
vn -0.9123 0.3636 0.1887
vn 0.3485 0.6792 0.6459
vn 0.3485 -0.7987 0.4906
vn -0.3484 -0.6792 -0.6461
vn 0.0698 -0.1043 0.9921
vn -0.3485 0.7987 -0.4905
vn -0.3744 0.9037 0.2076
vn 0.2655 -0.6747 -0.6887
vn 0.3863 -0.9216 -0.0377
vn -0.3484 0.7987 -0.4906
vn 0.7826 -0.3627 0.5059
vn 0.2656 0.8031 -0.5334
vn 0.2655 -0.6747 -0.6886
vn 0.2656 0.8032 -0.5333
vn 0.6996 -0.2386 -0.6735
vn 0.6997 0.3735 -0.6091
vn 0.6997 -0.2387 -0.6734
vn 0.9243 -0.3813 -0.0188
vn 0.6996 0.3736 -0.6091
vn 0.9242 -0.3814 -0.0188
vn 0.0697 -0.1043 0.9921
s off
f 1//1 2//1 3//1
f 2//2 4//2 5//2
f 4//3 6//3 7//3
f 5//4 4//4 7//4
f 6//5 1//5 8//5
f 3//1 2//1 9//1
f 10//6 11//6 12//6
f 11//7 13//7 14//7
f 13//8 15//8 16//8
f 14//9 13//9 16//9
f 15//10 10//10 17//10
f 12//11 11//11 18//11
f 19//12 20//12 21//12
f 20//13 22//13 23//13
f 22//14 24//14 25//14
f 23//15 22//15 25//15
f 24//16 19//16 26//16
f 21//13 20//13 27//13
f 28//17 29//17 30//17
f 29//17 31//17 32//17
f 31//18 33//18 34//18
f 32//19 31//19 34//19
f 33//20 28//20 35//20
f 30//21 29//21 36//21
f 37//22 38//22 39//22
f 38//23 40//23 41//23
f 40//24 42//24 43//24
f 41//25 40//25 43//25
f 42//26 37//26 44//26
f 39//22 38//22 45//22
f 13//7 10//7 15//7
f 10//7 13//7 11//7
f 22//12 19//12 24//12
f 19//12 22//12 20//12
f 31//21 28//21 33//21
f 28//17 31//17 29//17
f 40//23 37//23 42//23
f 37//22 40//22 38//22
f 45//27 46//27 44//27
f 46//28 47//28 48//28
f 44//29 39//29 45//29
f 46//30 48//30 44//30
f 47//28 49//28 48//28
f 47//28 50//28 49//28
f 50//31 47//31 51//31
f 52//32 46//32 45//32
f 51//33 47//33 46//33
f 38//23 41//23 45//23
f 44//34 48//34 53//34
f 48//35 49//35 54//35
f 49//36 50//36 55//36
f 51//31 55//31 50//31
f 45//37 41//37 52//37
f 46//33 52//33 51//33
f 44//38 56//38 42//38
f 53//39 56//39 44//39
f 54//40 53//40 48//40
f 55//36 54//36 49//36
f 55//41 51//41 57//41
f 37//42 39//42 44//42
f 58//43 52//43 41//43
f 57//44 51//44 52//44
f 59//45 42//45 56//45
f 56//46 53//46 60//46
f 53//47 54//47 61//47
f 54//48 55//48 62//48
f 42//24 59//24 43//24
f 57//49 62//49 55//49
f 41//43 43//43 58//43
f 52//44 58//44 57//44
f 56//50 63//50 59//50
f 60//51 63//51 56//51
f 61//52 60//52 53//52
f 62//53 61//53 54//53
f 64//54 43//54 59//54
f 62//55 57//55 65//55
f 66//56 58//56 43//56
f 65//57 57//57 58//57
f 67//58 59//58 63//58
f 63//59 60//59 68//59
f 60//60 61//60 69//60
f 61//61 62//61 70//61
f 59//62 67//62 64//62
f 43//56 64//56 66//56
f 65//63 70//63 62//63
f 58//57 66//57 65//57
f 63//64 71//64 67//64
f 68//65 71//65 63//65
f 69//60 68//60 60//60
f 70//66 69//66 61//66
f 64//67 67//67 72//67
f 66//68 64//68 73//68
f 70//69 65//69 74//69
f 65//70 66//70 75//70
f 72//71 67//71 71//71
f 71//72 68//72 16//72
f 68//73 69//73 14//73
f 14//74 69//74 70//74
f 74//75 18//75 70//75
f 72//76 73//76 64//76
f 73//77 75//77 66//77
f 75//70 74//70 65//70
f 71//78 76//78 72//78
f 16//72 76//72 71//72
f 14//79 16//79 68//79
f 70//80 18//80 14//80
f 18//81 74//81 27//81
f 26//82 73//82 72//82
f 21//83 75//83 73//83
f 27//84 74//84 75//84
f 9//85 72//85 76//85
f 76//86 16//86 77//86
f 10//10 12//10 17//10
f 27//87 12//87 18//87
f 72//88 9//88 26//88
f 73//83 26//83 21//83
f 75//84 21//84 27//84
f 76//85 3//85 9//85
f 77//89 3//89 76//89
f 15//90 77//90 16//90
f 12//91 27//91 23//91
f 78//92 26//92 9//92
f 20//93 23//93 27//93
f 3//94 77//94 8//94
f 77//95 15//95 79//95
f 11//7 14//7 18//7
f 23//96 17//96 12//96
f 9//97 5//97 78//97
f 26//16 78//16 24//16
f 2//1 5//1 9//1
f 79//98 8//98 77//98
f 17//10 79//10 15//10
f 17//99 23//99 25//99
f 80//100 78//100 5//100
f 81//101 24//101 78//101
f 19//102 21//102 26//102
f 1//5 3//5 8//5
f 6//103 8//103 82//103
f 8//104 79//104 83//104
f 79//105 17//105 84//105
f 25//99 84//99 17//99
f 5//100 7//100 80//100
f 78//106 80//106 81//106
f 24//15 81//15 25//15
f 6//3 85//3 7//3
f 82//107 85//107 6//107
f 83//104 82//104 8//104
f 84//105 83//105 79//105
f 84//108 25//108 86//108
f 87//109 80//109 7//109
f 88//110 81//110 80//110
f 86//111 25//111 81//111
f 7//112 85//112 89//112
f 85//113 82//113 90//113
f 82//114 83//114 91//114
f 91//115 83//115 84//115
f 89//112 92//112 7//112
f 86//116 93//116 84//116
f 7//109 92//109 87//109
f 80//117 87//117 88//117
f 81//111 88//111 86//111
f 90//113 89//113 85//113
f 91//118 90//118 82//118
f 84//119 93//119 91//119
f 94//120 92//120 89//120
f 93//121 86//121 95//121
f 96//122 87//122 92//122
f 97//123 88//123 87//123
f 95//124 86//124 88//124
f 89//125 90//125 98//125
f 98//126 90//126 91//126
f 91//127 93//127 99//127
f 89//120 100//120 94//120
f 92//122 94//122 96//122
f 95//128 99//128 93//128
f 87//129 96//129 97//129
f 88//130 97//130 95//130
f 98//131 100//131 89//131
f 91//126 101//126 98//126
f 99//132 101//132 91//132
f 102//133 94//133 100//133
f 103//134 96//134 94//134
f 99//63 95//63 104//63
f 105//135 97//135 96//135
f 104//136 95//136 97//136
f 100//137 98//137 106//137
f 98//138 101//138 107//138
f 101//139 99//139 108//139
f 100//140 109//140 102//140
f 94//141 102//141 103//141
f 96//142 103//142 105//142
f 104//143 108//143 99//143
f 97//57 105//57 104//57
f 106//137 109//137 100//137
f 107//138 106//138 98//138
f 108//144 107//144 101//144
f 110//145 102//145 109//145
f 103//146 102//146 110//146
f 105//147 103//147 111//147
f 108//69 104//69 112//69
f 104//148 105//148 113//148
f 109//149 106//149 114//149
f 106//150 107//150 115//150
f 112//151 116//151 108//151
f 115//152 107//152 108//152
f 109//71 117//71 110//71
f 110//153 111//153 103//153
f 111//154 113//154 105//154
f 113//155 112//155 104//155
f 116//156 112//156 118//156
f 114//157 117//157 109//157
f 115//158 114//158 106//158
f 108//74 116//74 115//74
f 119//159 110//159 117//159
f 120//160 111//160 110//160
f 121//161 113//161 111//161
f 118//162 112//162 113//162
f 118//156 122//156 116//156
f 117//163 114//163 123//163
f 114//164 115//164 124//164
f 115//165 116//165 122//165
f 117//166 125//166 119//166
f 110//167 119//167 120//167
f 111//168 120//168 121//168
f 113//169 121//169 118//169
f 123//170 125//170 117//170
f 122//171 118//171 126//171
f 124//172 123//172 114//172
f 122//165 124//165 115//165
f 127//173 119//173 125//173
f 128//174 120//174 119//174
f 129//175 121//175 120//175
f 126//136 118//136 121//136
f 125//176 123//176 130//176
f 126//177 131//177 122//177
f 123//178 124//178 132//178
f 124//179 122//179 131//179
f 125//140 133//140 127//140
f 119//174 127//174 128//174
f 120//142 128//142 129//142
f 121//136 129//136 126//136
f 130//176 133//176 125//176
f 132//178 130//178 123//178
f 131//180 126//180 134//180
f 131//181 132//181 124//181
f 127//182 133//182 135//182
f 136//183 128//183 127//183
f 129//184 128//184 136//184
f 134//185 126//185 129//185
f 135//186 137//186 127//186
f 133//187 130//187 138//187
f 130//188 132//188 139//188
f 134//180 140//180 131//180
f 139//189 132//189 131//189
f 138//190 135//190 133//190
f 127//191 137//191 136//191
f 136//192 141//192 129//192
f 129//185 141//185 134//185
f 142//193 137//193 135//193
f 139//194 138//194 130//194
f 140//195 134//195 143//195
f 131//196 140//196 139//196
f 135//197 144//197 142//197
f 135//198 138//198 145//198
f 146//199 136//199 137//199
f 147//200 141//200 136//200
f 143//201 134//201 141//201
f 148//133 142//133 144//133
f 137//202 142//202 146//202
f 145//203 138//203 139//203
f 143//204 149//204 140//204
f 150//205 139//205 140//205
f 145//206 144//206 135//206
f 136//207 146//207 147//207
f 141//208 147//208 143//208
f 144//173 151//173 148//173
f 148//209 151//209 152//209
f 142//54 148//54 153//54
f 153//134 146//134 142//134
f 152//186 154//186 148//186
f 155//210 154//210 152//210
f 156//211 155//211 157//211
f 149//212 143//212 158//212
f 139//213 150//213 145//213
f 140//214 149//214 150//214
f 144//215 145//215 159//215
f 160//135 147//135 146//135
f 158//136 143//136 147//136
f 159//215 151//215 144//215
f 161//216 152//216 151//216
f 152//217 157//217 155//217
f 157//218 162//218 156//218
f 163//219 153//219 148//219
f 146//220 153//220 160//220
f 148//183 154//183 163//183
f 154//221 155//221 164//221
f 155//222 156//222 165//222
f 158//212 166//212 149//212
f 145//223 150//223 167//223
f 150//224 149//224 166//224
f 167//223 159//223 145//223
f 147//136 160//136 158//136
f 151//216 159//216 161//216
f 168//225 157//225 152//225
f 169//226 162//226 157//226
f 165//227 156//227 162//227
f 160//228 153//228 163//228
f 164//229 163//229 154//229
f 165//230 164//230 155//230
f 166//180 158//180 170//180
f 166//61 167//61 150//61
f 159//188 167//188 171//188
f 170//231 158//231 160//231
f 171//232 161//232 159//232
f 152//233 161//233 168//233
f 157//226 168//226 169//226
f 162//234 169//234 165//234
f 163//184 172//184 160//184
f 163//235 164//235 34//235
f 164//236 165//236 173//236
f 170//180 35//180 166//180
f 171//189 167//189 166//189
f 160//231 172//231 170//231
f 168//237 161//237 171//237
f 174//238 169//238 168//238
f 169//234 173//234 165//234
f 34//239 172//239 163//239
f 173//236 34//236 164//236
f 166//240 35//240 171//240
f 33//241 170//241 172//241
f 171//242 175//242 168//242
f 168//238 175//238 174//238
f 169//234 174//234 173//234
f 172//243 34//243 33//243
f 34//18 173//18 32//18
f 171//244 35//244 30//244
f 35//245 170//245 33//245
f 30//246 175//246 171//246
f 36//247 174//247 175//247
f 174//234 32//234 173//234
f 28//248 30//248 35//248
f 29//21 32//21 36//21
f 175//249 30//249 36//249
f 174//250 36//250 32//250
f 4//1 1//1 6//1
f 1//1 4//1 2//1
