# Blender v2.79 (sub 0) OBJ File: ''
# www.blender.org
o obj02
v 0.211821 -0.239044 0.179355
v 0.204846 -0.236311 0.178127
v 0.215905 -0.243958 0.140773
v 0.200762 -0.231396 0.216709
v 0.193786 -0.228662 0.215482
v 0.207738 -0.234130 0.217935
v 0.194640 -0.223602 0.265960
v 0.227241 -0.239101 0.141126
v 0.204568 -0.239515 0.138779
v 0.202489 -0.226678 0.267339
v 0.189391 -0.216150 0.315364
v 0.181543 -0.213074 0.313984
v 0.197239 -0.219226 0.316744
v 0.179822 -0.207911 0.338212
v 0.221692 -0.228153 0.218370
v 0.167792 -0.172471 0.407913
v 0.167151 -0.163173 0.460649
v 0.171043 -0.164640 0.406879
v 0.163900 -0.171003 0.461683
v 0.163260 -0.161704 0.514419
v 0.164541 -0.180303 0.408947
v 0.166872 -0.170275 0.516316
v 0.170122 -0.181283 0.403386
v 0.166872 -0.153004 0.513271
v 0.234618 -0.252179 0.059389
v 0.229386 -0.254420 0.059225
v 0.240923 -0.262891 -0.003889
v 0.223082 -0.243708 0.122503
v 0.217850 -0.245949 0.122340
v 0.228314 -0.241467 0.122666
v 0.217071 -0.249550 0.130488
v 0.244896 -0.253320 -0.005153
v 0.231330 -0.267001 -0.004188
v 0.208939 -0.179492 0.413543
v 0.187925 -0.161254 0.516972
v 0.184313 -0.169956 0.518121
v 0.202437 -0.195154 0.415611
v 0.175592 -0.173692 0.517849
v 0.175592 -0.149267 0.513542
v 0.184313 -0.152685 0.515076
v 0.186739 -0.201879 0.415121
v 0.202437 -0.164066 0.410129
v 0.199597 -0.192835 0.408568
v 0.171043 -0.195727 0.412361
v 0.186739 -0.157915 0.407369
v 0.204653 -0.180652 0.406959
v 0.187387 -0.198065 0.408187
v 0.199597 -0.168656 0.404304
v 0.203733 -0.197296 0.403465
v 0.187387 -0.163871 0.402158
v 0.175179 -0.193281 0.406041
v 0.188036 -0.204021 0.402976
v 0.175179 -0.169101 0.401776
v 0.203733 -0.166208 0.397984
v 0.210235 -0.181634 0.401398
v 0.211013 -0.182918 0.394111
v 0.204511 -0.198581 0.396178
v 0.188036 -0.160057 0.395224
v 0.172339 -0.197869 0.400215
v 0.165837 -0.182443 0.396802
v 0.172339 -0.166781 0.394734
v 0.204511 -0.167494 0.390696
v 0.188814 -0.205306 0.395689
v 0.201541 -0.171868 0.386087
v 0.206598 -0.183866 0.388742
v 0.201541 -0.196047 0.390350
v 0.173117 -0.199153 0.392928
v 0.188814 -0.161342 0.387936
v 0.166615 -0.183729 0.389515
v 0.173117 -0.168067 0.387447
v 0.240923 -0.243893 -0.007239
v 0.207384 -0.241848 0.120499
v 0.221738 -0.263241 -0.005875
v 0.231330 -0.240133 -0.008925
v 0.205678 -0.169420 0.379766
v 0.189332 -0.167083 0.383939
v 0.189332 -0.201277 0.389969
v 0.232649 -0.231025 0.121288
v 0.217764 -0.253815 -0.007961
v 0.221738 -0.244243 -0.009225
v 0.212179 -0.184846 0.383179
v 0.205678 -0.200508 0.385247
v 0.189980 -0.207233 0.384757
v 0.177123 -0.196493 0.387822
v 0.172066 -0.184495 0.385167
v 0.177123 -0.172314 0.383559
v 0.236804 -0.229650 0.129085
v 0.228314 -0.220742 0.119011
v 0.231024 -0.243572 0.130923
v 0.217850 -0.216640 0.117172
v 0.203119 -0.244081 0.128035
v 0.203049 -0.231565 0.118224
v 0.207384 -0.221123 0.116845
v 0.206455 -0.170706 0.372479
v 0.189980 -0.163269 0.377005
v 0.212958 -0.186130 0.375892
v 0.216294 -0.248264 0.137775
v 0.202340 -0.242796 0.135322
v 0.197339 -0.230370 0.125000
v 0.206455 -0.201794 0.377960
v 0.174283 -0.201081 0.381998
v 0.167782 -0.185657 0.378583
v 0.174283 -0.169994 0.376516
v 0.230247 -0.242287 0.138210
v 0.231024 -0.215938 0.126050
v 0.217071 -0.210470 0.123597
v 0.204487 -0.174415 0.366591
v 0.190758 -0.164554 0.369718
v 0.190758 -0.208518 0.377470
v 0.204487 -0.200321 0.371159
v 0.209906 -0.187269 0.369437
v 0.236027 -0.228365 0.136372
v 0.203119 -0.216448 0.123162
v 0.196561 -0.229085 0.132287
v 0.175060 -0.202367 0.374710
v 0.168559 -0.186941 0.371296
v 0.175060 -0.171279 0.369229
v 0.207492 -0.203507 0.368243
v 0.231938 -0.227789 0.139634
v 0.230247 -0.214654 0.133337
v 0.216294 -0.209186 0.130884
v 0.202340 -0.215163 0.130449
v 0.207492 -0.172419 0.362762
v 0.191406 -0.169288 0.364291
v 0.213994 -0.187845 0.366176
v 0.191406 -0.205925 0.370752
v 0.191795 -0.210231 0.367755
v 0.208140 -0.204577 0.362171
v 0.214642 -0.188915 0.360103
v 0.199873 -0.228375 0.136314
v 0.178325 -0.200799 0.368452
v 0.178325 -0.174892 0.363884
v 0.204557 -0.201625 0.353671
v 0.227471 -0.214231 0.216532
v 0.227241 -0.216649 0.137168
v 0.215905 -0.212206 0.135175
v 0.204568 -0.217063 0.134821
v 0.219439 -0.196838 0.315165
v 0.212936 -0.212502 0.317233
v 0.215613 -0.192578 0.339328
v 0.209472 -0.207370 0.341281
v 0.209254 -0.190312 0.352178
v 0.208140 -0.173490 0.356689
v 0.191795 -0.166267 0.360002
v 0.172907 -0.187944 0.365606
v 0.192443 -0.211302 0.361681
v 0.188007 -0.214950 0.212448
v 0.221692 -0.200519 0.213498
v 0.212936 -0.181414 0.311751
v 0.204557 -0.179172 0.349712
v 0.209472 -0.178010 0.336104
v 0.176098 -0.204080 0.364994
v 0.169596 -0.188654 0.361580
v 0.176098 -0.172992 0.359512
v 0.193220 -0.206481 0.353318
v 0.194647 -0.213722 0.340819
v 0.207738 -0.195051 0.211045
v 0.193786 -0.201029 0.210609
v 0.192443 -0.167337 0.353930
v 0.193220 -0.174728 0.347719
v 0.176746 -0.205150 0.358921
v 0.175040 -0.197649 0.310569
v 0.197239 -0.175262 0.308991
v 0.194647 -0.172200 0.333497
v 0.170244 -0.189725 0.355508
v 0.176746 -0.174062 0.353440
v 0.181884 -0.202038 0.351324
v 0.181543 -0.181987 0.308501
v 0.181884 -0.179586 0.347365
v 0.173681 -0.193343 0.334988
v 0.179822 -0.178551 0.333035
v 0.177188 -0.190897 0.348859
vn -0.3756 -0.9235 0.0779
vn -0.3781 -0.9205 0.0987
vn 0.3848 -0.9096 0.1566
vn -0.3850 -0.9078 0.1661
vn 0.3828 -0.9066 0.1774
vn -0.9244 0.3736 -0.0771
vn -0.9244 -0.3774 0.0553
vn -0.9244 -0.3773 0.0553
vn -0.6767 0.1869 -0.7121
vn 0.3814 -0.9044 0.1911
vn 0.3788 -0.8593 -0.3436
vn 0.9197 -0.3617 0.1529
vn 0.3815 -0.9044 0.1911
vn -0.9244 0.3735 -0.0771
vn 0.9065 -0.3439 0.2448
vn 0.3702 -0.8848 0.2830
vn -0.1045 0.1727 0.9794
vn 0.9065 -0.3440 0.2448
vn -0.1046 0.1727 0.9794
vn 0.3702 -0.8848 0.2829
vn -0.3881 -0.8987 0.2045
vn -0.1044 0.1727 0.9794
vn 0.9065 0.4070 0.1124
vn 0.8010 -0.3923 -0.4522
vn 0.3702 0.9282 -0.0367
vn 0.3682 -0.8288 -0.4214
vn -0.3882 -0.8986 0.2044
vn -0.3883 0.9143 -0.1152
vn 0.8010 -0.3922 -0.4523
vn -0.2440 -0.8399 -0.4848
vn 0.3681 -0.8288 -0.4214
vn -0.3882 0.9144 -0.1152
vn 0.8010 0.2139 -0.5591
vn 0.6769 -0.1869 0.7120
vn 0.3681 0.6346 -0.6795
vn -0.2439 -0.8400 -0.4847
vn 0.2438 -0.6234 0.7429
vn -0.6768 -0.4192 -0.6052
vn -0.2440 0.6235 -0.7428
vn 0.6767 0.4192 0.6052
vn 0.6766 -0.1869 0.7122
vn 0.2440 -0.6235 0.7428
vn -0.2438 0.6234 -0.7429
vn -0.3681 -0.6346 0.6795
vn -0.6767 -0.4192 -0.6053
vn -0.6769 0.1869 -0.7120
vn 0.6767 0.4192 0.6053
vn 0.2439 0.8399 0.4849
vn 0.9188 -0.3601 0.1616
vn 0.3806 -0.9029 0.1999
vn -0.3682 0.8288 0.4214
vn -0.3682 -0.6347 0.6794
vn -0.8011 -0.2139 0.5590
vn -0.8010 0.3923 0.4523
vn 0.9188 0.3936 0.0286
vn 0.2439 0.8399 0.4848
vn 0.9188 0.3937 0.0287
vn 0.3806 -0.9029 0.1998
vn -0.3806 -0.9168 0.1210
vn -0.3682 0.8287 0.4215
vn -0.8011 -0.2140 0.5590
vn -0.8010 0.3923 0.4522
vn 0.3806 0.9168 -0.1212
vn 0.7458 0.1719 -0.6437
vn 0.7458 0.1719 -0.6436
vn 0.7458 -0.3817 -0.5460
vn 0.3505 -0.7804 -0.5179
vn -0.3806 -0.9168 0.1209
vn -0.3805 0.9029 -0.1998
vn -0.9188 -0.3936 -0.0286
vn -0.9188 0.3601 -0.1616
vn 0.1045 -0.1727 -0.9794
vn 0.1046 -0.1727 -0.9794
vn -0.3797 -0.9183 0.1123
vn 0.3806 0.9168 -0.1210
vn 0.3505 0.5561 -0.7536
vn 0.7458 -0.3817 -0.5459
vn 0.3504 -0.7803 -0.5179
vn -0.2086 -0.7906 -0.5757
vn -0.9188 -0.3937 -0.0287
vn -0.3806 0.9029 -0.2000
vn 0.9197 -0.3616 0.1528
vn 0.9197 0.3920 0.0200
vn 0.9197 -0.3616 0.1529
vn -0.3796 -0.9183 0.1123
vn -0.9178 -0.3952 -0.0373
vn 0.3505 0.5562 -0.7535
vn 0.6768 0.4191 0.6052
vn 0.6768 -0.1870 0.7121
vn 0.2439 -0.6235 0.7428
vn -0.2086 -0.7907 -0.5756
vn -0.6040 -0.4063 -0.6856
vn -0.2086 0.5460 -0.8114
vn -0.6040 0.1473 -0.7832
vn 0.8372 -0.3972 -0.3761
vn 0.9197 0.3921 0.0199
vn 0.3789 -0.8594 -0.3434
vn 0.3815 0.9152 -0.1297
vn -0.2692 -0.8711 -0.4107
vn -0.2692 -0.8712 -0.4105
vn -0.3797 0.9013 -0.2085
vn -0.9178 0.3586 -0.1703
vn -0.2087 0.5460 -0.8113
vn 0.9189 0.3935 0.0285
vn 0.9188 -0.3600 0.1617
vn -0.3682 -0.6346 0.6795
vn -0.6041 -0.4063 -0.6856
vn -0.6040 0.1473 -0.7833
vn 0.8372 -0.3972 -0.3760
vn 0.8372 0.2446 -0.4892
vn 0.3816 0.9152 -0.1297
vn -0.3796 0.9014 -0.2085
vn -0.7276 -0.4258 -0.5379
vn -0.7275 -0.4257 -0.5380
vn -0.3682 0.8287 0.4214
vn 0.9188 0.3938 0.0288
vn 0.3805 0.9168 -0.1212
vn 0.9188 -0.3601 0.1615
vn -0.8010 0.3922 0.4522
vn 0.3789 0.6900 -0.6167
vn -0.3806 -0.9168 0.1212
vn -0.2691 0.6782 -0.6839
vn -0.9188 -0.3937 -0.0288
vn -0.7275 0.2160 -0.6512
vn 0.8543 0.2607 -0.4497
vn 0.3805 -0.9029 0.1999
vn 0.8543 -0.3987 -0.3336
vn -0.8011 -0.2138 0.5591
vn -0.8011 0.3922 0.4521
vn 0.2086 -0.5459 0.8115
vn 0.3788 0.6900 -0.6168
vn -0.3504 -0.5561 0.7536
vn -0.2693 0.6782 -0.6837
vn -0.9188 -0.3936 -0.0287
vn -0.7275 0.2161 -0.6511
vn -0.3806 0.9029 -0.1999
vn 0.8542 0.2605 -0.4499
vn 0.3836 0.7182 -0.5806
vn 0.3835 -0.8734 -0.3001
vn -0.3805 -0.9168 0.1212
vn -0.9188 0.3601 -0.1615
vn 0.6039 -0.1474 0.7833
vn 0.6038 -0.1474 0.7834
vn 0.6040 -0.1474 0.7832
vn 0.2087 -0.5460 0.8114
vn 0.9188 0.3937 0.0286
vn -0.3505 -0.5563 0.7535
vn -0.7457 -0.1718 0.6437
vn -0.3806 0.9029 -0.1998
vn 0.6038 0.4064 0.6857
vn 0.3836 0.7181 -0.5806
vn -0.2821 -0.8856 -0.3690
vn -0.9189 -0.3935 -0.0285
vn -0.9188 0.3601 -0.1614
vn 0.9225 -0.3674 0.1183
vn 0.6041 0.4064 0.6855
vn -0.3757 -0.9235 0.0778
vn -0.3805 0.9029 -0.1997
vn -0.7458 -0.1719 0.6437
vn -0.9188 0.3600 -0.1617
vn -0.2822 0.7060 -0.6495
vn 0.6041 0.4063 0.6855
vn 0.2086 0.7905 0.5758
vn -0.2821 -0.8855 -0.3691
vn 0.2086 -0.5459 0.8114
vn -0.7529 -0.4280 -0.5000
vn -0.7529 0.2312 -0.6162
vn 0.3806 -0.9029 0.1997
vn 0.7918 -0.3907 -0.4695
vn 0.9225 -0.3673 0.1184
vn 0.6040 0.4064 0.6856
vn 0.2087 0.7908 0.5755
vn -0.9134 -0.4008 -0.0717
vn -0.3504 0.7805 0.5178
vn -0.7458 0.3817 0.5461
vn 0.9210 -0.3640 0.1392
vn 0.9130 -0.3518 0.2066
vn 0.8377 -0.2864 0.4650
vn -0.2822 0.7060 -0.6496
vn 0.2086 0.7906 0.5758
vn -0.3504 -0.5562 0.7536
vn -0.7529 -0.4280 -0.4999
vn -0.7529 0.2313 -0.6161
vn 0.3654 -0.8208 -0.4391
vn 0.9210 -0.3639 0.1392
vn 0.8377 -0.2864 0.4651
vn 0.9225 0.3858 -0.0144
vn 0.2087 0.7907 0.5755
vn -0.3506 0.7805 0.5176
vn -0.7459 0.3816 0.5459
vn 0.9210 0.3895 0.0063
vn 0.9130 0.4013 0.0738
vn 0.7918 0.2066 -0.5748
vn 0.8377 0.4282 0.3390
vn -0.3504 0.7804 0.5179
vn 0.3806 0.9168 -0.1211
vn 0.7918 0.2065 -0.5748
vn -0.3505 -0.5562 0.7535
vn -0.7458 -0.1718 0.6436
vn -0.7459 0.3817 0.5458
vn -0.3806 -0.9168 0.1211
vn 0.3652 -0.8208 -0.4392
vn 0.3754 -0.8939 0.2448
vn 0.3275 -0.8009 0.5013
vn 0.9225 0.3856 -0.0144
vn 0.3848 0.9083 -0.1640
vn -0.9162 -0.3974 -0.0510
vn -0.3756 0.8944 -0.2427
vn -0.9134 0.3521 -0.2044
vn 0.9209 0.3897 0.0063
vn 0.9130 0.4012 0.0738
vn 0.8376 0.4282 0.3391
vn -0.3505 0.7805 0.5177
vn 0.3806 0.9168 -0.1209
vn 0.3654 0.6211 -0.6934
vn -0.7459 -0.1720 0.6435
vn -0.7458 0.3817 0.5460
vn -0.2378 -0.8318 -0.5016
vn 0.3753 -0.8940 0.2448
vn 0.3275 -0.8009 0.5014
vn -0.9162 -0.3975 -0.0510
vn -0.9133 0.3521 -0.2044
vn 0.3829 0.9126 -0.1433
vn 0.3754 0.9238 -0.0757
vn 0.3275 0.9240 0.1972
vn -0.3806 0.9029 -0.1997
vn 0.3653 0.6211 -0.6934
vn -0.3851 -0.9078 0.1661
vn -0.3941 -0.8141 0.4266
vn 0.3828 0.9126 -0.1434
vn -0.9226 -0.3853 0.0166
vn -0.3781 0.8987 -0.2221
vn -0.9162 0.3561 -0.1839
vn 0.3275 0.9241 0.1971
vn -0.2379 0.6101 -0.7558
vn -0.6643 -0.4172 -0.6202
vn -0.9227 -0.3853 0.0166
vn -0.3850 0.9099 -0.1544
vn -0.3942 0.9109 0.1224
vn -0.2378 0.6101 -0.7558
vn -0.6643 0.1800 -0.7255
vn -0.9043 -0.3182 0.2847
vn -0.9226 0.3677 -0.1162
vn -0.3940 0.9109 0.1225
vn -0.9227 0.3677 -0.1162
vn -0.9043 0.3964 0.1587
s off
f 1//1 2//1 3//1
f 2//1 4//1 5//1
f 4//2 6//2 7//2
f 5//2 4//2 7//2
f 6//3 1//3 8//3
f 3//1 2//1 9//1
f 10//2 7//2 6//2
f 7//2 11//2 12//2
f 11//4 13//4 14//4
f 12//4 11//4 14//4
f 13//5 10//5 15//5
f 1//3 3//3 8//3
f 16//6 17//6 18//6
f 17//6 19//6 20//6
f 19//7 21//7 22//7
f 20//8 19//8 22//8
f 21//9 16//9 23//9
f 18//6 17//6 24//6
f 25//10 26//10 27//10
f 26//10 28//10 29//10
f 28//11 30//11 31//11
f 29//11 28//11 31//11
f 30//12 25//12 32//12
f 27//13 26//13 33//13
f 25//10 28//10 26//10
f 4//1 1//1 6//1
f 1//1 4//1 2//1
f 19//14 16//14 21//14
f 16//6 19//6 17//6
f 34//15 35//15 36//15
f 37//16 36//16 38//16
f 38//17 36//17 39//17
f 22//17 38//17 24//17
f 36//17 35//17 40//17
f 36//18 37//18 34//18
f 36//19 40//19 39//19
f 38//20 41//20 37//20
f 41//21 38//21 22//21
f 38//22 39//22 24//22
f 24//19 20//19 22//19
f 42//23 40//23 35//23
f 34//24 37//24 43//24
f 39//25 40//25 42//25
f 43//26 37//26 41//26
f 22//27 44//27 41//27
f 24//28 39//28 45//28
f 16//9 18//9 23//9
f 35//23 34//23 42//23
f 43//29 46//29 34//29
f 42//25 45//25 39//25
f 47//30 41//30 44//30
f 41//31 47//31 43//31
f 21//7 44//7 22//7
f 45//32 18//32 24//32
f 34//33 46//33 48//33
f 48//33 42//33 34//33
f 46//34 43//34 49//34
f 50//35 45//35 42//35
f 44//36 51//36 47//36
f 43//37 47//37 52//37
f 51//38 44//38 21//38
f 53//39 18//39 45//39
f 17//6 20//6 24//6
f 54//40 48//40 46//40
f 42//35 48//35 50//35
f 49//41 55//41 46//41
f 52//42 49//42 43//42
f 45//43 50//43 53//43
f 52//44 47//44 51//44
f 21//45 23//45 51//45
f 18//46 53//46 23//46
f 46//47 55//47 54//47
f 50//48 48//48 54//48
f 56//49 55//49 49//49
f 57//50 49//50 52//50
f 53//51 50//51 58//51
f 51//52 59//52 52//52
f 51//53 23//53 60//53
f 23//54 53//54 61//54
f 62//55 54//55 55//55
f 54//56 58//56 50//56
f 55//57 56//57 62//57
f 49//49 57//49 56//49
f 52//58 63//58 57//58
f 63//59 52//59 59//59
f 58//60 61//60 53//60
f 60//61 59//61 51//61
f 61//62 60//62 23//62
f 58//63 54//63 62//63
f 64//64 62//64 56//64
f 56//65 65//65 64//65
f 56//66 57//66 66//66
f 66//67 57//67 63//67
f 59//68 67//68 63//68
f 61//69 58//69 68//69
f 59//70 60//70 69//70
f 60//71 61//71 70//71
f 26//13 29//13 33//13
f 71//72 32//72 27//72
f 71//73 27//73 33//73
f 72//74 73//74 33//74
f 74//72 33//72 73//72
f 62//75 68//75 58//75
f 75//40 64//40 65//40
f 62//76 64//76 76//76
f 66//77 65//77 56//77
f 63//78 77//78 66//78
f 77//79 63//79 67//79
f 69//80 67//80 59//80
f 68//81 70//81 61//81
f 70//71 69//71 60//71
f 32//82 78//82 30//82
f 78//83 32//83 71//83
f 74//72 71//72 33//72
f 25//84 27//84 32//84
f 33//85 29//85 72//85
f 79//86 73//86 72//86
f 80//73 74//73 73//73
f 73//72 79//72 80//72
f 76//87 68//87 62//87
f 65//88 81//88 75//88
f 76//48 64//48 75//48
f 65//89 66//89 82//89
f 82//34 81//34 65//34
f 66//90 77//90 83//90
f 67//91 84//91 77//91
f 67//92 69//92 85//92
f 86//93 70//93 68//93
f 85//94 69//94 70//94
f 30//95 78//95 87//95
f 71//96 88//96 78//96
f 30//97 89//97 31//97
f 71//98 74//98 90//98
f 29//99 31//99 91//99
f 91//100 72//100 29//100
f 72//86 92//86 79//86
f 74//101 80//101 93//101
f 80//102 79//102 92//102
f 68//103 76//103 86//103
f 94//104 75//104 81//104
f 75//56 95//56 76//56
f 83//90 82//90 66//90
f 96//105 81//105 82//105
f 83//106 77//106 84//106
f 85//107 84//107 67//107
f 70//108 86//108 85//108
f 87//109 89//109 30//109
f 87//110 78//110 88//110
f 90//111 88//111 71//111
f 97//50 31//50 89//50
f 93//112 90//112 74//112
f 98//59 91//59 31//59
f 72//113 91//113 99//113
f 99//114 92//114 72//114
f 92//102 93//102 80//102
f 86//115 76//115 95//115
f 81//116 96//116 94//116
f 95//117 75//117 94//117
f 100//50 82//50 83//50
f 82//118 100//118 96//118
f 84//106 101//106 83//106
f 84//53 85//53 102//53
f 85//119 86//119 103//119
f 104//118 89//118 87//118
f 89//58 104//58 97//58
f 88//110 105//110 87//110
f 88//120 90//120 106//120
f 31//121 97//121 98//121
f 106//122 90//122 93//122
f 99//123 91//123 98//123
f 93//124 92//124 99//124
f 95//60 103//60 86//60
f 107//125 94//125 96//125
f 94//75 108//75 95//75
f 83//126 109//126 100//126
f 96//127 100//127 110//127
f 109//59 83//59 101//59
f 102//128 101//128 84//128
f 103//129 102//129 85//129
f 110//127 111//127 96//127
f 87//118 112//118 104//118
f 97//130 104//130 8//130
f 112//55 87//55 105//55
f 106//131 105//131 88//131
f 9//132 98//132 97//132
f 93//133 113//133 106//133
f 98//134 114//134 99//134
f 99//135 113//135 93//135
f 103//136 95//136 108//136
f 96//137 111//137 107//137
f 108//138 94//138 107//138
f 110//139 100//139 109//139
f 101//140 115//140 109//140
f 101//70 102//70 116//70
f 102//141 103//141 117//141
f 111//142 110//142 118//142
f 119//143 8//143 104//143
f 104//144 112//144 119//144
f 8//145 3//145 97//145
f 105//146 120//146 112//146
f 97//147 3//147 9//147
f 105//75 106//75 121//75
f 114//148 98//148 9//148
f 106//136 113//136 122//136
f 113//71 99//71 114//71
f 108//149 117//149 103//149
f 123//150 107//150 111//150
f 107//151 124//151 108//151
f 118//144 125//144 111//144
f 126//152 109//152 115//152
f 109//139 126//139 110//139
f 116//153 115//153 101//153
f 117//154 116//154 102//154
f 127//130 118//130 110//130
f 118//118 128//118 129//118
f 15//155 8//155 119//155
f 119//156 112//156 120//156
f 2//157 5//157 9//157
f 121//75 120//75 105//75
f 122//158 121//158 106//158
f 9//159 130//159 114//159
f 114//160 122//160 113//160
f 117//161 108//161 124//161
f 111//162 125//162 123//162
f 124//163 107//163 123//163
f 129//118 125//118 118//118
f 115//164 131//164 126//164
f 110//165 126//165 127//165
f 131//166 115//166 116//166
f 116//167 117//167 132//167
f 128//168 118//168 127//168
f 129//169 128//169 133//169
f 119//170 134//170 15//170
f 8//3 15//3 6//3
f 120//171 135//171 119//171
f 120//172 121//172 136//172
f 130//173 9//173 5//173
f 121//174 122//174 137//174
f 122//175 114//175 130//175
f 134//176 138//176 139//176
f 138//177 140//177 141//177
f 133//169 142//169 129//169
f 140//178 142//178 133//178
f 124//179 132//179 117//179
f 143//55 123//55 125//55
f 123//180 144//180 124//180
f 125//57 129//57 143//57
f 127//181 126//181 131//181
f 116//182 145//182 131//182
f 132//183 145//183 116//183
f 127//58 146//58 128//58
f 133//184 128//184 146//184
f 139//185 15//185 134//185
f 141//177 139//177 138//177
f 133//186 141//186 140//186
f 134//187 119//187 135//187
f 7//2 12//2 5//2
f 136//188 135//188 120//188
f 137//189 136//189 121//189
f 5//173 147//173 130//173
f 130//190 137//190 122//190
f 138//191 134//191 148//191
f 140//192 138//192 149//192
f 129//193 142//193 150//193
f 142//194 140//194 151//194
f 132//195 124//195 144//195
f 144//196 123//196 143//196
f 150//197 143//197 129//197
f 131//198 152//198 127//198
f 131//199 145//199 153//199
f 145//200 132//200 154//200
f 146//201 127//201 152//201
f 146//202 155//202 133//202
f 15//5 139//5 13//5
f 139//203 141//203 156//203
f 141//204 133//204 155//204
f 135//205 148//205 134//205
f 135//206 136//206 157//206
f 147//207 5//207 12//207
f 136//208 137//208 158//208
f 137//209 130//209 147//209
f 148//210 149//210 138//210
f 149//211 151//211 140//211
f 151//212 150//212 142//212
f 144//213 154//213 132//213
f 143//214 159//214 144//214
f 143//215 150//215 160//215
f 153//216 152//216 131//216
f 154//217 153//217 145//217
f 152//68 161//68 146//68
f 155//218 146//218 161//218
f 156//219 13//219 139//219
f 155//220 156//220 141//220
f 157//206 148//206 135//206
f 10//5 6//5 15//5
f 158//208 157//208 136//208
f 12//221 162//221 147//221
f 147//222 158//222 137//222
f 163//223 149//223 148//223
f 164//224 151//224 149//224
f 160//225 150//225 151//225
f 154//226 144//226 159//226
f 160//227 159//227 143//227
f 152//70 153//70 165//70
f 153//141 154//141 166//141
f 165//134 161//134 152//134
f 161//218 167//218 155//218
f 13//228 156//228 14//228
f 156//229 155//229 167//229
f 148//230 157//230 163//230
f 162//231 12//231 14//231
f 157//232 158//232 168//232
f 158//233 147//233 162//233
f 149//224 163//224 164//224
f 151//234 164//234 160//234
f 159//226 166//226 154//226
f 159//235 160//235 169//235
f 166//71 165//71 153//71
f 167//236 161//236 165//236
f 167//229 14//229 156//229
f 168//232 163//232 157//232
f 14//237 170//237 162//237
f 162//233 168//233 158//233
f 171//238 164//238 163//238
f 169//239 160//239 164//239
f 169//240 166//240 159//240
f 172//241 165//241 166//241
f 165//236 172//236 167//236
f 170//242 14//242 167//242
f 163//238 168//238 171//238
f 168//243 162//243 170//243
f 164//244 171//244 169//244
f 166//241 169//241 172//241
f 167//242 172//242 170//242
f 170//245 171//245 168//245
f 172//246 169//246 171//246
f 171//246 170//246 172//246
f 28//10 25//10 30//10
f 11//2 10//2 13//2
f 10//2 11//2 7//2
