# Blender v2.79 (sub 0) OBJ File: ''
# www.blender.org
o obj04
v -0.196797 -0.231396 0.216709
v -0.200881 -0.236311 0.178127
v -0.189821 -0.228662 0.215482
v -0.207857 -0.239044 0.179355
v -0.211941 -0.243958 0.140773
v -0.203774 -0.234130 0.217935
v -0.223277 -0.239101 0.141126
v -0.177578 -0.213074 0.313984
v -0.200604 -0.239515 0.138779
v -0.201124 -0.215863 0.316988
v -0.205500 -0.223690 0.267557
v -0.193275 -0.219226 0.316744
v -0.213349 -0.220328 0.267802
v -0.217727 -0.228153 0.218370
v -0.208971 -0.212502 0.317233
v -0.223506 -0.214231 0.216532
v -0.190682 -0.213722 0.340819
v -0.159935 -0.171003 0.461683
v -0.163187 -0.163173 0.460649
v -0.159295 -0.161704 0.514419
v -0.163827 -0.172471 0.407913
v -0.167078 -0.164640 0.406879
v -0.160576 -0.180303 0.408947
v -0.166158 -0.181283 0.403386
v -0.162907 -0.170275 0.516316
v -0.162907 -0.153004 0.513271
v -0.219117 -0.243708 0.122503
v -0.225421 -0.254420 0.059225
v -0.213885 -0.245949 0.122340
v -0.230653 -0.252179 0.059389
v -0.236958 -0.262891 -0.003889
v -0.224349 -0.241467 0.122666
v -0.240932 -0.253320 -0.005153
v -0.213107 -0.249550 0.130488
v -0.227365 -0.267001 -0.004188
v -0.236958 -0.243893 -0.007239
v -0.227365 -0.240133 -0.008925
v -0.217773 -0.244243 -0.009225
v -0.217773 -0.263241 -0.005875
v -0.213799 -0.253815 -0.007961
v -0.228684 -0.231025 0.121288
v -0.203419 -0.241848 0.120499
v -0.213885 -0.216640 0.117172
v -0.203419 -0.221123 0.116845
v -0.199086 -0.231565 0.118224
v -0.224349 -0.220742 0.119011
v -0.232839 -0.229650 0.129085
v -0.199154 -0.244081 0.128035
v -0.193374 -0.230370 0.125000
v -0.213107 -0.210470 0.123597
v -0.227060 -0.215938 0.126050
v -0.227060 -0.243572 0.130923
v -0.199154 -0.216448 0.123162
v -0.232062 -0.228365 0.136372
v -0.226282 -0.242287 0.138210
v -0.212329 -0.248264 0.137775
v -0.198377 -0.242796 0.135322
v -0.212329 -0.209186 0.130884
v -0.198377 -0.215163 0.130449
v -0.192597 -0.229085 0.132287
v -0.226282 -0.214654 0.133337
v -0.227973 -0.227789 0.139634
v -0.211941 -0.212206 0.135175
v -0.200604 -0.217063 0.134821
v -0.195908 -0.228375 0.136314
v -0.223277 -0.216649 0.137168
v -0.203774 -0.195051 0.211045
v -0.189821 -0.201029 0.210609
v -0.184042 -0.214950 0.212448
v -0.217727 -0.200519 0.213498
v -0.180348 -0.152685 0.515076
v -0.183960 -0.161254 0.516972
v -0.180348 -0.169956 0.518121
v -0.215474 -0.196838 0.315165
v -0.171628 -0.173692 0.517849
v -0.204974 -0.179492 0.413543
v -0.198472 -0.164066 0.410129
v -0.171628 -0.149267 0.513542
v -0.208971 -0.181414 0.311751
v -0.193275 -0.175262 0.308991
v -0.177578 -0.181987 0.308501
v -0.171075 -0.197649 0.310569
v -0.198472 -0.195154 0.415611
v -0.211648 -0.192578 0.339328
v -0.205507 -0.207370 0.341281
v -0.175857 -0.207911 0.338212
v -0.195632 -0.192835 0.408568
v -0.182775 -0.201879 0.415121
v -0.182775 -0.157915 0.407369
v -0.195632 -0.168656 0.404304
v -0.200689 -0.180652 0.406959
v -0.205507 -0.178010 0.336104
v -0.190682 -0.172200 0.333497
v -0.175857 -0.178551 0.333035
v -0.169716 -0.193343 0.334988
v -0.200593 -0.201625 0.353671
v -0.199769 -0.166208 0.397984
v -0.167078 -0.195727 0.412361
v -0.205289 -0.190312 0.352178
v -0.189257 -0.206481 0.353318
v -0.177920 -0.202038 0.351324
v -0.206270 -0.181634 0.401398
v -0.199769 -0.197296 0.403465
v -0.183423 -0.198065 0.408187
v -0.183423 -0.163871 0.402158
v -0.171214 -0.193281 0.406041
v -0.171214 -0.169101 0.401776
v -0.210678 -0.188915 0.360103
v -0.200593 -0.179172 0.349712
v -0.189257 -0.174728 0.347719
v -0.177920 -0.179586 0.347365
v -0.173223 -0.190897 0.348859
v -0.207049 -0.182918 0.394111
v -0.184071 -0.204021 0.402976
v -0.188478 -0.211302 0.361681
v -0.204175 -0.204577 0.362171
v -0.184071 -0.160057 0.395224
v -0.200546 -0.167494 0.390696
v -0.172782 -0.205150 0.358921
v -0.200546 -0.198581 0.396178
v -0.203527 -0.203507 0.368243
v -0.168374 -0.197869 0.400215
v -0.161873 -0.182443 0.396802
v -0.168374 -0.166781 0.394734
v -0.197577 -0.171868 0.386087
v -0.202633 -0.183866 0.388742
v -0.210030 -0.187845 0.366176
v -0.204175 -0.173490 0.356689
v -0.188478 -0.167337 0.353930
v -0.166279 -0.189725 0.355508
v -0.172782 -0.174062 0.353440
v -0.197577 -0.196047 0.390350
v -0.184849 -0.205306 0.395689
v -0.187830 -0.210231 0.367755
v -0.172134 -0.204080 0.364994
v -0.200523 -0.200321 0.371159
v -0.205941 -0.187269 0.369437
v -0.184849 -0.161342 0.387936
v -0.208993 -0.186130 0.375892
v -0.208215 -0.184846 0.383179
v -0.201713 -0.200508 0.385247
v -0.201713 -0.169420 0.379766
v -0.202490 -0.201794 0.377960
v -0.169152 -0.199153 0.392928
v -0.162650 -0.183729 0.389515
v -0.169152 -0.168067 0.387447
v -0.203527 -0.172419 0.362762
v -0.185367 -0.167083 0.383939
v -0.200523 -0.174415 0.366591
v -0.202490 -0.170706 0.372479
v -0.187830 -0.166267 0.360002
v -0.172134 -0.172992 0.359512
v -0.165631 -0.188654 0.361580
v -0.185367 -0.201277 0.389969
v -0.186015 -0.207233 0.384757
v -0.187442 -0.205925 0.370752
v -0.186794 -0.208518 0.377470
v -0.173159 -0.172314 0.383559
v -0.186015 -0.163269 0.377005
v -0.174361 -0.200799 0.368452
v -0.168101 -0.184495 0.385167
v -0.187442 -0.169288 0.364291
v -0.186794 -0.164554 0.369718
v -0.174361 -0.174892 0.363884
v -0.168942 -0.187944 0.365606
v -0.173159 -0.196493 0.387822
v -0.170318 -0.201081 0.381998
v -0.171097 -0.202367 0.374710
v -0.170318 -0.169994 0.376516
v -0.164594 -0.186941 0.371296
v -0.163817 -0.185657 0.378583
v -0.171097 -0.171279 0.369229
vn 0.3756 -0.9235 0.0779
vn 0.3755 -0.9235 0.0779
vn -0.3848 -0.9096 0.1566
vn 0.3780 -0.9205 0.0987
vn 0.3757 -0.9234 0.0778
vn -0.3829 -0.9066 0.1774
vn -0.3828 -0.9066 0.1774
vn -0.9210 -0.3639 0.1392
vn -0.3753 -0.8940 0.2448
vn 0.9243 0.3737 -0.0771
vn 0.9244 0.3736 -0.0771
vn 0.6767 0.1869 -0.7122
vn 0.9244 -0.3774 0.0553
vn -0.3814 -0.9044 0.1911
vn -0.9197 -0.3618 0.1529
vn -0.9197 -0.3617 0.1529
vn -0.3788 -0.8593 -0.3436
vn -0.3815 -0.9044 0.1911
vn 0.9244 0.3735 -0.0771
vn -0.1045 -0.1727 -0.9794
vn -0.1046 -0.1727 -0.9794
vn -0.9197 0.3921 0.0199
vn 0.3797 -0.9183 0.1123
vn 0.9178 -0.3952 -0.0373
vn -0.3815 0.9152 -0.1297
vn 0.3797 0.9013 -0.2085
vn 0.9178 0.3586 -0.1702
vn -0.9197 -0.3616 0.1529
vn 0.3796 -0.9183 0.1123
vn 0.9179 -0.3950 -0.0374
vn -0.3816 0.9152 -0.1297
vn 0.3796 0.9014 -0.2085
vn 0.9179 0.3584 -0.1702
vn -0.8371 0.2446 -0.4892
vn -0.8372 -0.3972 -0.3761
vn 0.2692 -0.8712 -0.4105
vn 0.7275 -0.4256 -0.5382
vn -0.3789 0.6900 -0.6167
vn 0.2691 0.6782 -0.6839
vn 0.7275 0.2159 -0.6513
vn -0.8371 0.2445 -0.4893
vn -0.8371 -0.3972 -0.3761
vn -0.3789 -0.8593 -0.3435
vn 0.2692 -0.8711 -0.4107
vn 0.7276 -0.4258 -0.5379
vn -0.3788 0.6900 -0.6168
vn 0.2693 0.6782 -0.6837
vn 0.7275 0.2161 -0.6511
vn -0.9188 0.3936 0.0286
vn -0.9188 -0.3601 0.1616
vn -0.3806 -0.9029 0.2000
vn 0.3806 -0.9168 0.1211
vn 0.9188 -0.3937 -0.0286
vn -0.3805 0.9168 -0.1209
vn 0.3806 0.9029 -0.1998
vn 0.9188 0.3601 -0.1615
vn -0.9188 0.3937 0.0287
vn -0.9188 -0.3601 0.1615
vn -0.3805 -0.9029 0.1998
vn 0.3806 -0.9168 0.1212
vn 0.3806 0.9029 -0.1997
vn -0.6041 0.4064 0.6855
vn -0.6040 -0.1474 0.7832
vn -0.2086 -0.5460 0.8114
vn 0.3505 -0.5562 0.7535
vn 0.7458 -0.1719 0.6436
vn -0.2087 0.7908 0.5754
vn 0.3505 0.7805 0.5177
vn 0.7458 0.3817 0.5459
vn -0.6039 -0.1474 0.7833
vn -0.2087 -0.5461 0.8113
vn 0.3505 -0.5561 0.7536
vn 0.7458 -0.1720 0.6435
vn -0.2087 0.7907 0.5755
vn 0.3505 0.7805 0.5176
vn 0.7459 0.3817 0.5458
vn -0.9225 0.3857 -0.0144
vn -0.9225 -0.3674 0.1183
vn 0.3781 -0.9205 0.0987
vn 0.9133 -0.4009 -0.0717
vn -0.3848 0.9083 -0.1640
vn 0.3756 0.8944 -0.2427
vn 0.9133 0.3522 -0.2044
vn -0.9225 0.3856 -0.0144
vn -0.9225 -0.3673 0.1184
vn 0.1045 0.1727 0.9794
vn 0.9134 -0.4008 -0.0717
vn 0.9133 0.3521 -0.2045
vn -0.9210 0.3895 0.0063
vn -0.3754 -0.8939 0.2448
vn 0.3756 -0.9235 0.0778
vn -0.9065 -0.3439 0.2448
vn -0.9065 0.4070 0.1124
vn 0.1046 0.1727 0.9794
vn 0.9162 -0.3974 -0.0510
vn -0.9209 0.3897 0.0063
vn -0.3828 0.9126 -0.1433
vn 0.3781 0.8987 -0.2221
vn 0.9162 0.3561 -0.1839
vn -0.9210 -0.3640 0.1392
vn -0.9065 -0.3440 0.2448
vn -0.3703 -0.8848 0.2830
vn -0.3703 0.9282 -0.0367
vn 0.1044 0.1727 0.9794
vn -0.9130 0.4013 0.0738
vn 0.9162 -0.3975 -0.0510
vn -0.3829 0.9126 -0.1433
vn -0.9130 -0.3518 0.2066
vn 0.3850 -0.9078 0.1661
vn -0.8010 -0.3923 -0.4522
vn -0.3702 -0.8848 0.2829
vn -0.3702 0.9282 -0.0367
vn -0.8010 0.2139 -0.5591
vn -0.8011 0.2140 -0.5590
vn 0.3881 -0.8987 0.2045
vn 0.3882 0.9143 -0.1152
vn 0.9244 0.3734 -0.0771
vn -0.9130 0.4012 0.0738
vn 0.9226 -0.3853 0.0166
vn -0.3754 0.9238 -0.0757
vn 0.3850 0.9099 -0.1544
vn 0.9226 0.3677 -0.1162
vn -0.8010 -0.3922 -0.4522
vn -0.8377 -0.2864 0.4650
vn -0.3682 -0.8288 -0.4214
vn -0.3682 0.6346 -0.6795
vn -0.6766 0.4192 0.6053
vn 0.3881 -0.8986 0.2044
vn 0.3881 0.9144 -0.1152
vn -0.8377 0.4282 0.3390
vn 0.9227 -0.3853 0.0166
vn 0.9227 0.3677 -0.1162
vn -0.3275 -0.8009 0.5013
vn 0.3941 -0.8140 0.4266
vn -0.6767 -0.1869 0.7121
vn -0.6768 -0.1869 0.7121
vn -0.2439 0.8398 0.4850
vn -0.6768 0.4192 0.6052
vn 0.2439 -0.8399 -0.4848
vn 0.6768 -0.4192 -0.6052
vn 0.2439 0.6235 -0.7428
vn 0.9244 -0.3773 0.0553
vn -0.7918 -0.3906 -0.4695
vn -0.8377 0.4282 0.3391
vn -0.3275 0.9241 0.1971
vn 0.9043 -0.3182 0.2848
vn 0.3940 0.9109 0.1225
vn 0.9043 0.3964 0.1587
vn 0.3941 -0.8140 0.4267
vn -0.9188 -0.3600 0.1617
vn -0.2440 -0.6235 0.7428
vn -0.3653 -0.8208 -0.4391
vn -0.7918 -0.3908 -0.4694
vn -0.2439 -0.6234 0.7429
vn 0.2438 0.6234 -0.7429
vn -0.2439 0.8399 0.4848
vn -0.9189 0.3935 0.0285
vn 0.2439 -0.8400 -0.4847
vn 0.6767 -0.4191 -0.6054
vn 0.6769 0.1868 -0.7120
vn -0.9188 0.3938 0.0288
vn -0.7918 0.2065 -0.5748
vn -0.3276 0.9240 0.1972
vn 0.3941 0.9109 0.1224
vn 0.9042 -0.3182 0.2847
vn 0.9042 0.3965 0.1588
vn 0.2378 -0.8318 -0.5015
vn -0.9188 -0.3602 0.1615
vn -0.3806 -0.9029 0.1998
vn -0.3654 -0.8208 -0.4390
vn 0.2378 -0.8318 -0.5016
vn 0.3682 -0.6346 0.6795
vn 0.3682 0.8287 0.4214
vn -0.3805 0.9168 -0.1212
vn 0.3681 -0.6348 0.6794
vn 0.8011 -0.2139 0.5590
vn 0.8010 0.3922 0.4523
vn -0.7458 0.1719 -0.6436
vn -0.7457 0.1718 -0.6437
vn -0.7918 0.2066 -0.5748
vn -0.3654 0.6211 -0.6933
vn 0.2378 0.6101 -0.7558
vn 0.6643 -0.4173 -0.6202
vn 0.6643 0.1800 -0.7255
vn -0.7458 -0.3817 -0.5459
vn -0.7458 -0.3816 -0.5460
vn 0.3806 -0.9168 0.1209
vn -0.3806 -0.9029 0.1997
vn 0.3806 -0.9168 0.1210
vn 0.3682 0.8287 0.4215
vn -0.3806 0.9168 -0.1210
vn 0.8010 0.3922 0.4522
vn -0.3505 0.5562 -0.7536
vn -0.8543 -0.3986 -0.3336
vn -0.6768 -0.1870 0.7120
vn -0.6768 0.4191 0.6052
vn -0.3653 0.6211 -0.6934
vn 0.9188 -0.3937 -0.0287
vn -0.3505 -0.7804 -0.5178
vn -0.6768 -0.1869 0.7120
vn -0.2086 -0.5459 0.8114
vn -0.8543 -0.3987 -0.3334
vn 0.3805 0.9029 -0.1998
vn 0.9189 -0.3935 -0.0285
vn 0.9188 0.3600 -0.1616
vn -0.6040 0.4064 0.6856
vn -0.3505 0.5562 -0.7535
vn -0.8543 0.2605 -0.4499
vn -0.9188 0.3937 0.0286
vn -0.3806 0.9168 -0.1209
vn 0.9188 0.3601 -0.1616
vn -0.3504 -0.7804 -0.5179
vn -0.2439 -0.6235 0.7428
vn -0.3835 -0.8734 -0.3001
vn -0.3806 -0.9029 0.1999
vn 0.3806 0.9029 -0.2000
vn -0.6039 0.4064 0.6857
vn 0.2087 0.5460 -0.8113
vn -0.8543 0.2607 -0.4496
vn -0.9188 0.3936 0.0285
vn -0.3806 0.9168 -0.1211
vn 0.9188 0.3602 -0.1615
vn 0.2086 -0.7906 -0.5757
vn 0.3505 -0.5563 0.7535
vn 0.6040 -0.4063 -0.6856
vn 0.2086 0.5460 -0.8114
vn 0.6040 0.1473 -0.7832
vn -0.2086 0.7905 0.5758
vn -0.3836 0.7182 -0.5806
vn -0.2086 0.7906 0.5757
vn 0.3505 0.7804 0.5177
vn 0.7458 0.3817 0.5460
vn 0.2086 -0.7907 -0.5756
vn 0.2821 -0.8856 -0.3690
vn 0.6039 0.1474 -0.7833
vn -0.3836 0.7181 -0.5806
vn 0.3504 0.7803 0.5179
vn 0.7529 -0.4281 -0.4999
vn 0.7529 -0.4280 -0.4999
vn 0.3805 -0.9168 0.1211
vn 0.8011 -0.2140 0.5590
vn 0.8009 0.3923 0.4523
vn 0.2822 0.7060 -0.6495
vn 0.3806 0.9029 -0.1999
vn 0.2822 0.7060 -0.6496
vn 0.7529 0.2313 -0.6161
vn 0.8010 -0.2138 0.5592
vn 0.8011 0.3922 0.4521
vn 0.9188 -0.3936 -0.0286
vn 0.9188 0.3600 -0.1617
vn 0.9188 0.3602 -0.1614
s off
f 1//1 2//1 3//1
f 2//2 4//2 5//2
f 4//3 6//3 7//3
f 5//3 4//3 7//3
f 6//4 1//4 8//4
f 3//5 2//5 9//5
f 10//6 11//6 12//6
f 11//7 13//7 14//7
f 13//8 15//8 16//8
f 14//8 13//8 16//8
f 15//9 10//9 17//9
f 12//7 11//7 6//7
f 18//10 19//10 20//10
f 19//11 21//11 22//11
f 21//12 23//12 24//12
f 22//12 21//12 24//12
f 23//13 18//13 25//13
f 20//11 19//11 26//11
f 13//7 10//7 15//7
f 27//14 28//14 29//14
f 28//14 30//14 31//14
f 30//15 32//15 33//15
f 31//16 30//16 33//16
f 32//17 27//17 34//17
f 29//18 28//18 35//18
f 10//7 13//7 11//7
f 21//19 18//19 23//19
f 18//10 21//10 19//10
f 31//20 33//20 36//20
f 37//20 35//20 31//20
f 38//20 39//20 35//20
f 36//20 37//20 31//20
f 37//21 38//21 35//21
f 38//20 40//20 39//20
f 36//22 33//22 41//22
f 27//17 29//17 34//17
f 35//23 39//23 42//23
f 42//24 39//24 40//24
f 43//25 37//25 36//25
f 44//26 38//26 37//26
f 45//27 40//27 38//27
f 41//22 46//22 36//22
f 32//28 41//28 33//28
f 42//29 29//29 35//29
f 40//30 45//30 42//30
f 36//31 46//31 43//31
f 37//32 43//32 44//32
f 38//33 44//33 45//33
f 46//34 41//34 47//34
f 47//35 41//35 32//35
f 28//18 31//18 35//18
f 29//36 42//36 48//36
f 42//37 45//37 49//37
f 50//38 43//38 46//38
f 44//39 43//39 50//39
f 49//40 45//40 44//40
f 47//41 51//41 46//41
f 32//42 52//42 47//42
f 34//43 52//43 32//43
f 48//44 34//44 29//44
f 49//45 48//45 42//45
f 46//46 51//46 50//46
f 50//47 53//47 44//47
f 44//48 53//48 49//48
f 51//49 47//49 54//49
f 47//50 52//50 55//50
f 52//51 34//51 56//51
f 34//52 48//52 57//52
f 57//53 48//53 49//53
f 58//54 50//54 51//54
f 59//55 53//55 50//55
f 60//56 49//56 53//56
f 54//57 61//57 51//57
f 55//58 54//58 47//58
f 56//59 55//59 52//59
f 57//60 56//60 34//60
f 49//53 60//53 57//53
f 51//54 61//54 58//54
f 50//61 58//61 59//61
f 53//56 59//56 60//56
f 61//62 54//62 62//62
f 62//63 54//63 55//63
f 7//64 55//64 56//64
f 5//65 56//65 57//65
f 9//66 57//66 60//66
f 63//67 58//67 61//67
f 64//68 59//68 58//68
f 65//69 60//69 59//69
f 62//62 66//62 61//62
f 55//70 7//70 62//70
f 56//71 5//71 7//71
f 57//72 9//72 5//72
f 60//73 65//73 9//73
f 61//74 66//74 63//74
f 58//75 63//75 64//75
f 59//76 64//76 65//76
f 66//77 62//77 16//77
f 62//78 7//78 14//78
f 1//79 3//79 8//79
f 3//80 9//80 65//80
f 67//81 63//81 66//81
f 68//82 64//82 63//82
f 69//83 65//83 64//83
f 16//84 70//84 66//84
f 14//85 16//85 62//85
f 6//3 14//3 7//3
f 71//86 72//86 73//86
f 65//87 69//87 3//87
f 66//81 70//81 67//81
f 63//82 67//82 68//82
f 64//88 68//88 69//88
f 70//89 16//89 74//89
f 10//90 12//90 17//90
f 2//91 5//91 9//91
f 73//86 75//86 71//86
f 73//92 72//92 76//92
f 72//93 71//93 77//93
f 75//94 78//94 71//94
f 8//95 3//95 69//95
f 74//96 79//96 70//96
f 80//97 67//97 70//97
f 81//98 68//98 67//98
f 82//99 69//99 68//99
f 15//100 74//100 16//100
f 8//79 12//79 6//79
f 76//101 83//101 73//101
f 75//102 73//102 83//102
f 77//103 71//103 78//103
f 77//93 76//93 72//93
f 75//86 25//86 78//86
f 25//104 26//104 78//104
f 25//94 20//94 26//94
f 79//105 74//105 84//105
f 69//106 82//106 8//106
f 70//107 79//107 80//107
f 67//98 80//98 81//98
f 68//99 81//99 82//99
f 74//108 15//108 85//108
f 11//7 14//7 6//7
f 12//109 8//109 86//109
f 85//108 84//108 74//108
f 87//110 83//110 76//110
f 83//111 88//111 75//111
f 78//112 89//112 77//112
f 76//113 77//113 90//113
f 90//114 91//114 76//114
f 25//115 75//115 88//115
f 89//116 78//116 26//116
f 19//117 22//117 26//117
f 84//118 92//118 79//118
f 86//119 8//119 82//119
f 93//120 80//120 79//120
f 94//121 81//121 80//121
f 95//122 82//122 81//122
f 17//90 85//90 15//90
f 86//109 17//109 12//109
f 76//123 91//123 87//123
f 84//124 85//124 96//124
f 88//125 83//125 87//125
f 90//126 77//126 89//126
f 91//127 90//127 97//127
f 88//128 98//128 25//128
f 25//13 98//13 23//13
f 26//129 22//129 89//129
f 96//124 99//124 84//124
f 92//130 84//130 99//130
f 79//120 92//120 93//120
f 82//131 95//131 86//131
f 80//121 93//121 94//121
f 81//132 94//132 95//132
f 85//133 17//133 100//133
f 17//134 86//134 101//134
f 91//135 102//135 103//135
f 103//136 87//136 91//136
f 100//133 96//133 85//133
f 87//125 104//125 88//125
f 89//126 105//126 90//126
f 97//137 90//137 105//137
f 97//138 102//138 91//138
f 98//139 88//139 104//139
f 23//140 98//140 106//140
f 89//141 22//141 107//141
f 18//142 20//142 25//142
f 108//143 99//143 96//143
f 99//144 109//144 92//144
f 110//145 93//145 92//145
f 101//146 86//146 95//146
f 111//147 94//147 93//147
f 112//148 95//148 94//148
f 101//149 100//149 17//149
f 103//150 102//150 113//150
f 87//151 103//151 114//151
f 96//152 100//152 115//152
f 96//153 116//153 108//153
f 114//154 104//154 87//154
f 107//155 105//155 89//155
f 105//156 117//156 97//156
f 102//157 97//157 118//157
f 104//158 106//158 98//158
f 106//159 24//159 23//159
f 24//160 107//160 22//160
f 118//161 113//161 102//161
f 109//162 99//162 108//162
f 92//163 109//163 110//163
f 93//164 110//164 111//164
f 95//165 112//165 101//165
f 94//166 111//166 112//166
f 100//167 101//167 119//167
f 113//168 120//168 103//168
f 114//169 103//169 120//169
f 115//170 116//170 96//170
f 119//171 115//171 100//171
f 108//168 116//168 121//168
f 104//172 114//172 122//172
f 117//173 105//173 107//173
f 118//174 97//174 117//174
f 122//175 106//175 104//175
f 123//176 24//176 106//176
f 124//177 107//177 24//177
f 113//178 118//178 125//178
f 125//179 126//179 113//179
f 121//168 127//168 108//168
f 108//180 128//180 109//180
f 129//181 110//181 109//181
f 111//182 110//182 129//182
f 101//183 112//183 130//183
f 112//184 111//184 131//184
f 130//183 119//183 101//183
f 132//185 120//185 113//185
f 120//169 133//169 114//169
f 113//186 126//186 132//186
f 116//169 115//169 134//169
f 115//187 119//187 135//187
f 134//188 121//188 116//188
f 121//63 136//63 137//63
f 122//189 114//189 133//189
f 107//190 124//190 117//190
f 117//191 138//191 118//191
f 106//176 122//176 123//176
f 24//192 123//192 124//192
f 137//70 127//70 121//70
f 125//193 118//193 138//193
f 139//194 137//194 136//194
f 126//195 140//195 141//195
f 126//196 125//196 142//196
f 141//50 140//50 139//50
f 128//57 108//57 127//57
f 109//197 128//197 129//197
f 129//182 131//182 111//182
f 131//184 130//184 112//184
f 135//198 119//198 130//198
f 133//199 120//199 132//199
f 141//200 132//200 126//200
f 135//52 134//52 115//52
f 136//201 121//201 134//201
f 136//202 143//202 139//202
f 139//58 143//58 141//58
f 133//187 144//187 122//187
f 138//203 117//203 124//203
f 145//204 123//204 122//204
f 146//205 124//205 123//205
f 147//206 127//206 137//206
f 138//207 148//207 125//207
f 149//208 137//208 139//208
f 142//156 125//156 148//156
f 142//138 140//138 126//138
f 150//57 139//57 140//57
f 127//209 147//209 128//209
f 151//210 129//210 128//210
f 152//61 131//61 129//61
f 153//211 130//211 131//211
f 130//53 153//53 135//53
f 132//212 154//212 133//212
f 132//213 141//213 155//213
f 156//72 134//72 135//72
f 134//64 156//64 136//64
f 157//214 143//214 136//214
f 155//215 141//215 143//215
f 122//198 144//198 145//198
f 124//216 146//216 138//216
f 123//56 145//56 146//56
f 137//217 149//217 147//217
f 158//218 148//218 138//218
f 139//219 150//219 149//219
f 148//156 159//156 142//156
f 140//220 142//220 150//220
f 128//221 147//221 151//221
f 129//61 151//61 152//61
f 131//222 152//222 153//222
f 160//73 135//73 153//73
f 144//223 133//223 154//223
f 155//213 154//213 132//213
f 135//224 160//224 156//224
f 136//214 156//214 157//214
f 143//215 157//215 155//215
f 161//225 145//225 144//225
f 138//226 146//226 158//226
f 146//227 145//227 161//227
f 147//228 149//228 162//228
f 159//173 148//173 158//173
f 149//229 150//229 163//229
f 150//174 142//174 159//174
f 162//230 151//230 147//230
f 164//231 152//231 151//231
f 165//232 153//232 152//232
f 153//66 165//66 160//66
f 154//233 166//233 144//233
f 154//172 155//172 167//172
f 156//234 160//234 168//234
f 168//234 157//234 156//234
f 167//189 155//189 157//189
f 144//225 166//225 161//225
f 161//235 158//235 146//235
f 163//236 162//236 149//236
f 158//190 169//190 159//190
f 159//191 163//191 150//191
f 151//237 162//237 164//237
f 152//76 164//76 165//76
f 160//238 165//238 170//238
f 167//172 166//172 154//172
f 170//239 168//239 160//239
f 157//240 168//240 167//240
f 171//241 161//241 166//241
f 169//242 158//242 161//242
f 162//243 163//243 172//243
f 163//244 159//244 169//244
f 172//245 164//245 162//245
f 170//246 165//246 164//246
f 166//247 167//247 171//247
f 167//198 168//198 170//198
f 161//248 171//248 169//248
f 169//244 172//244 163//244
f 164//246 172//246 170//246
f 170//249 171//249 167//249
f 172//250 169//250 171//250
f 171//251 170//251 172//251
f 27//14 30//14 28//14
f 30//14 27//14 32//14
f 4//1 1//1 6//1
f 1//2 4//2 2//2
