# Blender v2.79 (sub 0) OBJ File: ''
# www.blender.org
o obj13
v -0.199528 -0.219473 0.565035
v -0.218236 -0.199996 0.565035
v -0.209769 -0.210429 0.565035
v -0.186785 -0.227228 0.565035
v -0.225520 -0.188092 0.565035
v -0.170808 -0.233792 0.565035
v -0.231656 -0.174699 0.565035
v -0.236542 -0.159818 0.565035
v -0.240072 -0.143449 0.565035
v -0.242140 -0.125592 0.565035
v -0.126736 -0.243746 0.565035
v -0.100205 -0.247334 0.565035
v -0.067460 -0.250653 0.565035
v -0.049127 -0.252228 0.565035
v -0.029168 -0.253733 0.565035
v -0.015043 -0.254767 0.565035
v -0.000918 -0.255800 0.565035
v 0.013208 -0.254767 0.565035
v 0.027333 -0.253733 0.565035
v 0.047292 -0.252228 0.565035
v 0.065625 -0.250653 0.565035
v 0.098370 -0.247334 0.565035
v 0.124901 -0.243746 0.565035
v 0.168973 -0.233792 0.565035
v 0.184950 -0.227228 0.565035
v 0.197693 -0.219473 0.565035
v 0.207934 -0.210429 0.565035
v 0.216401 -0.199996 0.565035
v 0.223685 -0.188092 0.565035
v 0.229822 -0.174699 0.565035
v 0.234707 -0.159818 0.565035
v 0.238237 -0.143449 0.565035
v 0.240305 -0.125592 0.565035
v -0.242175 -0.086207 0.565035
v 0.240340 -0.086207 0.565035
v -0.239289 -0.045632 0.565035
v -0.236751 -0.008480 0.565035
v -0.236229 0.024060 0.565035
v -0.239289 0.069083 0.565035
v -0.242175 0.098415 0.565035
v -0.240037 0.139915 0.565035
v -0.230718 0.164353 0.565035
v -0.213889 0.184426 0.565035
v -0.188714 0.199075 0.565035
v -0.154361 0.209359 0.565035
v -0.110289 0.216833 0.565035
v 0.237454 -0.045632 0.565035
v -0.062757 0.222289 0.565035
v 0.234916 -0.008480 0.565035
v -0.000918 0.227828 0.565035
v 0.234394 0.024060 0.565035
v 0.060922 0.222289 0.565035
v 0.108454 0.216833 0.565035
v 0.237454 0.069083 0.565035
v 0.152526 0.209359 0.565035
v 0.240340 0.098415 0.565035
v 0.186879 0.199075 0.565035
v 0.238202 0.139915 0.565035
v 0.228883 0.164353 0.565035
v 0.212054 0.184426 0.565035
v -0.218236 -0.199996 0.516917
v -0.199528 -0.219473 0.516917
v -0.209769 -0.210429 0.516917
v -0.186785 -0.227228 0.516917
v -0.225520 -0.188092 0.516917
v -0.170808 -0.233792 0.516917
v -0.231656 -0.174699 0.516917
v -0.236542 -0.159818 0.516917
v -0.240072 -0.143449 0.516917
v -0.242140 -0.125592 0.516917
v -0.126736 -0.243746 0.516917
v -0.100205 -0.247334 0.516917
v -0.067460 -0.250653 0.516917
v -0.049127 -0.252228 0.516917
v -0.029168 -0.253733 0.516917
v -0.015043 -0.254767 0.516917
v -0.000918 -0.255800 0.516917
v 0.013208 -0.254767 0.516917
v 0.027333 -0.253733 0.516917
v 0.047292 -0.252228 0.516917
v 0.065625 -0.250653 0.516917
v 0.098370 -0.247334 0.516917
v 0.124901 -0.243746 0.516917
v 0.168973 -0.233792 0.516917
v 0.184950 -0.227228 0.516917
v 0.197693 -0.219473 0.516917
v 0.207934 -0.210429 0.516917
v 0.216401 -0.199996 0.516917
v 0.223685 -0.188092 0.516917
v 0.229822 -0.174699 0.516917
v 0.234707 -0.159818 0.516917
v 0.238237 -0.143449 0.516917
v 0.240305 -0.125592 0.516917
v -0.242175 -0.086207 0.516917
v 0.240340 -0.086207 0.516917
v -0.239289 -0.045632 0.516917
v -0.236751 -0.008480 0.516917
v -0.236229 0.024060 0.516917
v -0.239289 0.069083 0.516917
v -0.242175 0.098415 0.516917
v -0.240037 0.139915 0.516917
v -0.230718 0.164353 0.516917
v -0.213889 0.184426 0.516917
v -0.188714 0.199075 0.516917
v -0.154361 0.209359 0.516917
v -0.110289 0.216833 0.516917
v 0.237454 -0.045632 0.516917
v -0.062757 0.222289 0.516917
v 0.234916 -0.008480 0.516917
v -0.000918 0.227828 0.516917
v 0.234394 0.024060 0.516917
v 0.060922 0.222289 0.516917
v 0.108454 0.216833 0.516917
v 0.237454 0.069083 0.516917
v 0.152526 0.209359 0.516917
v 0.240340 0.098415 0.516917
v 0.186879 0.199075 0.516917
v 0.238202 0.139915 0.516917
v 0.228883 0.164353 0.516917
v 0.212054 0.184426 0.516917
vn -0.0000 0.0000 1.0000
vn 0.0000 0.0000 -1.0000
vn -0.0892 0.9960 0.0000
vn 0.0892 0.9960 0.0000
vn 0.1140 0.9935 0.0000
vn 0.1672 0.9859 0.0000
vn 0.2868 0.9580 0.0000
vn 0.5029 0.8643 0.0000
vn 0.7663 0.6425 0.0000
vn 0.9344 0.3563 0.0000
vn 0.9987 0.0514 0.0000
vn 0.9952 -0.0979 -0.0000
vn 0.9977 -0.0678 -0.0000
vn 0.9999 0.0160 0.0000
vn 0.9977 0.0682 0.0000
vn 0.9975 0.0709 0.0000
vn 1.0000 -0.0009 0.0000
vn 0.9934 -0.1150 0.0000
vn 0.9775 -0.2108 0.0000
vn 0.9501 -0.3119 0.0000
vn 0.9091 -0.4166 0.0000
vn 0.8530 -0.5219 0.0000
vn 0.7765 -0.6302 0.0000
vn 0.6619 -0.7496 0.0000
vn 0.5199 -0.8542 0.0000
vn 0.3800 -0.9250 0.0000
vn 0.2203 -0.9754 0.0000
vn 0.1340 -0.9910 0.0000
vn 0.1008 -0.9949 0.0000
vn 0.0856 -0.9963 0.0000
vn 0.0752 -0.9972 0.0000
vn 0.0730 -0.9973 0.0000
vn 0.0729 -0.9973 0.0000
vn -0.0729 -0.9973 0.0000
vn -0.0730 -0.9973 0.0000
vn -0.0752 -0.9972 0.0000
vn -0.0856 -0.9963 0.0000
vn -0.1008 -0.9949 0.0000
vn -0.1340 -0.9910 0.0000
vn -0.2203 -0.9754 0.0000
vn -0.3800 -0.9250 0.0000
vn -0.5199 -0.8542 0.0000
vn -0.6619 -0.7496 0.0000
vn -0.7765 -0.6302 0.0000
vn -0.8530 -0.5219 0.0000
vn -0.9091 -0.4165 0.0000
vn -0.9501 -0.3120 0.0000
vn -0.9775 -0.2108 0.0000
vn -0.9934 -0.1150 0.0000
vn -1.0000 -0.0009 -0.0000
vn -0.9975 0.0709 0.0000
vn -0.9977 0.0682 0.0000
vn -0.9999 0.0160 0.0000
vn -0.9977 -0.0678 -0.0000
vn -0.9952 -0.0979 -0.0000
vn -0.9987 0.0515 0.0000
vn -0.9987 0.0514 0.0000
vn -0.9344 0.3563 0.0000
vn -0.7663 0.6425 0.0000
vn -0.5029 0.8643 0.0000
vn -0.2868 0.9580 0.0000
vn -0.1672 0.9859 0.0000
vn -0.1140 0.9935 0.0000
s off
f 1//1 2//1 3//1
f 4//1 2//1 1//1
f 5//1 2//1 4//1
f 6//1 5//1 4//1
f 7//1 5//1 6//1
f 8//1 7//1 6//1
f 9//1 8//1 6//1
f 10//1 9//1 6//1
f 11//1 10//1 6//1
f 12//1 10//1 11//1
f 13//1 10//1 12//1
f 14//1 10//1 13//1
f 15//1 10//1 14//1
f 16//1 10//1 15//1
f 17//1 10//1 16//1
f 18//1 10//1 17//1
f 19//1 10//1 18//1
f 20//1 10//1 19//1
f 21//1 10//1 20//1
f 22//1 10//1 21//1
f 23//1 10//1 22//1
f 24//1 10//1 23//1
f 25//1 10//1 24//1
f 26//1 10//1 25//1
f 27//1 10//1 26//1
f 28//1 10//1 27//1
f 29//1 10//1 28//1
f 30//1 10//1 29//1
f 31//1 10//1 30//1
f 32//1 10//1 31//1
f 33//1 10//1 32//1
f 34//1 10//1 33//1
f 35//1 34//1 33//1
f 36//1 34//1 35//1
f 37//1 36//1 35//1
f 38//1 37//1 35//1
f 39//1 38//1 35//1
f 40//1 39//1 35//1
f 41//1 40//1 35//1
f 42//1 41//1 35//1
f 43//1 42//1 35//1
f 44//1 43//1 35//1
f 45//1 44//1 35//1
f 46//1 45//1 35//1
f 47//1 46//1 35//1
f 48//1 46//1 47//1
f 49//1 48//1 47//1
f 50//1 48//1 49//1
f 51//1 50//1 49//1
f 52//1 50//1 51//1
f 53//1 52//1 51//1
f 54//1 53//1 51//1
f 55//1 53//1 54//1
f 56//1 55//1 54//1
f 57//1 55//1 56//1
f 58//1 57//1 56//1
f 59//1 57//1 58//1
f 60//1 57//1 59//1
f 61//2 62//2 63//2
f 61//2 64//2 62//2
f 61//2 65//2 64//2
f 65//2 66//2 64//2
f 65//2 67//2 66//2
f 67//2 68//2 66//2
f 68//2 69//2 66//2
f 69//2 70//2 66//2
f 70//2 71//2 66//2
f 70//2 72//2 71//2
f 70//2 73//2 72//2
f 70//2 74//2 73//2
f 70//2 75//2 74//2
f 70//2 76//2 75//2
f 70//2 77//2 76//2
f 70//2 78//2 77//2
f 70//2 79//2 78//2
f 70//2 80//2 79//2
f 70//2 81//2 80//2
f 70//2 82//2 81//2
f 70//2 83//2 82//2
f 70//2 84//2 83//2
f 70//2 85//2 84//2
f 70//2 86//2 85//2
f 70//2 87//2 86//2
f 70//2 88//2 87//2
f 70//2 89//2 88//2
f 70//2 90//2 89//2
f 70//2 91//2 90//2
f 70//2 92//2 91//2
f 70//2 93//2 92//2
f 70//2 94//2 93//2
f 94//2 95//2 93//2
f 94//2 96//2 95//2
f 96//2 97//2 95//2
f 97//2 98//2 95//2
f 98//2 99//2 95//2
f 99//2 100//2 95//2
f 100//2 101//2 95//2
f 101//2 102//2 95//2
f 102//2 103//2 95//2
f 103//2 104//2 95//2
f 104//2 105//2 95//2
f 105//2 106//2 95//2
f 106//2 107//2 95//2
f 106//2 108//2 107//2
f 108//2 109//2 107//2
f 108//2 110//2 109//2
f 110//2 111//2 109//2
f 110//2 112//2 111//2
f 112//2 113//2 111//2
f 113//2 114//2 111//2
f 113//2 115//2 114//2
f 115//2 116//2 114//2
f 115//2 117//2 116//2
f 117//2 118//2 116//2
f 117//2 119//2 118//2
f 117//2 120//2 119//2
f 48//3 50//3 110//3
f 108//3 48//3 110//3
f 50//4 52//4 112//4
f 110//4 50//4 112//4
f 52//5 53//5 113//5
f 112//5 52//5 113//5
f 53//6 55//6 115//6
f 113//6 53//6 115//6
f 55//7 57//7 117//7
f 115//7 55//7 117//7
f 57//8 60//8 120//8
f 117//8 57//8 120//8
f 60//9 59//9 119//9
f 120//9 60//9 119//9
f 59//10 58//10 118//10
f 119//10 59//10 118//10
f 58//11 56//11 116//11
f 118//11 58//11 116//11
f 56//12 54//12 114//12
f 116//12 56//12 114//12
f 54//13 51//13 111//13
f 114//13 54//13 111//13
f 51//14 49//14 109//14
f 111//14 51//14 109//14
f 49//15 47//15 107//15
f 109//15 49//15 107//15
f 47//16 35//16 95//16
f 107//16 47//16 95//16
f 35//17 33//17 93//17
f 95//17 35//17 93//17
f 33//18 32//18 92//18
f 93//18 33//18 92//18
f 32//19 31//19 91//19
f 92//19 32//19 91//19
f 31//20 30//20 90//20
f 91//20 31//20 90//20
f 30//21 29//21 89//21
f 90//21 30//21 89//21
f 29//22 28//22 88//22
f 89//22 29//22 88//22
f 28//23 27//23 87//23
f 88//23 28//23 87//23
f 27//24 26//24 86//24
f 87//24 27//24 86//24
f 26//25 25//25 85//25
f 86//25 26//25 85//25
f 25//26 24//26 84//26
f 85//26 25//26 84//26
f 24//27 23//27 83//27
f 84//27 24//27 83//27
f 23//28 22//28 82//28
f 83//28 23//28 82//28
f 22//29 21//29 81//29
f 82//29 22//29 81//29
f 21//30 20//30 80//30
f 81//30 21//30 80//30
f 20//31 19//31 79//31
f 80//31 20//31 79//31
f 19//32 18//32 78//32
f 79//32 19//32 78//32
f 18//33 17//33 77//33
f 78//33 18//33 77//33
f 17//34 16//34 76//34
f 77//34 17//34 76//34
f 16//35 15//35 75//35
f 76//35 16//35 75//35
f 15//36 14//36 74//36
f 75//36 15//36 74//36
f 14//37 13//37 73//37
f 74//37 14//37 73//37
f 13//38 12//38 72//38
f 73//38 13//38 72//38
f 12//39 11//39 71//39
f 72//39 12//39 71//39
f 11//40 6//40 66//40
f 71//40 11//40 66//40
f 6//41 4//41 64//41
f 66//41 6//41 64//41
f 4//42 1//42 62//42
f 64//42 4//42 62//42
f 1//43 3//43 63//43
f 62//43 1//43 63//43
f 3//44 2//44 61//44
f 63//44 3//44 61//44
f 2//45 5//45 65//45
f 61//45 2//45 65//45
f 5//46 7//46 67//46
f 65//46 5//46 67//46
f 7//47 8//47 68//47
f 67//47 7//47 68//47
f 8//48 9//48 69//48
f 68//48 8//48 69//48
f 9//49 10//49 70//49
f 69//49 9//49 70//49
f 10//50 34//50 94//50
f 70//50 10//50 94//50
f 34//51 36//51 96//51
f 94//51 34//51 96//51
f 36//52 37//52 97//52
f 96//52 36//52 97//52
f 37//53 38//53 98//53
f 97//53 37//53 98//53
f 38//54 39//54 99//54
f 98//54 38//54 99//54
f 39//55 40//55 100//55
f 99//55 39//55 100//55
f 40//56 41//56 101//56
f 100//57 40//57 101//57
f 41//58 42//58 102//58
f 101//58 41//58 102//58
f 42//59 43//59 103//59
f 102//59 42//59 103//59
f 43//60 44//60 104//60
f 103//60 43//60 104//60
f 44//61 45//61 105//61
f 104//61 44//61 105//61
f 45//62 46//62 106//62
f 105//62 45//62 106//62
f 46//63 48//63 108//63
f 106//63 46//63 108//63
