# Blender v2.79 (sub 0) OBJ File: ''
# www.blender.org
o LegBackLeft
v 0.431601 0.389397 0.336311
v 0.368116 0.389397 0.336311
v 0.431601 0.341503 0.336311
v 0.368116 0.341503 0.336311
v 0.368116 0.389397 -0.059740
v 0.431601 0.389397 -0.059740
v 0.431601 0.341503 -0.059740
v 0.368116 0.341503 -0.059740
vn 0.0000 0.0000 1.0000
vn 0.0000 0.0000 -1.0000
vn 0.0000 1.0000 0.0000
vn -1.0000 0.0000 0.0000
vn 0.0000 -1.0000 -0.0000
vn 1.0000 0.0000 0.0000
s off
f 1//1 2//1 3//1
f 2//1 4//1 3//1
f 5//2 6//2 7//2
f 8//2 5//2 7//2
f 6//3 5//3 2//3
f 1//3 6//3 2//3
f 5//4 8//4 4//4
f 2//4 5//4 4//4
f 8//5 7//5 3//5
f 4//5 8//5 3//5
f 7//6 6//6 1//6
f 3//6 7//6 1//6
