# Blender v2.79 (sub 0) OBJ File: ''
# www.blender.org
o obj04.001
v 0.225402 -0.277330 0.350697
v 0.229634 -0.277330 0.158826
v 0.229634 -0.277330 0.414654
v 0.216936 -0.277330 -0.033045
v 0.208472 -0.277330 0.222783
v 0.200006 -0.277330 0.222783
v 0.231984 -0.245352 -0.036807
v 0.231984 -0.275449 -0.036807
v 0.201887 -0.245352 -0.036807
v 0.233865 -0.243471 -0.033045
v 0.201887 -0.275449 -0.036807
v 0.233865 -0.277330 -0.033045
v 0.200006 -0.243471 -0.033045
v 0.200006 -0.277330 -0.033045
v 0.233865 -0.266977 0.448514
v 0.233865 -0.243471 0.478611
v 0.233865 -0.266751 0.446813
v 0.208472 -0.277330 0.350697
v 0.204241 -0.277330 0.286740
v 0.212704 -0.277330 0.286740
v 0.216936 -0.277330 0.222783
v 0.200006 -0.243471 0.478611
v 0.233865 -0.253824 0.448514
v 0.233865 -0.266095 0.445227
v 0.233865 -0.266751 0.450214
v 0.233865 -0.277330 0.478611
v 0.200006 -0.277330 0.478611
v 0.233865 -0.254050 0.450214
v 0.233865 -0.254050 0.446813
v 0.233865 -0.265051 0.443864
v 0.233865 -0.266095 0.451800
v 0.233865 -0.254706 0.451800
v 0.233865 -0.254706 0.445227
v 0.233865 -0.265051 0.453164
v 0.233865 -0.263687 0.442819
v 0.233865 -0.255750 0.453164
v 0.233865 -0.255750 0.443864
v 0.233865 -0.263687 0.454208
v 0.233865 -0.262101 0.442163
v 0.233865 -0.257114 0.454208
v 0.233865 -0.257114 0.442819
v 0.233865 -0.262101 0.454864
v 0.233865 -0.260400 0.441937
v 0.233865 -0.258700 0.454864
v 0.233865 -0.258700 0.442163
v 0.233865 -0.260400 0.455090
v 0.216936 -0.277330 0.478611
v 0.233865 -0.277330 0.222783
vn 0.0000 -1.0000 -0.0000
vn 0.0000 0.0000 -1.0000
vn 0.8944 0.0000 -0.4472
vn 0.0000 0.8944 -0.4472
vn -0.8944 0.0000 -0.4472
vn 0.0000 -0.8944 -0.4472
vn 1.0000 0.0000 0.0000
vn 0.0000 1.0000 0.0000
vn 1.0000 0.0001 0.0000
vn -1.0000 0.0000 0.0000
vn 0.0000 -0.0000 1.0000
s off
f 1//1 2//1 3//1
f 4//1 5//1 6//1
f 7//2 8//2 9//2
f 7//3 10//3 8//3
f 11//2 9//2 8//2
f 7//4 9//4 10//4
f 12//3 8//3 10//3
f 9//5 11//5 13//5
f 11//6 8//6 14//6
f 13//4 10//4 9//4
f 12//7 10//7 15//7
f 14//5 13//5 11//5
f 10//8 13//8 16//8
f 17//7 15//7 10//7
f 18//1 19//1 20//1
f 1//1 20//1 21//1
f 22//8 16//8 13//8
f 16//7 23//7 10//7
f 8//6 4//6 14//6
f 24//9 17//9 10//9
f 25//7 26//7 15//7
f 22//10 13//10 27//10
f 22//11 27//11 16//11
f 23//7 16//7 28//7
f 23//7 29//7 10//7
f 30//7 24//7 10//7
f 31//7 26//7 25//7
f 28//7 16//7 32//7
f 29//7 33//7 10//7
f 16//7 26//7 34//7
f 35//7 30//7 10//7
f 34//7 26//7 31//7
f 32//7 16//7 36//7
f 33//7 37//7 10//7
f 38//7 16//7 34//7
f 39//7 35//7 10//7
f 36//7 16//7 40//7
f 37//7 41//7 10//7
f 42//7 16//7 38//7
f 43//7 39//7 10//7
f 40//7 16//7 44//7
f 41//7 45//7 10//7
f 46//7 16//7 42//7
f 45//7 43//7 10//7
f 44//7 16//7 46//7
f 16//11 47//11 26//11
f 47//1 18//1 1//1
f 8//6 12//6 4//6
f 13//10 14//10 6//10
f 13//10 6//10 27//10
f 14//1 4//1 6//1
f 12//1 21//1 4//1
f 16//11 27//11 47//11
f 5//1 20//1 19//1
f 47//1 3//1 26//1
f 15//7 48//7 12//7
f 27//1 18//1 47//1
f 48//1 3//1 2//1
f 4//1 21//1 5//1
f 1//1 18//1 20//1
f 27//1 6//1 19//1
f 27//1 19//1 18//1
f 6//1 5//1 19//1
f 21//1 20//1 5//1
f 15//7 26//7 48//7
f 47//1 1//1 3//1
f 21//1 12//1 2//1
f 21//1 2//1 1//1
f 12//1 48//1 2//1
f 26//1 3//1 48//1
