# Blender v2.79 (sub 0) OBJ File: ''
# www.blender.org
o obj03.001
v -0.229695 -0.277330 0.030912
v -0.229695 -0.277330 0.158826
v -0.233926 -0.277330 0.094869
v -0.201948 -0.245352 -0.036807
v -0.232045 -0.275449 -0.036807
v -0.232045 -0.245352 -0.036807
v -0.201948 -0.275449 -0.036807
v -0.233926 -0.243471 -0.033045
v -0.200067 -0.243471 -0.033045
v -0.200067 -0.277330 -0.033045
v -0.233926 -0.277330 -0.033045
v -0.233926 -0.266977 0.448514
v -0.233926 -0.243471 0.478611
v -0.216996 -0.277330 -0.033045
v -0.233926 -0.266751 0.446813
v -0.200067 -0.243471 0.478611
v -0.233926 -0.253824 0.448514
v -0.200067 -0.277330 0.478611
v -0.233926 -0.266095 0.445227
v -0.233926 -0.277330 0.478611
v -0.233926 -0.266751 0.450214
v -0.233926 -0.254050 0.446813
v -0.233926 -0.254050 0.450214
v -0.233926 -0.265051 0.443864
v -0.233926 -0.266095 0.451800
v -0.233926 -0.254706 0.445227
v -0.233926 -0.254706 0.451800
v -0.233926 -0.265051 0.453164
v -0.233926 -0.263687 0.442819
v -0.233926 -0.255750 0.443864
v -0.233926 -0.255750 0.453164
v -0.233926 -0.263687 0.454208
v -0.233926 -0.262101 0.442163
v -0.233926 -0.257114 0.442819
v -0.233926 -0.257114 0.454208
v -0.233926 -0.262101 0.454864
v -0.233926 -0.260400 0.441937
v -0.233926 -0.258700 0.442163
v -0.233926 -0.258700 0.454864
v -0.233926 -0.260400 0.455090
v -0.200067 -0.277330 0.222783
v -0.216996 -0.277330 0.222783
v -0.225463 -0.277330 0.350697
v -0.225463 -0.277330 0.094869
v -0.233926 -0.277330 0.350697
v -0.229695 -0.277330 0.286740
v -0.229695 -0.277330 0.414654
v -0.233926 -0.277330 0.222783
vn 0.0000 -1.0000 0.0000
vn 0.0000 0.0000 -1.0000
vn -0.8944 0.0000 -0.4472
vn 0.0000 0.8944 -0.4472
vn 0.8944 -0.0000 -0.4472
vn 0.0000 -0.8944 -0.4472
vn -1.0000 -0.0000 0.0000
vn 0.0000 1.0000 0.0000
vn 1.0000 0.0000 0.0000
vn 0.0000 -0.0000 1.0000
s off
f 1//1 2//1 3//1
f 4//2 5//2 6//2
f 5//2 4//2 7//2
f 5//3 8//3 6//3
f 8//4 4//4 6//4
f 9//5 7//5 4//5
f 10//6 5//6 7//6
f 8//3 5//3 11//3
f 4//4 8//4 9//4
f 7//5 9//5 10//5
f 12//7 8//7 11//7
f 13//8 9//8 8//8
f 5//6 14//6 11//6
f 8//7 12//7 15//7
f 9//8 13//8 16//8
f 8//7 17//7 13//7
f 18//9 9//9 16//9
f 8//7 15//7 19//7
f 12//7 20//7 21//7
f 13//10 18//10 16//10
f 8//7 22//7 17//7
f 23//7 13//7 17//7
f 18//10 13//10 20//10
f 8//7 19//7 24//7
f 21//7 20//7 25//7
f 8//7 26//7 22//7
f 27//7 13//7 23//7
f 28//7 20//7 13//7
f 8//7 24//7 29//7
f 25//7 20//7 28//7
f 8//7 30//7 26//7
f 31//7 13//7 27//7
f 28//7 13//7 32//7
f 8//7 29//7 33//7
f 8//7 34//7 30//7
f 35//7 13//7 31//7
f 32//7 13//7 36//7
f 8//7 33//7 37//7
f 8//7 38//7 34//7
f 39//7 13//7 35//7
f 36//7 13//7 40//7
f 8//7 37//7 38//7
f 40//7 13//7 39//7
f 10//1 41//1 14//1
f 42//1 14//1 41//1
f 42//1 43//1 44//1
f 14//1 1//1 11//1
f 45//1 46//1 47//1
f 5//6 10//6 14//6
f 9//9 18//9 41//9
f 9//9 41//9 10//9
f 18//1 42//1 41//1
f 48//1 3//1 2//1
f 43//1 2//1 44//1
f 14//1 42//1 44//1
f 2//1 46//1 48//1
f 18//1 43//1 42//1
f 43//1 47//1 46//1
f 14//1 44//1 1//1
f 12//7 45//7 20//7
f 12//7 11//7 3//7
f 12//7 3//7 48//7
f 11//1 1//1 3//1
f 44//1 2//1 1//1
f 12//7 48//7 45//7
f 2//1 43//1 46//1
f 18//1 20//1 47//1
f 18//1 47//1 43//1
f 20//1 45//1 47//1
f 48//1 46//1 45//1
