# Blender v2.79 (sub 0) OBJ File: ''
# www.blender.org
o LegBackRight.001
v -0.260184 0.207096 0.628668
v -0.255588 0.195922 0.626907
v -0.255506 0.208018 0.628559
v -0.263793 0.216392 0.597010
v -0.257089 0.217714 0.596858
v -0.291607 0.293391 0.011066
v -0.286290 0.294443 0.010944
v -0.291781 0.293817 0.011074
v -0.286285 0.294900 0.010948
v -0.293233 0.297478 0.003165
v -0.286681 0.298765 0.003013
v -0.293477 0.298091 0.002248
v -0.286729 0.299422 0.002091
v -0.293494 0.298139 0.001604
v -0.286759 0.299469 0.001452
v -0.293316 0.297713 0.000604
v -0.286811 0.298995 0.000457
v -0.287094 0.282625 -0.005226
v -0.264163 0.204470 0.628507
v -0.269498 0.212631 0.596780
v -0.296138 0.290404 0.010879
v -0.296455 0.290730 0.010883
v -0.298803 0.293800 0.002939
v -0.299221 0.294304 0.002013
v -0.299221 0.294360 0.001370
v -0.298847 0.294065 0.000378
v -0.266832 0.200539 0.628098
v -0.273328 0.206996 0.596197
v -0.299177 0.285938 0.010418
v -0.299599 0.286117 0.010405
v -0.302547 0.288299 0.002370
v -0.303077 0.288634 0.001426
v -0.303073 0.288708 0.000787
v -0.302564 0.288604 -0.000187
v -0.267793 0.195909 0.627512
v -0.274707 0.200357 0.595354
v -0.300268 0.280664 0.009748
v -0.300725 0.280673 0.009718
v -0.303890 0.281812 0.001548
v -0.304460 0.281947 0.000578
v -0.304456 0.282034 -0.000061
v -0.303899 0.282160 -0.001004
v -0.266898 0.191274 0.626833
v -0.273420 0.193713 0.594380
v -0.299247 0.275390 0.008974
v -0.299673 0.275225 0.008918
v -0.302634 0.275321 0.000591
v -0.303169 0.275260 -0.000404
v -0.303160 0.275364 -0.001039
v -0.302651 0.275716 -0.001948
v -0.264280 0.187348 0.626164
v -0.269663 0.188082 0.593419
v -0.296268 0.270920 0.008213
v -0.296594 0.270612 0.008131
v -0.298968 0.269820 -0.000343
v -0.299386 0.269590 -0.001370
v -0.299390 0.269707 -0.002004
v -0.299008 0.270255 -0.002878
v -0.260336 0.184721 0.625607
v -0.264011 0.184317 0.592623
v -0.291786 0.267938 0.007579
v -0.291964 0.267529 0.007474
v -0.293446 0.266146 -0.001122
v -0.293699 0.265803 -0.002174
v -0.293716 0.265929 -0.002804
v -0.293525 0.266603 -0.003652
v -0.255671 0.183800 0.625246
v -0.257323 0.182995 0.592110
v -0.286477 0.266885 0.007174
v -0.286481 0.266446 0.007053
v -0.286916 0.264855 -0.001626
v -0.286968 0.264477 -0.002691
v -0.286998 0.264603 -0.003322
v -0.287042 0.265325 -0.004152
v -0.250993 0.184721 0.625142
v -0.250619 0.184317 0.591954
v -0.281155 0.267938 0.007053
v -0.280985 0.267529 0.006931
v -0.280363 0.266146 -0.001774
v -0.280216 0.265803 -0.002844
v -0.280263 0.265929 -0.003474
v -0.280537 0.266603 -0.004300
v -0.247014 0.187348 0.625303
v -0.244914 0.188082 0.592188
v -0.276628 0.270920 0.007235
v -0.276311 0.270612 0.007118
v -0.274794 0.269820 -0.001548
v -0.274476 0.269590 -0.002609
v -0.274537 0.269707 -0.003239
v -0.275007 0.270255 -0.004074
v -0.244345 0.191274 0.625707
v -0.241084 0.193713 0.592767
v -0.273585 0.275390 0.007696
v -0.273172 0.275225 0.007596
v -0.271050 0.275321 -0.000983
v -0.270619 0.275260 -0.002026
v -0.270689 0.275364 -0.002657
v -0.271289 0.275716 -0.003513
v -0.243384 0.195909 0.626294
v -0.239705 0.200357 0.593610
v -0.272493 0.280664 0.008366
v -0.272041 0.280673 0.008287
v -0.269706 0.281812 -0.000156
v -0.269232 0.281947 -0.001178
v -0.269306 0.282034 -0.001809
v -0.269954 0.282160 -0.002696
v -0.244279 0.200539 0.626977
v -0.240992 0.206996 0.594588
v -0.273515 0.285938 0.009140
v -0.273098 0.286117 0.009087
v -0.270963 0.288299 0.000796
v -0.270528 0.288634 -0.000196
v -0.270598 0.288708 -0.000830
v -0.271198 0.288604 -0.001748
v -0.246901 0.204470 0.627646
v -0.244749 0.212631 0.595545
v -0.276494 0.290404 0.009900
v -0.276172 0.290730 0.009874
v -0.274628 0.293800 0.001731
v -0.274307 0.294304 0.000770
v -0.274367 0.294360 0.000135
v -0.274841 0.294065 -0.000817
v -0.250840 0.207096 0.628203
v -0.250397 0.216392 0.596345
v -0.280981 0.293391 0.010535
v -0.280807 0.293817 0.010527
v -0.280150 0.297478 0.002513
v -0.279998 0.298091 0.001574
v -0.280046 0.298139 0.000935
v -0.280324 0.297713 -0.000043
vn 0.0498 -0.1355 0.9895
vn -0.1783 0.9384 0.2959
vn -0.1781 0.9385 0.2959
vn -0.1893 0.9724 0.1368
vn -0.1887 0.9725 0.1367
vn 0.0248 -0.0097 0.9996
vn 0.0249 -0.0100 0.9996
vn -0.1634 0.8837 0.4386
vn -0.1640 0.8834 0.4390
vn -0.1448 0.8022 0.5793
vn -0.1447 0.8045 0.5760
vn -0.1913 0.9782 0.0809
vn -0.1912 0.9784 0.0781
vn -0.1850 0.8910 -0.4146
vn -0.1854 0.8917 -0.4128
vn -0.0860 0.3281 -0.9407
vn 0.0494 -0.1356 0.9895
vn -0.5344 0.7926 0.2937
vn -0.5348 0.7923 0.2937
vn -0.5493 0.8248 0.1345
vn -0.5492 0.8248 0.1345
vn -0.0217 -0.0290 0.9993
vn -0.0198 -0.0325 0.9993
vn -0.5079 0.7424 0.4369
vn -0.5081 0.7422 0.4370
vn -0.4670 0.6728 0.5738
vn -0.4666 0.6713 0.5759
vn -0.5513 0.8308 0.0766
vn -0.5510 0.8313 0.0723
vn -0.4893 0.7676 -0.4140
vn -0.4897 0.7678 -0.4133
vn -0.1584 0.2984 -0.9412
vn 0.0489 -0.1362 0.9895
vn -0.8090 0.5219 0.2703
vn -0.8094 0.5214 0.2703
vn -0.8269 0.5513 0.1108
vn -0.8273 0.5508 0.1107
vn -0.0545 -0.0661 0.9963
vn -0.0578 -0.0635 0.9963
vn -0.7717 0.4823 0.4145
vn -0.7715 0.4829 0.4142
vn -0.7135 0.4278 0.5549
vn -0.7141 0.4287 0.5534
vn -0.8277 0.5591 0.0487
vn -0.8283 0.5572 0.0593
vn -0.7237 0.5374 -0.4330
vn -0.7226 0.5373 -0.4350
vn -0.2140 0.2436 -0.9460
vn 0.0492 -0.1355 0.9896
vn -0.9584 0.1699 0.2295
vn -0.9786 0.1936 0.0693
vn -0.9785 0.1944 0.0694
vn -0.0770 -0.1091 0.9910
vn -0.0682 -0.1118 0.9914
vn -0.9162 0.1422 0.3747
vn -0.8493 0.1102 0.5162
vn -0.8500 0.1107 0.5151
vn -0.9795 0.2008 0.0171
vn -0.9796 0.1999 0.0211
vn -0.8507 0.2358 -0.4698
vn -0.8503 0.2360 -0.4705
vn -0.2445 0.1717 -0.9543
vn -0.9610 -0.2121 0.1773
vn -0.9612 -0.2116 0.1773
vn -0.9812 -0.1924 0.0164
vn -0.9812 -0.1925 0.0164
vn -0.0687 -0.1579 0.9851
vn -0.0695 -0.1580 0.9850
vn -0.9186 -0.2256 0.3244
vn -0.9188 -0.2250 0.3242
vn -0.8521 -0.2334 0.4685
vn -0.8504 -0.2340 0.4713
vn -0.9820 -0.1862 -0.0315
vn -0.9821 -0.1831 -0.0439
vn -0.8524 -0.0896 -0.5152
vn -0.8535 -0.0906 -0.5132
vn -0.2450 0.0938 -0.9650
vn 0.0493 -0.1357 0.9895
vn -0.8160 -0.5652 0.1215
vn -0.8161 -0.5649 0.1215
vn -0.8346 -0.5494 -0.0398
vn -0.8343 -0.5498 -0.0399
vn -0.0518 -0.2014 0.9781
vn -0.0555 -0.2034 0.9775
vn -0.7792 -0.5653 0.2706
vn -0.7786 -0.5659 0.2710
vn -0.7200 -0.5520 0.4207
vn -0.7217 -0.5520 0.4177
vn -0.8358 -0.5399 -0.1003
vn -0.8355 -0.5413 -0.0945
vn -0.7299 -0.3914 -0.5605
vn -0.7289 -0.3897 -0.5629
vn -0.2157 0.0224 -0.9762
vn 0.0493 -0.1358 0.9895
vn -0.5460 -0.8347 0.0711
vn -0.5460 -0.8348 0.0711
vn -0.5605 -0.8231 -0.0910
vn -0.5609 -0.8228 -0.0910
vn -0.0209 -0.2382 0.9710
vn -0.0212 -0.2386 0.9709
vn -0.5182 -0.8259 0.2223
vn -0.5184 -0.8258 0.2222
vn -0.4772 -0.7958 0.3728
vn -0.4766 -0.7956 0.3739
vn -0.5625 -0.8137 -0.1465
vn -0.5626 -0.8135 -0.1474
vn -0.4983 -0.6197 -0.6064
vn -0.4985 -0.6204 -0.6055
vn -0.1608 -0.0324 -0.9865
vn 0.0497 -0.1359 0.9895
vn -0.1913 -0.9810 0.0333
vn -0.1911 -0.9810 0.0334
vn -0.2024 -0.9708 -0.1291
vn -0.2018 -0.9709 -0.1292
vn 0.0236 -0.2568 0.9662
vn 0.0204 -0.2674 0.9634
vn -0.1767 -0.9665 0.1860
vn -0.1766 -0.9665 0.1860
vn -0.1566 -0.9273 0.3399
vn -0.1575 -0.9282 0.3370
vn -0.2041 -0.9610 -0.1866
vn -0.2035 -0.9619 -0.1825
vn -0.1961 -0.7456 -0.6369
vn -0.1962 -0.7451 -0.6374
vn -0.0889 -0.0620 -0.9941
vn 0.0488 -0.1359 0.9895
vn 0.1938 -0.9809 0.0142
vn 0.1935 -0.9810 0.0141
vn 0.1887 -0.9707 -0.1486
vn 0.1880 -0.9709 -0.1486
vn 0.0739 -0.2671 0.9608
vn 0.0728 -0.2567 0.9638
vn 0.1942 -0.9666 0.1675
vn 0.1942 -0.9666 0.1674
vn 0.1895 -0.9282 0.3201
vn 0.1899 -0.9270 0.3233
vn 0.1849 -0.9620 -0.2011
vn 0.1841 -0.9611 -0.2058
vn 0.1314 -0.7447 -0.6544
vn 0.1322 -0.7461 -0.6526
vn -0.0105 -0.0620 -0.9980
vn 0.0495 -0.1356 0.9895
vn 0.5503 -0.8348 0.0164
vn 0.5504 -0.8347 0.0164
vn 0.5483 -0.8234 -0.1463
vn 0.5491 -0.8229 -0.1463
vn 0.1183 -0.2378 0.9641
vn 0.1209 -0.2425 0.9626
vn 0.5379 -0.8258 0.1696
vn 0.5114 -0.7954 0.3253
vn 0.5114 -0.7952 0.3258
vn 0.5450 -0.8134 -0.2032
vn 0.5450 -0.8134 -0.2036
vn 0.4366 -0.6207 -0.6512
vn 0.4358 -0.6200 -0.6524
vn 0.0621 -0.0323 -0.9975
vn 0.0496 -0.1355 0.9895
vn 0.8243 -0.5647 0.0398
vn 0.8244 -0.5646 0.0398
vn 0.8262 -0.5498 -0.1227
vn 0.8264 -0.5495 -0.1226
vn 0.1567 -0.2068 0.9657
vn 0.1528 -0.2037 0.9670
vn 0.8020 -0.5656 0.1921
vn 0.8020 -0.5656 0.1920
vn 0.7585 -0.5516 0.3470
vn 0.7588 -0.5520 0.3457
vn 0.8219 -0.5405 -0.1798
vn 0.8218 -0.5405 -0.1804
vn 0.6688 -0.3903 -0.6328
vn 0.6705 -0.3912 -0.6304
vn 0.1173 0.0221 -0.9929
vn 0.0496 -0.1356 0.9895
vn 0.9739 -0.2124 0.0807
vn 0.9739 -0.2121 0.0808
vn 0.9780 -0.1922 -0.0812
vn 0.9779 -0.1927 -0.0812
vn 0.1719 -0.1590 0.9722
vn 0.1716 -0.1590 0.9723
vn 0.9463 -0.2254 0.2316
vn 0.9463 -0.2258 0.2312
vn 0.8937 -0.2339 0.3828
vn 0.8934 -0.2338 0.3836
vn 0.9731 -0.1842 -0.1384
vn 0.9729 -0.1841 -0.1396
vn 0.7980 -0.0897 -0.5959
vn 0.7981 -0.0897 -0.5958
vn 0.1479 0.0942 -0.9845
vn 0.0495 -0.1364 0.9894
vn 0.9765 0.1697 0.1330
vn 0.9766 0.1692 0.1328
vn 0.9806 0.1942 -0.0283
vn 0.9805 0.1943 -0.0283
vn 0.1718 -0.1105 0.9789
vn 0.1701 -0.1107 0.9792
vn 0.9489 0.1425 0.2816
vn 0.9488 0.1428 0.2819
vn 0.8959 0.1104 0.4302
vn 0.8958 0.1104 0.4304
vn 0.9756 0.2016 -0.0867
vn 0.9759 0.2015 -0.0841
vn 0.8004 0.2356 -0.5512
vn 0.8009 0.2357 -0.5505
vn 0.1484 0.1719 -0.9739
vn 0.0492 -0.1356 0.9895
vn 0.8316 0.5224 0.1885
vn 0.8315 0.5225 0.1886
vn 0.8338 0.5514 0.0280
vn 0.8339 0.5512 0.0280
vn 0.1522 -0.0668 0.9861
vn 0.1493 -0.0685 0.9864
vn 0.8093 0.4822 0.3353
vn 0.8094 0.4822 0.3352
vn 0.7653 0.4282 0.4805
vn 0.7654 0.4283 0.4803
vn 0.8296 0.5577 -0.0265
vn 0.8295 0.5578 -0.0292
vn 0.6767 0.5372 -0.5035
vn 0.6768 0.5373 -0.5033
vn 0.1191 0.2434 -0.9626
vn 0.0494 -0.1358 0.9895
vn 0.5614 0.7923 0.2391
vn 0.5618 0.7920 0.2389
vn 0.5601 0.8246 0.0791
vn 0.5603 0.8245 0.0791
vn 0.1161 -0.0353 0.9926
vn 0.1210 -0.0291 0.9922
vn 0.5489 0.7425 0.3840
vn 0.5486 0.7426 0.3842
vn 0.5213 0.6716 0.5264
vn 0.5224 0.6729 0.5237
vn 0.5559 0.8310 0.0208
vn 0.5559 0.8310 0.0207
vn 0.4460 0.7679 -0.4599
vn 0.4457 0.7674 -0.4608
vn 0.0641 0.2984 -0.9523
vn 0.0488 -0.1355 0.9896
vn 0.2066 0.9385 0.2767
vn 0.2017 0.9724 0.1173
vn 0.2011 0.9725 0.1173
vn 0.0748 -0.0102 0.9972
vn 0.0747 -0.0102 0.9972
vn 0.2063 0.8835 0.4206
vn 0.2070 0.8836 0.4200
vn 0.2020 0.8049 0.5580
vn 0.2012 0.8026 0.5616
vn 0.1984 0.9784 0.0585
vn 0.1982 0.9781 0.0627
vn 0.1432 0.8919 -0.4291
vn 0.1432 0.8907 -0.4315
vn -0.0080 0.3281 -0.9446
s off
f 1//1 2//1 3//1
f 4//2 3//2 5//2
f 4//3 1//3 3//3
f 6//4 5//4 7//4
f 6//5 4//5 5//5
f 8//6 7//6 9//6
f 8//7 6//7 7//7
f 10//8 9//8 11//8
f 10//9 8//9 9//9
f 12//10 11//10 13//10
f 12//11 10//11 11//11
f 14//12 13//12 15//12
f 14//13 12//13 13//13
f 16//14 15//14 17//14
f 16//15 14//15 15//15
f 18//16 16//16 17//16
f 19//17 2//17 1//17
f 20//18 1//18 4//18
f 20//19 19//19 1//19
f 21//20 4//20 6//20
f 21//21 20//21 4//21
f 22//22 6//22 8//22
f 22//23 21//23 6//23
f 23//24 8//24 10//24
f 23//25 22//25 8//25
f 24//26 10//26 12//26
f 24//27 23//27 10//27
f 25//28 12//28 14//28
f 25//29 24//29 12//29
f 26//30 14//30 16//30
f 26//31 25//31 14//31
f 18//32 26//32 16//32
f 27//33 2//33 19//33
f 28//34 19//34 20//34
f 28//35 27//35 19//35
f 29//36 20//36 21//36
f 29//37 28//37 20//37
f 30//38 21//38 22//38
f 30//39 29//39 21//39
f 31//40 22//40 23//40
f 31//41 30//41 22//41
f 32//42 23//42 24//42
f 32//43 31//43 23//43
f 33//44 24//44 25//44
f 33//45 32//45 24//45
f 34//46 25//46 26//46
f 34//47 33//47 25//47
f 18//48 34//48 26//48
f 35//49 2//49 27//49
f 36//50 27//50 28//50
f 36//50 35//50 27//50
f 37//51 28//51 29//51
f 37//52 36//52 28//52
f 38//53 29//53 30//53
f 38//54 37//54 29//54
f 39//55 30//55 31//55
f 39//55 38//55 30//55
f 40//56 31//56 32//56
f 40//57 39//57 31//57
f 41//58 32//58 33//58
f 41//59 40//59 32//59
f 42//60 33//60 34//60
f 42//61 41//61 33//61
f 18//62 42//62 34//62
f 43//49 2//49 35//49
f 44//63 35//63 36//63
f 44//64 43//64 35//64
f 45//65 36//65 37//65
f 45//66 44//66 36//66
f 46//67 37//67 38//67
f 46//68 45//68 37//68
f 47//69 38//69 39//69
f 47//70 46//70 38//70
f 48//71 39//71 40//71
f 48//72 47//72 39//72
f 49//73 40//73 41//73
f 49//74 48//74 40//74
f 50//75 41//75 42//75
f 50//76 49//76 41//76
f 18//77 50//77 42//77
f 51//78 2//78 43//78
f 52//79 43//79 44//79
f 52//80 51//80 43//80
f 53//81 44//81 45//81
f 53//82 52//82 44//82
f 54//83 45//83 46//83
f 54//84 53//84 45//84
f 55//85 46//85 47//85
f 55//86 54//86 46//86
f 56//87 47//87 48//87
f 56//88 55//88 47//88
f 57//89 48//89 49//89
f 57//90 56//90 48//90
f 58//91 49//91 50//91
f 58//92 57//92 49//92
f 18//93 58//93 50//93
f 59//94 2//94 51//94
f 60//95 51//95 52//95
f 60//96 59//96 51//96
f 61//97 52//97 53//97
f 61//98 60//98 52//98
f 62//99 53//99 54//99
f 62//100 61//100 53//100
f 63//101 54//101 55//101
f 63//102 62//102 54//102
f 64//103 55//103 56//103
f 64//104 63//104 55//104
f 65//105 56//105 57//105
f 65//106 64//106 56//106
f 66//107 57//107 58//107
f 66//108 65//108 57//108
f 18//109 66//109 58//109
f 67//110 2//110 59//110
f 68//111 59//111 60//111
f 68//112 67//112 59//112
f 69//113 60//113 61//113
f 69//114 68//114 60//114
f 70//115 61//115 62//115
f 70//116 69//116 61//116
f 71//117 62//117 63//117
f 71//118 70//118 62//118
f 72//119 63//119 64//119
f 72//120 71//120 63//120
f 73//121 64//121 65//121
f 73//122 72//122 64//122
f 74//123 65//123 66//123
f 74//124 73//124 65//124
f 18//125 74//125 66//125
f 75//126 2//126 67//126
f 76//127 67//127 68//127
f 76//128 75//128 67//128
f 77//129 68//129 69//129
f 77//130 76//130 68//130
f 78//131 69//131 70//131
f 78//132 77//132 69//132
f 79//133 70//133 71//133
f 79//134 78//134 70//134
f 80//135 71//135 72//135
f 80//136 79//136 71//136
f 81//137 72//137 73//137
f 81//138 80//138 72//138
f 82//139 73//139 74//139
f 82//140 81//140 73//140
f 18//141 82//141 74//141
f 83//142 2//142 75//142
f 84//143 75//143 76//143
f 84//144 83//144 75//144
f 85//145 76//145 77//145
f 85//146 84//146 76//146
f 86//147 77//147 78//147
f 86//148 85//148 77//148
f 87//149 78//149 79//149
f 87//149 86//149 78//149
f 88//150 79//150 80//150
f 88//151 87//151 79//151
f 89//152 80//152 81//152
f 89//153 88//153 80//153
f 90//154 81//154 82//154
f 90//155 89//155 81//155
f 18//156 90//156 82//156
f 91//157 2//157 83//157
f 92//158 83//158 84//158
f 92//159 91//159 83//159
f 93//160 84//160 85//160
f 93//161 92//161 84//161
f 94//162 85//162 86//162
f 94//163 93//163 85//163
f 95//164 86//164 87//164
f 95//165 94//165 86//165
f 96//166 87//166 88//166
f 96//167 95//167 87//167
f 97//168 88//168 89//168
f 97//169 96//169 88//169
f 98//170 89//170 90//170
f 98//171 97//171 89//171
f 18//172 98//172 90//172
f 99//173 2//173 91//173
f 100//174 91//174 92//174
f 100//175 99//175 91//175
f 101//176 92//176 93//176
f 101//177 100//177 92//177
f 102//178 93//178 94//178
f 102//179 101//179 93//179
f 103//180 94//180 95//180
f 103//181 102//181 94//181
f 104//182 95//182 96//182
f 104//183 103//183 95//183
f 105//184 96//184 97//184
f 105//185 104//185 96//185
f 106//186 97//186 98//186
f 106//187 105//187 97//187
f 18//188 106//188 98//188
f 107//189 2//189 99//189
f 108//190 99//190 100//190
f 108//191 107//191 99//191
f 109//192 100//192 101//192
f 109//193 108//193 100//193
f 110//194 101//194 102//194
f 110//195 109//195 101//195
f 111//196 102//196 103//196
f 111//197 110//197 102//197
f 112//198 103//198 104//198
f 112//199 111//199 103//199
f 113//200 104//200 105//200
f 113//201 112//201 104//201
f 114//202 105//202 106//202
f 114//203 113//203 105//203
f 18//204 114//204 106//204
f 115//205 2//205 107//205
f 116//206 107//206 108//206
f 116//207 115//207 107//207
f 117//208 108//208 109//208
f 117//209 116//209 108//209
f 118//210 109//210 110//210
f 118//211 117//211 109//211
f 119//212 110//212 111//212
f 119//213 118//213 110//213
f 120//214 111//214 112//214
f 120//215 119//215 111//215
f 121//216 112//216 113//216
f 121//217 120//217 112//217
f 122//218 113//218 114//218
f 122//219 121//219 113//219
f 18//220 122//220 114//220
f 123//221 2//221 115//221
f 124//222 115//222 116//222
f 124//223 123//223 115//223
f 125//224 116//224 117//224
f 125//225 124//225 116//225
f 126//226 117//226 118//226
f 126//227 125//227 117//227
f 127//228 118//228 119//228
f 127//229 126//229 118//229
f 128//230 119//230 120//230
f 128//231 127//231 119//231
f 129//232 120//232 121//232
f 129//233 128//233 120//233
f 130//234 121//234 122//234
f 130//235 129//235 121//235
f 18//236 130//236 122//236
f 3//237 2//237 123//237
f 5//238 123//238 124//238
f 5//238 3//238 123//238
f 7//239 124//239 125//239
f 7//240 5//240 124//240
f 9//241 125//241 126//241
f 9//242 7//242 125//242
f 11//243 126//243 127//243
f 11//244 9//244 126//244
f 13//245 127//245 128//245
f 13//246 11//246 127//246
f 15//247 128//247 129//247
f 15//248 13//248 128//248
f 17//249 129//249 130//249
f 17//250 15//250 129//250
f 18//251 17//251 130//251
