# Blender v2.79 (sub 0) OBJ File: ''
# www.blender.org
o LegFrontRight.001
v -0.294194 -0.275605 0.007474
v -0.295964 -0.272884 0.007422
v -0.290920 -0.273597 0.009226
v -0.297342 -0.271505 0.007422
v -0.298916 -0.270362 0.007444
v -0.296542 -0.267266 0.009183
v -0.300651 -0.269475 0.007487
v -0.303786 -0.268631 0.007605
v -0.304569 -0.264583 0.009461
v -0.307030 -0.268627 0.007774
v -0.310165 -0.269462 0.007983
v -0.311895 -0.270344 0.008122
v -0.312852 -0.266270 0.009987
v -0.313469 -0.271483 0.008265
v -0.314839 -0.272857 0.008409
v -0.319169 -0.271879 0.010618
v -0.316604 -0.275575 0.008648
v -0.317604 -0.278662 0.008866
v -0.317769 -0.281901 0.009048
v -0.321826 -0.279897 0.011183
v -0.317460 -0.283819 0.009135
v -0.316856 -0.285671 0.009200
v -0.320113 -0.288184 0.011535
v -0.315973 -0.287406 0.009248
v -0.313926 -0.289932 0.009274
v -0.311299 -0.291841 0.009239
v -0.314491 -0.294515 0.011579
v -0.308269 -0.293006 0.009139
v -0.306347 -0.293315 0.009057
v -0.306464 -0.297197 0.011300
v -0.304403 -0.293315 0.008952
v -0.302482 -0.293015 0.008839
v -0.299455 -0.291858 0.008618
v -0.298181 -0.295506 0.010774
v -0.296829 -0.289954 0.008379
v -0.294794 -0.287432 0.008135
v -0.291864 -0.289902 0.010144
v -0.293912 -0.285701 0.007996
v -0.293316 -0.283853 0.007870
v -0.293012 -0.281936 0.007748
v -0.289207 -0.281880 0.009579
v -0.293186 -0.278692 0.007587
v -0.304477 -0.293410 0.007652
v -0.302564 -0.293110 0.007535
v -0.315282 -0.297789 0.001513
v -0.313256 -0.295237 0.009522
v -0.316547 -0.292841 0.009566
v -0.320665 -0.287393 0.008179
v -0.322235 -0.290836 0.001509
v -0.319365 -0.289858 0.008244
v -0.319147 -0.289710 0.009535
v -0.305795 -0.300341 0.001152
v -0.301299 -0.296993 0.007674
v -0.304047 -0.297454 0.007844
v -0.296316 -0.297815 0.000522
v -0.297490 -0.295258 0.008696
v -0.294203 -0.292871 0.008396
v -0.289051 -0.271723 -0.002018
v -0.288933 -0.271670 -0.002683
v -0.296116 -0.264488 -0.002687
v -0.296173 -0.264605 -0.002022
v -0.289407 -0.271914 -0.001222
v -0.296360 -0.264961 -0.001231
v -0.299438 -0.265657 0.005905
v -0.296938 -0.266896 0.005839
v -0.305847 -0.262405 -0.000870
v -0.307447 -0.264727 0.007592
v -0.303382 -0.264731 0.007378
v -0.299442 -0.265740 0.007222
v -0.305890 -0.261987 -0.001652
v -0.305925 -0.261848 -0.002313
v -0.296238 -0.264674 -0.003326
v -0.305960 -0.262057 -0.002957
v -0.289120 -0.271797 -0.003322
v -0.286294 -0.281480 -0.002296
v -0.286503 -0.281510 -0.002939
v -0.288907 -0.291276 -0.001639
v -0.289090 -0.291223 -0.002287
v -0.289529 -0.291010 -0.002757
v -0.287007 -0.281536 -0.003391
v -0.289559 -0.272057 -0.003765
v -0.296503 -0.265114 -0.003770
v -0.305986 -0.262753 -0.003487
v -0.296603 -0.265279 -0.003848
v -0.306147 -0.281701 -0.006009
v -0.289725 -0.272157 -0.003839
v -0.287198 -0.281540 -0.003474
v -0.289699 -0.290919 -0.002839
v -0.296555 -0.297776 -0.002118
v -0.305934 -0.300276 -0.001491
v -0.315321 -0.297750 -0.001131
v -0.296460 -0.297937 -0.002022
v -0.305930 -0.300458 -0.001391
v -0.296194 -0.298324 -0.001535
v -0.296073 -0.298441 -0.000878
v -0.289025 -0.291154 -0.000983
v -0.296125 -0.298254 -0.000231
v -0.286433 -0.281440 -0.001635
v -0.286855 -0.281401 -0.000852
v -0.289381 -0.290880 -0.000213
v -0.291529 -0.289897 0.006783
v -0.291612 -0.289749 0.008092
v -0.293059 -0.282027 0.006444
v -0.293364 -0.283936 0.006561
v -0.294833 -0.287497 0.006831
v -0.290238 -0.287436 0.006587
v -0.293960 -0.285775 0.006692
v -0.288985 -0.282032 0.006231
v -0.289381 -0.284788 0.006400
v -0.289351 -0.277884 0.007344
v -0.290612 -0.274018 0.007200
v -0.300690 -0.269531 0.006178
v -0.298968 -0.270414 0.006135
v -0.297403 -0.271553 0.006113
v -0.296029 -0.272923 0.006113
v -0.292738 -0.270531 0.005813
v -0.292790 -0.270579 0.007131
v -0.294686 -0.268535 0.005809
v -0.324791 -0.281349 0.001135
v -0.321526 -0.284745 0.008083
v -0.321935 -0.281988 0.007957
v -0.310260 -0.269518 0.006678
v -0.311982 -0.270396 0.006818
v -0.313543 -0.271531 0.006961
v -0.314913 -0.272897 0.007105
v -0.322265 -0.271866 0.000500
v -0.321439 -0.277840 0.009022
v -0.320191 -0.273975 0.008752
v -0.316273 -0.268505 0.006944
v -0.318213 -0.270492 0.007148
v -0.318021 -0.270540 0.008457
v -0.316947 -0.285741 0.007896
v -0.316069 -0.287467 0.007944
v -0.317547 -0.283901 0.007831
v -0.317856 -0.281993 0.007744
v -0.321700 -0.281897 0.009252
v -0.305834 -0.300845 0.000417
v -0.315552 -0.298228 0.000787
v -0.315673 -0.298415 0.000148
v -0.305869 -0.301054 -0.000226
v -0.315621 -0.298298 -0.000517
v -0.305903 -0.300915 -0.000887
v -0.322743 -0.291176 -0.000522
v -0.322356 -0.290962 -0.001035
v -0.315408 -0.297906 -0.001031
v -0.322861 -0.291228 0.000143
v -0.322674 -0.291106 0.000783
v -0.325500 -0.281423 -0.000244
v -0.325291 -0.281388 0.000400
v -0.325361 -0.281458 -0.000904
v -0.324909 -0.281484 -0.001409
v -0.324726 -0.281488 -0.001504
v -0.322195 -0.290876 -0.001139
v -0.315721 -0.264461 -0.001661
v -0.322887 -0.271627 -0.000900
v -0.322700 -0.271679 -0.000252
v -0.315600 -0.264574 -0.001004
v -0.315669 -0.264644 -0.002309
v -0.322769 -0.271749 -0.001557
v -0.315456 -0.265088 -0.002778
v -0.322382 -0.272014 -0.002044
v -0.315365 -0.265253 -0.002861
v -0.322222 -0.272110 -0.002135
v -0.315330 -0.264935 -0.000235
v -0.314021 -0.266870 0.006735
v -0.311525 -0.265640 0.006539
v -0.311386 -0.265722 0.007848
v -0.305982 -0.262561 -0.003409
v -0.306412 -0.293406 0.007752
v -0.308321 -0.293106 0.007835
v -0.309578 -0.296980 0.008109
v -0.309478 -0.296741 0.009405
v -0.306830 -0.297450 0.007992
v -0.301264 -0.296754 0.008974
v -0.289085 -0.281940 0.007544
v -0.274367 -0.233991 0.582875
v -0.266341 -0.236673 0.582597
v -0.260719 -0.243004 0.582640
v -0.259006 -0.251291 0.582992
v -0.261667 -0.259309 0.583558
v -0.267980 -0.264918 0.584188
v -0.276263 -0.266605 0.584714
v -0.284290 -0.263922 0.584992
v -0.289912 -0.257592 0.584949
v -0.291625 -0.249309 0.584597
v -0.288968 -0.241287 0.584032
v -0.282650 -0.235682 0.583401
vn 0.3557 0.2139 -0.9098
vn 0.3590 0.3587 -0.8617
vn 0.2312 0.3357 -0.9132
vn 0.3480 0.3029 -0.8872
vn 0.1712 0.3795 -0.9092
vn 0.0817 0.4285 -0.8998
vn 0.1209 0.4532 -0.8832
vn -0.0471 0.4089 -0.9114
vn -0.1830 0.4713 -0.8628
vn -0.2525 0.3532 -0.9008
vn -0.1452 0.4357 -0.8883
vn -0.3205 0.3311 -0.8875
vn -0.3822 0.2895 -0.8775
vn -0.3796 0.3304 -0.8642
vn -0.4120 0.1891 -0.8914
vn -0.5071 0.1040 -0.8556
vn -0.4753 -0.0254 -0.8794
vn -0.5021 0.1059 -0.8583
vn -0.5083 -0.1205 -0.8527
vn -0.4743 -0.1850 -0.8607
vn -0.5232 -0.1438 -0.8400
vn -0.4333 -0.2444 -0.8675
vn -0.4058 -0.3376 -0.8494
vn -0.3011 -0.3985 -0.8664
vn -0.4092 -0.3691 -0.8344
vn -0.2146 -0.4853 -0.8476
vn -0.1165 -0.4943 -0.8614
vn -0.2013 -0.5160 -0.8326
vn -0.0464 -0.4988 -0.8655
vn 0.0329 -0.5300 -0.8474
vn 0.1175 -0.4746 -0.8723
vn 0.0587 -0.5472 -0.8349
vn 0.2345 -0.4327 -0.8705
vn 0.3180 -0.3420 -0.8843
vn 0.3051 -0.4390 -0.8451
vn 0.3824 -0.2660 -0.8849
vn 0.4692 -0.2098 -0.8578
vn 0.4316 -0.1252 -0.8933
vn 0.4607 -0.2133 -0.8615
vn 0.4337 -0.0214 -0.9008
vn 0.4191 0.1038 -0.9020
vn 0.4870 0.0637 -0.8711
vn 0.1584 -0.9854 0.0630
vn -0.5420 -0.7513 0.3765
vn -0.8124 -0.4177 0.4068
vn -0.7549 -0.6249 0.1991
vn -0.7486 -0.5316 0.3962
vn -0.6729 -0.6727 0.3076
vn 0.1760 -0.9198 0.3509
vn 0.2644 -0.9198 0.2899
vn 0.3187 -0.8906 0.3244
vn 0.5759 -0.7530 0.3183
vn 0.6956 0.6958 0.1788
vn 0.6951 0.6956 0.1818
vn 0.6356 0.6363 0.4372
vn 0.6359 0.6364 0.4366
vn 0.4331 0.8597 0.2707
vn 0.0150 0.9635 0.2672
vn 0.2499 0.9663 0.0616
vn 0.2879 0.9407 0.1793
vn 0.2619 0.9431 0.2050
vn 0.2487 0.8600 0.4456
vn 0.2486 0.8600 0.4457
vn 0.2620 0.9471 0.1853
vn 0.2622 0.9463 0.1890
vn 0.2357 0.9201 -0.3128
vn 0.2359 0.9204 -0.3117
vn 0.6683 0.6676 -0.3281
vn 0.6694 0.6693 -0.3225
vn 0.9210 0.2359 -0.3101
vn 0.9194 0.2349 -0.3156
vn 0.9207 -0.2648 -0.2867
vn 0.9222 -0.2646 -0.2821
vn 0.6593 -0.2238 -0.7178
vn 0.6573 -0.2232 -0.7198
vn 0.6580 0.1482 -0.7383
vn 0.6563 0.1475 -0.7400
vn 0.4705 0.4697 -0.7470
vn 0.4724 0.4720 -0.7443
vn -0.0026 0.1319 -0.9913
vn 0.1326 -0.0029 -0.9912
vn 0.0834 0.0822 -0.9931
vn 0.2588 0.2582 -0.9308
vn 0.2732 0.2720 -0.9227
vn 0.3947 0.0707 -0.9161
vn 0.3734 0.0640 -0.9255
vn 0.3944 -0.1656 -0.9039
vn 0.3615 -0.1586 -0.9188
vn 0.1328 -0.1021 -0.9859
vn 0.0839 -0.1869 -0.9788
vn -0.1007 -0.2362 -0.9665
vn -0.0019 -0.2363 -0.9717
vn 0.0693 -0.4793 -0.8749
vn 0.0693 -0.4790 -0.8751
vn 0.2527 -0.3477 -0.9029
vn 0.2728 -0.3673 -0.8892
vn 0.4724 -0.5459 -0.6919
vn 0.4734 -0.5469 -0.6905
vn 0.6716 -0.6981 -0.2482
vn 0.6719 -0.6983 -0.2469
vn 0.6977 -0.6713 0.2502
vn 0.6978 -0.6713 0.2497
vn 0.9472 -0.2383 0.2146
vn 0.9474 -0.2384 0.2137
vn 0.9463 0.2624 0.1887
vn 0.9475 0.2621 0.1834
vn 0.8603 0.2493 0.4448
vn 0.8578 0.2483 0.4501
vn 0.8608 -0.1982 0.4687
vn 0.8588 -0.1970 0.4729
vn 0.6373 -0.5840 0.5027
vn 0.6995 -0.6746 0.2358
vn 0.7697 -0.6271 0.1197
vn 0.7843 -0.5339 0.3158
vn 0.9869 -0.1593 -0.0261
vn 0.0522 0.0519 0.9973
vn 0.0521 0.0541 0.9972
vn 0.0520 0.0539 0.9972
vn 0.0512 0.0531 0.9973
vn 0.0522 0.0537 0.9972
vn 0.0504 0.0541 0.9973
vn 0.8493 -0.4201 0.3198
vn 0.9242 -0.2809 0.2587
vn 0.9464 -0.2375 0.2187
vn 0.9536 -0.1200 0.2761
vn 0.9574 0.0070 0.2886
vn 0.9488 0.2621 0.1765
vn 0.9272 0.3102 0.2102
vn 0.4546 0.8891 -0.0534
vn 0.5862 0.8083 -0.0554
vn 0.5870 0.8076 -0.0570
vn 0.7048 0.7069 -0.0588
vn 0.7062 0.7057 -0.0561
vn -0.5876 0.8091 0.0051
vn -0.5872 0.8094 0.0063
vn 0.8432 0.5351 0.0528
vn 0.7772 0.5753 0.2549
vn 0.7014 0.6849 0.1974
vn 0.6944 0.6947 0.1876
vn 0.5705 0.7791 0.2599
vn 0.0523 0.0532 0.9972
vn 0.0528 0.0530 0.9972
vn 0.0526 0.0532 0.9972
vn 0.0525 0.0533 0.9972
vn 0.0525 0.0535 0.9972
vn 0.0528 0.0540 0.9971
vn 0.9509 -0.3090 -0.0166
vn 0.9511 -0.3085 -0.0151
vn 0.4536 0.8897 -0.0516
vn -0.9198 -0.1193 0.3739
vn -0.4546 0.8907 -0.0052
vn -0.5860 0.8103 0.0034
vn -0.5877 0.8091 0.0070
vn -0.7053 0.7088 0.0139
vn -0.8996 0.3118 0.3058
vn -0.6750 0.6868 0.2695
vn -0.7449 0.5772 0.3347
vn -0.8313 0.5374 0.1417
vn 0.5871 0.8075 -0.0565
vn 0.5875 0.8071 -0.0580
vn -0.7070 0.7069 0.0184
vn -0.8890 -0.4498 0.0861
vn -0.9483 -0.3064 0.0825
vn -0.9483 -0.3063 0.0826
vn -0.9849 -0.1560 0.0755
vn 0.0024 -0.9975 0.0702
vn 0.0026 -0.9976 0.0696
vn -0.9849 -0.1552 0.0767
vn 0.0531 0.0523 0.9972
vn 0.0519 0.0536 0.9972
vn 0.0521 0.0533 0.9972
vn 0.0525 0.0526 0.9972
vn 0.0528 0.0534 0.9972
vn -0.9822 0.0730 0.1730
vn -0.9220 0.0109 0.3870
vn -0.9243 0.2646 0.2751
vn -0.2358 -0.9198 0.3137
vn -0.2359 -0.9204 0.3118
vn -0.2620 -0.9468 -0.1870
vn -0.2621 -0.9470 -0.1856
vn -0.5444 -0.5448 -0.6379
vn -0.5427 -0.5434 -0.6405
vn -0.6957 -0.6959 -0.1778
vn -0.6959 -0.6960 -0.1768
vn -0.6694 -0.6693 0.3226
vn -0.6692 -0.6690 0.3234
vn -0.9198 -0.2352 0.3140
vn -0.9205 -0.2356 0.3118
vn -0.9464 -0.2624 -0.1884
vn -0.9470 -0.2622 -0.1853
vn -0.7315 -0.2225 -0.6446
vn -0.7317 -0.2225 -0.6443
vn -0.4601 -0.1580 -0.8737
vn -0.4745 -0.1619 -0.8652
vn -0.6713 0.6978 0.2498
vn -0.6729 0.6983 0.2441
vn -0.6980 0.6710 -0.2502
vn -0.6983 0.6722 -0.2459
vn -0.5462 0.4729 -0.6914
vn -0.5452 0.4715 -0.6931
vn -0.3557 0.2607 -0.8975
vn -0.3520 0.2565 -0.9002
vn -0.4612 0.0637 -0.8850
vn -0.4650 0.0648 -0.8830
vn -0.7323 0.1509 -0.6641
vn -0.7323 0.1509 -0.6640
vn -0.9472 0.2383 -0.2145
vn -0.9477 0.2388 -0.2120
vn -0.9206 0.2649 0.2870
vn -0.9213 0.2648 0.2848
vn -0.8065 0.2507 0.5355
vn -0.8094 0.2516 0.5306
vn -0.5839 0.6368 0.5036
vn -0.5861 0.6392 0.4978
vn -0.6690 0.6968 0.2587
vn -0.3997 0.8611 0.3141
vn -0.5376 0.7810 0.3178
vn 0.0521 0.0528 0.9972
vn 0.0530 0.0540 0.9971
vn 0.0526 0.0538 0.9972
vn 0.0510 0.0536 0.9973
vn 0.0521 0.0534 0.9972
vn 0.0617 0.0423 0.9972
vn -0.9483 -0.3064 0.0822
vn -0.9483 -0.3067 0.0815
vn -0.4545 0.8907 -0.0051
vn 0.0523 0.0500 0.9974
vn 0.0519 0.0540 0.9972
vn 0.0522 0.0536 0.9972
vn 0.0519 0.0542 0.9972
vn 0.0524 0.0530 0.9972
vn 0.0524 0.0497 0.9974
vn -0.2387 0.9673 0.0859
vn -0.2646 0.9416 0.2084
vn -0.2363 0.9438 0.2310
vn -0.1974 0.8591 0.4722
vn -0.1980 0.8601 0.4702
vn -0.2392 0.9486 0.2074
vn -0.2384 0.9478 0.2120
vn -0.2645 0.9223 -0.2818
vn -0.2647 0.9213 -0.2848
vn -0.2229 0.6559 -0.7212
vn -0.2230 0.6563 -0.7208
vn 0.1485 0.6562 -0.7398
vn 0.1487 0.6568 -0.7393
vn 0.0656 0.3756 -0.9244
vn 0.0707 0.3921 -0.9172
vn -0.1596 0.3700 -0.9152
vn -0.1611 0.3756 -0.9127
vn -0.1010 0.1321 -0.9861
vn -0.1865 0.0828 -0.9790
vn -0.2357 -0.0024 -0.9718
vn -0.2355 -0.1011 -0.9666
vn -0.1858 -0.1870 -0.9646
vn -0.3625 -0.3632 -0.8583
vn -0.3550 -0.3561 -0.8644
vn -0.1618 -0.4779 -0.8634
vn -0.1592 -0.4684 -0.8691
vn -0.2209 -0.7286 -0.6484
vn -0.2209 -0.7286 -0.6483
vn 0.1507 -0.7322 -0.6643
vn 0.1499 -0.7287 -0.6682
vn 0.2387 -0.9478 -0.2116
vn 0.2387 -0.9475 -0.2128
vn 0.2649 -0.9213 0.2848
vn 0.2647 -0.9207 0.2870
vn 0.2506 -0.8070 0.5347
vn 0.2506 -0.8045 0.5385
vn -0.1956 -0.8053 0.5596
vn -0.1949 -0.8040 0.5618
vn -0.5821 -0.5817 0.5682
vn -0.5821 -0.5817 0.5681
vn -0.8060 -0.1951 0.5588
vn -0.8056 -0.1950 0.5595
vn -0.9189 -0.2351 0.3169
vn -0.8932 -0.2777 0.3536
vn 0.0522 0.0533 0.9972
vn 0.0518 0.0538 0.9972
vn 0.0521 0.0523 0.9973
vn 0.0525 0.0544 0.9971
vn 0.0520 0.0534 0.9972
vn 0.0477 0.0515 0.9975
vn -0.5871 0.8095 0.0063
vn -0.5869 0.8097 0.0054
vn -0.8888 -0.4500 0.0865
vn -0.1516 -0.9855 0.0762
vn -0.1548 -0.9846 0.0817
vn 0.9508 -0.3095 -0.0142
vn 0.9509 -0.3090 -0.0164
vn 0.0512 0.0522 0.9973
vn 0.0518 0.0529 0.9973
vn 0.0531 0.0533 0.9972
vn 0.0518 0.0531 0.9972
vn 0.0531 0.0524 0.9972
vn 0.0524 0.0538 0.9972
vn -0.3574 -0.9131 0.1960
vn -0.2851 -0.8900 0.3557
vn -0.2352 -0.9191 0.3161
vn -0.1416 -0.9193 0.3672
vn 0.0195 -0.9199 0.3918
vn 0.0518 0.0537 0.9972
vn 0.0516 0.0536 0.9972
vn 0.0517 0.0536 0.9972
vn 0.0529 0.0529 0.9972
vn 0.0530 0.0506 0.9973
vn 0.0037 -0.9976 0.0694
vn 0.0017 -0.9973 0.0728
vn 0.1576 -0.9856 0.0619
vn -0.9485 -0.3060 0.0818
vn -0.9485 -0.3061 0.0819
vn 0.3739 -0.9139 0.1579
vn 0.0527 0.0531 0.9972
vn 0.0578 0.0496 0.9971
vn 0.0525 0.0534 0.9972
vn 0.0519 0.0541 0.9972
vn 0.0525 0.0530 0.9972
vn 0.5862 0.8081 -0.0578
vn 0.5873 0.8076 -0.0541
vn 0.8909 -0.4543 -0.0040
vn 0.8917 -0.4526 -0.0072
vn 0.9513 -0.3078 -0.0153
vn 0.9508 -0.3094 -0.0175
vn 0.9871 -0.1581 -0.0245
vn 0.0026 -0.9975 0.0700
vn 0.0024 -0.9976 0.0695
vn 0.9951 0.0687 0.0710
vn 0.0519 0.0522 0.9973
vn 0.0533 0.0539 0.9971
vn 0.0527 0.0534 0.9972
vn 0.0523 0.0533 0.9972
vn 0.0467 0.0523 0.9975
vn 0.3141 0.9470 -0.0671
vn 0.3142 0.9470 -0.0671
vn 0.7459 0.6619 -0.0746
vn 0.9779 0.1995 -0.0621
vn 0.9779 0.1996 -0.0622
vn 0.9481 -0.3163 -0.0331
vn 0.9479 -0.3169 -0.0330
vn 0.6639 -0.7478 0.0049
vn 0.6645 -0.7473 0.0049
vn 0.2019 -0.9785 0.0416
vn 0.2024 -0.9784 0.0415
vn -0.3141 -0.9470 0.0671
vn -0.3142 -0.9470 0.0671
vn -0.7459 -0.6619 0.0746
vn -0.9779 -0.1995 0.0621
vn -0.9779 -0.1996 0.0622
vn -0.9481 0.3163 0.0331
vn -0.9480 0.3165 0.0330
vn -0.6642 0.7475 -0.0049
vn -0.6639 0.7478 -0.0049
vn -0.2024 0.9784 -0.0415
vn -0.2019 0.9785 -0.0416
vn 0.0522 0.0531 0.9972
vn 0.0523 0.0531 0.9972
vn 0.0525 0.0532 0.9972
vn 0.0526 0.0528 0.9972
vn 0.0525 0.0531 0.9972
s off
f 1//1 2//1 3//1
f 2//2 4//2 3//2
f 5//3 6//3 4//3
f 3//4 4//4 6//4
f 5//5 7//5 6//5
f 8//6 9//6 7//6
f 6//7 7//7 9//7
f 8//8 10//8 9//8
f 10//9 11//9 9//9
f 12//10 13//10 11//10
f 9//11 11//11 13//11
f 12//12 14//12 13//12
f 15//13 16//13 14//13
f 13//14 14//14 16//14
f 15//15 17//15 16//15
f 17//16 18//16 16//16
f 19//17 20//17 18//17
f 16//18 18//18 20//18
f 19//19 21//19 20//19
f 22//20 23//20 21//20
f 20//21 21//21 23//21
f 22//22 24//22 23//22
f 24//23 25//23 23//23
f 26//24 27//24 25//24
f 23//25 25//25 27//25
f 26//26 28//26 27//26
f 29//27 30//27 28//27
f 27//28 28//28 30//28
f 29//29 31//29 30//29
f 31//30 32//30 30//30
f 33//31 34//31 32//31
f 30//32 32//32 34//32
f 33//33 35//33 34//33
f 36//34 37//34 35//34
f 34//35 35//35 37//35
f 36//36 38//36 37//36
f 38//37 39//37 37//37
f 40//38 41//38 39//38
f 37//39 39//39 41//39
f 40//40 42//40 41//40
f 1//41 3//41 42//41
f 41//42 42//42 3//42
f 31//43 43//43 44//43
f 45//44 46//44 47//44
f 48//45 49//45 50//45
f 50//46 47//46 51//46
f 50//47 49//47 47//47
f 49//48 45//48 47//48
f 52//49 53//49 54//49
f 55//50 53//50 52//50
f 53//51 55//51 56//51
f 55//52 57//52 56//52
f 58//53 59//53 60//53
f 61//54 58//54 60//54
f 62//55 58//55 61//55
f 63//56 62//56 61//56
f 63//57 64//57 65//57
f 66//58 67//58 68//58
f 64//59 68//59 69//59
f 64//60 66//60 68//60
f 66//61 64//61 63//61
f 63//62 61//62 70//62
f 66//63 63//63 70//63
f 60//64 71//64 70//64
f 61//65 60//65 70//65
f 71//66 60//66 72//66
f 73//67 71//67 72//67
f 59//68 74//68 72//68
f 60//69 59//69 72//69
f 75//70 76//70 74//70
f 59//71 75//71 74//71
f 76//72 75//72 77//72
f 78//73 76//73 77//73
f 76//74 78//74 79//74
f 80//75 76//75 79//75
f 81//76 74//76 76//76
f 80//77 81//77 76//77
f 82//78 72//78 74//78
f 81//79 82//79 74//79
f 83//80 84//80 85//80
f 85//81 86//81 87//81
f 85//82 84//82 86//82
f 82//83 81//83 86//83
f 84//84 82//84 86//84
f 80//85 87//85 86//85
f 81//86 80//86 86//86
f 87//87 80//87 79//87
f 88//88 87//88 79//88
f 88//89 85//89 87//89
f 85//90 88//90 89//90
f 85//91 90//91 91//91
f 85//92 89//92 90//92
f 89//93 92//93 93//93
f 90//94 89//94 93//94
f 89//95 88//95 79//95
f 92//96 89//96 79//96
f 78//97 94//97 92//97
f 79//98 78//98 92//98
f 77//99 95//99 94//99
f 78//100 77//100 94//100
f 95//101 77//101 96//101
f 97//102 95//102 96//102
f 96//103 77//103 75//103
f 98//104 96//104 75//104
f 59//105 58//105 98//105
f 75//106 59//106 98//106
f 98//107 58//107 62//107
f 99//108 98//108 62//108
f 100//109 96//109 98//109
f 99//110 100//110 98//110
f 55//111 97//111 96//111
f 100//111 55//111 96//111
f 100//112 57//112 55//112
f 57//113 101//113 102//113
f 57//114 100//114 101//114
f 103//115 39//115 104//115
f 105//116 101//116 106//116
f 107//117 105//117 106//117
f 104//118 107//118 106//118
f 103//119 104//119 106//119
f 108//120 103//120 106//120
f 109//121 108//121 106//121
f 101//122 100//122 106//122
f 100//123 109//123 106//123
f 100//124 99//124 109//124
f 99//125 108//125 109//125
f 108//126 99//126 110//126
f 99//127 62//127 110//127
f 62//128 111//128 110//128
f 112//129 5//129 113//129
f 113//130 5//130 4//130
f 114//131 113//131 4//131
f 4//132 115//132 114//132
f 115//133 4//133 2//133
f 116//134 115//134 2//134
f 117//135 116//135 2//135
f 111//136 116//136 117//136
f 111//137 62//137 116//137
f 62//138 118//138 116//138
f 118//139 62//139 63//139
f 118//140 63//140 65//140
f 115//141 116//141 118//141
f 114//142 115//142 118//142
f 113//143 114//143 118//143
f 112//144 113//144 118//144
f 64//145 112//145 118//145
f 65//146 64//146 118//146
f 64//147 69//147 7//147
f 112//148 64//148 7//148
f 7//149 5//149 112//149
f 119//150 120//150 121//150
f 12//151 122//151 123//151
f 124//152 14//152 12//152
f 123//153 124//153 12//153
f 125//154 14//154 124//154
f 126//155 127//155 128//155
f 129//156 126//156 130//156
f 130//157 126//157 128//157
f 130//158 128//158 131//158
f 130//159 131//159 15//159
f 125//160 130//160 15//160
f 15//161 14//161 125//161
f 22//162 132//162 133//162
f 22//163 21//163 134//163
f 132//164 22//164 134//164
f 134//165 21//165 135//165
f 121//166 135//166 19//166
f 136//167 121//167 19//167
f 135//168 21//168 19//168
f 15//169 131//169 128//169
f 136//170 19//170 18//170
f 127//171 136//171 18//171
f 127//171 18//171 17//171
f 128//172 127//172 17//172
f 128//173 17//173 15//173
f 127//174 121//174 136//174
f 127//175 119//175 121//175
f 119//176 127//176 126//176
f 137//177 138//177 139//177
f 140//178 137//178 139//178
f 140//179 139//179 141//179
f 142//180 140//180 141//180
f 141//181 143//181 144//181
f 145//182 141//182 144//182
f 139//183 146//183 143//183
f 141//184 139//184 143//184
f 146//185 139//185 138//185
f 147//186 146//186 138//186
f 148//187 146//187 147//187
f 149//188 148//188 147//188
f 150//189 143//189 146//189
f 148//190 150//190 146//190
f 151//191 144//191 143//191
f 150//192 151//192 143//192
f 151//193 152//193 153//193
f 144//194 151//194 153//194
f 154//195 155//195 156//195
f 157//196 154//196 156//196
f 158//197 159//197 155//197
f 154//198 158//198 155//198
f 160//199 161//199 159//199
f 158//200 160//200 159//200
f 162//201 163//201 161//201
f 160//202 162//202 161//202
f 152//203 151//203 161//203
f 163//204 152//204 161//204
f 150//205 159//205 161//205
f 151//206 150//206 161//206
f 148//207 155//207 159//207
f 150//208 148//208 159//208
f 149//209 156//209 155//209
f 148//210 149//210 155//210
f 149//211 119//211 126//211
f 156//212 149//212 126//212
f 164//213 157//213 156//213
f 126//214 164//214 156//214
f 126//215 129//215 164//215
f 164//216 165//216 166//216
f 164//217 129//217 165//217
f 122//218 166//218 165//218
f 123//219 122//219 165//219
f 124//220 123//220 165//220
f 125//221 124//221 165//221
f 130//222 125//222 165//222
f 129//223 130//223 165//223
f 166//224 122//224 11//224
f 167//225 166//225 11//225
f 122//226 12//226 11//226
f 68//227 67//227 167//227
f 8//228 7//228 69//228
f 10//229 8//229 69//229
f 11//230 10//230 69//230
f 167//231 11//231 69//231
f 68//232 167//232 69//232
f 67//233 166//233 167//233
f 67//234 66//234 166//234
f 66//235 164//235 166//235
f 70//236 157//236 164//236
f 66//237 70//237 164//237
f 71//238 154//238 157//238
f 70//239 71//239 157//239
f 73//240 158//240 154//240
f 71//241 73//241 154//241
f 168//242 160//242 158//242
f 73//243 168//243 158//243
f 73//244 72//244 82//244
f 168//245 73//245 82//245
f 84//246 83//246 168//246
f 82//247 84//247 168//247
f 162//248 160//248 168//248
f 83//249 162//249 168//249
f 83//250 85//250 162//250
f 85//251 163//251 162//251
f 85//252 152//252 163//252
f 85//253 153//253 152//253
f 85//254 91//254 153//254
f 145//255 144//255 153//255
f 91//256 145//256 153//256
f 91//257 90//257 93//257
f 145//258 91//258 93//258
f 142//259 141//259 145//259
f 93//260 142//260 145//260
f 93//261 92//261 94//261
f 142//262 93//262 94//262
f 95//263 140//263 142//263
f 94//264 95//264 142//264
f 97//265 137//265 140//265
f 95//266 97//266 140//266
f 97//267 55//267 52//267
f 137//268 97//268 52//268
f 45//269 138//269 137//269
f 52//270 45//270 137//270
f 49//271 147//271 138//271
f 45//272 49//272 138//272
f 119//273 149//273 147//273
f 49//274 119//274 147//274
f 49//275 120//275 119//275
f 120//276 49//276 48//276
f 135//277 121//277 120//277
f 134//278 135//278 120//278
f 132//279 134//279 120//279
f 133//280 132//280 120//280
f 50//281 133//281 120//281
f 48//282 50//282 120//282
f 50//283 51//283 24//283
f 133//284 50//284 24//284
f 24//285 22//285 133//285
f 169//286 29//286 170//286
f 170//287 29//287 28//287
f 171//288 170//288 28//288
f 172//289 171//289 28//289
f 51//290 47//290 46//290
f 24//291 51//291 46//291
f 25//292 24//292 46//292
f 26//293 25//293 46//293
f 28//294 26//294 46//294
f 172//295 28//295 46//295
f 46//296 171//296 172//296
f 46//297 45//297 171//297
f 45//298 52//298 171//298
f 171//299 52//299 173//299
f 173//300 52//300 54//300
f 170//301 171//301 173//301
f 169//302 170//302 173//302
f 43//303 169//303 173//303
f 44//304 43//304 173//304
f 53//142 44//142 173//142
f 54//305 53//305 173//305
f 31//306 29//306 169//306
f 43//307 31//307 169//307
f 32//308 31//308 44//308
f 53//309 174//309 32//309
f 44//310 53//310 32//310
f 53//311 56//311 174//311
f 33//312 32//312 174//312
f 35//222 33//222 174//222
f 36//313 35//313 174//313
f 102//314 36//314 174//314
f 57//315 102//315 174//315
f 56//316 57//316 174//316
f 101//317 105//317 36//317
f 102//318 101//318 36//318
f 105//319 38//319 36//319
f 38//320 105//320 107//320
f 104//321 39//321 38//321
f 107//322 104//322 38//322
f 40//323 39//323 103//323
f 108//324 175//324 40//324
f 103//325 108//325 40//325
f 108//326 110//326 175//326
f 42//327 40//327 175//327
f 1//328 42//328 175//328
f 2//141 1//141 175//141
f 117//329 2//329 175//329
f 111//330 117//330 175//330
f 110//331 111//331 175//331
f 176//332 177//332 6//332
f 9//333 176//333 6//333
f 3//334 6//334 177//334
f 178//334 3//334 177//334
f 178//335 179//335 41//335
f 3//336 178//336 41//336
f 37//337 41//337 179//337
f 180//338 37//338 179//338
f 181//339 34//339 37//339
f 180//340 181//340 37//340
f 34//341 181//341 182//341
f 30//342 34//342 182//342
f 27//343 30//343 182//343
f 183//344 27//344 182//344
f 183//345 184//345 23//345
f 27//345 183//345 23//345
f 185//346 20//346 23//346
f 184//347 185//347 23//347
f 20//348 185//348 186//348
f 16//349 20//349 186//349
f 187//350 13//350 16//350
f 186//351 187//351 16//351
f 187//352 176//352 9//352
f 13//353 187//353 9//353
f 178//141 177//141 176//141
f 179//141 178//141 176//141
f 180//354 179//354 176//354
f 181//355 180//355 176//355
f 182//356 181//356 176//356
f 183//141 182//141 176//141
f 184//141 183//141 176//141
f 185//141 184//141 176//141
f 186//357 185//357 176//357
f 187//358 186//358 176//358
