# Blender v2.79 (sub 0) OBJ File: ''
# www.blender.org
o LegFrontLeft.001
v 0.295964 -0.272884 0.007422
v 0.294194 -0.275605 0.007474
v 0.290920 -0.273597 0.009226
v 0.297342 -0.271505 0.007422
v 0.296542 -0.267266 0.009183
v 0.298916 -0.270362 0.007444
v 0.300651 -0.269475 0.007487
v 0.304568 -0.264583 0.009461
v 0.303786 -0.268631 0.007605
v 0.307029 -0.268627 0.007774
v 0.310164 -0.269462 0.007983
v 0.312851 -0.266270 0.009987
v 0.311895 -0.270344 0.008122
v 0.313469 -0.271483 0.008266
v 0.319169 -0.271879 0.010618
v 0.314838 -0.272857 0.008409
v 0.316603 -0.275575 0.008648
v 0.317604 -0.278662 0.008866
v 0.321825 -0.279897 0.011183
v 0.317769 -0.281901 0.009048
v 0.317460 -0.283819 0.009135
v 0.320112 -0.288184 0.011535
v 0.316856 -0.285671 0.009200
v 0.315973 -0.287406 0.009248
v 0.313925 -0.289932 0.009274
v 0.314490 -0.294515 0.011579
v 0.311299 -0.291841 0.009239
v 0.308268 -0.293006 0.009139
v 0.306464 -0.297197 0.011300
v 0.306347 -0.293315 0.009057
v 0.304403 -0.293315 0.008953
v 0.302481 -0.293015 0.008839
v 0.298181 -0.295506 0.010774
v 0.299455 -0.291858 0.008618
v 0.296829 -0.289954 0.008379
v 0.291863 -0.289902 0.010144
v 0.294794 -0.287432 0.008135
v 0.293911 -0.285701 0.007996
v 0.293316 -0.283853 0.007870
v 0.289207 -0.281880 0.009579
v 0.293011 -0.281936 0.007748
v 0.293185 -0.278692 0.007587
v 0.304477 -0.293410 0.007652
v 0.302564 -0.293110 0.007535
v 0.313256 -0.295237 0.009522
v 0.315282 -0.297789 0.001513
v 0.316547 -0.292841 0.009566
v 0.322234 -0.290836 0.001509
v 0.320665 -0.287393 0.008179
v 0.319364 -0.289858 0.008244
v 0.319147 -0.289710 0.009535
v 0.301299 -0.296993 0.007674
v 0.305794 -0.300341 0.001152
v 0.304046 -0.297454 0.007844
v 0.296316 -0.297815 0.000522
v 0.297490 -0.295258 0.008696
v 0.294203 -0.292871 0.008396
v 0.288933 -0.271670 -0.002683
v 0.289050 -0.271723 -0.002017
v 0.296116 -0.264488 -0.002687
v 0.296172 -0.264605 -0.002022
v 0.289407 -0.271914 -0.001222
v 0.296359 -0.264961 -0.001231
v 0.299438 -0.265657 0.005905
v 0.296938 -0.266896 0.005839
v 0.307447 -0.264727 0.007592
v 0.305847 -0.262405 -0.000870
v 0.303381 -0.264731 0.007379
v 0.299442 -0.265740 0.007222
v 0.305890 -0.261987 -0.001652
v 0.305925 -0.261848 -0.002313
v 0.296237 -0.264674 -0.003326
v 0.305960 -0.262057 -0.002957
v 0.289120 -0.271797 -0.003322
v 0.286502 -0.281510 -0.002939
v 0.286294 -0.281480 -0.002296
v 0.288907 -0.291276 -0.001639
v 0.289089 -0.291223 -0.002287
v 0.289529 -0.291010 -0.002757
v 0.287007 -0.281536 -0.003391
v 0.289559 -0.272057 -0.003765
v 0.296503 -0.265114 -0.003770
v 0.296603 -0.265279 -0.003848
v 0.305986 -0.262753 -0.003487
v 0.306147 -0.281701 -0.006009
v 0.289724 -0.272157 -0.003839
v 0.287198 -0.281540 -0.003474
v 0.289698 -0.290919 -0.002839
v 0.296555 -0.297776 -0.002117
v 0.305934 -0.300276 -0.001491
v 0.315321 -0.297750 -0.001130
v 0.296459 -0.297937 -0.002022
v 0.305929 -0.300458 -0.001391
v 0.296194 -0.298324 -0.001535
v 0.296072 -0.298441 -0.000878
v 0.289024 -0.291154 -0.000983
v 0.296124 -0.298254 -0.000230
v 0.286433 -0.281440 -0.001635
v 0.286854 -0.281401 -0.000852
v 0.289381 -0.290880 -0.000213
v 0.291529 -0.289897 0.006783
v 0.291611 -0.289749 0.008092
v 0.293059 -0.282027 0.006444
v 0.293363 -0.283936 0.006561
v 0.294833 -0.287497 0.006831
v 0.290237 -0.287436 0.006587
v 0.293959 -0.285775 0.006692
v 0.288985 -0.282032 0.006231
v 0.289381 -0.284788 0.006400
v 0.289350 -0.277884 0.007344
v 0.290611 -0.274018 0.007200
v 0.300690 -0.269531 0.006179
v 0.298968 -0.270414 0.006135
v 0.297403 -0.271553 0.006113
v 0.296029 -0.272923 0.006113
v 0.292737 -0.270531 0.005813
v 0.292790 -0.270579 0.007131
v 0.294685 -0.268535 0.005809
v 0.321525 -0.284745 0.008083
v 0.324791 -0.281349 0.001135
v 0.321934 -0.281988 0.007957
v 0.310260 -0.269518 0.006679
v 0.311982 -0.270396 0.006818
v 0.313542 -0.271531 0.006961
v 0.314912 -0.272897 0.007105
v 0.321438 -0.277840 0.009022
v 0.322265 -0.271866 0.000500
v 0.320191 -0.273975 0.008752
v 0.316273 -0.268505 0.006944
v 0.318212 -0.270492 0.007148
v 0.318021 -0.270540 0.008457
v 0.316947 -0.285741 0.007896
v 0.316069 -0.287467 0.007944
v 0.317547 -0.283901 0.007831
v 0.317856 -0.281993 0.007744
v 0.321699 -0.281897 0.009253
v 0.315551 -0.298228 0.000787
v 0.305834 -0.300845 0.000417
v 0.315673 -0.298415 0.000148
v 0.305868 -0.301054 -0.000226
v 0.315621 -0.298298 -0.000517
v 0.305903 -0.300915 -0.000887
v 0.322743 -0.291176 -0.000522
v 0.322356 -0.290962 -0.001035
v 0.315408 -0.297906 -0.001030
v 0.322860 -0.291228 0.000143
v 0.322673 -0.291106 0.000783
v 0.325499 -0.281423 -0.000243
v 0.325291 -0.281388 0.000400
v 0.325360 -0.281458 -0.000904
v 0.324908 -0.281484 -0.001409
v 0.324726 -0.281488 -0.001504
v 0.322195 -0.290876 -0.001139
v 0.322886 -0.271627 -0.000900
v 0.315721 -0.264461 -0.001661
v 0.322699 -0.271679 -0.000252
v 0.315599 -0.264574 -0.001004
v 0.322769 -0.271749 -0.001557
v 0.315669 -0.264644 -0.002309
v 0.322382 -0.272014 -0.002044
v 0.315456 -0.265088 -0.002778
v 0.322221 -0.272110 -0.002135
v 0.315364 -0.265253 -0.002861
v 0.315330 -0.264935 -0.000235
v 0.314021 -0.266870 0.006735
v 0.311525 -0.265640 0.006539
v 0.311386 -0.265722 0.007848
v 0.305981 -0.262561 -0.003409
v 0.306412 -0.293406 0.007752
v 0.308321 -0.293106 0.007835
v 0.309577 -0.296980 0.008109
v 0.309477 -0.296741 0.009405
v 0.306829 -0.297450 0.007992
v 0.301264 -0.296754 0.008974
v 0.289085 -0.281940 0.007544
v 0.266341 -0.236673 0.582597
v 0.274367 -0.233991 0.582875
v 0.260719 -0.243004 0.582640
v 0.259006 -0.251291 0.582992
v 0.261667 -0.259309 0.583558
v 0.267980 -0.264918 0.584188
v 0.276263 -0.266605 0.584714
v 0.284290 -0.263922 0.584992
v 0.289912 -0.257592 0.584949
v 0.291625 -0.249309 0.584597
v 0.288968 -0.241287 0.584032
v 0.282650 -0.235682 0.583401
vn -0.3556 0.2140 -0.9098
vn -0.3589 0.3586 -0.8617
vn -0.2311 0.3358 -0.9132
vn -0.3479 0.3029 -0.8872
vn -0.1714 0.3793 -0.9093
vn -0.0814 0.4283 -0.8999
vn -0.1209 0.4532 -0.8832
vn 0.0470 0.4088 -0.9114
vn 0.1830 0.4713 -0.8628
vn 0.2523 0.3532 -0.9009
vn 0.1451 0.4356 -0.8884
vn 0.3207 0.3310 -0.8875
vn 0.3822 0.2895 -0.8776
vn 0.3795 0.3303 -0.8642
vn 0.4119 0.1891 -0.8914
vn 0.5071 0.1040 -0.8556
vn 0.4754 -0.0252 -0.8794
vn 0.5021 0.1058 -0.8583
vn 0.5084 -0.1206 -0.8527
vn 0.4745 -0.1849 -0.8606
vn 0.5233 -0.1439 -0.8399
vn 0.4333 -0.2445 -0.8674
vn 0.4058 -0.3377 -0.8493
vn 0.3013 -0.3985 -0.8663
vn 0.4092 -0.3692 -0.8344
vn 0.2146 -0.4855 -0.8475
vn 0.1163 -0.4943 -0.8615
vn 0.2014 -0.5160 -0.8326
vn 0.0463 -0.4987 -0.8655
vn -0.0324 -0.5296 -0.8476
vn -0.1177 -0.4745 -0.8724
vn -0.0587 -0.5472 -0.8349
vn -0.2344 -0.4326 -0.8706
vn -0.3179 -0.3420 -0.8843
vn -0.3050 -0.4389 -0.8452
vn -0.3823 -0.2661 -0.8849
vn -0.4695 -0.2097 -0.8577
vn -0.4318 -0.1255 -0.8932
vn -0.4607 -0.2132 -0.8616
vn -0.4339 -0.0214 -0.9007
vn -0.4190 0.1039 -0.9020
vn -0.4871 0.0636 -0.8710
vn -0.1584 -0.9854 0.0629
vn 0.5420 -0.7513 0.3765
vn 0.8123 -0.4180 0.4068
vn 0.7550 -0.6250 0.1986
vn 0.7487 -0.5314 0.3962
vn 0.6730 -0.6727 0.3076
vn -0.1761 -0.9197 0.3508
vn -0.2644 -0.9198 0.2899
vn -0.3187 -0.8906 0.3244
vn -0.5759 -0.7530 0.3183
vn -0.6958 0.6960 0.1776
vn -0.6952 0.6957 0.1809
vn -0.6353 0.6360 0.4381
vn -0.6359 0.6363 0.4368
vn -0.4332 0.8597 0.2708
vn -0.0149 0.9635 0.2672
vn -0.2500 0.9663 0.0616
vn -0.2879 0.9407 0.1792
vn -0.2619 0.9431 0.2050
vn -0.2486 0.8599 0.4458
vn -0.2486 0.8598 0.4460
vn -0.2620 0.9471 0.1853
vn -0.2621 0.9464 0.1886
vn -0.2357 0.9202 -0.3125
vn -0.2359 0.9205 -0.3116
vn -0.6683 0.6676 -0.3282
vn -0.6696 0.6695 -0.3217
vn -0.9213 0.2361 -0.3090
vn -0.9193 0.2349 -0.3157
vn -0.9210 -0.2648 -0.2856
vn -0.9226 -0.2646 -0.2808
vn -0.6589 -0.2237 -0.7182
vn -0.6565 -0.2230 -0.7206
vn -0.6576 0.1481 -0.7386
vn -0.6554 0.1472 -0.7408
vn -0.4704 0.4696 -0.7472
vn -0.4721 0.4717 -0.7447
vn 0.0026 0.1320 -0.9913
vn -0.1326 -0.0029 -0.9912
vn -0.0835 0.0822 -0.9931
vn -0.2600 0.2594 -0.9301
vn -0.2725 0.2713 -0.9231
vn -0.3963 0.0711 -0.9154
vn -0.3755 0.0646 -0.9246
vn -0.3959 -0.1659 -0.9032
vn -0.3607 -0.1584 -0.9192
vn -0.1328 -0.1021 -0.9859
vn -0.0839 -0.1869 -0.9788
vn 0.1007 -0.2362 -0.9665
vn 0.0019 -0.2364 -0.9717
vn -0.0684 -0.4765 -0.8765
vn -0.0692 -0.4789 -0.8751
vn -0.2517 -0.3468 -0.9035
vn -0.2701 -0.3648 -0.8911
vn -0.4728 -0.5463 -0.6914
vn -0.4732 -0.5467 -0.6908
vn -0.6715 -0.6979 -0.2491
vn -0.6721 -0.6985 -0.2458
vn -0.6979 -0.6714 0.2494
vn -0.6978 -0.6713 0.2497
vn -0.9474 -0.2384 0.2133
vn -0.9474 -0.2383 0.2136
vn -0.9467 0.2623 0.1872
vn -0.9475 0.2621 0.1834
vn -0.8597 0.2491 0.4459
vn -0.8582 0.2485 0.4491
vn -0.8605 -0.1980 0.4694
vn -0.8593 -0.1973 0.4719
vn -0.6371 -0.5837 0.5034
vn -0.6372 -0.5838 0.5032
vn -0.6995 -0.6746 0.2358
vn -0.7696 -0.6273 0.1191
vn -0.7843 -0.5339 0.3158
vn -0.9870 -0.1587 -0.0254
vn -0.0523 0.0520 0.9973
vn -0.0522 0.0540 0.9972
vn -0.0523 0.0541 0.9972
vn -0.0510 0.0530 0.9973
vn -0.0522 0.0536 0.9972
vn -0.0516 0.0537 0.9972
vn -0.8492 -0.4203 0.3198
vn -0.9244 -0.2806 0.2585
vn -0.9464 -0.2375 0.2188
vn -0.9536 -0.1201 0.2762
vn -0.9574 0.0068 0.2887
vn -0.9488 0.2622 0.1764
vn -0.9272 0.3102 0.2100
vn -0.4545 0.8891 -0.0533
vn -0.5862 0.8083 -0.0554
vn -0.5870 0.8076 -0.0570
vn -0.7049 0.7069 -0.0588
vn -0.7062 0.7058 -0.0561
vn 0.5875 0.8092 0.0051
vn 0.5872 0.8094 0.0059
vn -0.8430 0.5352 0.0534
vn -0.7773 0.5753 0.2548
vn -0.7014 0.6849 0.1973
vn -0.6945 0.6946 0.1875
vn -0.5703 0.7792 0.2600
vn -0.0523 0.0531 0.9972
vn -0.0528 0.0529 0.9972
vn -0.0526 0.0530 0.9972
vn -0.0527 0.0530 0.9972
vn -0.0526 0.0535 0.9972
vn -0.0542 0.0563 0.9969
vn -0.9509 -0.3090 -0.0166
vn -0.9511 -0.3084 -0.0152
vn -0.4536 0.8897 -0.0516
vn 0.9197 -0.1193 0.3740
vn 0.4546 0.8907 -0.0052
vn 0.5861 0.8103 0.0030
vn 0.5879 0.8089 0.0070
vn 0.7053 0.7088 0.0134
vn 0.8997 0.3116 0.3058
vn 0.6752 0.6866 0.2697
vn 0.7448 0.5773 0.3347
vn 0.8315 0.5374 0.1411
vn -0.5870 0.8076 -0.0561
vn -0.5875 0.8071 -0.0581
vn 0.7073 0.7067 0.0185
vn 0.8890 -0.4498 0.0862
vn 0.9483 -0.3064 0.0825
vn 0.9483 -0.3063 0.0826
vn 0.9849 -0.1560 0.0755
vn -0.0024 -0.9975 0.0702
vn -0.0026 -0.9976 0.0696
vn 0.9849 -0.1552 0.0767
vn -0.0530 0.0522 0.9972
vn -0.0521 0.0534 0.9972
vn -0.0520 0.0534 0.9972
vn -0.0521 0.0535 0.9972
vn -0.0524 0.0527 0.9972
vn -0.0527 0.0534 0.9972
vn 0.9822 0.0730 0.1730
vn 0.9220 0.0108 0.3871
vn 0.9243 0.2646 0.2752
vn 0.2357 -0.9197 0.3141
vn 0.2358 -0.9204 0.3117
vn 0.2620 -0.9468 -0.1871
vn 0.2621 -0.9471 -0.1852
vn 0.5443 -0.5448 -0.6379
vn 0.5426 -0.5434 -0.6405
vn 0.6959 -0.6960 -0.1769
vn 0.6692 -0.6690 0.3236
vn 0.6693 -0.6691 0.3231
vn 0.9199 -0.2353 0.3137
vn 0.9208 -0.2358 0.3106
vn 0.9467 -0.2623 -0.1871
vn 0.9471 -0.2622 -0.1853
vn 0.7315 -0.2224 -0.6446
vn 0.7321 -0.2225 -0.6438
vn 0.4596 -0.1579 -0.8740
vn 0.4732 -0.1616 -0.8660
vn 0.6713 0.6978 0.2498
vn 0.6727 0.6982 0.2449
vn 0.6981 0.6713 -0.2490
vn 0.6984 0.6722 -0.2459
vn 0.5462 0.4729 -0.6914
vn 0.5450 0.4712 -0.6936
vn 0.3538 0.2587 -0.8988
vn 0.3520 0.2566 -0.9001
vn 0.4607 0.0635 -0.8853
vn 0.4619 0.0639 -0.8846
vn 0.7324 0.1508 -0.6640
vn 0.7327 0.1509 -0.6636
vn 0.9475 0.2385 -0.2130
vn 0.9477 0.2387 -0.2119
vn 0.9206 0.2650 0.2869
vn 0.9216 0.2649 0.2837
vn 0.8066 0.2507 0.5354
vn 0.8098 0.2518 0.5300
vn 0.5840 0.6369 0.5033
vn 0.5863 0.6394 0.4974
vn 0.6690 0.6968 0.2586
vn 0.3997 0.8611 0.3141
vn 0.5376 0.7810 0.3178
vn -0.0522 0.0530 0.9972
vn -0.0529 0.0541 0.9971
vn -0.0523 0.0537 0.9972
vn -0.0513 0.0536 0.9972
vn -0.0520 0.0535 0.9972
vn -0.0625 0.0414 0.9972
vn 0.9483 -0.3063 0.0830
vn 0.9483 -0.3069 0.0815
vn 0.4543 0.8908 -0.0048
vn -0.0523 0.0496 0.9974
vn -0.0520 0.0539 0.9972
vn -0.0523 0.0532 0.9972
vn -0.0523 0.0492 0.9974
vn 0.2387 0.9673 0.0859
vn 0.2646 0.9416 0.2084
vn 0.2363 0.9438 0.2310
vn 0.1974 0.8591 0.4723
vn 0.1979 0.8599 0.4705
vn 0.2392 0.9485 0.2076
vn 0.2384 0.9478 0.2120
vn 0.2646 0.9223 -0.2817
vn 0.2647 0.9214 -0.2846
vn 0.2228 0.6554 -0.7217
vn 0.2229 0.6560 -0.7211
vn -0.1486 0.6565 -0.7396
vn -0.1488 0.6568 -0.7393
vn -0.0651 0.3742 -0.9251
vn -0.0704 0.3912 -0.9176
vn 0.1599 0.3710 -0.9148
vn 0.1609 0.3751 -0.9129
vn 0.1010 0.1321 -0.9861
vn 0.1865 0.0829 -0.9790
vn 0.2357 -0.0024 -0.9718
vn 0.2355 -0.1011 -0.9666
vn 0.1858 -0.1871 -0.9646
vn 0.3615 -0.3624 -0.8591
vn 0.3550 -0.3561 -0.8644
vn 0.1620 -0.4787 -0.8629
vn 0.1592 -0.4684 -0.8691
vn 0.2209 -0.7286 -0.6484
vn 0.2207 -0.7281 -0.6489
vn -0.1507 -0.7324 -0.6640
vn -0.1498 -0.7286 -0.6684
vn -0.2387 -0.9477 -0.2120
vn -0.2386 -0.9475 -0.2130
vn -0.2648 -0.9211 0.2854
vn -0.2647 -0.9207 0.2869
vn -0.2506 -0.8068 0.5350
vn -0.2506 -0.8047 0.5382
vn 0.1956 -0.8054 0.5595
vn 0.1949 -0.8039 0.5619
vn 0.5820 -0.5817 0.5683
vn 0.5823 -0.5819 0.5677
vn 0.8061 -0.1951 0.5587
vn 0.8055 -0.1950 0.5596
vn 0.9188 -0.2352 0.3170
vn 0.8934 -0.2773 0.3533
vn -0.0522 0.0533 0.9972
vn -0.0517 0.0539 0.9972
vn -0.0521 0.0522 0.9973
vn -0.0526 0.0545 0.9971
vn -0.0486 0.0519 0.9975
vn 0.5871 0.8095 0.0059
vn 0.5870 0.8096 0.0053
vn 0.8888 -0.4500 0.0865
vn 0.1516 -0.9855 0.0762
vn 0.1549 -0.9845 0.0818
vn -0.9508 -0.3093 -0.0149
vn -0.9509 -0.3090 -0.0164
vn -0.0519 0.0530 0.9972
vn -0.0518 0.0529 0.9973
vn -0.0531 0.0533 0.9972
vn -0.0519 0.0532 0.9972
vn -0.0531 0.0525 0.9972
vn -0.0524 0.0541 0.9972
vn 0.3574 -0.9132 0.1960
vn 0.2851 -0.8901 0.3557
vn 0.2352 -0.9191 0.3161
vn 0.1416 -0.9193 0.3671
vn -0.0195 -0.9199 0.3918
vn -0.0517 0.0538 0.9972
vn -0.0518 0.0538 0.9972
vn -0.0516 0.0539 0.9972
vn -0.0526 0.0533 0.9972
vn -0.0530 0.0530 0.9972
vn -0.0531 0.0513 0.9973
vn -0.0037 -0.9976 0.0694
vn -0.0017 -0.9973 0.0727
vn -0.1575 -0.9856 0.0618
vn 0.9486 -0.3058 0.0818
vn 0.9484 -0.3060 0.0827
vn -0.3739 -0.9139 0.1579
vn -0.0525 0.0531 0.9972
vn -0.0522 0.0532 0.9972
vn -0.0596 0.0484 0.9970
vn -0.0524 0.0534 0.9972
vn -0.0520 0.0540 0.9972
vn -0.5862 0.8081 -0.0578
vn -0.5872 0.8076 -0.0545
vn -0.8907 -0.4546 -0.0040
vn -0.8915 -0.4530 -0.0071
vn -0.9515 -0.3074 -0.0147
vn -0.9508 -0.3094 -0.0174
vn -0.9870 -0.1586 -0.0253
vn -0.0026 -0.9975 0.0701
vn -0.0024 -0.9976 0.0695
vn -0.9951 0.0685 0.0710
vn -0.0519 0.0523 0.9973
vn -0.0531 0.0539 0.9971
vn -0.0515 0.0526 0.9973
vn -0.0526 0.0534 0.9972
vn -0.0528 0.0535 0.9972
vn -0.0461 0.0522 0.9976
vn -0.3141 0.9470 -0.0671
vn -0.3142 0.9470 -0.0671
vn -0.7459 0.6619 -0.0746
vn -0.9779 0.1995 -0.0621
vn -0.9779 0.1996 -0.0622
vn -0.9481 -0.3162 -0.0331
vn -0.9479 -0.3169 -0.0330
vn -0.6638 -0.7479 0.0049
vn -0.6645 -0.7473 0.0049
vn -0.2019 -0.9785 0.0416
vn -0.2024 -0.9784 0.0415
vn 0.3141 -0.9470 0.0671
vn 0.3142 -0.9470 0.0671
vn 0.7459 -0.6619 0.0746
vn 0.9779 -0.1995 0.0621
vn 0.9779 -0.1996 0.0622
vn 0.9481 0.3163 0.0331
vn 0.9481 0.3164 0.0331
vn 0.6642 0.7476 -0.0049
vn 0.6639 0.7478 -0.0049
vn 0.2024 0.9784 -0.0415
vn 0.2019 0.9785 -0.0416
vn -0.0522 0.0531 0.9972
vn -0.0525 0.0532 0.9972
vn -0.0526 0.0528 0.9972
s off
f 1//1 2//1 3//1
f 4//2 1//2 3//2
f 5//3 6//3 4//3
f 4//4 3//4 5//4
f 7//5 6//5 5//5
f 8//6 9//6 7//6
f 7//7 5//7 8//7
f 10//8 9//8 8//8
f 11//9 10//9 8//9
f 12//10 13//10 11//10
f 11//11 8//11 12//11
f 14//12 13//12 12//12
f 15//13 16//13 14//13
f 14//14 12//14 15//14
f 17//15 16//15 15//15
f 18//16 17//16 15//16
f 19//17 20//17 18//17
f 18//18 15//18 19//18
f 21//19 20//19 19//19
f 22//20 23//20 21//20
f 21//21 19//21 22//21
f 24//22 23//22 22//22
f 25//23 24//23 22//23
f 26//24 27//24 25//24
f 25//25 22//25 26//25
f 28//26 27//26 26//26
f 29//27 30//27 28//27
f 28//28 26//28 29//28
f 31//29 30//29 29//29
f 32//30 31//30 29//30
f 33//31 34//31 32//31
f 32//32 29//32 33//32
f 35//33 34//33 33//33
f 36//34 37//34 35//34
f 35//35 33//35 36//35
f 38//36 37//36 36//36
f 39//37 38//37 36//37
f 40//38 41//38 39//38
f 39//39 36//39 40//39
f 42//40 41//40 40//40
f 3//41 2//41 42//41
f 42//42 40//42 3//42
f 43//43 31//43 44//43
f 45//44 46//44 47//44
f 48//45 49//45 50//45
f 47//46 50//46 51//46
f 48//47 50//47 47//47
f 46//48 48//48 47//48
f 52//49 53//49 54//49
f 52//50 55//50 53//50
f 55//51 52//51 56//51
f 57//52 55//52 56//52
f 58//53 59//53 60//53
f 59//54 61//54 60//54
f 59//55 62//55 61//55
f 62//56 63//56 61//56
f 64//57 63//57 65//57
f 66//58 67//58 68//58
f 68//59 64//59 69//59
f 67//60 64//60 68//60
f 64//61 67//61 63//61
f 61//62 63//62 70//62
f 63//63 67//63 70//63
f 71//64 60//64 70//64
f 60//65 61//65 70//65
f 60//66 71//66 72//66
f 71//67 73//67 72//67
f 74//68 58//68 72//68
f 58//69 60//69 72//69
f 75//70 76//70 74//70
f 76//71 58//71 74//71
f 76//72 75//72 77//72
f 75//73 78//73 77//73
f 78//74 75//74 79//74
f 75//75 80//75 79//75
f 74//76 81//76 75//76
f 81//77 80//77 75//77
f 72//78 82//78 74//78
f 82//79 81//79 74//79
f 83//80 84//80 85//80
f 86//81 85//81 87//81
f 83//82 85//82 86//82
f 81//83 82//83 86//83
f 82//84 83//84 86//84
f 87//85 80//85 86//85
f 80//86 81//86 86//86
f 80//87 87//87 79//87
f 87//88 88//88 79//88
f 85//89 88//89 87//89
f 88//90 85//90 89//90
f 90//91 85//91 91//91
f 89//92 85//92 90//92
f 92//93 89//93 93//93
f 89//94 90//94 93//94
f 88//95 89//95 79//95
f 89//96 92//96 79//96
f 94//97 78//97 92//97
f 78//98 79//98 92//98
f 95//99 77//99 94//99
f 77//100 78//100 94//100
f 77//101 95//101 96//101
f 95//102 97//102 96//102
f 77//103 96//103 76//103
f 96//104 98//104 76//104
f 59//105 58//105 98//105
f 58//106 76//106 98//106
f 59//107 98//107 62//107
f 98//108 99//108 62//108
f 96//109 100//109 98//109
f 100//110 99//110 98//110
f 97//111 55//111 96//111
f 55//112 100//112 96//112
f 57//113 100//113 55//113
f 101//114 57//114 102//114
f 100//115 57//115 101//115
f 39//116 103//116 104//116
f 101//117 105//117 106//117
f 105//118 107//118 106//118
f 107//119 104//119 106//119
f 104//120 103//120 106//120
f 103//121 108//121 106//121
f 108//122 109//122 106//122
f 100//123 101//123 106//123
f 109//124 100//124 106//124
f 99//125 100//125 109//125
f 108//126 99//126 109//126
f 99//127 108//127 110//127
f 62//128 99//128 110//128
f 111//129 62//129 110//129
f 6//130 112//130 113//130
f 6//131 113//131 4//131
f 113//132 114//132 4//132
f 115//133 4//133 114//133
f 4//134 115//134 1//134
f 115//135 116//135 1//135
f 116//136 117//136 1//136
f 116//137 111//137 117//137
f 62//138 111//138 116//138
f 118//139 62//139 116//139
f 62//140 118//140 63//140
f 63//141 118//141 65//141
f 116//142 115//142 118//142
f 115//143 114//143 118//143
f 114//144 113//144 118//144
f 113//145 112//145 118//145
f 112//146 64//146 118//146
f 64//147 65//147 118//147
f 69//148 64//148 7//148
f 64//149 112//149 7//149
f 6//150 7//150 112//150
f 119//151 120//151 121//151
f 122//152 13//152 123//152
f 14//153 124//153 13//153
f 124//154 123//154 13//154
f 14//155 125//155 124//155
f 126//156 127//156 128//156
f 127//157 129//157 130//157
f 127//158 130//158 128//158
f 128//159 130//159 131//159
f 131//160 130//160 16//160
f 130//161 125//161 16//161
f 14//162 16//162 125//162
f 132//163 23//163 133//163
f 21//164 23//164 134//164
f 23//165 132//165 134//165
f 21//166 134//166 135//166
f 135//167 121//167 20//167
f 121//168 136//168 20//168
f 21//169 135//169 20//169
f 131//170 16//170 128//170
f 20//171 136//171 18//171
f 136//172 126//172 18//172
f 18//173 126//173 17//173
f 126//174 128//174 17//174
f 17//175 128//175 16//175
f 121//176 126//176 136//176
f 120//177 126//177 121//177
f 126//178 120//178 127//178
f 137//179 138//179 139//179
f 138//180 140//180 139//180
f 139//181 140//181 141//181
f 140//182 142//182 141//182
f 143//183 141//183 144//183
f 141//184 145//184 144//184
f 146//185 139//185 143//185
f 139//185 141//185 143//185
f 139//186 146//186 137//186
f 146//187 147//187 137//187
f 146//188 148//188 147//188
f 148//189 149//189 147//189
f 143//190 150//190 146//190
f 150//191 148//191 146//191
f 144//192 151//192 143//192
f 151//193 150//193 143//193
f 152//194 151//194 153//194
f 151//195 144//195 153//195
f 154//196 155//196 156//196
f 155//197 157//197 156//197
f 158//198 159//198 154//198
f 159//199 155//199 154//199
f 160//200 161//200 158//200
f 161//201 159//201 158//201
f 162//202 163//202 160//202
f 163//203 161//203 160//203
f 151//204 152//204 160//204
f 152//205 162//205 160//205
f 158//206 150//206 160//206
f 150//207 151//207 160//207
f 154//208 148//208 158//208
f 148//209 150//209 158//209
f 156//210 149//210 154//210
f 149//211 148//211 154//211
f 120//212 149//212 127//212
f 149//213 156//213 127//213
f 157//214 164//214 156//214
f 164//215 127//215 156//215
f 129//216 127//216 164//216
f 165//217 164//217 166//217
f 129//218 164//218 165//218
f 166//219 122//219 165//219
f 122//220 123//220 165//220
f 123//221 124//221 165//221
f 124//222 125//222 165//222
f 125//223 130//223 165//223
f 130//224 129//224 165//224
f 122//225 166//225 11//225
f 166//226 167//226 11//226
f 13//227 122//227 11//227
f 66//228 68//228 167//228
f 7//229 9//229 69//229
f 9//229 10//229 69//229
f 10//230 11//230 69//230
f 11//142 167//142 69//142
f 167//231 68//231 69//231
f 166//232 66//232 167//232
f 67//233 66//233 166//233
f 164//234 67//234 166//234
f 157//235 70//235 164//235
f 70//236 67//236 164//236
f 155//237 71//237 157//237
f 71//238 70//238 157//238
f 159//239 73//239 155//239
f 73//240 71//240 155//240
f 161//241 168//241 159//241
f 168//242 73//242 159//242
f 72//243 73//243 82//243
f 73//244 168//244 82//244
f 84//245 83//245 168//245
f 83//246 82//246 168//246
f 161//247 163//247 168//247
f 163//248 84//248 168//248
f 85//249 84//249 163//249
f 162//250 85//250 163//250
f 152//251 85//251 162//251
f 153//252 85//252 152//252
f 91//253 85//253 153//253
f 144//254 145//254 153//254
f 145//255 91//255 153//255
f 90//256 91//256 93//256
f 91//257 145//257 93//257
f 141//258 142//258 145//258
f 142//259 93//259 145//259
f 92//260 93//260 94//260
f 93//261 142//261 94//261
f 140//262 95//262 142//262
f 95//263 94//263 142//263
f 138//264 97//264 140//264
f 97//265 95//265 140//265
f 55//266 97//266 53//266
f 97//267 138//267 53//267
f 137//268 46//268 138//268
f 46//269 53//269 138//269
f 147//270 48//270 137//270
f 48//271 46//271 137//271
f 149//272 120//272 147//272
f 120//273 48//273 147//273
f 119//274 48//274 120//274
f 48//275 119//275 49//275
f 121//276 135//276 119//276
f 135//277 134//277 119//277
f 134//278 132//278 119//278
f 132//279 133//279 119//279
f 133//172 50//172 119//172
f 50//280 49//280 119//280
f 51//281 50//281 24//281
f 50//282 133//282 24//282
f 23//283 24//283 133//283
f 30//284 169//284 170//284
f 30//285 170//285 28//285
f 170//286 171//286 28//286
f 171//287 172//287 28//287
f 47//288 51//288 45//288
f 51//289 24//289 45//289
f 24//290 25//290 45//290
f 25//291 27//291 45//291
f 27//292 28//292 45//292
f 28//293 172//293 45//293
f 171//294 45//294 172//294
f 46//295 45//295 171//295
f 53//296 46//296 171//296
f 53//297 171//297 173//297
f 53//298 173//298 54//298
f 171//299 170//299 173//299
f 170//300 169//300 173//300
f 169//301 43//301 173//301
f 43//302 44//302 173//302
f 44//303 52//303 173//303
f 52//304 54//304 173//304
f 30//305 31//305 169//305
f 31//306 43//306 169//306
f 31//307 32//307 44//307
f 174//308 52//308 32//308
f 52//309 44//309 32//309
f 56//310 52//310 174//310
f 32//311 34//311 174//311
f 34//312 35//312 174//312
f 35//313 37//313 174//313
f 37//314 102//314 174//314
f 102//315 57//315 174//315
f 57//230 56//230 174//230
f 105//316 101//316 37//316
f 101//317 102//317 37//317
f 38//318 105//318 37//318
f 105//319 38//319 107//319
f 39//320 104//320 38//320
f 104//321 107//321 38//321
f 39//322 41//322 103//322
f 175//323 108//323 41//323
f 108//324 103//324 41//324
f 110//325 108//325 175//325
f 41//326 42//326 175//326
f 42//327 2//327 175//327
f 2//328 1//328 175//328
f 1//329 117//329 175//329
f 117//330 111//330 175//330
f 111//331 110//331 175//331
f 176//332 177//332 5//332
f 177//333 8//333 5//333
f 5//334 3//334 176//334
f 3//334 178//334 176//334
f 179//335 178//335 40//335
f 178//336 3//336 40//336
f 40//337 36//337 179//337
f 36//338 180//338 179//338
f 33//339 181//339 36//339
f 181//340 180//340 36//340
f 181//341 33//341 182//341
f 33//342 29//342 182//342
f 29//343 26//343 182//343
f 26//344 183//344 182//344
f 184//345 183//345 22//345
f 183//345 26//345 22//345
f 19//346 185//346 22//346
f 185//347 184//347 22//347
f 185//348 19//348 186//348
f 19//349 15//349 186//349
f 12//350 187//350 15//350
f 187//351 186//351 15//351
f 177//352 187//352 8//352
f 187//353 12//353 8//353
f 176//230 178//230 177//230
f 178//230 179//230 177//230
f 179//354 180//354 177//354
f 180//142 181//142 177//142
f 181//355 182//355 177//355
f 182//230 183//230 177//230
f 183//230 184//230 177//230
f 184//230 185//230 177//230
f 185//356 186//356 177//356
f 186//311 187//311 177//311
