# Blender v2.79 (sub 0) OBJ File: ''
# www.blender.org
o BarRight.001
v -0.298014 0.173853 0.544943
v -0.288614 0.213040 0.547059
v -0.279286 0.173761 0.544936
v -0.279290 0.160162 0.698819
v -0.298018 0.160255 0.698822
v -0.288617 0.199526 0.699473
v -0.279268 0.165332 0.845387
v -0.297997 0.165440 0.845393
v -0.288595 0.204651 0.843774
v -0.279241 0.180990 0.975323
v -0.297969 0.181084 0.975330
v -0.288569 0.219868 0.970701
v -0.279194 0.220580 1.101500
v -0.297922 0.220690 1.101500
v -0.288521 0.258168 1.092740
v -0.279143 0.265937 1.168940
v -0.297872 0.266032 1.168940
v -0.288489 0.285783 1.143580
v -0.279043 0.373107 1.163220
v -0.297772 0.373215 1.163230
v -0.288435 0.347435 1.141000
v -0.279041 0.380140 1.094640
v -0.297771 0.380234 1.094640
v -0.288438 0.344550 1.107010
v -0.279108 0.314235 1.054650
v -0.297836 0.314344 1.054660
v -0.288498 0.290020 1.077730
vn -0.0001 0.0539 -0.9985
vn 0.9730 0.2300 0.0203
vn -0.0049 -0.9961 -0.0880
vn -0.9725 0.2322 0.0206
vn 0.9730 0.2307 -0.0083
vn -0.0050 -0.9994 0.0354
vn -0.9725 0.2329 -0.0081
vn 0.9729 0.2296 -0.0279
vn -0.0057 -0.9928 0.1195
vn -0.9723 0.2320 -0.0276
vn 0.9718 0.2247 -0.0709
vn -0.0047 -0.9541 0.2995
vn -0.9713 0.2270 -0.0708
vn 0.9681 0.2075 -0.1403
vn -0.0049 -0.8299 0.5579
vn -0.9694 0.2159 -0.1167
vn 0.9329 -0.0201 -0.3595
vn 0.0003 0.0532 0.9986
vn -0.9341 -0.0141 -0.3566
vn 0.9474 -0.3184 -0.0326
vn 0.0058 0.9948 0.1018
vn -0.9309 -0.3639 0.0310
vn 0.9516 -0.1601 0.2623
vn 0.0026 0.5187 -0.8549
vn -0.9477 -0.1502 0.2817
vn -0.0044 -0.6890 -0.7247
vn 0.9729 0.2302 0.0204
vn -0.0050 -0.9961 -0.0880
vn -0.9724 0.2324 0.0205
vn 0.9730 0.2305 -0.0083
vn -0.0058 -0.9994 0.0353
vn -0.9725 0.2328 -0.0081
vn 0.9728 0.2301 -0.0278
vn -0.0049 -0.9928 0.1196
vn -0.9722 0.2323 -0.0278
vn 0.9719 0.2246 -0.0709
vn -0.0056 -0.9541 0.2994
vn -0.9713 0.2271 -0.0709
vn 0.9535 0.2646 -0.1443
vn -0.0042 -0.8298 0.5581
vn -0.9558 0.2442 -0.1635
vn 0.9276 -0.0164 -0.3731
vn 0.0008 0.0533 0.9986
vn -0.9294 -0.0188 -0.3686
vn 0.9684 -0.2484 0.0210
vn 0.0050 0.9948 0.1020
vn -0.9648 -0.2616 -0.0268
vn 0.9591 -0.1347 0.2489
vn 0.0026 0.5188 -0.8549
vn -0.9607 -0.1433 0.2378
s off
f 1//1 2//1 3//1
f 2//2 4//2 3//2
f 3//3 5//3 1//3
f 1//4 6//4 2//4
f 6//5 7//5 4//5
f 4//6 8//6 5//6
f 5//7 9//7 6//7
f 9//8 10//8 7//8
f 7//9 11//9 8//9
f 8//10 12//10 9//10
f 12//11 13//11 10//11
f 10//12 14//12 11//12
f 11//13 15//13 12//13
f 15//14 16//14 13//14
f 13//15 17//15 14//15
f 14//16 18//16 15//16
f 18//17 19//17 16//17
f 16//18 20//18 17//18
f 17//19 21//19 18//19
f 21//20 22//20 19//20
f 19//21 23//21 20//21
f 20//22 24//22 21//22
f 24//23 25//23 22//23
f 22//24 26//24 23//24
f 23//25 27//25 24//25
f 26//26 25//26 27//26
f 6//27 4//27 2//27
f 4//28 5//28 3//28
f 5//29 6//29 1//29
f 9//30 7//30 6//30
f 7//31 8//31 4//31
f 8//32 9//32 5//32
f 12//33 10//33 9//33
f 10//34 11//34 7//34
f 11//35 12//35 8//35
f 15//36 13//36 12//36
f 13//37 14//37 10//37
f 14//38 15//38 11//38
f 18//39 16//39 15//39
f 16//40 17//40 13//40
f 17//41 18//41 14//41
f 21//42 19//42 18//42
f 19//43 20//43 16//43
f 20//44 21//44 17//44
f 24//45 22//45 21//45
f 22//46 23//46 19//46
f 23//47 24//47 20//47
f 27//48 25//48 24//48
f 25//49 26//49 22//49
f 26//50 27//50 23//50
o BackBar1
v -0.290489 0.199378 0.708279
v 0.288180 0.157307 0.692341
v -0.290512 0.159283 0.692535
v 0.288184 0.158876 0.725764
v -0.290507 0.160851 0.725958
v 0.288202 0.197402 0.708084
vn 0.0009 0.3655 -0.9308
vn -0.0034 -0.9989 0.0469
vn 0.0017 0.4171 0.9089
vn -1.0000 0.0005 0.0001
vn 1.0000 -0.0005 -0.0001
s off
f 28//51 29//51 30//51
f 30//52 31//52 32//52
f 32//53 33//53 28//53
f 32//54 28//54 30//54
f 31//55 29//55 33//55
f 33//51 29//51 28//51
f 29//52 31//52 30//52
f 31//53 33//53 32//53
o BackBar2
v -0.290459 0.214148 0.836721
v 0.288205 0.172076 0.820770
v -0.290487 0.174054 0.820976
v 0.288208 0.173645 0.854193
v -0.290483 0.175621 0.854400
v 0.288232 0.212173 0.836514
vn 0.0009 0.3655 -0.9308
vn -0.0034 -0.9989 0.0468
vn 0.0017 0.4171 0.9089
vn -1.0000 0.0007 0.0001
vn 1.0000 -0.0006 -0.0001
vn -0.0034 -0.9989 0.0469
vn 0.0017 0.4170 0.9089
s off
f 34//56 35//56 36//56
f 36//57 37//57 38//57
f 38//58 39//58 34//58
f 38//59 34//59 36//59
f 37//60 35//60 39//60
f 39//56 35//56 34//56
f 35//61 37//61 36//61
f 37//62 39//62 38//62
o BackBar4
v -0.290384 0.269895 1.092950
v 0.288287 0.227824 1.077000
v -0.290406 0.229800 1.077200
v 0.288290 0.229393 1.110420
v -0.290403 0.231369 1.110630
v 0.288309 0.267905 1.092750
vn 0.0009 0.3656 -0.9308
vn -0.0034 -0.9989 0.0469
vn 0.0017 0.4171 0.9089
vn -1.0000 0.0005 0.0001
vn 1.0000 -0.0005 -0.0001
vn 0.0009 0.3657 -0.9307
vn 0.0018 0.4170 0.9089
s off
f 40//63 41//63 42//63
f 42//64 43//64 44//64
f 44//65 45//65 40//65
f 44//66 40//66 42//66
f 43//67 41//67 45//67
f 45//68 41//68 40//68
f 41//64 43//64 42//64
f 43//69 45//69 44//69
o BackBar3
v -0.290440 0.220183 0.965367
v 0.288222 0.178111 0.949426
v -0.290471 0.180087 0.949622
v 0.288227 0.179680 0.982849
v -0.290467 0.181655 0.983046
v 0.288251 0.218207 0.965170
vn 0.0009 0.3655 -0.9308
vn -0.0034 -0.9989 0.0469
vn 0.0017 0.4170 0.9089
vn -1.0000 0.0007 0.0001
vn 1.0000 -0.0007 -0.0001
vn 0.0017 0.4171 0.9089
s off
f 46//70 47//70 48//70
f 48//71 49//71 50//71
f 50//72 51//72 46//72
f 50//73 46//73 48//73
f 49//74 47//74 51//74
f 51//70 47//70 46//70
f 47//71 49//71 48//71
f 49//75 51//75 50//75
o BarLeft.001
v 0.278706 0.170618 0.544776
v 0.288106 0.209789 0.546893
v 0.297436 0.170510 0.544770
v 0.297434 0.156911 0.698652
v 0.278705 0.157019 0.698657
v 0.288105 0.196290 0.699307
v 0.297455 0.162079 0.845221
v 0.278726 0.162189 0.845227
v 0.288126 0.201415 0.843607
v 0.297483 0.177739 0.975158
v 0.278753 0.177848 0.975164
v 0.288153 0.216631 0.970534
v 0.297528 0.217344 1.101330
v 0.278799 0.217454 1.101340
v 0.288201 0.254917 1.092570
v 0.297580 0.262686 1.168760
v 0.278850 0.262796 1.168760
v 0.288231 0.282532 1.143410
v 0.297679 0.369870 1.163040
v 0.278951 0.369964 1.163050
v 0.288293 0.344184 1.140840
v 0.297681 0.376889 1.094470
v 0.278952 0.376998 1.094470
v 0.288285 0.341299 1.106840
v 0.297614 0.310998 1.054490
v 0.278885 0.311107 1.054490
v 0.288231 0.286767 1.077560
vn -0.0000 0.0540 -0.9985
vn 0.9730 0.2300 0.0203
vn -0.0058 -0.9961 -0.0880
vn -0.9724 0.2322 0.0206
vn 0.9730 0.2306 -0.0083
vn -0.0058 -0.9994 0.0353
vn -0.9725 0.2329 -0.0081
vn 0.9729 0.2296 -0.0279
vn -0.0058 -0.9928 0.1196
vn -0.9724 0.2319 -0.0276
vn 0.9718 0.2247 -0.0709
vn -0.0055 -0.9541 0.2995
vn -0.9713 0.2270 -0.0708
vn 0.9681 0.2076 -0.1403
vn -0.0046 -0.8298 0.5581
vn -0.9694 0.2160 -0.1167
vn 0.9328 -0.0201 -0.3597
vn 0.0003 0.0532 0.9986
vn -0.9342 -0.0139 -0.3565
vn 0.9475 -0.3181 -0.0325
vn 0.0050 0.9948 0.1020
vn -0.9308 -0.3641 0.0311
vn 0.9516 -0.1601 0.2622
vn 0.0030 0.5187 -0.8549
vn -0.9477 -0.1502 0.2815
vn -0.0040 -0.6887 -0.7250
vn 0.9729 0.2302 0.0204
vn -0.9724 0.2324 0.0205
vn 0.9731 0.2304 -0.0083
vn -0.0059 -0.9994 0.0352
vn -0.9725 0.2327 -0.0081
vn 0.9728 0.2301 -0.0278
vn -0.0057 -0.9928 0.1197
vn -0.9722 0.2323 -0.0278
vn -0.0054 -0.9541 0.2995
vn -0.9713 0.2272 -0.0709
vn 0.9535 0.2647 -0.1444
vn -0.0049 -0.8298 0.5580
vn -0.9558 0.2443 -0.1635
vn 0.9276 -0.0165 -0.3731
vn 0.0008 0.0533 0.9986
vn -0.9292 -0.0188 -0.3690
vn 0.9684 -0.2484 0.0209
vn 0.0058 0.9948 0.1018
vn -0.9648 -0.2615 -0.0268
vn 0.9592 -0.1345 0.2488
vn -0.9606 -0.1434 0.2379
s off
f 52//76 53//76 54//76
f 53//77 55//77 54//77
f 54//78 56//78 52//78
f 52//79 57//79 53//79
f 57//80 58//80 55//80
f 55//81 59//81 56//81
f 56//82 60//82 57//82
f 60//83 61//83 58//83
f 58//84 62//84 59//84
f 59//85 63//85 60//85
f 63//86 64//86 61//86
f 61//87 65//87 62//87
f 62//88 66//88 63//88
f 66//89 67//89 64//89
f 64//90 68//90 65//90
f 65//91 69//91 66//91
f 69//92 70//92 67//92
f 67//93 71//93 68//93
f 68//94 72//94 69//94
f 72//95 73//95 70//95
f 70//96 74//96 71//96
f 71//97 75//97 72//97
f 75//98 76//98 73//98
f 73//99 77//99 74//99
f 74//100 78//100 75//100
f 77//101 76//101 78//101
f 57//102 55//102 53//102
f 55//78 56//78 54//78
f 56//103 57//103 52//103
f 60//104 58//104 57//104
f 58//105 59//105 55//105
f 59//106 60//106 56//106
f 63//107 61//107 60//107
f 61//108 62//108 58//108
f 62//109 63//109 59//109
f 66//86 64//86 63//86
f 64//110 65//110 61//110
f 65//111 66//111 62//111
f 69//112 67//112 66//112
f 67//113 68//113 64//113
f 68//114 69//114 65//114
f 72//115 70//115 69//115
f 70//116 71//116 67//116
f 71//117 72//117 68//117
f 75//118 73//118 72//118
f 73//119 74//119 70//119
f 74//120 75//120 71//120
f 78//121 76//121 75//121
f 76//99 77//99 73//99
f 77//122 78//122 74//122
o BackBar5
v -0.290322 0.325311 1.155980
v 0.288341 0.283241 1.140040
v -0.290352 0.285232 1.140230
v 0.288346 0.284808 1.173460
v -0.290347 0.286799 1.173660
v 0.288370 0.323336 1.155790
vn 0.0010 0.3657 -0.9307
vn -0.0034 -0.9989 0.0468
vn 0.0017 0.4172 0.9088
vn -1.0000 0.0007 0.0001
vn 1.0000 -0.0007 -0.0001
vn 0.0009 0.3656 -0.9308
vn 0.0017 0.4169 0.9090
s off
f 79//123 80//123 81//123
f 81//124 82//124 83//124
f 83//125 84//125 79//125
f 83//126 79//126 81//126
f 82//127 80//127 84//127
f 84//128 80//128 79//128
f 80//124 82//124 81//124
f 82//129 84//129 83//129
