# Blender v2.79 (sub 0) OBJ File: ''
# www.blender.org
o LegFrontLeft.001
v 0.287517 -0.364017 -0.009766
v 0.296939 -0.309089 0.066268
v 0.296867 -0.383227 0.025134
v 0.278211 -0.308981 0.066273
v 0.278137 -0.383132 0.025144
v 0.287603 -0.278836 0.040667
v 0.296981 -0.273536 0.157880
v 0.278251 -0.273429 0.157888
v 0.287656 -0.235072 0.149358
v 0.297003 -0.261156 0.294528
v 0.278275 -0.261047 0.294536
v 0.287676 -0.221866 0.291842
v 0.297017 -0.254510 0.442142
v 0.278288 -0.254401 0.442149
v 0.287694 -0.215418 0.437270
v 0.297064 -0.221288 0.621277
v 0.278335 -0.221193 0.621285
v 0.287733 -0.182598 0.613919
vn 0.9735 0.1101 -0.2002
vn -0.0020 -0.4850 0.8745
vn -0.9733 0.1177 -0.1971
vn 0.9704 0.2251 -0.0878
vn -0.0053 -0.9323 0.3618
vn -0.9700 0.2255 -0.0903
vn 0.9727 0.2311 -0.0211
vn -0.0057 -0.9959 0.0902
vn -0.9721 0.2336 -0.0215
vn 0.9731 0.2303 -0.0105
vn -0.0058 -0.9990 0.0450
vn -0.9725 0.2326 -0.0102
vn 0.9730 0.2268 -0.0423
vn -0.0057 -0.9832 0.1823
vn -0.9724 0.2293 -0.0424
vn -0.0047 -0.8766 -0.4812
vn 0.0014 0.1871 0.9823
vn 0.9702 0.1227 -0.2089
vn -0.0026 -0.4852 0.8744
vn -0.9694 0.1199 -0.2144
vn 0.9724 0.2163 -0.0876
vn -0.0052 -0.9322 0.3618
vn -0.9719 0.2195 -0.0847
vn 0.9731 0.2295 -0.0214
vn -0.0058 -0.9959 0.0902
vn -0.9725 0.2319 -0.0208
vn 0.9730 0.2307 -0.0104
vn -0.9723 0.2333 -0.0104
vn 0.9731 0.2266 -0.0423
vn -0.0049 -0.9832 0.1823
vn -0.9726 0.2288 -0.0422
s off
f 1//1 2//1 3//1
f 3//2 4//2 5//2
f 5//3 6//3 1//3
f 6//4 7//4 2//4
f 2//5 8//5 4//5
f 4//6 9//6 6//6
f 9//7 10//7 7//7
f 7//8 11//8 8//8
f 8//9 12//9 9//9
f 12//10 13//10 10//10
f 10//11 14//11 11//11
f 11//12 15//12 12//12
f 15//13 16//13 13//13
f 13//14 17//14 14//14
f 14//15 18//15 15//15
f 5//16 1//16 3//16
f 17//17 16//17 18//17
f 6//18 2//18 1//18
f 2//19 4//19 3//19
f 4//20 6//20 5//20
f 9//21 7//21 6//21
f 7//22 8//22 2//22
f 8//23 9//23 4//23
f 12//24 10//24 9//24
f 10//25 11//25 7//25
f 11//26 12//26 8//26
f 15//27 13//27 12//27
f 13//11 14//11 10//11
f 14//28 15//28 11//28
f 18//29 16//29 15//29
f 16//30 17//30 13//30
f 17//31 18//31 14//31
