# Blender v2.79 (sub 0) OBJ File: ''
# www.blender.org
o SeatBar2
v -0.290636 0.054629 0.611514
v 0.288032 0.016380 0.583603
v -0.290660 0.018365 0.583676
v 0.288029 0.010821 0.629425
v -0.290659 0.012805 0.629497
v 0.288056 0.052630 0.611444
vn 0.0020 0.6089 -0.7932
vn -0.0034 -0.9927 -0.1205
vn 0.0015 0.3950 0.9187
vn -1.0000 0.0006 0.0001
vn 1.0000 -0.0007 -0.0000
vn 0.0020 0.6091 -0.7931
vn -0.0034 -0.9927 -0.1204
vn 0.0015 0.3951 0.9186
s off
f 1//1 2//1 3//1
f 3//2 4//2 5//2
f 5//3 6//3 1//3
f 5//4 1//4 3//4
f 4//5 2//5 6//5
f 6//6 2//6 1//6
f 2//7 4//7 3//7
f 4//8 6//8 5//8
o SeatBar6
v -0.290940 -0.260010 0.616872
v 0.287736 -0.298257 0.588959
v -0.290957 -0.296274 0.589032
v 0.287730 -0.303816 0.634782
v -0.290961 -0.301817 0.634854
v 0.287752 -0.262009 0.616800
vn 0.0020 0.6089 -0.7932
vn -0.0034 -0.9928 -0.1201
vn 0.0015 0.3951 0.9186
vn -1.0000 0.0005 -0.0000
vn 1.0000 -0.0005 0.0001
vn 0.0020 0.6091 -0.7931
vn -0.0034 -0.9927 -0.1204
s off
f 7//9 8//9 9//9
f 9//10 10//10 11//10
f 11//11 12//11 7//11
f 11//12 7//12 9//12
f 10//13 8//13 12//13
f 12//14 8//14 7//14
f 8//15 10//15 9//15
f 10//11 12//11 11//11
o SeatBar4
v -0.290801 -0.120071 0.617449
v 0.287868 -0.158319 0.589538
v -0.290826 -0.156335 0.589610
v 0.287863 -0.163877 0.635360
v -0.290829 -0.161879 0.635431
v 0.287892 -0.122070 0.617378
vn 0.0020 0.6089 -0.7932
vn -0.0034 -0.9928 -0.1201
vn 0.0015 0.3951 0.9186
vn -1.0000 0.0007 0.0000
vn 1.0000 -0.0007 0.0000
vn 0.0020 0.6091 -0.7931
vn -0.0034 -0.9927 -0.1204
s off
f 13//16 14//16 15//16
f 15//17 16//17 17//17
f 17//18 18//18 13//18
f 17//19 13//19 15//19
f 16//20 14//20 18//20
f 18//21 14//21 13//21
f 14//22 16//22 15//22
f 16//18 18//18 17//18
o SeatBar7
v -0.290983 -0.306727 0.580488
v 0.287679 -0.351655 0.564918
v -0.291013 -0.349657 0.565385
v 0.287691 -0.343015 0.610257
v -0.291000 -0.341003 0.610725
v 0.287705 -0.308724 0.580006
vn 0.0004 0.3319 -0.9433
vn -0.0033 -0.9823 0.1875
vn 0.0029 0.6615 0.7499
vn -1.0000 0.0006 0.0002
vn 1.0000 -0.0006 -0.0002
vn 0.0004 0.3316 -0.9434
vn -0.0032 -0.9823 0.1872
s off
f 19//23 20//23 21//23
f 21//24 22//24 23//24
f 23//25 24//25 19//25
f 23//26 19//26 21//26
f 22//27 20//27 24//27
f 24//28 20//28 19//28
f 20//29 22//29 21//29
f 22//25 24//25 23//25
o SeatBar3
v -0.290722 -0.032729 0.614482
v 0.287947 -0.070976 0.586570
v -0.290739 -0.068994 0.586643
v 0.287950 -0.076521 0.632392
v -0.290743 -0.074537 0.632465
v 0.287971 -0.034713 0.614409
vn 0.0020 0.6089 -0.7932
vn -0.0034 -0.9928 -0.1201
vn 0.0015 0.3951 0.9186
vn -1.0000 0.0005 -0.0000
vn 1.0000 -0.0006 -0.0001
s off
f 25//30 26//30 27//30
f 27//31 28//31 29//31
f 29//32 30//32 25//32
f 29//33 25//33 27//33
f 28//34 26//34 30//34
f 30//30 26//30 25//30
f 26//31 28//31 27//31
f 28//32 30//32 29//32
o SeatBar1
v -0.290553 0.142996 0.623475
v 0.288119 0.106211 0.593746
v -0.290573 0.108207 0.593741
v 0.288114 0.098307 0.639206
v -0.290578 0.100304 0.639202
v 0.288139 0.141000 0.623479
vn 0.0022 0.6497 -0.7602
vn -0.0034 -0.9852 -0.1713
vn 0.0012 0.3457 0.9384
vn -1.0000 0.0006 -0.0000
vn 1.0000 -0.0006 0.0000
s off
f 31//35 32//35 33//35
f 33//36 34//36 35//36
f 35//37 36//37 31//37
f 35//38 31//38 33//38
f 34//39 32//39 36//39
f 36//35 32//35 31//35
f 32//36 34//36 33//36
f 34//37 36//37 35//37
o SeatbarLeft
v 0.287637 -0.277568 0.545350
v 0.296930 -0.353088 0.559246
v 0.296977 -0.302624 0.514444
v 0.278202 -0.352996 0.559254
v 0.278249 -0.302515 0.514451
v 0.287602 -0.315757 0.572032
v 0.296953 -0.332209 0.627132
v 0.278231 -0.332102 0.627140
v 0.287615 -0.309229 0.594665
v 0.297044 -0.241036 0.649435
v 0.278315 -0.240928 0.649440
v 0.287680 -0.241518 0.609461
v 0.297187 -0.093193 0.626614
v 0.278457 -0.093086 0.626622
v 0.287818 -0.095911 0.586733
v 0.297337 0.063839 0.627663
v 0.278609 0.063949 0.627671
v 0.287973 0.067127 0.587820
v 0.297436 0.161567 0.648310
v 0.278705 0.161676 0.648319
v 0.288071 0.169541 0.609162
vn 0.9735 0.1513 0.1715
vn -0.0041 -0.6638 -0.7479
vn -0.9731 0.1326 0.1886
vn 0.9598 0.2682 -0.0828
vn -0.0046 -0.9557 0.2942
vn -0.9601 0.2688 -0.0770
vn 0.9695 0.0573 -0.2383
vn -0.0009 -0.2376 0.9714
vn -0.9688 0.0538 -0.2420
vn 0.9731 -0.0361 -0.2275
vn 0.0011 0.1525 0.9883
vn -0.9732 -0.0346 -0.2275
vn 0.9735 0.0006 -0.2287
vn 0.0004 -0.0067 1.0000
vn -0.9735 0.0024 -0.2286
vn 0.9733 0.0465 -0.2249
vn -0.0008 -0.2067 0.9784
vn -0.9732 0.0478 -0.2249
vn 0.0043 0.7774 -0.6290
vn 0.0058 0.9801 0.1983
vn 0.9596 0.1606 0.2311
vn -0.0036 -0.6639 -0.7478
vn -0.9645 0.1758 0.1971
vn 0.9578 0.2760 -0.0801
vn -0.0053 -0.9558 0.2940
vn -0.9581 0.2739 -0.0839
vn 0.9723 0.0490 -0.2284
vn -0.0011 -0.2376 0.9714
vn -0.9719 0.0568 -0.2285
vn 0.9734 -0.0362 -0.2262
vn 0.0013 0.1526 0.9883
vn -0.9735 -0.0340 -0.2261
vn -0.9735 0.0025 -0.2286
vn 0.9736 0.0457 -0.2236
vn -0.0007 -0.2067 0.9784
vn -0.9736 0.0481 -0.2232
s off
f 37//40 38//40 39//40
f 39//41 40//41 41//41
f 41//42 42//42 37//42
f 42//43 43//43 38//43
f 38//44 44//44 40//44
f 40//45 45//45 42//45
f 45//46 46//46 43//46
f 43//47 47//47 44//47
f 44//48 48//48 45//48
f 48//49 49//49 46//49
f 46//50 50//50 47//50
f 47//51 51//51 48//51
f 51//52 52//52 49//52
f 49//53 53//53 50//53
f 50//54 54//54 51//54
f 54//55 55//55 52//55
f 52//56 56//56 53//56
f 53//57 57//57 54//57
f 41//58 37//58 39//58
f 56//59 55//59 57//59
f 42//60 38//60 37//60
f 38//61 40//61 39//61
f 40//62 42//62 41//62
f 45//63 43//63 42//63
f 43//64 44//64 38//64
f 44//65 45//65 40//65
f 48//66 46//66 45//66
f 46//67 47//67 43//67
f 47//68 48//68 44//68
f 51//69 49//69 48//69
f 49//70 50//70 46//70
f 50//71 51//71 47//71
f 54//52 52//52 51//52
f 52//53 53//53 49//53
f 53//72 54//72 50//72
f 57//73 55//73 54//73
f 55//74 56//74 52//74
f 56//75 57//75 53//75
o SeatbarRight
v -0.289083 -0.274332 0.545577
v -0.279793 -0.349854 0.559474
v -0.279746 -0.299372 0.514670
v -0.298521 -0.349744 0.559481
v -0.298475 -0.299265 0.514677
v -0.289120 -0.312524 0.572259
v -0.279762 -0.328959 0.627359
v -0.298491 -0.328850 0.627366
v -0.289108 -0.305995 0.594892
v -0.279679 -0.237788 0.649660
v -0.298408 -0.237678 0.649667
v -0.289040 -0.238283 0.609688
v -0.279536 -0.089944 0.626841
v -0.298264 -0.089834 0.626849
v -0.288906 -0.092676 0.586959
v -0.279385 0.067090 0.627891
v -0.298114 0.067183 0.627898
v -0.288749 0.070361 0.588047
v -0.279293 0.164804 0.648539
v -0.298022 0.164912 0.648544
v -0.288651 0.172792 0.609388
vn 0.9735 0.1513 0.1715
vn -0.0041 -0.6638 -0.7479
vn -0.9730 0.1327 0.1886
vn 0.9598 0.2682 -0.0830
vn -0.0055 -0.9557 0.2942
vn -0.9601 0.2690 -0.0771
vn 0.9695 0.0574 -0.2384
vn -0.0010 -0.2376 0.9714
vn -0.9688 0.0539 -0.2420
vn 0.9731 -0.0360 -0.2274
vn 0.0013 0.1525 0.9883
vn -0.9732 -0.0346 -0.2275
vn 0.9735 0.0006 -0.2288
vn 0.0004 -0.0067 1.0000
vn -0.9735 0.0025 -0.2286
vn 0.9733 0.0466 -0.2249
vn -0.0007 -0.2067 0.9784
vn -0.9732 0.0478 -0.2249
vn 0.0042 0.7776 -0.6287
vn 0.0057 0.9801 0.1986
vn 0.9596 0.1606 0.2312
vn -0.0042 -0.6638 -0.7479
vn -0.9645 0.1759 0.1972
vn 0.9577 0.2763 -0.0802
vn -0.9580 0.2741 -0.0839
vn 0.9724 0.0489 -0.2283
vn -0.9719 0.0568 -0.2286
vn 0.9734 -0.0362 -0.2262
vn -0.9735 -0.0339 -0.2260
vn 0.9735 0.0006 -0.2287
vn 0.0003 -0.0067 1.0000
vn 0.9737 0.0456 -0.2234
vn -0.0009 -0.2067 0.9784
vn -0.9736 0.0481 -0.2233
s off
f 58//76 59//76 60//76
f 60//77 61//77 62//77
f 62//78 63//78 58//78
f 63//79 64//79 59//79
f 59//80 65//80 61//80
f 61//81 66//81 63//81
f 66//82 67//82 64//82
f 64//83 68//83 65//83
f 65//84 69//84 66//84
f 69//85 70//85 67//85
f 67//86 71//86 68//86
f 68//87 72//87 69//87
f 72//88 73//88 70//88
f 70//89 74//89 71//89
f 71//90 75//90 72//90
f 75//91 76//91 73//91
f 73//92 77//92 74//92
f 74//93 78//93 75//93
f 62//94 58//94 60//94
f 77//95 76//95 78//95
f 63//96 59//96 58//96
f 59//97 61//97 60//97
f 61//98 63//98 62//98
f 66//99 64//99 63//99
f 64//80 65//80 59//80
f 65//100 66//100 61//100
f 69//101 67//101 66//101
f 67//83 68//83 64//83
f 68//102 69//102 65//102
f 72//103 70//103 69//103
f 70//86 71//86 67//86
f 71//104 72//104 68//104
f 75//105 73//105 72//105
f 73//106 74//106 70//106
f 74//90 75//90 71//90
f 78//107 76//107 75//107
f 76//108 77//108 73//108
f 77//109 78//109 74//109
o SeatBar5
v -0.290885 -0.207187 0.627525
v 0.287782 -0.245436 0.599613
v -0.290909 -0.243437 0.599684
v 0.287777 -0.250979 0.645434
v -0.290908 -0.248995 0.645508
v 0.287806 -0.209171 0.627452
vn 0.0020 0.6091 -0.7931
vn -0.0034 -0.9927 -0.1204
vn 0.0015 0.3951 0.9186
vn -1.0000 0.0006 0.0001
vn 1.0000 -0.0007 0.0000
vn 0.0020 0.6089 -0.7932
vn -0.0034 -0.9928 -0.1201
s off
f 79//110 80//110 81//110
f 81//111 82//111 83//111
f 83//112 84//112 79//112
f 83//113 79//113 81//113
f 82//114 80//114 84//114
f 84//115 80//115 79//115
f 80//116 82//116 81//116
f 82//112 84//112 83//112
